G04 EAGLE Gerber RS-274X export*
G75*
%MOMM*%
%FSLAX34Y34*%
%LPD*%
%INBottom Copper*%
%IPPOS*%
%AMOC8*
5,1,8,0,0,1.08239X$1,22.5*%
G01*
G04 Define Apertures*
%ADD10R,1.270000X2.540000*%
%ADD11C,0.756400*%
%ADD12C,0.152400*%
G36*
X190260Y59040D02*
X190108Y57304D01*
X189657Y55620D01*
X188920Y54040D01*
X187920Y52612D01*
X186688Y51380D01*
X185260Y50380D01*
X183680Y49643D01*
X181996Y49192D01*
X180260Y49040D01*
X120260Y49040D01*
X118524Y49192D01*
X116840Y49643D01*
X115260Y50380D01*
X113832Y51380D01*
X112600Y52612D01*
X111600Y54040D01*
X110863Y55620D01*
X110412Y57304D01*
X110260Y59040D01*
X110260Y89040D01*
X190260Y89040D01*
X190260Y59040D01*
G37*
G36*
X190260Y59040D02*
X190108Y57304D01*
X189657Y55620D01*
X188920Y54040D01*
X187920Y52612D01*
X186688Y51380D01*
X185260Y50380D01*
X183680Y49643D01*
X181996Y49192D01*
X180260Y49040D01*
X120260Y49040D01*
X118524Y49192D01*
X116840Y49643D01*
X115260Y50380D01*
X113832Y51380D01*
X112600Y52612D01*
X111600Y54040D01*
X110863Y55620D01*
X110412Y57304D01*
X110260Y59040D01*
X110260Y89040D01*
X190260Y89040D01*
X190260Y59040D01*
G37*
G36*
X190260Y214040D02*
X190260Y184040D01*
X110260Y184040D01*
X110260Y214040D01*
X110412Y215776D01*
X110863Y217460D01*
X111600Y219040D01*
X112600Y220468D01*
X113832Y221700D01*
X115260Y222700D01*
X116840Y223437D01*
X118524Y223888D01*
X120260Y224040D01*
X180260Y224040D01*
X181996Y223888D01*
X183680Y223437D01*
X185260Y222700D01*
X186688Y221700D01*
X187920Y220468D01*
X188920Y219040D01*
X189657Y217460D01*
X190108Y215776D01*
X190260Y214040D01*
G37*
G36*
X190260Y214040D02*
X190260Y184040D01*
X110260Y184040D01*
X110260Y214040D01*
X110412Y215776D01*
X110863Y217460D01*
X111600Y219040D01*
X112600Y220468D01*
X113832Y221700D01*
X115260Y222700D01*
X116840Y223437D01*
X118524Y223888D01*
X120260Y224040D01*
X180260Y224040D01*
X181996Y223888D01*
X183680Y223437D01*
X185260Y222700D01*
X186688Y221700D01*
X187920Y220468D01*
X188920Y219040D01*
X189657Y217460D01*
X190108Y215776D01*
X190260Y214040D01*
G37*
G36*
X190260Y249040D02*
X190108Y247304D01*
X189657Y245620D01*
X188920Y244040D01*
X187920Y242612D01*
X186688Y241380D01*
X185260Y240380D01*
X183680Y239643D01*
X181996Y239192D01*
X180260Y239040D01*
X120260Y239040D01*
X118524Y239192D01*
X116840Y239643D01*
X115260Y240380D01*
X113832Y241380D01*
X112600Y242612D01*
X111600Y244040D01*
X110863Y245620D01*
X110412Y247304D01*
X110260Y249040D01*
X110260Y279040D01*
X190260Y279040D01*
X190260Y249040D01*
G37*
G36*
X190260Y249040D02*
X190108Y247304D01*
X189657Y245620D01*
X188920Y244040D01*
X187920Y242612D01*
X186688Y241380D01*
X185260Y240380D01*
X183680Y239643D01*
X181996Y239192D01*
X180260Y239040D01*
X120260Y239040D01*
X118524Y239192D01*
X116840Y239643D01*
X115260Y240380D01*
X113832Y241380D01*
X112600Y242612D01*
X111600Y244040D01*
X110863Y245620D01*
X110412Y247304D01*
X110260Y249040D01*
X110260Y279040D01*
X190260Y279040D01*
X190260Y249040D01*
G37*
G36*
X190260Y404040D02*
X190260Y374040D01*
X110260Y374040D01*
X110260Y404040D01*
X110412Y405776D01*
X110863Y407460D01*
X111600Y409040D01*
X112600Y410468D01*
X113832Y411700D01*
X115260Y412700D01*
X116840Y413437D01*
X118524Y413888D01*
X120260Y414040D01*
X180260Y414040D01*
X181996Y413888D01*
X183680Y413437D01*
X185260Y412700D01*
X186688Y411700D01*
X187920Y410468D01*
X188920Y409040D01*
X189657Y407460D01*
X190108Y405776D01*
X190260Y404040D01*
G37*
G36*
X190260Y404040D02*
X190260Y374040D01*
X110260Y374040D01*
X110260Y404040D01*
X110412Y405776D01*
X110863Y407460D01*
X111600Y409040D01*
X112600Y410468D01*
X113832Y411700D01*
X115260Y412700D01*
X116840Y413437D01*
X118524Y413888D01*
X120260Y414040D01*
X180260Y414040D01*
X181996Y413888D01*
X183680Y413437D01*
X185260Y412700D01*
X186688Y411700D01*
X187920Y410468D01*
X188920Y409040D01*
X189657Y407460D01*
X190108Y405776D01*
X190260Y404040D01*
G37*
G36*
X190260Y439040D02*
X190108Y437304D01*
X189657Y435620D01*
X188920Y434040D01*
X187920Y432612D01*
X186688Y431380D01*
X185260Y430380D01*
X183680Y429643D01*
X181996Y429192D01*
X180260Y429040D01*
X120260Y429040D01*
X118524Y429192D01*
X116840Y429643D01*
X115260Y430380D01*
X113832Y431380D01*
X112600Y432612D01*
X111600Y434040D01*
X110863Y435620D01*
X110412Y437304D01*
X110260Y439040D01*
X110260Y469040D01*
X190260Y469040D01*
X190260Y439040D01*
G37*
G36*
X190260Y439040D02*
X190108Y437304D01*
X189657Y435620D01*
X188920Y434040D01*
X187920Y432612D01*
X186688Y431380D01*
X185260Y430380D01*
X183680Y429643D01*
X181996Y429192D01*
X180260Y429040D01*
X120260Y429040D01*
X118524Y429192D01*
X116840Y429643D01*
X115260Y430380D01*
X113832Y431380D01*
X112600Y432612D01*
X111600Y434040D01*
X110863Y435620D01*
X110412Y437304D01*
X110260Y439040D01*
X110260Y469040D01*
X190260Y469040D01*
X190260Y439040D01*
G37*
G36*
X190260Y594040D02*
X190260Y564040D01*
X110260Y564040D01*
X110260Y594040D01*
X110412Y595776D01*
X110863Y597460D01*
X111600Y599040D01*
X112600Y600468D01*
X113832Y601700D01*
X115260Y602700D01*
X116840Y603437D01*
X118524Y603888D01*
X120260Y604040D01*
X180260Y604040D01*
X181996Y603888D01*
X183680Y603437D01*
X185260Y602700D01*
X186688Y601700D01*
X187920Y600468D01*
X188920Y599040D01*
X189657Y597460D01*
X190108Y595776D01*
X190260Y594040D01*
G37*
G36*
X190260Y594040D02*
X190260Y564040D01*
X110260Y564040D01*
X110260Y594040D01*
X110412Y595776D01*
X110863Y597460D01*
X111600Y599040D01*
X112600Y600468D01*
X113832Y601700D01*
X115260Y602700D01*
X116840Y603437D01*
X118524Y603888D01*
X120260Y604040D01*
X180260Y604040D01*
X181996Y603888D01*
X183680Y603437D01*
X185260Y602700D01*
X186688Y601700D01*
X187920Y600468D01*
X188920Y599040D01*
X189657Y597460D01*
X190108Y595776D01*
X190260Y594040D01*
G37*
G36*
X190260Y629040D02*
X190108Y627304D01*
X189657Y625620D01*
X188920Y624040D01*
X187920Y622612D01*
X186688Y621380D01*
X185260Y620380D01*
X183680Y619643D01*
X181996Y619192D01*
X180260Y619040D01*
X120260Y619040D01*
X118524Y619192D01*
X116840Y619643D01*
X115260Y620380D01*
X113832Y621380D01*
X112600Y622612D01*
X111600Y624040D01*
X110863Y625620D01*
X110412Y627304D01*
X110260Y629040D01*
X110260Y659040D01*
X190260Y659040D01*
X190260Y629040D01*
G37*
G36*
X190260Y629040D02*
X190108Y627304D01*
X189657Y625620D01*
X188920Y624040D01*
X187920Y622612D01*
X186688Y621380D01*
X185260Y620380D01*
X183680Y619643D01*
X181996Y619192D01*
X180260Y619040D01*
X120260Y619040D01*
X118524Y619192D01*
X116840Y619643D01*
X115260Y620380D01*
X113832Y621380D01*
X112600Y622612D01*
X111600Y624040D01*
X110863Y625620D01*
X110412Y627304D01*
X110260Y629040D01*
X110260Y659040D01*
X190260Y659040D01*
X190260Y629040D01*
G37*
G36*
X190260Y784040D02*
X190260Y754040D01*
X110260Y754040D01*
X110260Y784040D01*
X110412Y785776D01*
X110863Y787460D01*
X111600Y789040D01*
X112600Y790468D01*
X113832Y791700D01*
X115260Y792700D01*
X116840Y793437D01*
X118524Y793888D01*
X120260Y794040D01*
X180260Y794040D01*
X181996Y793888D01*
X183680Y793437D01*
X185260Y792700D01*
X186688Y791700D01*
X187920Y790468D01*
X188920Y789040D01*
X189657Y787460D01*
X190108Y785776D01*
X190260Y784040D01*
G37*
G36*
X190260Y784040D02*
X190260Y754040D01*
X110260Y754040D01*
X110260Y784040D01*
X110412Y785776D01*
X110863Y787460D01*
X111600Y789040D01*
X112600Y790468D01*
X113832Y791700D01*
X115260Y792700D01*
X116840Y793437D01*
X118524Y793888D01*
X120260Y794040D01*
X180260Y794040D01*
X181996Y793888D01*
X183680Y793437D01*
X185260Y792700D01*
X186688Y791700D01*
X187920Y790468D01*
X188920Y789040D01*
X189657Y787460D01*
X190108Y785776D01*
X190260Y784040D01*
G37*
G36*
X284860Y499040D02*
X284860Y469040D01*
X204860Y469040D01*
X204860Y499040D01*
X205012Y500776D01*
X205463Y502460D01*
X206200Y504040D01*
X207200Y505468D01*
X208432Y506700D01*
X209860Y507700D01*
X211440Y508437D01*
X213124Y508888D01*
X214860Y509040D01*
X274860Y509040D01*
X276596Y508888D01*
X278280Y508437D01*
X279860Y507700D01*
X281288Y506700D01*
X282520Y505468D01*
X283520Y504040D01*
X284257Y502460D01*
X284708Y500776D01*
X284860Y499040D01*
G37*
G36*
X284860Y499040D02*
X284860Y469040D01*
X204860Y469040D01*
X204860Y499040D01*
X205012Y500776D01*
X205463Y502460D01*
X206200Y504040D01*
X207200Y505468D01*
X208432Y506700D01*
X209860Y507700D01*
X211440Y508437D01*
X213124Y508888D01*
X214860Y509040D01*
X274860Y509040D01*
X276596Y508888D01*
X278280Y508437D01*
X279860Y507700D01*
X281288Y506700D01*
X282520Y505468D01*
X283520Y504040D01*
X284257Y502460D01*
X284708Y500776D01*
X284860Y499040D01*
G37*
G36*
X284860Y689040D02*
X284860Y659040D01*
X204860Y659040D01*
X204860Y689040D01*
X205012Y690776D01*
X205463Y692460D01*
X206200Y694040D01*
X207200Y695468D01*
X208432Y696700D01*
X209860Y697700D01*
X211440Y698437D01*
X213124Y698888D01*
X214860Y699040D01*
X274860Y699040D01*
X276596Y698888D01*
X278280Y698437D01*
X279860Y697700D01*
X281288Y696700D01*
X282520Y695468D01*
X283520Y694040D01*
X284257Y692460D01*
X284708Y690776D01*
X284860Y689040D01*
G37*
G36*
X284860Y689040D02*
X284860Y659040D01*
X204860Y659040D01*
X204860Y689040D01*
X205012Y690776D01*
X205463Y692460D01*
X206200Y694040D01*
X207200Y695468D01*
X208432Y696700D01*
X209860Y697700D01*
X211440Y698437D01*
X213124Y698888D01*
X214860Y699040D01*
X274860Y699040D01*
X276596Y698888D01*
X278280Y698437D01*
X279860Y697700D01*
X281288Y696700D01*
X282520Y695468D01*
X283520Y694040D01*
X284257Y692460D01*
X284708Y690776D01*
X284860Y689040D01*
G37*
G36*
X285060Y119240D02*
X285060Y89240D01*
X205060Y89240D01*
X205060Y119240D01*
X205212Y120976D01*
X205663Y122660D01*
X206400Y124240D01*
X207400Y125668D01*
X208632Y126900D01*
X210060Y127900D01*
X211640Y128637D01*
X213324Y129088D01*
X215060Y129240D01*
X275060Y129240D01*
X276796Y129088D01*
X278480Y128637D01*
X280060Y127900D01*
X281488Y126900D01*
X282720Y125668D01*
X283720Y124240D01*
X284457Y122660D01*
X284908Y120976D01*
X285060Y119240D01*
G37*
G36*
X285060Y119240D02*
X285060Y89240D01*
X205060Y89240D01*
X205060Y119240D01*
X205212Y120976D01*
X205663Y122660D01*
X206400Y124240D01*
X207400Y125668D01*
X208632Y126900D01*
X210060Y127900D01*
X211640Y128637D01*
X213324Y129088D01*
X215060Y129240D01*
X275060Y129240D01*
X276796Y129088D01*
X278480Y128637D01*
X280060Y127900D01*
X281488Y126900D01*
X282720Y125668D01*
X283720Y124240D01*
X284457Y122660D01*
X284908Y120976D01*
X285060Y119240D01*
G37*
G36*
X285060Y309240D02*
X285060Y279240D01*
X205060Y279240D01*
X205060Y309240D01*
X205212Y310976D01*
X205663Y312660D01*
X206400Y314240D01*
X207400Y315668D01*
X208632Y316900D01*
X210060Y317900D01*
X211640Y318637D01*
X213324Y319088D01*
X215060Y319240D01*
X275060Y319240D01*
X276796Y319088D01*
X278480Y318637D01*
X280060Y317900D01*
X281488Y316900D01*
X282720Y315668D01*
X283720Y314240D01*
X284457Y312660D01*
X284908Y310976D01*
X285060Y309240D01*
G37*
G36*
X285060Y309240D02*
X285060Y279240D01*
X205060Y279240D01*
X205060Y309240D01*
X205212Y310976D01*
X205663Y312660D01*
X206400Y314240D01*
X207400Y315668D01*
X208632Y316900D01*
X210060Y317900D01*
X211640Y318637D01*
X213324Y319088D01*
X215060Y319240D01*
X275060Y319240D01*
X276796Y319088D01*
X278480Y318637D01*
X280060Y317900D01*
X281488Y316900D01*
X282720Y315668D01*
X283720Y314240D01*
X284457Y312660D01*
X284908Y310976D01*
X285060Y309240D01*
G37*
G36*
X285060Y533940D02*
X284908Y532204D01*
X284457Y530520D01*
X283720Y528940D01*
X282720Y527512D01*
X281488Y526280D01*
X280060Y525280D01*
X278480Y524543D01*
X276796Y524092D01*
X275060Y523940D01*
X215060Y523940D01*
X213324Y524092D01*
X211640Y524543D01*
X210060Y525280D01*
X208632Y526280D01*
X207400Y527512D01*
X206400Y528940D01*
X205663Y530520D01*
X205212Y532204D01*
X205060Y533940D01*
X205060Y563940D01*
X285060Y563940D01*
X285060Y533940D01*
G37*
G36*
X285060Y533940D02*
X284908Y532204D01*
X284457Y530520D01*
X283720Y528940D01*
X282720Y527512D01*
X281488Y526280D01*
X280060Y525280D01*
X278480Y524543D01*
X276796Y524092D01*
X275060Y523940D01*
X215060Y523940D01*
X213324Y524092D01*
X211640Y524543D01*
X210060Y525280D01*
X208632Y526280D01*
X207400Y527512D01*
X206400Y528940D01*
X205663Y530520D01*
X205212Y532204D01*
X205060Y533940D01*
X205060Y563940D01*
X285060Y563940D01*
X285060Y533940D01*
G37*
G36*
X285060Y723940D02*
X284908Y722204D01*
X284457Y720520D01*
X283720Y718940D01*
X282720Y717512D01*
X281488Y716280D01*
X280060Y715280D01*
X278480Y714543D01*
X276796Y714092D01*
X275060Y713940D01*
X215060Y713940D01*
X213324Y714092D01*
X211640Y714543D01*
X210060Y715280D01*
X208632Y716280D01*
X207400Y717512D01*
X206400Y718940D01*
X205663Y720520D01*
X205212Y722204D01*
X205060Y723940D01*
X205060Y753940D01*
X285060Y753940D01*
X285060Y723940D01*
G37*
G36*
X285060Y723940D02*
X284908Y722204D01*
X284457Y720520D01*
X283720Y718940D01*
X282720Y717512D01*
X281488Y716280D01*
X280060Y715280D01*
X278480Y714543D01*
X276796Y714092D01*
X275060Y713940D01*
X215060Y713940D01*
X213324Y714092D01*
X211640Y714543D01*
X210060Y715280D01*
X208632Y716280D01*
X207400Y717512D01*
X206400Y718940D01*
X205663Y720520D01*
X205212Y722204D01*
X205060Y723940D01*
X205060Y753940D01*
X285060Y753940D01*
X285060Y723940D01*
G37*
G36*
X285260Y154140D02*
X285108Y152404D01*
X284657Y150720D01*
X283920Y149140D01*
X282920Y147712D01*
X281688Y146480D01*
X280260Y145480D01*
X278680Y144743D01*
X276996Y144292D01*
X275260Y144140D01*
X215260Y144140D01*
X213524Y144292D01*
X211840Y144743D01*
X210260Y145480D01*
X208832Y146480D01*
X207600Y147712D01*
X206600Y149140D01*
X205863Y150720D01*
X205412Y152404D01*
X205260Y154140D01*
X205260Y184140D01*
X285260Y184140D01*
X285260Y154140D01*
G37*
G36*
X285260Y154140D02*
X285108Y152404D01*
X284657Y150720D01*
X283920Y149140D01*
X282920Y147712D01*
X281688Y146480D01*
X280260Y145480D01*
X278680Y144743D01*
X276996Y144292D01*
X275260Y144140D01*
X215260Y144140D01*
X213524Y144292D01*
X211840Y144743D01*
X210260Y145480D01*
X208832Y146480D01*
X207600Y147712D01*
X206600Y149140D01*
X205863Y150720D01*
X205412Y152404D01*
X205260Y154140D01*
X205260Y184140D01*
X285260Y184140D01*
X285260Y154140D01*
G37*
G36*
X285260Y344140D02*
X285108Y342404D01*
X284657Y340720D01*
X283920Y339140D01*
X282920Y337712D01*
X281688Y336480D01*
X280260Y335480D01*
X278680Y334743D01*
X276996Y334292D01*
X275260Y334140D01*
X215260Y334140D01*
X213524Y334292D01*
X211840Y334743D01*
X210260Y335480D01*
X208832Y336480D01*
X207600Y337712D01*
X206600Y339140D01*
X205863Y340720D01*
X205412Y342404D01*
X205260Y344140D01*
X205260Y374140D01*
X285260Y374140D01*
X285260Y344140D01*
G37*
G36*
X285260Y344140D02*
X285108Y342404D01*
X284657Y340720D01*
X283920Y339140D01*
X282920Y337712D01*
X281688Y336480D01*
X280260Y335480D01*
X278680Y334743D01*
X276996Y334292D01*
X275260Y334140D01*
X215260Y334140D01*
X213524Y334292D01*
X211840Y334743D01*
X210260Y335480D01*
X208832Y336480D01*
X207600Y337712D01*
X206600Y339140D01*
X205863Y340720D01*
X205412Y342404D01*
X205260Y344140D01*
X205260Y374140D01*
X285260Y374140D01*
X285260Y344140D01*
G37*
G36*
X380060Y59240D02*
X379908Y57504D01*
X379457Y55820D01*
X378720Y54240D01*
X377720Y52812D01*
X376488Y51580D01*
X375060Y50580D01*
X373480Y49843D01*
X371796Y49392D01*
X370060Y49240D01*
X310060Y49240D01*
X308324Y49392D01*
X306640Y49843D01*
X305060Y50580D01*
X303632Y51580D01*
X302400Y52812D01*
X301400Y54240D01*
X300663Y55820D01*
X300212Y57504D01*
X300060Y59240D01*
X300060Y89240D01*
X380060Y89240D01*
X380060Y59240D01*
G37*
G36*
X380060Y59240D02*
X379908Y57504D01*
X379457Y55820D01*
X378720Y54240D01*
X377720Y52812D01*
X376488Y51580D01*
X375060Y50580D01*
X373480Y49843D01*
X371796Y49392D01*
X370060Y49240D01*
X310060Y49240D01*
X308324Y49392D01*
X306640Y49843D01*
X305060Y50580D01*
X303632Y51580D01*
X302400Y52812D01*
X301400Y54240D01*
X300663Y55820D01*
X300212Y57504D01*
X300060Y59240D01*
X300060Y89240D01*
X380060Y89240D01*
X380060Y59240D01*
G37*
G36*
X380160Y404240D02*
X380160Y374240D01*
X300160Y374240D01*
X300160Y404240D01*
X300312Y405976D01*
X300763Y407660D01*
X301500Y409240D01*
X302500Y410668D01*
X303732Y411900D01*
X305160Y412900D01*
X306740Y413637D01*
X308424Y414088D01*
X310160Y414240D01*
X370160Y414240D01*
X371896Y414088D01*
X373580Y413637D01*
X375160Y412900D01*
X376588Y411900D01*
X377820Y410668D01*
X378820Y409240D01*
X379557Y407660D01*
X380008Y405976D01*
X380160Y404240D01*
G37*
G36*
X380160Y404240D02*
X380160Y374240D01*
X300160Y374240D01*
X300160Y404240D01*
X300312Y405976D01*
X300763Y407660D01*
X301500Y409240D01*
X302500Y410668D01*
X303732Y411900D01*
X305160Y412900D01*
X306740Y413637D01*
X308424Y414088D01*
X310160Y414240D01*
X370160Y414240D01*
X371896Y414088D01*
X373580Y413637D01*
X375160Y412900D01*
X376588Y411900D01*
X377820Y410668D01*
X378820Y409240D01*
X379557Y407660D01*
X380008Y405976D01*
X380160Y404240D01*
G37*
G36*
X380260Y154240D02*
X380108Y152504D01*
X379657Y150820D01*
X378920Y149240D01*
X377920Y147812D01*
X376688Y146580D01*
X375260Y145580D01*
X373680Y144843D01*
X371996Y144392D01*
X370260Y144240D01*
X310260Y144240D01*
X308524Y144392D01*
X306840Y144843D01*
X305260Y145580D01*
X303832Y146580D01*
X302600Y147812D01*
X301600Y149240D01*
X300863Y150820D01*
X300412Y152504D01*
X300260Y154240D01*
X300260Y184240D01*
X380260Y184240D01*
X380260Y154240D01*
G37*
G36*
X380260Y154240D02*
X380108Y152504D01*
X379657Y150820D01*
X378920Y149240D01*
X377920Y147812D01*
X376688Y146580D01*
X375260Y145580D01*
X373680Y144843D01*
X371996Y144392D01*
X370260Y144240D01*
X310260Y144240D01*
X308524Y144392D01*
X306840Y144843D01*
X305260Y145580D01*
X303832Y146580D01*
X302600Y147812D01*
X301600Y149240D01*
X300863Y150820D01*
X300412Y152504D01*
X300260Y154240D01*
X300260Y184240D01*
X380260Y184240D01*
X380260Y154240D01*
G37*
G36*
X380260Y309340D02*
X380260Y279340D01*
X300260Y279340D01*
X300260Y309340D01*
X300412Y311076D01*
X300863Y312760D01*
X301600Y314340D01*
X302600Y315768D01*
X303832Y317000D01*
X305260Y318000D01*
X306840Y318737D01*
X308524Y319188D01*
X310260Y319340D01*
X370260Y319340D01*
X371996Y319188D01*
X373680Y318737D01*
X375260Y318000D01*
X376688Y317000D01*
X377920Y315768D01*
X378920Y314340D01*
X379657Y312760D01*
X380108Y311076D01*
X380260Y309340D01*
G37*
G36*
X380260Y309340D02*
X380260Y279340D01*
X300260Y279340D01*
X300260Y309340D01*
X300412Y311076D01*
X300863Y312760D01*
X301600Y314340D01*
X302600Y315768D01*
X303832Y317000D01*
X305260Y318000D01*
X306840Y318737D01*
X308524Y319188D01*
X310260Y319340D01*
X370260Y319340D01*
X371996Y319188D01*
X373680Y318737D01*
X375260Y318000D01*
X376688Y317000D01*
X377920Y315768D01*
X378920Y314340D01*
X379657Y312760D01*
X380108Y311076D01*
X380260Y309340D01*
G37*
G36*
X380260Y439040D02*
X380108Y437304D01*
X379657Y435620D01*
X378920Y434040D01*
X377920Y432612D01*
X376688Y431380D01*
X375260Y430380D01*
X373680Y429643D01*
X371996Y429192D01*
X370260Y429040D01*
X310260Y429040D01*
X308524Y429192D01*
X306840Y429643D01*
X305260Y430380D01*
X303832Y431380D01*
X302600Y432612D01*
X301600Y434040D01*
X300863Y435620D01*
X300412Y437304D01*
X300260Y439040D01*
X300260Y469040D01*
X380260Y469040D01*
X380260Y439040D01*
G37*
G36*
X380260Y439040D02*
X380108Y437304D01*
X379657Y435620D01*
X378920Y434040D01*
X377920Y432612D01*
X376688Y431380D01*
X375260Y430380D01*
X373680Y429643D01*
X371996Y429192D01*
X370260Y429040D01*
X310260Y429040D01*
X308524Y429192D01*
X306840Y429643D01*
X305260Y430380D01*
X303832Y431380D01*
X302600Y432612D01*
X301600Y434040D01*
X300863Y435620D01*
X300412Y437304D01*
X300260Y439040D01*
X300260Y469040D01*
X380260Y469040D01*
X380260Y439040D01*
G37*
G36*
X380360Y784040D02*
X380360Y754040D01*
X300360Y754040D01*
X300360Y784040D01*
X300512Y785776D01*
X300963Y787460D01*
X301700Y789040D01*
X302700Y790468D01*
X303932Y791700D01*
X305360Y792700D01*
X306940Y793437D01*
X308624Y793888D01*
X310360Y794040D01*
X370360Y794040D01*
X372096Y793888D01*
X373780Y793437D01*
X375360Y792700D01*
X376788Y791700D01*
X378020Y790468D01*
X379020Y789040D01*
X379757Y787460D01*
X380208Y785776D01*
X380360Y784040D01*
G37*
G36*
X380360Y784040D02*
X380360Y754040D01*
X300360Y754040D01*
X300360Y784040D01*
X300512Y785776D01*
X300963Y787460D01*
X301700Y789040D01*
X302700Y790468D01*
X303932Y791700D01*
X305360Y792700D01*
X306940Y793437D01*
X308624Y793888D01*
X310360Y794040D01*
X370360Y794040D01*
X372096Y793888D01*
X373780Y793437D01*
X375360Y792700D01*
X376788Y791700D01*
X378020Y790468D01*
X379020Y789040D01*
X379757Y787460D01*
X380208Y785776D01*
X380360Y784040D01*
G37*
G36*
X380460Y534040D02*
X380308Y532304D01*
X379857Y530620D01*
X379120Y529040D01*
X378120Y527612D01*
X376888Y526380D01*
X375460Y525380D01*
X373880Y524643D01*
X372196Y524192D01*
X370460Y524040D01*
X310460Y524040D01*
X308724Y524192D01*
X307040Y524643D01*
X305460Y525380D01*
X304032Y526380D01*
X302800Y527612D01*
X301800Y529040D01*
X301063Y530620D01*
X300612Y532304D01*
X300460Y534040D01*
X300460Y564040D01*
X380460Y564040D01*
X380460Y534040D01*
G37*
G36*
X380460Y534040D02*
X380308Y532304D01*
X379857Y530620D01*
X379120Y529040D01*
X378120Y527612D01*
X376888Y526380D01*
X375460Y525380D01*
X373880Y524643D01*
X372196Y524192D01*
X370460Y524040D01*
X310460Y524040D01*
X308724Y524192D01*
X307040Y524643D01*
X305460Y525380D01*
X304032Y526380D01*
X302800Y527612D01*
X301800Y529040D01*
X301063Y530620D01*
X300612Y532304D01*
X300460Y534040D01*
X300460Y564040D01*
X380460Y564040D01*
X380460Y534040D01*
G37*
G36*
X380460Y689140D02*
X380460Y659140D01*
X300460Y659140D01*
X300460Y689140D01*
X300612Y690876D01*
X301063Y692560D01*
X301800Y694140D01*
X302800Y695568D01*
X304032Y696800D01*
X305460Y697800D01*
X307040Y698537D01*
X308724Y698988D01*
X310460Y699140D01*
X370460Y699140D01*
X372196Y698988D01*
X373880Y698537D01*
X375460Y697800D01*
X376888Y696800D01*
X378120Y695568D01*
X379120Y694140D01*
X379857Y692560D01*
X380308Y690876D01*
X380460Y689140D01*
G37*
G36*
X380460Y689140D02*
X380460Y659140D01*
X300460Y659140D01*
X300460Y689140D01*
X300612Y690876D01*
X301063Y692560D01*
X301800Y694140D01*
X302800Y695568D01*
X304032Y696800D01*
X305460Y697800D01*
X307040Y698537D01*
X308724Y698988D01*
X310460Y699140D01*
X370460Y699140D01*
X372196Y698988D01*
X373880Y698537D01*
X375460Y697800D01*
X376888Y696800D01*
X378120Y695568D01*
X379120Y694140D01*
X379857Y692560D01*
X380308Y690876D01*
X380460Y689140D01*
G37*
G36*
X474960Y594140D02*
X474960Y564140D01*
X394960Y564140D01*
X394960Y594140D01*
X395112Y595876D01*
X395563Y597560D01*
X396300Y599140D01*
X397300Y600568D01*
X398532Y601800D01*
X399960Y602800D01*
X401540Y603537D01*
X403224Y603988D01*
X404960Y604140D01*
X464960Y604140D01*
X466696Y603988D01*
X468380Y603537D01*
X469960Y602800D01*
X471388Y601800D01*
X472620Y600568D01*
X473620Y599140D01*
X474357Y597560D01*
X474808Y595876D01*
X474960Y594140D01*
G37*
G36*
X474960Y594140D02*
X474960Y564140D01*
X394960Y564140D01*
X394960Y594140D01*
X395112Y595876D01*
X395563Y597560D01*
X396300Y599140D01*
X397300Y600568D01*
X398532Y601800D01*
X399960Y602800D01*
X401540Y603537D01*
X403224Y603988D01*
X404960Y604140D01*
X464960Y604140D01*
X466696Y603988D01*
X468380Y603537D01*
X469960Y602800D01*
X471388Y601800D01*
X472620Y600568D01*
X473620Y599140D01*
X474357Y597560D01*
X474808Y595876D01*
X474960Y594140D01*
G37*
G36*
X475060Y214240D02*
X475060Y184240D01*
X395060Y184240D01*
X395060Y214240D01*
X395212Y215976D01*
X395663Y217660D01*
X396400Y219240D01*
X397400Y220668D01*
X398632Y221900D01*
X400060Y222900D01*
X401640Y223637D01*
X403324Y224088D01*
X405060Y224240D01*
X465060Y224240D01*
X466796Y224088D01*
X468480Y223637D01*
X470060Y222900D01*
X471488Y221900D01*
X472720Y220668D01*
X473720Y219240D01*
X474457Y217660D01*
X474908Y215976D01*
X475060Y214240D01*
G37*
G36*
X475060Y214240D02*
X475060Y184240D01*
X395060Y184240D01*
X395060Y214240D01*
X395212Y215976D01*
X395663Y217660D01*
X396400Y219240D01*
X397400Y220668D01*
X398632Y221900D01*
X400060Y222900D01*
X401640Y223637D01*
X403324Y224088D01*
X405060Y224240D01*
X465060Y224240D01*
X466796Y224088D01*
X468480Y223637D01*
X470060Y222900D01*
X471488Y221900D01*
X472720Y220668D01*
X473720Y219240D01*
X474457Y217660D01*
X474908Y215976D01*
X475060Y214240D01*
G37*
G36*
X475060Y499240D02*
X475060Y469240D01*
X395060Y469240D01*
X395060Y499240D01*
X395212Y500976D01*
X395663Y502660D01*
X396400Y504240D01*
X397400Y505668D01*
X398632Y506900D01*
X400060Y507900D01*
X401640Y508637D01*
X403324Y509088D01*
X405060Y509240D01*
X465060Y509240D01*
X466796Y509088D01*
X468480Y508637D01*
X470060Y507900D01*
X471488Y506900D01*
X472720Y505668D01*
X473720Y504240D01*
X474457Y502660D01*
X474908Y500976D01*
X475060Y499240D01*
G37*
G36*
X475060Y499240D02*
X475060Y469240D01*
X395060Y469240D01*
X395060Y499240D01*
X395212Y500976D01*
X395663Y502660D01*
X396400Y504240D01*
X397400Y505668D01*
X398632Y506900D01*
X400060Y507900D01*
X401640Y508637D01*
X403324Y509088D01*
X405060Y509240D01*
X465060Y509240D01*
X466796Y509088D01*
X468480Y508637D01*
X470060Y507900D01*
X471488Y506900D01*
X472720Y505668D01*
X473720Y504240D01*
X474457Y502660D01*
X474908Y500976D01*
X475060Y499240D01*
G37*
G36*
X475060Y629240D02*
X474908Y627504D01*
X474457Y625820D01*
X473720Y624240D01*
X472720Y622812D01*
X471488Y621580D01*
X470060Y620580D01*
X468480Y619843D01*
X466796Y619392D01*
X465060Y619240D01*
X405060Y619240D01*
X403324Y619392D01*
X401640Y619843D01*
X400060Y620580D01*
X398632Y621580D01*
X397400Y622812D01*
X396400Y624240D01*
X395663Y625820D01*
X395212Y627504D01*
X395060Y629240D01*
X395060Y659240D01*
X475060Y659240D01*
X475060Y629240D01*
G37*
G36*
X475060Y629240D02*
X474908Y627504D01*
X474457Y625820D01*
X473720Y624240D01*
X472720Y622812D01*
X471488Y621580D01*
X470060Y620580D01*
X468480Y619843D01*
X466796Y619392D01*
X465060Y619240D01*
X405060Y619240D01*
X403324Y619392D01*
X401640Y619843D01*
X400060Y620580D01*
X398632Y621580D01*
X397400Y622812D01*
X396400Y624240D01*
X395663Y625820D01*
X395212Y627504D01*
X395060Y629240D01*
X395060Y659240D01*
X475060Y659240D01*
X475060Y629240D01*
G37*
G36*
X475160Y119340D02*
X475160Y89340D01*
X395160Y89340D01*
X395160Y119340D01*
X395312Y121076D01*
X395763Y122760D01*
X396500Y124340D01*
X397500Y125768D01*
X398732Y127000D01*
X400160Y128000D01*
X401740Y128737D01*
X403424Y129188D01*
X405160Y129340D01*
X465160Y129340D01*
X466896Y129188D01*
X468580Y128737D01*
X470160Y128000D01*
X471588Y127000D01*
X472820Y125768D01*
X473820Y124340D01*
X474557Y122760D01*
X475008Y121076D01*
X475160Y119340D01*
G37*
G36*
X475160Y119340D02*
X475160Y89340D01*
X395160Y89340D01*
X395160Y119340D01*
X395312Y121076D01*
X395763Y122760D01*
X396500Y124340D01*
X397500Y125768D01*
X398732Y127000D01*
X400160Y128000D01*
X401740Y128737D01*
X403424Y129188D01*
X405160Y129340D01*
X465160Y129340D01*
X466896Y129188D01*
X468580Y128737D01*
X470160Y128000D01*
X471588Y127000D01*
X472820Y125768D01*
X473820Y124340D01*
X474557Y122760D01*
X475008Y121076D01*
X475160Y119340D01*
G37*
G36*
X475160Y249340D02*
X475008Y247604D01*
X474557Y245920D01*
X473820Y244340D01*
X472820Y242912D01*
X471588Y241680D01*
X470160Y240680D01*
X468580Y239943D01*
X466896Y239492D01*
X465160Y239340D01*
X405160Y239340D01*
X403424Y239492D01*
X401740Y239943D01*
X400160Y240680D01*
X398732Y241680D01*
X397500Y242912D01*
X396500Y244340D01*
X395763Y245920D01*
X395312Y247604D01*
X395160Y249340D01*
X395160Y279340D01*
X475160Y279340D01*
X475160Y249340D01*
G37*
G36*
X475160Y249340D02*
X475008Y247604D01*
X474557Y245920D01*
X473820Y244340D01*
X472820Y242912D01*
X471588Y241680D01*
X470160Y240680D01*
X468580Y239943D01*
X466896Y239492D01*
X465160Y239340D01*
X405160Y239340D01*
X403424Y239492D01*
X401740Y239943D01*
X400160Y240680D01*
X398732Y241680D01*
X397500Y242912D01*
X396500Y244340D01*
X395763Y245920D01*
X395312Y247604D01*
X395160Y249340D01*
X395160Y279340D01*
X475160Y279340D01*
X475160Y249340D01*
G37*
G36*
X475260Y724240D02*
X475108Y722504D01*
X474657Y720820D01*
X473920Y719240D01*
X472920Y717812D01*
X471688Y716580D01*
X470260Y715580D01*
X468680Y714843D01*
X466996Y714392D01*
X465260Y714240D01*
X405260Y714240D01*
X403524Y714392D01*
X401840Y714843D01*
X400260Y715580D01*
X398832Y716580D01*
X397600Y717812D01*
X396600Y719240D01*
X395863Y720820D01*
X395412Y722504D01*
X395260Y724240D01*
X395260Y754240D01*
X475260Y754240D01*
X475260Y724240D01*
G37*
G36*
X475260Y724240D02*
X475108Y722504D01*
X474657Y720820D01*
X473920Y719240D01*
X472920Y717812D01*
X471688Y716580D01*
X470260Y715580D01*
X468680Y714843D01*
X466996Y714392D01*
X465260Y714240D01*
X405260Y714240D01*
X403524Y714392D01*
X401840Y714843D01*
X400260Y715580D01*
X398832Y716580D01*
X397600Y717812D01*
X396600Y719240D01*
X395863Y720820D01*
X395412Y722504D01*
X395260Y724240D01*
X395260Y754240D01*
X475260Y754240D01*
X475260Y724240D01*
G37*
G36*
X475360Y344340D02*
X475208Y342604D01*
X474757Y340920D01*
X474020Y339340D01*
X473020Y337912D01*
X471788Y336680D01*
X470360Y335680D01*
X468780Y334943D01*
X467096Y334492D01*
X465360Y334340D01*
X405360Y334340D01*
X403624Y334492D01*
X401940Y334943D01*
X400360Y335680D01*
X398932Y336680D01*
X397700Y337912D01*
X396700Y339340D01*
X395963Y340920D01*
X395512Y342604D01*
X395360Y344340D01*
X395360Y374340D01*
X475360Y374340D01*
X475360Y344340D01*
G37*
G36*
X475360Y344340D02*
X475208Y342604D01*
X474757Y340920D01*
X474020Y339340D01*
X473020Y337912D01*
X471788Y336680D01*
X470360Y335680D01*
X468780Y334943D01*
X467096Y334492D01*
X465360Y334340D01*
X405360Y334340D01*
X403624Y334492D01*
X401940Y334943D01*
X400360Y335680D01*
X398932Y336680D01*
X397700Y337912D01*
X396700Y339340D01*
X395963Y340920D01*
X395512Y342604D01*
X395360Y344340D01*
X395360Y374340D01*
X475360Y374340D01*
X475360Y344340D01*
G37*
G36*
X573910Y60660D02*
X573758Y58924D01*
X573307Y57240D01*
X572570Y55660D01*
X571570Y54232D01*
X570338Y53000D01*
X568910Y52000D01*
X567330Y51263D01*
X565646Y50812D01*
X563910Y50660D01*
X503910Y50660D01*
X502174Y50812D01*
X500490Y51263D01*
X498910Y52000D01*
X497482Y53000D01*
X496250Y54232D01*
X495250Y55660D01*
X494513Y57240D01*
X494062Y58924D01*
X493910Y60660D01*
X493910Y90660D01*
X573910Y90660D01*
X573910Y60660D01*
G37*
G36*
X573910Y60660D02*
X573758Y58924D01*
X573307Y57240D01*
X572570Y55660D01*
X571570Y54232D01*
X570338Y53000D01*
X568910Y52000D01*
X567330Y51263D01*
X565646Y50812D01*
X563910Y50660D01*
X503910Y50660D01*
X502174Y50812D01*
X500490Y51263D01*
X498910Y52000D01*
X497482Y53000D01*
X496250Y54232D01*
X495250Y55660D01*
X494513Y57240D01*
X494062Y58924D01*
X493910Y60660D01*
X493910Y90660D01*
X573910Y90660D01*
X573910Y60660D01*
G37*
G36*
X573910Y215660D02*
X573910Y185660D01*
X493910Y185660D01*
X493910Y215660D01*
X494062Y217396D01*
X494513Y219080D01*
X495250Y220660D01*
X496250Y222088D01*
X497482Y223320D01*
X498910Y224320D01*
X500490Y225057D01*
X502174Y225508D01*
X503910Y225660D01*
X563910Y225660D01*
X565646Y225508D01*
X567330Y225057D01*
X568910Y224320D01*
X570338Y223320D01*
X571570Y222088D01*
X572570Y220660D01*
X573307Y219080D01*
X573758Y217396D01*
X573910Y215660D01*
G37*
G36*
X573910Y215660D02*
X573910Y185660D01*
X493910Y185660D01*
X493910Y215660D01*
X494062Y217396D01*
X494513Y219080D01*
X495250Y220660D01*
X496250Y222088D01*
X497482Y223320D01*
X498910Y224320D01*
X500490Y225057D01*
X502174Y225508D01*
X503910Y225660D01*
X563910Y225660D01*
X565646Y225508D01*
X567330Y225057D01*
X568910Y224320D01*
X570338Y223320D01*
X571570Y222088D01*
X572570Y220660D01*
X573307Y219080D01*
X573758Y217396D01*
X573910Y215660D01*
G37*
G36*
X573910Y250660D02*
X573758Y248924D01*
X573307Y247240D01*
X572570Y245660D01*
X571570Y244232D01*
X570338Y243000D01*
X568910Y242000D01*
X567330Y241263D01*
X565646Y240812D01*
X563910Y240660D01*
X503910Y240660D01*
X502174Y240812D01*
X500490Y241263D01*
X498910Y242000D01*
X497482Y243000D01*
X496250Y244232D01*
X495250Y245660D01*
X494513Y247240D01*
X494062Y248924D01*
X493910Y250660D01*
X493910Y280660D01*
X573910Y280660D01*
X573910Y250660D01*
G37*
G36*
X573910Y250660D02*
X573758Y248924D01*
X573307Y247240D01*
X572570Y245660D01*
X571570Y244232D01*
X570338Y243000D01*
X568910Y242000D01*
X567330Y241263D01*
X565646Y240812D01*
X563910Y240660D01*
X503910Y240660D01*
X502174Y240812D01*
X500490Y241263D01*
X498910Y242000D01*
X497482Y243000D01*
X496250Y244232D01*
X495250Y245660D01*
X494513Y247240D01*
X494062Y248924D01*
X493910Y250660D01*
X493910Y280660D01*
X573910Y280660D01*
X573910Y250660D01*
G37*
G36*
X573910Y405660D02*
X573910Y375660D01*
X493910Y375660D01*
X493910Y405660D01*
X494062Y407396D01*
X494513Y409080D01*
X495250Y410660D01*
X496250Y412088D01*
X497482Y413320D01*
X498910Y414320D01*
X500490Y415057D01*
X502174Y415508D01*
X503910Y415660D01*
X563910Y415660D01*
X565646Y415508D01*
X567330Y415057D01*
X568910Y414320D01*
X570338Y413320D01*
X571570Y412088D01*
X572570Y410660D01*
X573307Y409080D01*
X573758Y407396D01*
X573910Y405660D01*
G37*
G36*
X573910Y405660D02*
X573910Y375660D01*
X493910Y375660D01*
X493910Y405660D01*
X494062Y407396D01*
X494513Y409080D01*
X495250Y410660D01*
X496250Y412088D01*
X497482Y413320D01*
X498910Y414320D01*
X500490Y415057D01*
X502174Y415508D01*
X503910Y415660D01*
X563910Y415660D01*
X565646Y415508D01*
X567330Y415057D01*
X568910Y414320D01*
X570338Y413320D01*
X571570Y412088D01*
X572570Y410660D01*
X573307Y409080D01*
X573758Y407396D01*
X573910Y405660D01*
G37*
G36*
X573910Y440660D02*
X573758Y438924D01*
X573307Y437240D01*
X572570Y435660D01*
X571570Y434232D01*
X570338Y433000D01*
X568910Y432000D01*
X567330Y431263D01*
X565646Y430812D01*
X563910Y430660D01*
X503910Y430660D01*
X502174Y430812D01*
X500490Y431263D01*
X498910Y432000D01*
X497482Y433000D01*
X496250Y434232D01*
X495250Y435660D01*
X494513Y437240D01*
X494062Y438924D01*
X493910Y440660D01*
X493910Y470660D01*
X573910Y470660D01*
X573910Y440660D01*
G37*
G36*
X573910Y440660D02*
X573758Y438924D01*
X573307Y437240D01*
X572570Y435660D01*
X571570Y434232D01*
X570338Y433000D01*
X568910Y432000D01*
X567330Y431263D01*
X565646Y430812D01*
X563910Y430660D01*
X503910Y430660D01*
X502174Y430812D01*
X500490Y431263D01*
X498910Y432000D01*
X497482Y433000D01*
X496250Y434232D01*
X495250Y435660D01*
X494513Y437240D01*
X494062Y438924D01*
X493910Y440660D01*
X493910Y470660D01*
X573910Y470660D01*
X573910Y440660D01*
G37*
G36*
X573910Y595660D02*
X573910Y565660D01*
X493910Y565660D01*
X493910Y595660D01*
X494062Y597396D01*
X494513Y599080D01*
X495250Y600660D01*
X496250Y602088D01*
X497482Y603320D01*
X498910Y604320D01*
X500490Y605057D01*
X502174Y605508D01*
X503910Y605660D01*
X563910Y605660D01*
X565646Y605508D01*
X567330Y605057D01*
X568910Y604320D01*
X570338Y603320D01*
X571570Y602088D01*
X572570Y600660D01*
X573307Y599080D01*
X573758Y597396D01*
X573910Y595660D01*
G37*
G36*
X573910Y595660D02*
X573910Y565660D01*
X493910Y565660D01*
X493910Y595660D01*
X494062Y597396D01*
X494513Y599080D01*
X495250Y600660D01*
X496250Y602088D01*
X497482Y603320D01*
X498910Y604320D01*
X500490Y605057D01*
X502174Y605508D01*
X503910Y605660D01*
X563910Y605660D01*
X565646Y605508D01*
X567330Y605057D01*
X568910Y604320D01*
X570338Y603320D01*
X571570Y602088D01*
X572570Y600660D01*
X573307Y599080D01*
X573758Y597396D01*
X573910Y595660D01*
G37*
G36*
X573910Y630660D02*
X573758Y628924D01*
X573307Y627240D01*
X572570Y625660D01*
X571570Y624232D01*
X570338Y623000D01*
X568910Y622000D01*
X567330Y621263D01*
X565646Y620812D01*
X563910Y620660D01*
X503910Y620660D01*
X502174Y620812D01*
X500490Y621263D01*
X498910Y622000D01*
X497482Y623000D01*
X496250Y624232D01*
X495250Y625660D01*
X494513Y627240D01*
X494062Y628924D01*
X493910Y630660D01*
X493910Y660660D01*
X573910Y660660D01*
X573910Y630660D01*
G37*
G36*
X573910Y630660D02*
X573758Y628924D01*
X573307Y627240D01*
X572570Y625660D01*
X571570Y624232D01*
X570338Y623000D01*
X568910Y622000D01*
X567330Y621263D01*
X565646Y620812D01*
X563910Y620660D01*
X503910Y620660D01*
X502174Y620812D01*
X500490Y621263D01*
X498910Y622000D01*
X497482Y623000D01*
X496250Y624232D01*
X495250Y625660D01*
X494513Y627240D01*
X494062Y628924D01*
X493910Y630660D01*
X493910Y660660D01*
X573910Y660660D01*
X573910Y630660D01*
G37*
G36*
X573910Y785660D02*
X573910Y755660D01*
X493910Y755660D01*
X493910Y785660D01*
X494062Y787396D01*
X494513Y789080D01*
X495250Y790660D01*
X496250Y792088D01*
X497482Y793320D01*
X498910Y794320D01*
X500490Y795057D01*
X502174Y795508D01*
X503910Y795660D01*
X563910Y795660D01*
X565646Y795508D01*
X567330Y795057D01*
X568910Y794320D01*
X570338Y793320D01*
X571570Y792088D01*
X572570Y790660D01*
X573307Y789080D01*
X573758Y787396D01*
X573910Y785660D01*
G37*
G36*
X573910Y785660D02*
X573910Y755660D01*
X493910Y755660D01*
X493910Y785660D01*
X494062Y787396D01*
X494513Y789080D01*
X495250Y790660D01*
X496250Y792088D01*
X497482Y793320D01*
X498910Y794320D01*
X500490Y795057D01*
X502174Y795508D01*
X503910Y795660D01*
X563910Y795660D01*
X565646Y795508D01*
X567330Y795057D01*
X568910Y794320D01*
X570338Y793320D01*
X571570Y792088D01*
X572570Y790660D01*
X573307Y789080D01*
X573758Y787396D01*
X573910Y785660D01*
G37*
G36*
X668510Y500660D02*
X668510Y470660D01*
X588510Y470660D01*
X588510Y500660D01*
X588662Y502396D01*
X589113Y504080D01*
X589850Y505660D01*
X590850Y507088D01*
X592082Y508320D01*
X593510Y509320D01*
X595090Y510057D01*
X596774Y510508D01*
X598510Y510660D01*
X658510Y510660D01*
X660246Y510508D01*
X661930Y510057D01*
X663510Y509320D01*
X664938Y508320D01*
X666170Y507088D01*
X667170Y505660D01*
X667907Y504080D01*
X668358Y502396D01*
X668510Y500660D01*
G37*
G36*
X668510Y500660D02*
X668510Y470660D01*
X588510Y470660D01*
X588510Y500660D01*
X588662Y502396D01*
X589113Y504080D01*
X589850Y505660D01*
X590850Y507088D01*
X592082Y508320D01*
X593510Y509320D01*
X595090Y510057D01*
X596774Y510508D01*
X598510Y510660D01*
X658510Y510660D01*
X660246Y510508D01*
X661930Y510057D01*
X663510Y509320D01*
X664938Y508320D01*
X666170Y507088D01*
X667170Y505660D01*
X667907Y504080D01*
X668358Y502396D01*
X668510Y500660D01*
G37*
G36*
X668510Y690660D02*
X668510Y660660D01*
X588510Y660660D01*
X588510Y690660D01*
X588662Y692396D01*
X589113Y694080D01*
X589850Y695660D01*
X590850Y697088D01*
X592082Y698320D01*
X593510Y699320D01*
X595090Y700057D01*
X596774Y700508D01*
X598510Y700660D01*
X658510Y700660D01*
X660246Y700508D01*
X661930Y700057D01*
X663510Y699320D01*
X664938Y698320D01*
X666170Y697088D01*
X667170Y695660D01*
X667907Y694080D01*
X668358Y692396D01*
X668510Y690660D01*
G37*
G36*
X668510Y690660D02*
X668510Y660660D01*
X588510Y660660D01*
X588510Y690660D01*
X588662Y692396D01*
X589113Y694080D01*
X589850Y695660D01*
X590850Y697088D01*
X592082Y698320D01*
X593510Y699320D01*
X595090Y700057D01*
X596774Y700508D01*
X598510Y700660D01*
X658510Y700660D01*
X660246Y700508D01*
X661930Y700057D01*
X663510Y699320D01*
X664938Y698320D01*
X666170Y697088D01*
X667170Y695660D01*
X667907Y694080D01*
X668358Y692396D01*
X668510Y690660D01*
G37*
G36*
X668710Y120860D02*
X668710Y90860D01*
X588710Y90860D01*
X588710Y120860D01*
X588862Y122596D01*
X589313Y124280D01*
X590050Y125860D01*
X591050Y127288D01*
X592282Y128520D01*
X593710Y129520D01*
X595290Y130257D01*
X596974Y130708D01*
X598710Y130860D01*
X658710Y130860D01*
X660446Y130708D01*
X662130Y130257D01*
X663710Y129520D01*
X665138Y128520D01*
X666370Y127288D01*
X667370Y125860D01*
X668107Y124280D01*
X668558Y122596D01*
X668710Y120860D01*
G37*
G36*
X668710Y120860D02*
X668710Y90860D01*
X588710Y90860D01*
X588710Y120860D01*
X588862Y122596D01*
X589313Y124280D01*
X590050Y125860D01*
X591050Y127288D01*
X592282Y128520D01*
X593710Y129520D01*
X595290Y130257D01*
X596974Y130708D01*
X598710Y130860D01*
X658710Y130860D01*
X660446Y130708D01*
X662130Y130257D01*
X663710Y129520D01*
X665138Y128520D01*
X666370Y127288D01*
X667370Y125860D01*
X668107Y124280D01*
X668558Y122596D01*
X668710Y120860D01*
G37*
G36*
X668710Y310860D02*
X668710Y280860D01*
X588710Y280860D01*
X588710Y310860D01*
X588862Y312596D01*
X589313Y314280D01*
X590050Y315860D01*
X591050Y317288D01*
X592282Y318520D01*
X593710Y319520D01*
X595290Y320257D01*
X596974Y320708D01*
X598710Y320860D01*
X658710Y320860D01*
X660446Y320708D01*
X662130Y320257D01*
X663710Y319520D01*
X665138Y318520D01*
X666370Y317288D01*
X667370Y315860D01*
X668107Y314280D01*
X668558Y312596D01*
X668710Y310860D01*
G37*
G36*
X668710Y310860D02*
X668710Y280860D01*
X588710Y280860D01*
X588710Y310860D01*
X588862Y312596D01*
X589313Y314280D01*
X590050Y315860D01*
X591050Y317288D01*
X592282Y318520D01*
X593710Y319520D01*
X595290Y320257D01*
X596974Y320708D01*
X598710Y320860D01*
X658710Y320860D01*
X660446Y320708D01*
X662130Y320257D01*
X663710Y319520D01*
X665138Y318520D01*
X666370Y317288D01*
X667370Y315860D01*
X668107Y314280D01*
X668558Y312596D01*
X668710Y310860D01*
G37*
G36*
X668710Y535560D02*
X668558Y533824D01*
X668107Y532140D01*
X667370Y530560D01*
X666370Y529132D01*
X665138Y527900D01*
X663710Y526900D01*
X662130Y526163D01*
X660446Y525712D01*
X658710Y525560D01*
X598710Y525560D01*
X596974Y525712D01*
X595290Y526163D01*
X593710Y526900D01*
X592282Y527900D01*
X591050Y529132D01*
X590050Y530560D01*
X589313Y532140D01*
X588862Y533824D01*
X588710Y535560D01*
X588710Y565560D01*
X668710Y565560D01*
X668710Y535560D01*
G37*
G36*
X668710Y535560D02*
X668558Y533824D01*
X668107Y532140D01*
X667370Y530560D01*
X666370Y529132D01*
X665138Y527900D01*
X663710Y526900D01*
X662130Y526163D01*
X660446Y525712D01*
X658710Y525560D01*
X598710Y525560D01*
X596974Y525712D01*
X595290Y526163D01*
X593710Y526900D01*
X592282Y527900D01*
X591050Y529132D01*
X590050Y530560D01*
X589313Y532140D01*
X588862Y533824D01*
X588710Y535560D01*
X588710Y565560D01*
X668710Y565560D01*
X668710Y535560D01*
G37*
G36*
X668710Y725560D02*
X668558Y723824D01*
X668107Y722140D01*
X667370Y720560D01*
X666370Y719132D01*
X665138Y717900D01*
X663710Y716900D01*
X662130Y716163D01*
X660446Y715712D01*
X658710Y715560D01*
X598710Y715560D01*
X596974Y715712D01*
X595290Y716163D01*
X593710Y716900D01*
X592282Y717900D01*
X591050Y719132D01*
X590050Y720560D01*
X589313Y722140D01*
X588862Y723824D01*
X588710Y725560D01*
X588710Y755560D01*
X668710Y755560D01*
X668710Y725560D01*
G37*
G36*
X668710Y725560D02*
X668558Y723824D01*
X668107Y722140D01*
X667370Y720560D01*
X666370Y719132D01*
X665138Y717900D01*
X663710Y716900D01*
X662130Y716163D01*
X660446Y715712D01*
X658710Y715560D01*
X598710Y715560D01*
X596974Y715712D01*
X595290Y716163D01*
X593710Y716900D01*
X592282Y717900D01*
X591050Y719132D01*
X590050Y720560D01*
X589313Y722140D01*
X588862Y723824D01*
X588710Y725560D01*
X588710Y755560D01*
X668710Y755560D01*
X668710Y725560D01*
G37*
G36*
X668910Y155760D02*
X668758Y154024D01*
X668307Y152340D01*
X667570Y150760D01*
X666570Y149332D01*
X665338Y148100D01*
X663910Y147100D01*
X662330Y146363D01*
X660646Y145912D01*
X658910Y145760D01*
X598910Y145760D01*
X597174Y145912D01*
X595490Y146363D01*
X593910Y147100D01*
X592482Y148100D01*
X591250Y149332D01*
X590250Y150760D01*
X589513Y152340D01*
X589062Y154024D01*
X588910Y155760D01*
X588910Y185760D01*
X668910Y185760D01*
X668910Y155760D01*
G37*
G36*
X668910Y155760D02*
X668758Y154024D01*
X668307Y152340D01*
X667570Y150760D01*
X666570Y149332D01*
X665338Y148100D01*
X663910Y147100D01*
X662330Y146363D01*
X660646Y145912D01*
X658910Y145760D01*
X598910Y145760D01*
X597174Y145912D01*
X595490Y146363D01*
X593910Y147100D01*
X592482Y148100D01*
X591250Y149332D01*
X590250Y150760D01*
X589513Y152340D01*
X589062Y154024D01*
X588910Y155760D01*
X588910Y185760D01*
X668910Y185760D01*
X668910Y155760D01*
G37*
G36*
X668910Y345760D02*
X668758Y344024D01*
X668307Y342340D01*
X667570Y340760D01*
X666570Y339332D01*
X665338Y338100D01*
X663910Y337100D01*
X662330Y336363D01*
X660646Y335912D01*
X658910Y335760D01*
X598910Y335760D01*
X597174Y335912D01*
X595490Y336363D01*
X593910Y337100D01*
X592482Y338100D01*
X591250Y339332D01*
X590250Y340760D01*
X589513Y342340D01*
X589062Y344024D01*
X588910Y345760D01*
X588910Y375760D01*
X668910Y375760D01*
X668910Y345760D01*
G37*
G36*
X668910Y345760D02*
X668758Y344024D01*
X668307Y342340D01*
X667570Y340760D01*
X666570Y339332D01*
X665338Y338100D01*
X663910Y337100D01*
X662330Y336363D01*
X660646Y335912D01*
X658910Y335760D01*
X598910Y335760D01*
X597174Y335912D01*
X595490Y336363D01*
X593910Y337100D01*
X592482Y338100D01*
X591250Y339332D01*
X590250Y340760D01*
X589513Y342340D01*
X589062Y344024D01*
X588910Y345760D01*
X588910Y375760D01*
X668910Y375760D01*
X668910Y345760D01*
G37*
G36*
X763710Y60860D02*
X763558Y59124D01*
X763107Y57440D01*
X762370Y55860D01*
X761370Y54432D01*
X760138Y53200D01*
X758710Y52200D01*
X757130Y51463D01*
X755446Y51012D01*
X753710Y50860D01*
X693710Y50860D01*
X691974Y51012D01*
X690290Y51463D01*
X688710Y52200D01*
X687282Y53200D01*
X686050Y54432D01*
X685050Y55860D01*
X684313Y57440D01*
X683862Y59124D01*
X683710Y60860D01*
X683710Y90860D01*
X763710Y90860D01*
X763710Y60860D01*
G37*
G36*
X763710Y60860D02*
X763558Y59124D01*
X763107Y57440D01*
X762370Y55860D01*
X761370Y54432D01*
X760138Y53200D01*
X758710Y52200D01*
X757130Y51463D01*
X755446Y51012D01*
X753710Y50860D01*
X693710Y50860D01*
X691974Y51012D01*
X690290Y51463D01*
X688710Y52200D01*
X687282Y53200D01*
X686050Y54432D01*
X685050Y55860D01*
X684313Y57440D01*
X683862Y59124D01*
X683710Y60860D01*
X683710Y90860D01*
X763710Y90860D01*
X763710Y60860D01*
G37*
G36*
X763810Y405860D02*
X763810Y375860D01*
X683810Y375860D01*
X683810Y405860D01*
X683962Y407596D01*
X684413Y409280D01*
X685150Y410860D01*
X686150Y412288D01*
X687382Y413520D01*
X688810Y414520D01*
X690390Y415257D01*
X692074Y415708D01*
X693810Y415860D01*
X753810Y415860D01*
X755546Y415708D01*
X757230Y415257D01*
X758810Y414520D01*
X760238Y413520D01*
X761470Y412288D01*
X762470Y410860D01*
X763207Y409280D01*
X763658Y407596D01*
X763810Y405860D01*
G37*
G36*
X763810Y405860D02*
X763810Y375860D01*
X683810Y375860D01*
X683810Y405860D01*
X683962Y407596D01*
X684413Y409280D01*
X685150Y410860D01*
X686150Y412288D01*
X687382Y413520D01*
X688810Y414520D01*
X690390Y415257D01*
X692074Y415708D01*
X693810Y415860D01*
X753810Y415860D01*
X755546Y415708D01*
X757230Y415257D01*
X758810Y414520D01*
X760238Y413520D01*
X761470Y412288D01*
X762470Y410860D01*
X763207Y409280D01*
X763658Y407596D01*
X763810Y405860D01*
G37*
G36*
X763910Y155860D02*
X763758Y154124D01*
X763307Y152440D01*
X762570Y150860D01*
X761570Y149432D01*
X760338Y148200D01*
X758910Y147200D01*
X757330Y146463D01*
X755646Y146012D01*
X753910Y145860D01*
X693910Y145860D01*
X692174Y146012D01*
X690490Y146463D01*
X688910Y147200D01*
X687482Y148200D01*
X686250Y149432D01*
X685250Y150860D01*
X684513Y152440D01*
X684062Y154124D01*
X683910Y155860D01*
X683910Y185860D01*
X763910Y185860D01*
X763910Y155860D01*
G37*
G36*
X763910Y155860D02*
X763758Y154124D01*
X763307Y152440D01*
X762570Y150860D01*
X761570Y149432D01*
X760338Y148200D01*
X758910Y147200D01*
X757330Y146463D01*
X755646Y146012D01*
X753910Y145860D01*
X693910Y145860D01*
X692174Y146012D01*
X690490Y146463D01*
X688910Y147200D01*
X687482Y148200D01*
X686250Y149432D01*
X685250Y150860D01*
X684513Y152440D01*
X684062Y154124D01*
X683910Y155860D01*
X683910Y185860D01*
X763910Y185860D01*
X763910Y155860D01*
G37*
G36*
X763910Y310960D02*
X763910Y280960D01*
X683910Y280960D01*
X683910Y310960D01*
X684062Y312696D01*
X684513Y314380D01*
X685250Y315960D01*
X686250Y317388D01*
X687482Y318620D01*
X688910Y319620D01*
X690490Y320357D01*
X692174Y320808D01*
X693910Y320960D01*
X753910Y320960D01*
X755646Y320808D01*
X757330Y320357D01*
X758910Y319620D01*
X760338Y318620D01*
X761570Y317388D01*
X762570Y315960D01*
X763307Y314380D01*
X763758Y312696D01*
X763910Y310960D01*
G37*
G36*
X763910Y310960D02*
X763910Y280960D01*
X683910Y280960D01*
X683910Y310960D01*
X684062Y312696D01*
X684513Y314380D01*
X685250Y315960D01*
X686250Y317388D01*
X687482Y318620D01*
X688910Y319620D01*
X690490Y320357D01*
X692174Y320808D01*
X693910Y320960D01*
X753910Y320960D01*
X755646Y320808D01*
X757330Y320357D01*
X758910Y319620D01*
X760338Y318620D01*
X761570Y317388D01*
X762570Y315960D01*
X763307Y314380D01*
X763758Y312696D01*
X763910Y310960D01*
G37*
G36*
X763910Y440660D02*
X763758Y438924D01*
X763307Y437240D01*
X762570Y435660D01*
X761570Y434232D01*
X760338Y433000D01*
X758910Y432000D01*
X757330Y431263D01*
X755646Y430812D01*
X753910Y430660D01*
X693910Y430660D01*
X692174Y430812D01*
X690490Y431263D01*
X688910Y432000D01*
X687482Y433000D01*
X686250Y434232D01*
X685250Y435660D01*
X684513Y437240D01*
X684062Y438924D01*
X683910Y440660D01*
X683910Y470660D01*
X763910Y470660D01*
X763910Y440660D01*
G37*
G36*
X763910Y440660D02*
X763758Y438924D01*
X763307Y437240D01*
X762570Y435660D01*
X761570Y434232D01*
X760338Y433000D01*
X758910Y432000D01*
X757330Y431263D01*
X755646Y430812D01*
X753910Y430660D01*
X693910Y430660D01*
X692174Y430812D01*
X690490Y431263D01*
X688910Y432000D01*
X687482Y433000D01*
X686250Y434232D01*
X685250Y435660D01*
X684513Y437240D01*
X684062Y438924D01*
X683910Y440660D01*
X683910Y470660D01*
X763910Y470660D01*
X763910Y440660D01*
G37*
G36*
X764010Y785660D02*
X764010Y755660D01*
X684010Y755660D01*
X684010Y785660D01*
X684162Y787396D01*
X684613Y789080D01*
X685350Y790660D01*
X686350Y792088D01*
X687582Y793320D01*
X689010Y794320D01*
X690590Y795057D01*
X692274Y795508D01*
X694010Y795660D01*
X754010Y795660D01*
X755746Y795508D01*
X757430Y795057D01*
X759010Y794320D01*
X760438Y793320D01*
X761670Y792088D01*
X762670Y790660D01*
X763407Y789080D01*
X763858Y787396D01*
X764010Y785660D01*
G37*
G36*
X764010Y785660D02*
X764010Y755660D01*
X684010Y755660D01*
X684010Y785660D01*
X684162Y787396D01*
X684613Y789080D01*
X685350Y790660D01*
X686350Y792088D01*
X687582Y793320D01*
X689010Y794320D01*
X690590Y795057D01*
X692274Y795508D01*
X694010Y795660D01*
X754010Y795660D01*
X755746Y795508D01*
X757430Y795057D01*
X759010Y794320D01*
X760438Y793320D01*
X761670Y792088D01*
X762670Y790660D01*
X763407Y789080D01*
X763858Y787396D01*
X764010Y785660D01*
G37*
G36*
X764110Y535660D02*
X763958Y533924D01*
X763507Y532240D01*
X762770Y530660D01*
X761770Y529232D01*
X760538Y528000D01*
X759110Y527000D01*
X757530Y526263D01*
X755846Y525812D01*
X754110Y525660D01*
X694110Y525660D01*
X692374Y525812D01*
X690690Y526263D01*
X689110Y527000D01*
X687682Y528000D01*
X686450Y529232D01*
X685450Y530660D01*
X684713Y532240D01*
X684262Y533924D01*
X684110Y535660D01*
X684110Y565660D01*
X764110Y565660D01*
X764110Y535660D01*
G37*
G36*
X764110Y535660D02*
X763958Y533924D01*
X763507Y532240D01*
X762770Y530660D01*
X761770Y529232D01*
X760538Y528000D01*
X759110Y527000D01*
X757530Y526263D01*
X755846Y525812D01*
X754110Y525660D01*
X694110Y525660D01*
X692374Y525812D01*
X690690Y526263D01*
X689110Y527000D01*
X687682Y528000D01*
X686450Y529232D01*
X685450Y530660D01*
X684713Y532240D01*
X684262Y533924D01*
X684110Y535660D01*
X684110Y565660D01*
X764110Y565660D01*
X764110Y535660D01*
G37*
G36*
X764110Y690760D02*
X764110Y660760D01*
X684110Y660760D01*
X684110Y690760D01*
X684262Y692496D01*
X684713Y694180D01*
X685450Y695760D01*
X686450Y697188D01*
X687682Y698420D01*
X689110Y699420D01*
X690690Y700157D01*
X692374Y700608D01*
X694110Y700760D01*
X754110Y700760D01*
X755846Y700608D01*
X757530Y700157D01*
X759110Y699420D01*
X760538Y698420D01*
X761770Y697188D01*
X762770Y695760D01*
X763507Y694180D01*
X763958Y692496D01*
X764110Y690760D01*
G37*
G36*
X764110Y690760D02*
X764110Y660760D01*
X684110Y660760D01*
X684110Y690760D01*
X684262Y692496D01*
X684713Y694180D01*
X685450Y695760D01*
X686450Y697188D01*
X687682Y698420D01*
X689110Y699420D01*
X690690Y700157D01*
X692374Y700608D01*
X694110Y700760D01*
X754110Y700760D01*
X755846Y700608D01*
X757530Y700157D01*
X759110Y699420D01*
X760538Y698420D01*
X761770Y697188D01*
X762770Y695760D01*
X763507Y694180D01*
X763958Y692496D01*
X764110Y690760D01*
G37*
G36*
X858610Y595760D02*
X858610Y565760D01*
X778610Y565760D01*
X778610Y595760D01*
X778762Y597496D01*
X779213Y599180D01*
X779950Y600760D01*
X780950Y602188D01*
X782182Y603420D01*
X783610Y604420D01*
X785190Y605157D01*
X786874Y605608D01*
X788610Y605760D01*
X848610Y605760D01*
X850346Y605608D01*
X852030Y605157D01*
X853610Y604420D01*
X855038Y603420D01*
X856270Y602188D01*
X857270Y600760D01*
X858007Y599180D01*
X858458Y597496D01*
X858610Y595760D01*
G37*
G36*
X858610Y595760D02*
X858610Y565760D01*
X778610Y565760D01*
X778610Y595760D01*
X778762Y597496D01*
X779213Y599180D01*
X779950Y600760D01*
X780950Y602188D01*
X782182Y603420D01*
X783610Y604420D01*
X785190Y605157D01*
X786874Y605608D01*
X788610Y605760D01*
X848610Y605760D01*
X850346Y605608D01*
X852030Y605157D01*
X853610Y604420D01*
X855038Y603420D01*
X856270Y602188D01*
X857270Y600760D01*
X858007Y599180D01*
X858458Y597496D01*
X858610Y595760D01*
G37*
G36*
X858710Y215860D02*
X858710Y185860D01*
X778710Y185860D01*
X778710Y215860D01*
X778862Y217596D01*
X779313Y219280D01*
X780050Y220860D01*
X781050Y222288D01*
X782282Y223520D01*
X783710Y224520D01*
X785290Y225257D01*
X786974Y225708D01*
X788710Y225860D01*
X848710Y225860D01*
X850446Y225708D01*
X852130Y225257D01*
X853710Y224520D01*
X855138Y223520D01*
X856370Y222288D01*
X857370Y220860D01*
X858107Y219280D01*
X858558Y217596D01*
X858710Y215860D01*
G37*
G36*
X858710Y215860D02*
X858710Y185860D01*
X778710Y185860D01*
X778710Y215860D01*
X778862Y217596D01*
X779313Y219280D01*
X780050Y220860D01*
X781050Y222288D01*
X782282Y223520D01*
X783710Y224520D01*
X785290Y225257D01*
X786974Y225708D01*
X788710Y225860D01*
X848710Y225860D01*
X850446Y225708D01*
X852130Y225257D01*
X853710Y224520D01*
X855138Y223520D01*
X856370Y222288D01*
X857370Y220860D01*
X858107Y219280D01*
X858558Y217596D01*
X858710Y215860D01*
G37*
G36*
X858710Y500860D02*
X858710Y470860D01*
X778710Y470860D01*
X778710Y500860D01*
X778862Y502596D01*
X779313Y504280D01*
X780050Y505860D01*
X781050Y507288D01*
X782282Y508520D01*
X783710Y509520D01*
X785290Y510257D01*
X786974Y510708D01*
X788710Y510860D01*
X848710Y510860D01*
X850446Y510708D01*
X852130Y510257D01*
X853710Y509520D01*
X855138Y508520D01*
X856370Y507288D01*
X857370Y505860D01*
X858107Y504280D01*
X858558Y502596D01*
X858710Y500860D01*
G37*
G36*
X858710Y500860D02*
X858710Y470860D01*
X778710Y470860D01*
X778710Y500860D01*
X778862Y502596D01*
X779313Y504280D01*
X780050Y505860D01*
X781050Y507288D01*
X782282Y508520D01*
X783710Y509520D01*
X785290Y510257D01*
X786974Y510708D01*
X788710Y510860D01*
X848710Y510860D01*
X850446Y510708D01*
X852130Y510257D01*
X853710Y509520D01*
X855138Y508520D01*
X856370Y507288D01*
X857370Y505860D01*
X858107Y504280D01*
X858558Y502596D01*
X858710Y500860D01*
G37*
G36*
X858710Y630860D02*
X858558Y629124D01*
X858107Y627440D01*
X857370Y625860D01*
X856370Y624432D01*
X855138Y623200D01*
X853710Y622200D01*
X852130Y621463D01*
X850446Y621012D01*
X848710Y620860D01*
X788710Y620860D01*
X786974Y621012D01*
X785290Y621463D01*
X783710Y622200D01*
X782282Y623200D01*
X781050Y624432D01*
X780050Y625860D01*
X779313Y627440D01*
X778862Y629124D01*
X778710Y630860D01*
X778710Y660860D01*
X858710Y660860D01*
X858710Y630860D01*
G37*
G36*
X858710Y630860D02*
X858558Y629124D01*
X858107Y627440D01*
X857370Y625860D01*
X856370Y624432D01*
X855138Y623200D01*
X853710Y622200D01*
X852130Y621463D01*
X850446Y621012D01*
X848710Y620860D01*
X788710Y620860D01*
X786974Y621012D01*
X785290Y621463D01*
X783710Y622200D01*
X782282Y623200D01*
X781050Y624432D01*
X780050Y625860D01*
X779313Y627440D01*
X778862Y629124D01*
X778710Y630860D01*
X778710Y660860D01*
X858710Y660860D01*
X858710Y630860D01*
G37*
G36*
X858810Y120960D02*
X858810Y90960D01*
X778810Y90960D01*
X778810Y120960D01*
X778962Y122696D01*
X779413Y124380D01*
X780150Y125960D01*
X781150Y127388D01*
X782382Y128620D01*
X783810Y129620D01*
X785390Y130357D01*
X787074Y130808D01*
X788810Y130960D01*
X848810Y130960D01*
X850546Y130808D01*
X852230Y130357D01*
X853810Y129620D01*
X855238Y128620D01*
X856470Y127388D01*
X857470Y125960D01*
X858207Y124380D01*
X858658Y122696D01*
X858810Y120960D01*
G37*
G36*
X858810Y120960D02*
X858810Y90960D01*
X778810Y90960D01*
X778810Y120960D01*
X778962Y122696D01*
X779413Y124380D01*
X780150Y125960D01*
X781150Y127388D01*
X782382Y128620D01*
X783810Y129620D01*
X785390Y130357D01*
X787074Y130808D01*
X788810Y130960D01*
X848810Y130960D01*
X850546Y130808D01*
X852230Y130357D01*
X853810Y129620D01*
X855238Y128620D01*
X856470Y127388D01*
X857470Y125960D01*
X858207Y124380D01*
X858658Y122696D01*
X858810Y120960D01*
G37*
G36*
X858810Y250960D02*
X858658Y249224D01*
X858207Y247540D01*
X857470Y245960D01*
X856470Y244532D01*
X855238Y243300D01*
X853810Y242300D01*
X852230Y241563D01*
X850546Y241112D01*
X848810Y240960D01*
X788810Y240960D01*
X787074Y241112D01*
X785390Y241563D01*
X783810Y242300D01*
X782382Y243300D01*
X781150Y244532D01*
X780150Y245960D01*
X779413Y247540D01*
X778962Y249224D01*
X778810Y250960D01*
X778810Y280960D01*
X858810Y280960D01*
X858810Y250960D01*
G37*
G36*
X858810Y250960D02*
X858658Y249224D01*
X858207Y247540D01*
X857470Y245960D01*
X856470Y244532D01*
X855238Y243300D01*
X853810Y242300D01*
X852230Y241563D01*
X850546Y241112D01*
X848810Y240960D01*
X788810Y240960D01*
X787074Y241112D01*
X785390Y241563D01*
X783810Y242300D01*
X782382Y243300D01*
X781150Y244532D01*
X780150Y245960D01*
X779413Y247540D01*
X778962Y249224D01*
X778810Y250960D01*
X778810Y280960D01*
X858810Y280960D01*
X858810Y250960D01*
G37*
G36*
X858910Y725860D02*
X858758Y724124D01*
X858307Y722440D01*
X857570Y720860D01*
X856570Y719432D01*
X855338Y718200D01*
X853910Y717200D01*
X852330Y716463D01*
X850646Y716012D01*
X848910Y715860D01*
X788910Y715860D01*
X787174Y716012D01*
X785490Y716463D01*
X783910Y717200D01*
X782482Y718200D01*
X781250Y719432D01*
X780250Y720860D01*
X779513Y722440D01*
X779062Y724124D01*
X778910Y725860D01*
X778910Y755860D01*
X858910Y755860D01*
X858910Y725860D01*
G37*
G36*
X858910Y725860D02*
X858758Y724124D01*
X858307Y722440D01*
X857570Y720860D01*
X856570Y719432D01*
X855338Y718200D01*
X853910Y717200D01*
X852330Y716463D01*
X850646Y716012D01*
X848910Y715860D01*
X788910Y715860D01*
X787174Y716012D01*
X785490Y716463D01*
X783910Y717200D01*
X782482Y718200D01*
X781250Y719432D01*
X780250Y720860D01*
X779513Y722440D01*
X779062Y724124D01*
X778910Y725860D01*
X778910Y755860D01*
X858910Y755860D01*
X858910Y725860D01*
G37*
G36*
X859010Y345960D02*
X858858Y344224D01*
X858407Y342540D01*
X857670Y340960D01*
X856670Y339532D01*
X855438Y338300D01*
X854010Y337300D01*
X852430Y336563D01*
X850746Y336112D01*
X849010Y335960D01*
X789010Y335960D01*
X787274Y336112D01*
X785590Y336563D01*
X784010Y337300D01*
X782582Y338300D01*
X781350Y339532D01*
X780350Y340960D01*
X779613Y342540D01*
X779162Y344224D01*
X779010Y345960D01*
X779010Y375960D01*
X859010Y375960D01*
X859010Y345960D01*
G37*
G36*
X859010Y345960D02*
X858858Y344224D01*
X858407Y342540D01*
X857670Y340960D01*
X856670Y339532D01*
X855438Y338300D01*
X854010Y337300D01*
X852430Y336563D01*
X850746Y336112D01*
X849010Y335960D01*
X789010Y335960D01*
X787274Y336112D01*
X785590Y336563D01*
X784010Y337300D01*
X782582Y338300D01*
X781350Y339532D01*
X780350Y340960D01*
X779613Y342540D01*
X779162Y344224D01*
X779010Y345960D01*
X779010Y375960D01*
X859010Y375960D01*
X859010Y345960D01*
G37*
D10*
X151560Y70140D03*
X244260Y106640D03*
X150460Y259640D03*
X434860Y108140D03*
X151960Y450340D03*
X151160Y200240D03*
X153860Y640640D03*
X433760Y202940D03*
X239960Y165040D03*
X240960Y297540D03*
X339660Y298240D03*
X242560Y354940D03*
X148360Y395040D03*
X250960Y544940D03*
X338760Y393040D03*
X248160Y734840D03*
X341860Y68840D03*
X340560Y161340D03*
X244360Y487940D03*
X432460Y487140D03*
X344560Y450440D03*
X144560Y583840D03*
X343760Y547440D03*
X435460Y583340D03*
X243460Y676940D03*
X434860Y257640D03*
X339260Y677740D03*
X437460Y357840D03*
X149460Y776340D03*
X436760Y638740D03*
X339660Y771840D03*
X436560Y736640D03*
X535210Y71760D03*
X627910Y108260D03*
X534110Y261260D03*
X818510Y109760D03*
X535610Y451960D03*
X534810Y201860D03*
X537510Y642260D03*
X817410Y204560D03*
X623610Y166660D03*
X624610Y299160D03*
X723310Y299860D03*
X626210Y356560D03*
X532010Y396660D03*
X634610Y546560D03*
X722410Y394660D03*
X631810Y736460D03*
X725510Y70460D03*
X724210Y162960D03*
X628010Y489560D03*
X816110Y488760D03*
X728210Y452060D03*
X528210Y585460D03*
X727410Y549060D03*
X819110Y584960D03*
X627110Y678560D03*
X818510Y259260D03*
X722910Y679360D03*
X821110Y359460D03*
X533110Y777960D03*
X820410Y640360D03*
X723310Y773460D03*
X820210Y738260D03*
D11*
X456000Y821000D03*
X197000Y744000D03*
D12*
X438952Y803952D02*
X456000Y821000D01*
X438952Y803952D02*
X215952Y803952D01*
D11*
X149000Y707000D03*
X152000Y613000D03*
X149000Y518000D03*
X151000Y421000D03*
X149000Y326000D03*
X151000Y232000D03*
X153000Y136000D03*
D12*
X153860Y640640D02*
X153860Y702140D01*
X149000Y707000D01*
X153860Y640640D02*
X153860Y614860D01*
X152000Y613000D01*
X151960Y515040D02*
X151960Y450340D01*
X151960Y515040D02*
X149000Y518000D01*
X151960Y450340D02*
X151960Y421960D01*
X151000Y421000D01*
X150460Y324540D02*
X150460Y259640D01*
X150460Y324540D02*
X149000Y326000D01*
X150460Y259640D02*
X150460Y232540D01*
X151000Y232000D01*
X151560Y134560D02*
X151560Y70140D01*
X151560Y134560D02*
X153000Y136000D01*
X202068Y749000D02*
X202068Y790068D01*
X202068Y749000D02*
X197068Y744000D01*
X197000Y744000D01*
X202068Y790068D02*
X215952Y803952D01*
D11*
X292000Y107000D03*
D12*
X244260Y106640D02*
X198360Y106640D01*
X198000Y107000D01*
X244620Y107000D02*
X292000Y107000D01*
X244620Y107000D02*
X244260Y106640D01*
X433720Y107000D02*
X434860Y108140D01*
D11*
X196932Y107000D03*
D12*
X198000Y107000D01*
D11*
X385932Y107000D03*
D12*
X433720Y107000D01*
D11*
X416000Y846000D03*
D12*
X86000Y265400D02*
X151160Y200240D01*
X86000Y265400D02*
X86000Y787000D01*
X122000Y823000D01*
X393000Y823000D01*
X416000Y846000D01*
D11*
X294000Y204000D03*
D12*
X195240Y200240D02*
X151160Y200240D01*
X195240Y200240D02*
X197000Y202000D01*
X390060Y202940D02*
X433760Y202940D01*
X390060Y202940D02*
X389000Y204000D01*
D11*
X386932Y204000D03*
D12*
X389000Y204000D01*
D11*
X199068Y202000D03*
D12*
X197000Y202000D01*
D11*
X465811Y822189D03*
D12*
X443623Y800000D01*
X305000Y800000D01*
X276840Y734840D02*
X248160Y734840D01*
D11*
X247000Y706000D03*
X245000Y611000D03*
X246000Y517000D03*
X244000Y422000D03*
X244000Y326000D03*
X242000Y231000D03*
X243000Y136000D03*
D12*
X247000Y733680D02*
X248160Y734840D01*
X247000Y733680D02*
X247000Y706000D01*
X250960Y605040D02*
X250960Y544940D01*
X250960Y605040D02*
X245000Y611000D01*
X250960Y544940D02*
X250960Y521960D01*
X246000Y517000D01*
X242560Y420560D02*
X242560Y354940D01*
X242560Y420560D02*
X244000Y422000D01*
X242560Y354940D02*
X244000Y353500D01*
X244000Y326000D01*
X239960Y228960D02*
X239960Y165040D01*
X239960Y228960D02*
X242000Y231000D01*
X239960Y165040D02*
X243000Y162000D01*
X243000Y136000D01*
X276840Y734840D02*
X288932Y746932D01*
X288932Y783932D01*
X305000Y800000D01*
D11*
X388000Y299000D03*
D12*
X240960Y297540D02*
X200460Y297540D01*
X199000Y299000D01*
X240960Y297540D02*
X293540Y297540D01*
X294000Y298000D01*
X294240Y298240D02*
X339660Y298240D01*
X294240Y298240D02*
X294000Y298000D01*
X339660Y298240D02*
X340420Y299000D01*
X388000Y299000D01*
D11*
X197692Y299000D03*
D12*
X199000Y299000D01*
D11*
X291792Y298000D03*
D12*
X294000Y298000D01*
D11*
X428000Y839000D03*
D12*
X148360Y395040D02*
X133360Y395040D01*
X92000Y436400D01*
X92000Y785000D01*
X124000Y817000D01*
X406000Y817000D01*
X428000Y839000D01*
D11*
X388000Y391000D03*
D12*
X190960Y395040D02*
X148360Y395040D01*
X190960Y395040D02*
X198000Y388000D01*
X296040Y393040D02*
X338760Y393040D01*
X296040Y393040D02*
X293000Y390000D01*
X338760Y393040D02*
X385960Y393040D01*
X388000Y391000D01*
D11*
X290932Y390000D03*
D12*
X293000Y390000D01*
D11*
X199068Y388000D03*
D12*
X198000Y388000D01*
D11*
X386000Y747000D03*
X463676Y811472D03*
D12*
X461560Y811472D01*
X447040Y796952D02*
X400952Y796952D01*
X447040Y796952D02*
X461560Y811472D01*
D11*
X339000Y707000D03*
X338000Y612000D03*
X342000Y516000D03*
X343000Y421000D03*
X339000Y328000D03*
X340000Y232000D03*
X341000Y137000D03*
D12*
X343760Y547440D02*
X343760Y606240D01*
X338000Y612000D01*
X343760Y547440D02*
X343760Y517760D01*
X342000Y516000D01*
X342000Y453000D01*
X343500Y451500D01*
X344560Y450440D01*
X343000Y451000D02*
X343000Y421000D01*
X343000Y451000D02*
X343500Y451500D01*
X340560Y231440D02*
X340560Y161340D01*
X340560Y231440D02*
X340000Y232000D01*
X340560Y161340D02*
X340560Y137440D01*
X341000Y137000D01*
X337860Y133860D02*
X337860Y72840D01*
X341860Y68840D01*
X337860Y133860D02*
X341000Y137000D01*
X392000Y753000D02*
X392000Y770419D01*
X392000Y753000D02*
X386000Y747000D01*
X392000Y770419D02*
X392068Y770487D01*
X392068Y788068D02*
X400952Y796952D01*
X392068Y788068D02*
X392068Y770487D01*
D11*
X292000Y486000D03*
D12*
X244360Y487940D02*
X241420Y485000D01*
X244360Y487940D02*
X290060Y487940D01*
X292000Y486000D01*
X388860Y487140D02*
X432460Y487140D01*
X388860Y487140D02*
X388000Y488000D01*
D11*
X386932Y488000D03*
D12*
X388000Y488000D01*
D11*
X196932Y485000D03*
D12*
X241420Y485000D01*
D11*
X439000Y832000D03*
D12*
X144560Y583840D02*
X100000Y628400D01*
X100000Y784000D01*
X128000Y812000D01*
X419000Y812000D01*
X439000Y832000D01*
D11*
X292000Y584000D03*
D12*
X196160Y583840D02*
X144560Y583840D01*
X196160Y583840D02*
X198000Y582000D01*
X388340Y583340D02*
X435460Y583340D01*
X388340Y583340D02*
X388000Y583000D01*
D11*
X386932Y583000D03*
D12*
X388000Y583000D01*
D11*
X199068Y582000D03*
D12*
X198000Y582000D01*
D11*
X474393Y811607D03*
D12*
X477393Y754473D02*
X459560Y736640D01*
X436560Y736640D01*
X477393Y808607D02*
X474393Y811607D01*
X477393Y808607D02*
X477393Y754473D01*
D11*
X437000Y707000D03*
X437000Y613000D03*
X436000Y518000D03*
X435000Y423000D03*
X438000Y328000D03*
X435000Y233000D03*
X433000Y137000D03*
D12*
X437000Y736200D02*
X436560Y736640D01*
X437000Y736200D02*
X437000Y707000D01*
X436760Y706760D02*
X436760Y638740D01*
X436760Y706760D02*
X437000Y707000D01*
X436760Y638740D02*
X436760Y613240D01*
X437000Y613000D01*
X435000Y360300D02*
X437460Y357840D01*
X435000Y360300D02*
X435000Y423000D01*
X437460Y357840D02*
X437460Y328540D01*
X438000Y328000D01*
X434860Y324860D02*
X434860Y257640D01*
X434860Y324860D02*
X438000Y328000D01*
X434860Y257640D02*
X435000Y257500D01*
X435000Y233000D01*
D11*
X388000Y676000D03*
D12*
X243460Y676940D02*
X198060Y676940D01*
X198000Y677000D01*
X243460Y676940D02*
X292060Y676940D01*
X293000Y676000D01*
X294740Y677740D02*
X339260Y677740D01*
X294740Y677740D02*
X293000Y676000D01*
X339260Y677740D02*
X386260Y677740D01*
X388000Y676000D01*
D11*
X196932Y677000D03*
D12*
X198000Y677000D01*
D11*
X290932Y676000D03*
D12*
X293000Y676000D01*
D11*
X533000Y708000D03*
X536000Y614000D03*
X532000Y517000D03*
X535000Y424000D03*
X533000Y328000D03*
X535000Y233000D03*
X536000Y138000D03*
D12*
X537510Y642260D02*
X533000Y646770D01*
X533000Y708000D01*
X537510Y642260D02*
X537510Y615510D01*
X536000Y614000D01*
X532000Y455570D02*
X535610Y451960D01*
X532000Y455570D02*
X532000Y517000D01*
X535610Y451960D02*
X535610Y424610D01*
X535000Y424000D01*
X534110Y326890D02*
X534110Y261260D01*
X534110Y326890D02*
X533000Y328000D01*
X534110Y261260D02*
X535000Y260370D01*
X535000Y233000D01*
X535210Y137210D02*
X535210Y71760D01*
X535210Y137210D02*
X536000Y138000D01*
D11*
X555000Y835000D03*
D12*
X851000Y832000D02*
X886000Y797000D01*
X851000Y832000D02*
X558000Y832000D01*
X555000Y835000D01*
D11*
X677000Y109000D03*
D12*
X627910Y108260D02*
X581740Y108260D01*
X581000Y109000D01*
X627910Y108260D02*
X676260Y108260D01*
X677000Y109000D01*
X817750Y109000D02*
X818510Y109760D01*
D11*
X579932Y109000D03*
D12*
X581000Y109000D01*
D11*
X770932Y109000D03*
D12*
X817750Y109000D01*
X818510Y109760D02*
X884534Y175784D01*
X885275Y256528D01*
X886000Y390063D01*
X886000Y797000D01*
D11*
X545000Y835000D03*
D12*
X817410Y204560D02*
X842560Y204560D01*
X882000Y244000D01*
X882000Y795000D01*
X849000Y828000D01*
X552000Y828000D01*
X545000Y835000D01*
D11*
X582000Y203000D03*
X677000Y205000D03*
D12*
X580860Y201860D02*
X534810Y201860D01*
X580860Y201860D02*
X582000Y203000D01*
X772440Y204560D02*
X817410Y204560D01*
X772440Y204560D02*
X772000Y205000D01*
D11*
X770932Y205000D03*
D12*
X772000Y205000D01*
D11*
X495000Y806000D03*
D12*
X589540Y736460D02*
X631810Y736460D01*
X570000Y799000D02*
X502000Y799000D01*
X495000Y806000D01*
X586068Y739932D02*
X589540Y736460D01*
X586068Y739932D02*
X586068Y782932D01*
X570000Y799000D01*
D11*
X633000Y708000D03*
X628000Y612000D03*
X633000Y518000D03*
X627000Y423000D03*
X627000Y329000D03*
X625000Y233000D03*
X625000Y139000D03*
D12*
X631810Y709190D02*
X631810Y736460D01*
X631810Y709190D02*
X633000Y708000D01*
X628000Y553170D02*
X634610Y546560D01*
X628000Y553170D02*
X628000Y612000D01*
X634610Y546560D02*
X634610Y519610D01*
X633000Y518000D01*
X626210Y422210D02*
X626210Y356560D01*
X626210Y422210D02*
X627000Y423000D01*
X626210Y356560D02*
X626210Y329790D01*
X627000Y329000D01*
X623610Y231610D02*
X623610Y166660D01*
X623610Y231610D02*
X625000Y233000D01*
X623610Y166660D02*
X625000Y165270D01*
X625000Y139000D01*
D11*
X772000Y300000D03*
D12*
X624610Y299160D02*
X582840Y299160D01*
X581000Y301000D01*
X624610Y299160D02*
X676160Y299160D01*
X677000Y300000D01*
X677140Y299860D02*
X723310Y299860D01*
X677140Y299860D02*
X677000Y300000D01*
X723310Y299860D02*
X723450Y300000D01*
X772000Y300000D01*
D11*
X580932Y301000D03*
D12*
X581000Y301000D01*
D11*
X675932Y300000D03*
D12*
X677000Y300000D01*
D11*
X581000Y395000D03*
X773000Y394000D03*
D12*
X579340Y396660D02*
X532010Y396660D01*
X579340Y396660D02*
X581000Y395000D01*
X721750Y394000D02*
X722410Y394660D01*
X772340Y394660D01*
X773000Y394000D01*
D11*
X675932Y394000D03*
D12*
X721750Y394000D01*
D11*
X722000Y708000D03*
X722000Y613000D03*
X726000Y517000D03*
X727000Y423000D03*
X723000Y328000D03*
X724000Y233000D03*
X725000Y139000D03*
D12*
X727410Y549060D02*
X722000Y554470D01*
X722000Y613000D01*
X727410Y549060D02*
X727410Y518410D01*
X726000Y517000D01*
X726000Y454270D02*
X728210Y452060D01*
X726000Y454270D02*
X726000Y517000D01*
X728210Y452060D02*
X728210Y424210D01*
X727000Y423000D01*
X724210Y232790D02*
X724210Y162960D01*
X724210Y232790D02*
X724000Y233000D01*
X724210Y162960D02*
X725000Y162170D01*
X725000Y139000D01*
X725510Y138490D02*
X725510Y70460D01*
X725510Y138490D02*
X725000Y139000D01*
D11*
X531000Y824000D03*
D12*
X833110Y488760D02*
X872000Y527650D01*
X833110Y488760D02*
X816110Y488760D01*
X872000Y527650D02*
X872000Y792000D01*
X845000Y819000D01*
X536000Y819000D01*
X531000Y824000D01*
D11*
X677000Y489000D03*
D12*
X628010Y489560D02*
X581440Y489560D01*
X581000Y490000D01*
X628010Y489560D02*
X676440Y489560D01*
X677000Y489000D01*
X772240Y488760D02*
X816110Y488760D01*
X772240Y488760D02*
X772000Y489000D01*
D11*
X580932Y490000D03*
D12*
X581000Y490000D01*
D11*
X770932Y489000D03*
D12*
X772000Y489000D01*
D11*
X520000Y825000D03*
D12*
X824110Y584960D02*
X867000Y627850D01*
X824110Y584960D02*
X819110Y584960D01*
X867000Y627850D02*
X867000Y792000D01*
X844000Y815000D01*
X530000Y815000D01*
X520000Y825000D01*
D11*
X581000Y586000D03*
X677000Y586000D03*
D12*
X580460Y585460D02*
X528210Y585460D01*
X580460Y585460D02*
X581000Y586000D01*
X772040Y584960D02*
X819110Y584960D01*
X772040Y584960D02*
X772000Y585000D01*
D11*
X769932Y585000D03*
D12*
X772000Y585000D01*
D11*
X508000Y812000D03*
D12*
X780740Y738260D02*
X820210Y738260D01*
X753000Y805000D02*
X515000Y805000D01*
X508000Y812000D01*
X776068Y742932D02*
X780740Y738260D01*
X776068Y742932D02*
X776068Y781932D01*
X753000Y805000D01*
D11*
X820000Y708000D03*
X820000Y613000D03*
X819000Y518000D03*
X818000Y424000D03*
X820000Y328000D03*
X818000Y233000D03*
X818000Y139000D03*
D12*
X820210Y708210D02*
X820210Y738260D01*
X820210Y708210D02*
X820000Y708000D01*
X820410Y707590D02*
X820410Y640360D01*
X820410Y707590D02*
X820000Y708000D01*
X820410Y640360D02*
X820410Y613410D01*
X820000Y613000D01*
X818000Y362570D02*
X821110Y359460D01*
X818000Y362570D02*
X818000Y424000D01*
X821110Y359460D02*
X821110Y329110D01*
X820000Y328000D01*
X818510Y326510D02*
X818510Y259260D01*
X818510Y326510D02*
X820000Y328000D01*
X818510Y259260D02*
X818510Y233510D01*
X818000Y233000D01*
D11*
X772000Y680000D03*
D12*
X627110Y678560D02*
X580440Y678560D01*
X580000Y679000D01*
X627110Y678560D02*
X675560Y678560D01*
X676000Y679000D01*
X722550Y679000D02*
X722910Y679360D01*
X722550Y679000D02*
X676000Y679000D01*
X722910Y679360D02*
X771360Y679360D01*
X772000Y680000D01*
D11*
X579932Y679000D03*
D12*
X580000Y679000D01*
D11*
X675932Y679000D03*
D12*
X676000Y679000D01*
D11*
X580000Y776000D03*
X675000Y775000D03*
X770000Y774000D03*
D12*
X578040Y777960D02*
X533110Y777960D01*
X578040Y777960D02*
X580000Y776000D01*
X676540Y773460D02*
X723310Y773460D01*
X676540Y773460D02*
X675000Y775000D01*
X723310Y773460D02*
X723850Y774000D01*
X770000Y774000D01*
D11*
X446000Y821000D03*
D12*
X432000Y807000D02*
X180120Y807000D01*
X432000Y807000D02*
X446000Y821000D01*
X180120Y807000D02*
X149460Y776340D01*
D11*
X196000Y777000D03*
X295000Y773000D03*
X386000Y773000D03*
D12*
X150120Y777000D02*
X149460Y776340D01*
X150120Y777000D02*
X196000Y777000D01*
X296160Y771840D02*
X339660Y771840D01*
X296160Y771840D02*
X295000Y773000D01*
X339660Y771840D02*
X340820Y773000D01*
X386000Y773000D01*
M02*
