G04 EAGLE Gerber RS-274X export*
G75*
%MOMM*%
%FSLAX34Y34*%
%LPD*%
%INTop Copper*%
%IPPOS*%
%AMOC8*
5,1,8,0,0,1.08239X$1,22.5*%
G01*
G04 Define Apertures*
%ADD10R,1.270000X2.540000*%
%ADD11R,0.300000X2.000000*%
%ADD12C,0.756400*%
%ADD13C,0.152400*%
G36*
X320526Y10000D02*
X314061Y10000D01*
X314061Y27286D01*
X319778Y27286D01*
X320319Y27277D01*
X320845Y27251D01*
X321354Y27208D01*
X321849Y27148D01*
X322327Y27071D01*
X322790Y26976D01*
X323237Y26864D01*
X323668Y26735D01*
X324084Y26589D01*
X324484Y26426D01*
X324869Y26245D01*
X325238Y26047D01*
X325591Y25832D01*
X325928Y25600D01*
X326250Y25350D01*
X326556Y25084D01*
X326845Y24801D01*
X327115Y24504D01*
X327367Y24192D01*
X327600Y23866D01*
X327814Y23526D01*
X328010Y23171D01*
X328187Y22801D01*
X328346Y22417D01*
X328485Y22018D01*
X328607Y21605D01*
X328709Y21177D01*
X328793Y20735D01*
X328858Y20278D01*
X328905Y19807D01*
X328933Y19321D01*
X328942Y18821D01*
X328926Y18163D01*
X328877Y17525D01*
X328796Y16909D01*
X328682Y16313D01*
X328535Y15739D01*
X328356Y15185D01*
X328144Y14652D01*
X327899Y14140D01*
X327625Y13654D01*
X327324Y13196D01*
X326995Y12768D01*
X326639Y12369D01*
X326256Y12000D01*
X325845Y11660D01*
X325408Y11349D01*
X324943Y11067D01*
X324455Y10817D01*
X323949Y10600D01*
X323425Y10417D01*
X322882Y10267D01*
X322321Y10150D01*
X321741Y10067D01*
X321143Y10017D01*
X320526Y10000D01*
G37*
%LPC*%
G36*
X320256Y11877D02*
X320725Y11890D01*
X321178Y11929D01*
X321618Y11994D01*
X322043Y12086D01*
X322454Y12203D01*
X322850Y12346D01*
X323232Y12516D01*
X323599Y12711D01*
X323949Y12931D01*
X324278Y13174D01*
X324587Y13440D01*
X324874Y13729D01*
X325140Y14042D01*
X325386Y14377D01*
X325610Y14735D01*
X325814Y15116D01*
X325995Y15517D01*
X326152Y15936D01*
X326285Y16373D01*
X326394Y16827D01*
X326478Y17299D01*
X326538Y17789D01*
X326575Y18296D01*
X326587Y18821D01*
X326580Y19217D01*
X326559Y19600D01*
X326525Y19972D01*
X326477Y20332D01*
X326415Y20680D01*
X326339Y21017D01*
X326250Y21341D01*
X326147Y21653D01*
X326030Y21953D01*
X325899Y22242D01*
X325755Y22518D01*
X325596Y22783D01*
X325425Y23036D01*
X325239Y23276D01*
X325039Y23505D01*
X324826Y23722D01*
X324600Y23926D01*
X324362Y24117D01*
X324111Y24295D01*
X323848Y24460D01*
X323572Y24611D01*
X323284Y24750D01*
X322984Y24875D01*
X322672Y24987D01*
X322347Y25086D01*
X322010Y25171D01*
X321661Y25244D01*
X321299Y25303D01*
X320925Y25349D01*
X320538Y25382D01*
X320140Y25402D01*
X319729Y25409D01*
X316404Y25409D01*
X316404Y11877D01*
X320256Y11877D01*
G37*
%LPD*%
G36*
X406266Y10000D02*
X399249Y10000D01*
X399249Y27286D01*
X405530Y27286D01*
X406267Y27269D01*
X406956Y27220D01*
X407598Y27138D01*
X408192Y27023D01*
X408739Y26876D01*
X409238Y26696D01*
X409689Y26483D01*
X410094Y26237D01*
X410450Y25958D01*
X410759Y25647D01*
X411021Y25303D01*
X411234Y24926D01*
X411401Y24516D01*
X411520Y24073D01*
X411591Y23598D01*
X411609Y23348D01*
X411615Y23090D01*
X411601Y22714D01*
X411561Y22354D01*
X411494Y22009D01*
X411400Y21679D01*
X411279Y21365D01*
X411132Y21066D01*
X410957Y20782D01*
X410756Y20514D01*
X410530Y20264D01*
X410391Y20136D01*
X410282Y20035D01*
X410012Y19828D01*
X409719Y19643D01*
X409405Y19479D01*
X409068Y19336D01*
X408708Y19215D01*
X408327Y19115D01*
X408827Y19040D01*
X409298Y18937D01*
X409740Y18806D01*
X410152Y18647D01*
X410534Y18461D01*
X410887Y18247D01*
X411210Y18005D01*
X411346Y17880D01*
X411504Y17735D01*
X411766Y17442D01*
X411993Y17130D01*
X412185Y16800D01*
X412342Y16451D01*
X412464Y16084D01*
X412551Y15698D01*
X412603Y15294D01*
X412621Y14870D01*
X412614Y14586D01*
X412594Y14310D01*
X412562Y14042D01*
X412516Y13781D01*
X412457Y13529D01*
X412384Y13285D01*
X412201Y12820D01*
X411964Y12388D01*
X411675Y11987D01*
X411334Y11619D01*
X410940Y11282D01*
X410499Y10982D01*
X410018Y10721D01*
X409495Y10501D01*
X408931Y10321D01*
X408326Y10180D01*
X407681Y10080D01*
X406994Y10020D01*
X406266Y10000D01*
G37*
%LPC*%
G36*
X406143Y11877D02*
X406662Y11889D01*
X407144Y11927D01*
X407589Y11989D01*
X407999Y12076D01*
X408372Y12189D01*
X408708Y12326D01*
X409008Y12488D01*
X409272Y12674D01*
X409502Y12886D01*
X409701Y13122D01*
X409870Y13383D01*
X410008Y13668D01*
X410115Y13978D01*
X410192Y14312D01*
X410238Y14671D01*
X410253Y15054D01*
X410236Y15424D01*
X410186Y15770D01*
X410102Y16093D01*
X409985Y16391D01*
X409834Y16665D01*
X409649Y16916D01*
X409431Y17143D01*
X409180Y17346D01*
X408894Y17524D01*
X408576Y17680D01*
X408223Y17811D01*
X407838Y17918D01*
X407418Y18002D01*
X406966Y18061D01*
X406479Y18097D01*
X405959Y18109D01*
X401592Y18109D01*
X401592Y11877D01*
X406143Y11877D01*
G37*
G36*
X405530Y19937D02*
X405984Y19948D01*
X406409Y19981D01*
X406804Y20036D01*
X407169Y20113D01*
X407505Y20213D01*
X407810Y20334D01*
X408087Y20477D01*
X408333Y20643D01*
X408550Y20831D01*
X408738Y21042D01*
X408897Y21278D01*
X409028Y21537D01*
X409129Y21819D01*
X409201Y22125D01*
X409245Y22455D01*
X409259Y22808D01*
X409244Y23145D01*
X409199Y23457D01*
X409125Y23745D01*
X409020Y24007D01*
X408885Y24245D01*
X408721Y24457D01*
X408527Y24645D01*
X408302Y24808D01*
X408050Y24948D01*
X407770Y25071D01*
X407464Y25174D01*
X407131Y25258D01*
X406771Y25324D01*
X406384Y25371D01*
X405970Y25399D01*
X405530Y25409D01*
X401592Y25409D01*
X401592Y19937D01*
X405530Y19937D01*
G37*
%LPD*%
G36*
X369004Y4786D02*
X368475Y4799D01*
X367974Y4839D01*
X367500Y4906D01*
X367054Y4999D01*
X366635Y5119D01*
X366244Y5266D01*
X365880Y5439D01*
X365545Y5639D01*
X365237Y5863D01*
X364958Y6110D01*
X364708Y6379D01*
X364486Y6671D01*
X364294Y6985D01*
X364130Y7321D01*
X363995Y7680D01*
X363888Y8062D01*
X366109Y8381D01*
X366172Y8157D01*
X366253Y7947D01*
X366350Y7750D01*
X366463Y7566D01*
X366593Y7396D01*
X366740Y7239D01*
X366904Y7095D01*
X367084Y6964D01*
X367280Y6847D01*
X367491Y6746D01*
X367716Y6661D01*
X367957Y6591D01*
X368212Y6537D01*
X368482Y6498D01*
X368766Y6475D01*
X369065Y6467D01*
X369465Y6482D01*
X369486Y6484D01*
X369839Y6527D01*
X370187Y6603D01*
X370509Y6708D01*
X370806Y6844D01*
X371076Y7010D01*
X371321Y7207D01*
X371541Y7433D01*
X371734Y7690D01*
X371902Y7976D01*
X372043Y8293D01*
X372159Y8641D01*
X372250Y9018D01*
X372314Y9426D01*
X372353Y9863D01*
X372366Y10331D01*
X372366Y12466D01*
X372341Y12466D01*
X372177Y12157D01*
X371999Y11867D01*
X371806Y11598D01*
X371599Y11348D01*
X371377Y11118D01*
X371140Y10907D01*
X370889Y10717D01*
X370641Y10557D01*
X370624Y10546D01*
X370345Y10395D01*
X370055Y10264D01*
X369753Y10153D01*
X369440Y10063D01*
X369115Y9992D01*
X368779Y9942D01*
X368431Y9912D01*
X368072Y9902D01*
X367772Y9908D01*
X367482Y9927D01*
X367202Y9959D01*
X366932Y10003D01*
X366672Y10060D01*
X366423Y10130D01*
X366183Y10212D01*
X365954Y10307D01*
X365735Y10414D01*
X365526Y10534D01*
X365138Y10813D01*
X364790Y11142D01*
X364483Y11521D01*
X364215Y11955D01*
X363982Y12447D01*
X363784Y12996D01*
X363623Y13604D01*
X363498Y14269D01*
X363408Y14992D01*
X363354Y15773D01*
X363336Y16612D01*
X363356Y17464D01*
X363413Y18258D01*
X363510Y18994D01*
X363645Y19672D01*
X363818Y20292D01*
X364030Y20855D01*
X364280Y21361D01*
X364569Y21808D01*
X364898Y22200D01*
X365266Y22541D01*
X365465Y22691D01*
X365674Y22828D01*
X365893Y22953D01*
X366123Y23064D01*
X366362Y23162D01*
X366611Y23247D01*
X366870Y23319D01*
X367140Y23378D01*
X367419Y23424D01*
X367708Y23456D01*
X368008Y23476D01*
X368317Y23483D01*
X368664Y23473D01*
X368999Y23442D01*
X369323Y23392D01*
X369634Y23322D01*
X369935Y23231D01*
X370223Y23120D01*
X370500Y22989D01*
X370765Y22839D01*
X371016Y22669D01*
X371253Y22482D01*
X371476Y22279D01*
X371683Y22058D01*
X371876Y21820D01*
X372054Y21565D01*
X372217Y21293D01*
X372366Y21004D01*
X372390Y21004D01*
X372402Y21507D01*
X372439Y22280D01*
X372488Y22983D01*
X372513Y23180D01*
X372537Y23274D01*
X374635Y23274D01*
X374603Y22854D01*
X374580Y22256D01*
X374562Y20526D01*
X374562Y10380D01*
X374540Y9703D01*
X374475Y9069D01*
X374366Y8479D01*
X374214Y7933D01*
X374019Y7430D01*
X373780Y6971D01*
X373498Y6556D01*
X373172Y6185D01*
X372803Y5857D01*
X372391Y5573D01*
X371935Y5332D01*
X371436Y5136D01*
X370893Y4983D01*
X370307Y4874D01*
X369677Y4808D01*
X369004Y4786D01*
G37*
%LPC*%
G36*
X368820Y11534D02*
X369077Y11543D01*
X369327Y11572D01*
X369569Y11620D01*
X369805Y11687D01*
X370033Y11773D01*
X370253Y11879D01*
X370467Y12003D01*
X370673Y12147D01*
X370869Y12309D01*
X371054Y12487D01*
X371228Y12682D01*
X371253Y12715D01*
X371390Y12894D01*
X371541Y13122D01*
X371680Y13367D01*
X371808Y13629D01*
X371924Y13907D01*
X372027Y14201D01*
X372117Y14508D01*
X372193Y14829D01*
X372255Y15163D01*
X372303Y15511D01*
X372338Y15873D01*
X372359Y16248D01*
X372366Y16637D01*
X372359Y17035D01*
X372338Y17419D01*
X372303Y17789D01*
X372255Y18144D01*
X372193Y18486D01*
X372117Y18814D01*
X372027Y19128D01*
X371924Y19428D01*
X371808Y19712D01*
X371681Y19979D01*
X371542Y20229D01*
X371392Y20462D01*
X371231Y20677D01*
X371058Y20875D01*
X370874Y21056D01*
X370679Y21219D01*
X370474Y21364D01*
X370264Y21490D01*
X370046Y21597D01*
X369822Y21684D01*
X369590Y21752D01*
X369353Y21800D01*
X369108Y21829D01*
X368857Y21839D01*
X368448Y21820D01*
X368068Y21762D01*
X367717Y21666D01*
X367394Y21532D01*
X367100Y21359D01*
X366835Y21149D01*
X366599Y20899D01*
X366391Y20612D01*
X366210Y20281D01*
X366053Y19903D01*
X365920Y19478D01*
X365811Y19005D01*
X365727Y18484D01*
X365666Y17916D01*
X365630Y17300D01*
X365618Y16637D01*
X365629Y15980D01*
X365663Y15371D01*
X365720Y14810D01*
X365799Y14297D01*
X365901Y13832D01*
X366025Y13414D01*
X366172Y13045D01*
X366342Y12724D01*
X366539Y12445D01*
X366768Y12203D01*
X367030Y11998D01*
X367323Y11831D01*
X367649Y11701D01*
X368007Y11608D01*
X368398Y11552D01*
X368820Y11534D01*
G37*
%LPD*%
G36*
X687254Y9755D02*
X686885Y9763D01*
X686532Y9789D01*
X686194Y9831D01*
X685873Y9891D01*
X685567Y9968D01*
X685277Y10062D01*
X685003Y10173D01*
X684746Y10301D01*
X684501Y10447D01*
X684269Y10615D01*
X684048Y10804D01*
X683839Y11014D01*
X683642Y11244D01*
X683456Y11496D01*
X683282Y11768D01*
X683120Y12061D01*
X683095Y12061D01*
X683083Y11581D01*
X683046Y10902D01*
X683003Y10287D01*
X682973Y10000D01*
X680838Y10000D01*
X680870Y10419D01*
X680893Y11015D01*
X680912Y12736D01*
X680912Y28206D01*
X683120Y28206D01*
X683120Y23016D01*
X683108Y22148D01*
X683071Y21139D01*
X683120Y21139D01*
X683280Y21447D01*
X683452Y21732D01*
X683636Y21995D01*
X683833Y22234D01*
X684042Y22452D01*
X684264Y22646D01*
X684499Y22818D01*
X684746Y22967D01*
X685006Y23097D01*
X685282Y23209D01*
X685573Y23304D01*
X685879Y23381D01*
X686200Y23442D01*
X686536Y23485D01*
X686888Y23511D01*
X687254Y23519D01*
X687564Y23513D01*
X687862Y23493D01*
X688151Y23460D01*
X688429Y23414D01*
X688696Y23354D01*
X688953Y23281D01*
X689200Y23195D01*
X689437Y23096D01*
X689662Y22984D01*
X689878Y22858D01*
X690083Y22719D01*
X690278Y22567D01*
X690462Y22402D01*
X690636Y22223D01*
X690953Y21826D01*
X691231Y21376D01*
X691471Y20871D01*
X691675Y20312D01*
X691841Y19698D01*
X691971Y19030D01*
X692063Y18307D01*
X692119Y17530D01*
X692137Y16698D01*
X692118Y15858D01*
X692061Y15071D01*
X691965Y14339D01*
X691832Y13660D01*
X691660Y13037D01*
X691450Y12467D01*
X691202Y11952D01*
X690916Y11491D01*
X690592Y11084D01*
X690230Y10731D01*
X690034Y10575D01*
X689829Y10433D01*
X689615Y10304D01*
X689391Y10189D01*
X689157Y10087D01*
X688914Y9999D01*
X688661Y9924D01*
X688399Y9863D01*
X688127Y9816D01*
X687846Y9782D01*
X687555Y9761D01*
X687254Y9755D01*
G37*
%LPC*%
G36*
X686665Y11386D02*
X687068Y11406D01*
X687442Y11463D01*
X687787Y11560D01*
X688102Y11695D01*
X688389Y11868D01*
X688647Y12080D01*
X688876Y12330D01*
X689076Y12619D01*
X689250Y12952D01*
X689401Y13332D01*
X689528Y13760D01*
X689633Y14237D01*
X689714Y14762D01*
X689772Y15335D01*
X689807Y15956D01*
X689818Y16625D01*
X689807Y17296D01*
X689772Y17918D01*
X689715Y18491D01*
X689634Y19014D01*
X689531Y19488D01*
X689404Y19912D01*
X689255Y20287D01*
X689082Y20612D01*
X688884Y20894D01*
X688657Y21138D01*
X688401Y21345D01*
X688116Y21514D01*
X687803Y21645D01*
X687461Y21739D01*
X687090Y21795D01*
X686690Y21814D01*
X686240Y21794D01*
X685821Y21734D01*
X685434Y21635D01*
X685078Y21495D01*
X684754Y21316D01*
X684462Y21096D01*
X684202Y20837D01*
X683973Y20538D01*
X683773Y20196D01*
X683600Y19807D01*
X683453Y19371D01*
X683333Y18888D01*
X683240Y18359D01*
X683173Y17783D01*
X683133Y17160D01*
X683120Y16490D01*
X683133Y15858D01*
X683172Y15269D01*
X683237Y14722D01*
X683329Y14219D01*
X683446Y13758D01*
X683589Y13340D01*
X683759Y12964D01*
X683954Y12632D01*
X684179Y12340D01*
X684437Y12087D01*
X684727Y11873D01*
X685049Y11698D01*
X685404Y11561D01*
X685792Y11464D01*
X686213Y11406D01*
X686665Y11386D01*
G37*
%LPD*%
G36*
X461338Y9755D02*
X460980Y9762D01*
X460633Y9782D01*
X460297Y9817D01*
X459973Y9865D01*
X459659Y9928D01*
X459357Y10004D01*
X459066Y10094D01*
X458786Y10198D01*
X458517Y10316D01*
X458259Y10447D01*
X458012Y10593D01*
X457777Y10752D01*
X457552Y10925D01*
X457339Y11112D01*
X457137Y11313D01*
X456946Y11527D01*
X456766Y11755D01*
X456598Y11995D01*
X456441Y12248D01*
X456296Y12512D01*
X456163Y12789D01*
X456041Y13079D01*
X455931Y13380D01*
X455832Y13694D01*
X455745Y14020D01*
X455670Y14359D01*
X455554Y15073D01*
X455484Y15837D01*
X455461Y16649D01*
X455485Y17481D01*
X455514Y17877D01*
X455554Y18259D01*
X455607Y18628D01*
X455670Y18984D01*
X455746Y19326D01*
X455833Y19655D01*
X455932Y19970D01*
X456042Y20272D01*
X456164Y20561D01*
X456298Y20836D01*
X456443Y21097D01*
X456600Y21346D01*
X456769Y21580D01*
X456949Y21802D01*
X457141Y22010D01*
X457344Y22204D01*
X457559Y22386D01*
X457786Y22553D01*
X458024Y22708D01*
X458274Y22848D01*
X458535Y22976D01*
X458808Y23090D01*
X459093Y23191D01*
X459389Y23278D01*
X459697Y23352D01*
X460017Y23412D01*
X460348Y23459D01*
X460691Y23493D01*
X461045Y23513D01*
X461411Y23519D01*
X461785Y23513D01*
X462147Y23493D01*
X462496Y23461D01*
X462832Y23415D01*
X463156Y23356D01*
X463467Y23284D01*
X463766Y23199D01*
X464052Y23101D01*
X464326Y22990D01*
X464587Y22865D01*
X464835Y22728D01*
X465071Y22577D01*
X465294Y22414D01*
X465505Y22237D01*
X465703Y22048D01*
X465889Y21845D01*
X466063Y21628D01*
X466226Y21397D01*
X466377Y21152D01*
X466517Y20892D01*
X466646Y20618D01*
X466764Y20329D01*
X466870Y20026D01*
X466966Y19709D01*
X467050Y19377D01*
X467123Y19030D01*
X467235Y18294D01*
X467302Y17501D01*
X467325Y16649D01*
X467319Y16221D01*
X467301Y15806D01*
X467271Y15405D01*
X467229Y15018D01*
X467175Y14645D01*
X467109Y14286D01*
X467031Y13941D01*
X466941Y13610D01*
X466839Y13292D01*
X466725Y12989D01*
X466600Y12699D01*
X466462Y12424D01*
X466312Y12162D01*
X466150Y11914D01*
X465977Y11680D01*
X465791Y11460D01*
X465594Y11253D01*
X465386Y11060D01*
X465167Y10880D01*
X464938Y10714D01*
X464697Y10561D01*
X464446Y10421D01*
X464184Y10294D01*
X463911Y10181D01*
X463627Y10081D01*
X463333Y9994D01*
X463027Y9921D01*
X462711Y9861D01*
X462384Y9815D01*
X462046Y9781D01*
X461697Y9761D01*
X461338Y9755D01*
G37*
%LPC*%
G36*
X461313Y11386D02*
X461792Y11406D01*
X462236Y11466D01*
X462644Y11566D01*
X463017Y11705D01*
X463354Y11885D01*
X463656Y12104D01*
X463922Y12363D01*
X464153Y12662D01*
X464353Y13004D01*
X464526Y13390D01*
X464673Y13821D01*
X464793Y14297D01*
X464886Y14818D01*
X464953Y15383D01*
X464993Y15994D01*
X465006Y16649D01*
X464993Y17313D01*
X464955Y17929D01*
X464891Y18499D01*
X464802Y19022D01*
X464687Y19497D01*
X464547Y19926D01*
X464381Y20308D01*
X464190Y20643D01*
X463969Y20934D01*
X463713Y21187D01*
X463422Y21401D01*
X463097Y21576D01*
X462737Y21713D01*
X462342Y21810D01*
X461912Y21868D01*
X461448Y21888D01*
X460980Y21868D01*
X460546Y21808D01*
X460145Y21709D01*
X459778Y21570D01*
X459444Y21392D01*
X459144Y21174D01*
X458878Y20916D01*
X458645Y20618D01*
X458442Y20278D01*
X458266Y19894D01*
X458118Y19465D01*
X457996Y18991D01*
X457902Y18473D01*
X457834Y17909D01*
X457793Y17302D01*
X457780Y16649D01*
X457793Y16013D01*
X457833Y15418D01*
X457900Y14864D01*
X457993Y14351D01*
X458113Y13878D01*
X458260Y13446D01*
X458433Y13055D01*
X458633Y12705D01*
X458861Y12396D01*
X459120Y12128D01*
X459409Y11901D01*
X459729Y11716D01*
X460079Y11572D01*
X460460Y11469D01*
X460871Y11407D01*
X461313Y11386D01*
G37*
%LPD*%
G36*
X616338Y9755D02*
X615980Y9762D01*
X615633Y9782D01*
X615297Y9817D01*
X614973Y9865D01*
X614659Y9928D01*
X614357Y10004D01*
X614066Y10094D01*
X613786Y10198D01*
X613517Y10316D01*
X613259Y10447D01*
X613012Y10593D01*
X612777Y10752D01*
X612552Y10925D01*
X612339Y11112D01*
X612137Y11313D01*
X611946Y11527D01*
X611766Y11755D01*
X611598Y11995D01*
X611441Y12248D01*
X611296Y12512D01*
X611163Y12789D01*
X611041Y13079D01*
X610931Y13380D01*
X610832Y13694D01*
X610745Y14020D01*
X610670Y14359D01*
X610554Y15073D01*
X610484Y15837D01*
X610461Y16649D01*
X610485Y17481D01*
X610514Y17877D01*
X610554Y18259D01*
X610607Y18628D01*
X610670Y18984D01*
X610746Y19326D01*
X610833Y19655D01*
X610932Y19970D01*
X611042Y20272D01*
X611164Y20561D01*
X611298Y20836D01*
X611443Y21097D01*
X611600Y21346D01*
X611769Y21580D01*
X611949Y21802D01*
X612141Y22010D01*
X612344Y22204D01*
X612559Y22386D01*
X612786Y22553D01*
X613024Y22708D01*
X613274Y22848D01*
X613535Y22976D01*
X613808Y23090D01*
X614093Y23191D01*
X614389Y23278D01*
X614697Y23352D01*
X615017Y23412D01*
X615348Y23459D01*
X615691Y23493D01*
X616045Y23513D01*
X616411Y23519D01*
X616785Y23513D01*
X617147Y23493D01*
X617496Y23461D01*
X617832Y23415D01*
X618156Y23356D01*
X618467Y23284D01*
X618766Y23199D01*
X619052Y23101D01*
X619326Y22990D01*
X619587Y22865D01*
X619835Y22728D01*
X620071Y22577D01*
X620294Y22414D01*
X620505Y22237D01*
X620703Y22048D01*
X620889Y21845D01*
X621063Y21628D01*
X621226Y21397D01*
X621377Y21152D01*
X621517Y20892D01*
X621646Y20618D01*
X621764Y20329D01*
X621870Y20026D01*
X621966Y19709D01*
X622050Y19377D01*
X622123Y19030D01*
X622235Y18294D01*
X622302Y17501D01*
X622325Y16649D01*
X622319Y16221D01*
X622301Y15806D01*
X622271Y15405D01*
X622229Y15018D01*
X622175Y14645D01*
X622109Y14286D01*
X622031Y13941D01*
X621941Y13610D01*
X621839Y13292D01*
X621725Y12989D01*
X621600Y12699D01*
X621462Y12424D01*
X621312Y12162D01*
X621150Y11914D01*
X620977Y11680D01*
X620791Y11460D01*
X620594Y11253D01*
X620386Y11060D01*
X620167Y10880D01*
X619938Y10714D01*
X619697Y10561D01*
X619446Y10421D01*
X619184Y10294D01*
X618911Y10181D01*
X618627Y10081D01*
X618333Y9994D01*
X618027Y9921D01*
X617711Y9861D01*
X617384Y9815D01*
X617046Y9781D01*
X616697Y9761D01*
X616338Y9755D01*
G37*
%LPC*%
G36*
X616313Y11386D02*
X616792Y11406D01*
X617236Y11466D01*
X617644Y11566D01*
X618017Y11705D01*
X618354Y11885D01*
X618656Y12104D01*
X618922Y12363D01*
X619153Y12662D01*
X619353Y13004D01*
X619526Y13390D01*
X619673Y13821D01*
X619793Y14297D01*
X619886Y14818D01*
X619953Y15383D01*
X619993Y15994D01*
X620006Y16649D01*
X619993Y17313D01*
X619955Y17929D01*
X619891Y18499D01*
X619802Y19022D01*
X619687Y19497D01*
X619547Y19926D01*
X619381Y20308D01*
X619190Y20643D01*
X618969Y20934D01*
X618713Y21187D01*
X618422Y21401D01*
X618097Y21576D01*
X617737Y21713D01*
X617342Y21810D01*
X616912Y21868D01*
X616448Y21888D01*
X615980Y21868D01*
X615546Y21808D01*
X615145Y21709D01*
X614778Y21570D01*
X614444Y21392D01*
X614144Y21174D01*
X613878Y20916D01*
X613645Y20618D01*
X613442Y20278D01*
X613266Y19894D01*
X613118Y19465D01*
X612996Y18991D01*
X612902Y18473D01*
X612834Y17909D01*
X612793Y17302D01*
X612780Y16649D01*
X612793Y16013D01*
X612833Y15418D01*
X612900Y14864D01*
X612993Y14351D01*
X613113Y13878D01*
X613260Y13446D01*
X613433Y13055D01*
X613633Y12705D01*
X613861Y12396D01*
X614120Y12128D01*
X614409Y11901D01*
X614729Y11716D01*
X615079Y11572D01*
X615460Y11469D01*
X615871Y11407D01*
X616313Y11386D01*
G37*
%LPD*%
G36*
X637275Y9755D02*
X636917Y9762D01*
X636571Y9782D01*
X636235Y9817D01*
X635910Y9865D01*
X635597Y9928D01*
X635295Y10004D01*
X635004Y10094D01*
X634723Y10198D01*
X634455Y10316D01*
X634197Y10447D01*
X633950Y10593D01*
X633714Y10752D01*
X633490Y10925D01*
X633277Y11112D01*
X633074Y11313D01*
X632883Y11527D01*
X632703Y11755D01*
X632535Y11995D01*
X632379Y12248D01*
X632234Y12512D01*
X632100Y12789D01*
X631979Y13079D01*
X631868Y13380D01*
X631770Y13694D01*
X631683Y14020D01*
X631608Y14359D01*
X631492Y15073D01*
X631422Y15837D01*
X631399Y16649D01*
X631422Y17481D01*
X631451Y17877D01*
X631492Y18259D01*
X631544Y18628D01*
X631608Y18984D01*
X631684Y19326D01*
X631771Y19655D01*
X631869Y19970D01*
X631980Y20272D01*
X632102Y20561D01*
X632236Y20836D01*
X632381Y21097D01*
X632538Y21346D01*
X632706Y21580D01*
X632886Y21802D01*
X633078Y22010D01*
X633281Y22204D01*
X633496Y22386D01*
X633723Y22553D01*
X633961Y22708D01*
X634211Y22848D01*
X634473Y22976D01*
X634746Y23090D01*
X635030Y23191D01*
X635327Y23278D01*
X635635Y23352D01*
X635954Y23412D01*
X636285Y23459D01*
X636628Y23493D01*
X636983Y23513D01*
X637349Y23519D01*
X637723Y23513D01*
X638084Y23493D01*
X638433Y23461D01*
X638770Y23415D01*
X639093Y23356D01*
X639405Y23284D01*
X639703Y23199D01*
X639990Y23101D01*
X640263Y22990D01*
X640524Y22865D01*
X640773Y22728D01*
X641009Y22577D01*
X641232Y22414D01*
X641443Y22237D01*
X641641Y22048D01*
X641827Y21845D01*
X642000Y21628D01*
X642163Y21397D01*
X642314Y21152D01*
X642455Y20892D01*
X642584Y20618D01*
X642701Y20329D01*
X642808Y20026D01*
X642903Y19709D01*
X642987Y19377D01*
X643060Y19030D01*
X643172Y18294D01*
X643240Y17501D01*
X643262Y16649D01*
X643256Y16221D01*
X643238Y15806D01*
X643208Y15405D01*
X643166Y15018D01*
X643112Y14645D01*
X643046Y14286D01*
X642969Y13941D01*
X642879Y13610D01*
X642777Y13292D01*
X642663Y12989D01*
X642537Y12699D01*
X642399Y12424D01*
X642250Y12162D01*
X642088Y11914D01*
X641914Y11680D01*
X641729Y11460D01*
X641531Y11253D01*
X641323Y11060D01*
X641105Y10880D01*
X640875Y10714D01*
X640635Y10561D01*
X640383Y10421D01*
X640121Y10294D01*
X639848Y10181D01*
X639565Y10081D01*
X639270Y9994D01*
X638965Y9921D01*
X638648Y9861D01*
X638321Y9815D01*
X637983Y9781D01*
X637635Y9761D01*
X637275Y9755D01*
G37*
%LPC*%
G36*
X637251Y11386D02*
X637730Y11406D01*
X638173Y11466D01*
X638582Y11566D01*
X638954Y11705D01*
X639292Y11885D01*
X639593Y12104D01*
X639860Y12363D01*
X640091Y12662D01*
X640291Y13004D01*
X640464Y13390D01*
X640610Y13821D01*
X640730Y14297D01*
X640823Y14818D01*
X640890Y15383D01*
X640930Y15994D01*
X640943Y16649D01*
X640931Y17313D01*
X640892Y17929D01*
X640829Y18499D01*
X640739Y19022D01*
X640625Y19497D01*
X640484Y19926D01*
X640319Y20308D01*
X640128Y20643D01*
X639906Y20934D01*
X639650Y21187D01*
X639360Y21401D01*
X639034Y21576D01*
X638674Y21713D01*
X638279Y21810D01*
X637850Y21868D01*
X637386Y21888D01*
X636918Y21868D01*
X636484Y21808D01*
X636083Y21709D01*
X635716Y21570D01*
X635382Y21392D01*
X635082Y21174D01*
X634815Y20916D01*
X634582Y20618D01*
X634380Y20278D01*
X634204Y19894D01*
X634055Y19465D01*
X633934Y18991D01*
X633839Y18473D01*
X633772Y17909D01*
X633731Y17302D01*
X633717Y16649D01*
X633731Y16013D01*
X633771Y15418D01*
X633837Y14864D01*
X633931Y14351D01*
X634051Y13878D01*
X634197Y13446D01*
X634370Y13055D01*
X634570Y12705D01*
X634798Y12396D01*
X635057Y12128D01*
X635347Y11901D01*
X635667Y11716D01*
X636017Y11572D01*
X636398Y11469D01*
X636809Y11407D01*
X637251Y11386D01*
G37*
%LPD*%
G36*
X437615Y10000D02*
X435530Y10000D01*
X435530Y27286D01*
X438609Y27286D01*
X443210Y15300D01*
X443450Y14550D01*
X443682Y13748D01*
X443871Y13035D01*
X443982Y12552D01*
X444134Y13170D01*
X444393Y14042D01*
X444656Y14857D01*
X444817Y15300D01*
X449331Y27286D01*
X452337Y27286D01*
X452337Y10000D01*
X450227Y10000D01*
X450227Y21532D01*
X450234Y22480D01*
X450255Y23409D01*
X450289Y24320D01*
X450337Y25212D01*
X450044Y24174D01*
X449767Y23256D01*
X449505Y22457D01*
X449258Y21777D01*
X444792Y10000D01*
X443148Y10000D01*
X438621Y21777D01*
X437934Y23863D01*
X437529Y25212D01*
X437566Y23851D01*
X437615Y21532D01*
X437615Y10000D01*
G37*
G36*
X522541Y10000D02*
X520112Y10000D01*
X527166Y27286D01*
X529828Y27286D01*
X536772Y10000D01*
X534379Y10000D01*
X532404Y15054D01*
X524528Y15054D01*
X522541Y10000D01*
G37*
%LPC*%
G36*
X531705Y16882D02*
X529484Y22587D01*
X529141Y23489D01*
X528797Y24501D01*
X528466Y25519D01*
X528356Y25176D01*
X527975Y24013D01*
X527448Y22563D01*
X525240Y16882D01*
X531705Y16882D01*
G37*
%LPD*%
G36*
X670329Y9755D02*
X669845Y9771D01*
X669391Y9821D01*
X668969Y9903D01*
X668578Y10018D01*
X668218Y10167D01*
X667888Y10348D01*
X667590Y10562D01*
X667323Y10810D01*
X667088Y11086D01*
X666883Y11386D01*
X666710Y11711D01*
X666569Y12061D01*
X666459Y12435D01*
X666380Y12834D01*
X666333Y13257D01*
X666317Y13705D01*
X666339Y14205D01*
X666402Y14676D01*
X666508Y15116D01*
X666656Y15527D01*
X666847Y15907D01*
X667080Y16258D01*
X667355Y16579D01*
X667673Y16870D01*
X668038Y17130D01*
X668455Y17358D01*
X668923Y17553D01*
X669444Y17717D01*
X670017Y17848D01*
X670641Y17947D01*
X671318Y18013D01*
X672047Y18048D01*
X675028Y18097D01*
X675028Y18821D01*
X675017Y19211D01*
X674985Y19573D01*
X674931Y19906D01*
X674856Y20210D01*
X674759Y20486D01*
X674641Y20732D01*
X674502Y20950D01*
X674341Y21139D01*
X674157Y21303D01*
X673948Y21445D01*
X673715Y21566D01*
X673457Y21664D01*
X673175Y21740D01*
X672868Y21795D01*
X672537Y21828D01*
X672181Y21839D01*
X671823Y21831D01*
X671490Y21807D01*
X671182Y21768D01*
X670899Y21713D01*
X670642Y21642D01*
X670410Y21556D01*
X670204Y21454D01*
X670022Y21336D01*
X669862Y21201D01*
X669719Y21047D01*
X669592Y20874D01*
X669482Y20682D01*
X669390Y20472D01*
X669314Y20243D01*
X669255Y19995D01*
X669213Y19729D01*
X666906Y19937D01*
X666993Y20371D01*
X667113Y20777D01*
X667265Y21155D01*
X667451Y21504D01*
X667669Y21826D01*
X667919Y22120D01*
X668203Y22386D01*
X668519Y22624D01*
X668869Y22834D01*
X669251Y23016D01*
X669665Y23170D01*
X670113Y23296D01*
X670593Y23393D01*
X671106Y23463D01*
X671652Y23505D01*
X672231Y23519D01*
X672837Y23501D01*
X673404Y23448D01*
X673933Y23358D01*
X674423Y23233D01*
X674875Y23071D01*
X675288Y22874D01*
X675662Y22641D01*
X675997Y22372D01*
X676293Y22070D01*
X676550Y21735D01*
X676767Y21368D01*
X676945Y20969D01*
X677083Y20538D01*
X677181Y20076D01*
X677241Y19581D01*
X677260Y19054D01*
X677260Y13337D01*
X677277Y12876D01*
X677325Y12477D01*
X677405Y12137D01*
X677518Y11859D01*
X677590Y11742D01*
X677676Y11641D01*
X677777Y11556D01*
X677892Y11486D01*
X678022Y11432D01*
X678167Y11393D01*
X678326Y11370D01*
X678500Y11362D01*
X678840Y11383D01*
X679223Y11448D01*
X679223Y10074D01*
X678804Y9988D01*
X678380Y9926D01*
X677951Y9890D01*
X677518Y9877D01*
X677222Y9887D01*
X676946Y9918D01*
X676692Y9968D01*
X676458Y10038D01*
X676246Y10129D01*
X676054Y10240D01*
X675883Y10370D01*
X675733Y10521D01*
X675601Y10694D01*
X675484Y10889D01*
X675383Y11107D01*
X675296Y11348D01*
X675225Y11612D01*
X675168Y11898D01*
X675127Y12207D01*
X675101Y12539D01*
X675028Y12539D01*
X674812Y12173D01*
X674587Y11834D01*
X674354Y11524D01*
X674112Y11241D01*
X673862Y10985D01*
X673603Y10758D01*
X673335Y10558D01*
X673059Y10386D01*
X672770Y10238D01*
X672467Y10110D01*
X672149Y10001D01*
X671815Y9913D01*
X671466Y9844D01*
X671102Y9794D01*
X670723Y9765D01*
X670329Y9755D01*
G37*
%LPC*%
G36*
X670832Y11411D02*
X671131Y11419D01*
X671422Y11445D01*
X671705Y11488D01*
X671979Y11549D01*
X672245Y11626D01*
X672502Y11721D01*
X672751Y11834D01*
X672991Y11963D01*
X673221Y12107D01*
X673439Y12265D01*
X673644Y12435D01*
X673836Y12618D01*
X674016Y12814D01*
X674184Y13022D01*
X674339Y13244D01*
X674482Y13478D01*
X674610Y13720D01*
X674721Y13963D01*
X674814Y14208D01*
X674891Y14455D01*
X674951Y14703D01*
X674994Y14954D01*
X675019Y15206D01*
X675028Y15459D01*
X675028Y16551D01*
X672611Y16502D01*
X671879Y16473D01*
X671241Y16410D01*
X670698Y16313D01*
X670462Y16252D01*
X670249Y16183D01*
X669871Y16016D01*
X669539Y15809D01*
X669254Y15562D01*
X669016Y15275D01*
X668916Y15116D01*
X668828Y14945D01*
X668755Y14762D01*
X668694Y14567D01*
X668647Y14360D01*
X668614Y14141D01*
X668594Y13911D01*
X668587Y13668D01*
X668596Y13406D01*
X668623Y13159D01*
X668669Y12927D01*
X668733Y12711D01*
X668815Y12510D01*
X668915Y12325D01*
X669033Y12155D01*
X669170Y12000D01*
X669323Y11862D01*
X669492Y11742D01*
X669677Y11641D01*
X669877Y11558D01*
X670092Y11494D01*
X670323Y11448D01*
X670570Y11420D01*
X670832Y11411D01*
G37*
%LPD*%
G36*
X592407Y10000D02*
X590211Y10000D01*
X590211Y20440D01*
X590192Y22308D01*
X590169Y22904D01*
X590137Y23274D01*
X592223Y23274D01*
X592247Y22943D01*
X592278Y22323D01*
X592321Y21004D01*
X592358Y21004D01*
X592539Y21344D01*
X592727Y21656D01*
X592921Y21942D01*
X593121Y22201D01*
X593329Y22433D01*
X593542Y22638D01*
X593763Y22816D01*
X593989Y22967D01*
X594226Y23097D01*
X594475Y23209D01*
X594736Y23304D01*
X595011Y23381D01*
X595298Y23442D01*
X595597Y23485D01*
X595910Y23511D01*
X596234Y23519D01*
X596602Y23510D01*
X596949Y23482D01*
X597277Y23435D01*
X597585Y23369D01*
X597874Y23285D01*
X598143Y23181D01*
X598391Y23059D01*
X598621Y22918D01*
X598832Y22757D01*
X599026Y22573D01*
X599203Y22367D01*
X599364Y22139D01*
X599509Y21889D01*
X599636Y21616D01*
X599747Y21322D01*
X599841Y21004D01*
X599878Y21004D01*
X600054Y21327D01*
X600240Y21626D01*
X600434Y21902D01*
X600637Y22155D01*
X600849Y22384D01*
X601071Y22589D01*
X601301Y22772D01*
X601540Y22931D01*
X601791Y23069D01*
X602054Y23188D01*
X602330Y23289D01*
X602618Y23372D01*
X602920Y23437D01*
X603235Y23483D01*
X603562Y23510D01*
X603902Y23519D01*
X604388Y23502D01*
X604839Y23451D01*
X605257Y23366D01*
X605639Y23246D01*
X605988Y23093D01*
X606302Y22905D01*
X606582Y22683D01*
X606828Y22428D01*
X607042Y22133D01*
X607228Y21794D01*
X607385Y21412D01*
X607513Y20986D01*
X607613Y20516D01*
X607685Y20003D01*
X607728Y19446D01*
X607742Y18845D01*
X607742Y10000D01*
X605558Y10000D01*
X605558Y18416D01*
X605550Y18879D01*
X605525Y19305D01*
X605484Y19693D01*
X605426Y20044D01*
X605352Y20359D01*
X605261Y20636D01*
X605154Y20875D01*
X605031Y21078D01*
X604886Y21251D01*
X604714Y21400D01*
X604516Y21527D01*
X604291Y21630D01*
X604041Y21711D01*
X603763Y21768D01*
X603459Y21803D01*
X603129Y21814D01*
X602777Y21797D01*
X602446Y21747D01*
X602134Y21663D01*
X601842Y21546D01*
X601571Y21395D01*
X601320Y21210D01*
X601089Y20992D01*
X600878Y20741D01*
X600690Y20458D01*
X600526Y20148D01*
X600388Y19809D01*
X600275Y19442D01*
X600187Y19047D01*
X600125Y18623D01*
X600087Y18172D01*
X600074Y17692D01*
X600074Y10000D01*
X597891Y10000D01*
X597891Y18416D01*
X597882Y18879D01*
X597858Y19305D01*
X597816Y19693D01*
X597759Y20044D01*
X597685Y20359D01*
X597594Y20636D01*
X597487Y20875D01*
X597363Y21078D01*
X597218Y21251D01*
X597046Y21400D01*
X596848Y21527D01*
X596624Y21630D01*
X596373Y21711D01*
X596096Y21768D01*
X595792Y21803D01*
X595462Y21814D01*
X595118Y21797D01*
X594793Y21747D01*
X594486Y21662D01*
X594198Y21544D01*
X593928Y21392D01*
X593677Y21207D01*
X593443Y20988D01*
X593229Y20735D01*
X593036Y20451D01*
X592869Y20140D01*
X592728Y19801D01*
X592612Y19434D01*
X592522Y19040D01*
X592458Y18618D01*
X592420Y18169D01*
X592407Y17692D01*
X592407Y10000D01*
G37*
G36*
X337247Y9755D02*
X336885Y9762D01*
X336533Y9782D01*
X336192Y9816D01*
X335863Y9864D01*
X335544Y9926D01*
X335236Y10001D01*
X334940Y10090D01*
X334654Y10193D01*
X334379Y10310D01*
X334115Y10440D01*
X333863Y10584D01*
X333621Y10741D01*
X333390Y10913D01*
X333170Y11098D01*
X332961Y11297D01*
X332763Y11509D01*
X332577Y11735D01*
X332402Y11974D01*
X332240Y12227D01*
X332090Y12493D01*
X331951Y12772D01*
X331825Y13065D01*
X331711Y13370D01*
X331608Y13690D01*
X331518Y14022D01*
X331440Y14368D01*
X331374Y14727D01*
X331320Y15100D01*
X331278Y15486D01*
X331248Y15885D01*
X331230Y16297D01*
X331224Y16723D01*
X331230Y17128D01*
X331248Y17521D01*
X331278Y17902D01*
X331320Y18271D01*
X331374Y18628D01*
X331440Y18973D01*
X331518Y19306D01*
X331608Y19627D01*
X331711Y19937D01*
X331825Y20234D01*
X331951Y20519D01*
X332090Y20792D01*
X332240Y21053D01*
X332402Y21303D01*
X332577Y21540D01*
X332763Y21765D01*
X332961Y21978D01*
X333169Y22176D01*
X333387Y22361D01*
X333615Y22533D01*
X333854Y22690D01*
X334103Y22834D01*
X334363Y22964D01*
X334633Y23081D01*
X334913Y23184D01*
X335203Y23273D01*
X335504Y23348D01*
X335815Y23410D01*
X336136Y23458D01*
X336467Y23492D01*
X336809Y23513D01*
X337161Y23519D01*
X337521Y23513D01*
X337870Y23492D01*
X338207Y23457D01*
X338533Y23409D01*
X338847Y23347D01*
X339150Y23271D01*
X339441Y23182D01*
X339722Y23079D01*
X339990Y22961D01*
X340247Y22831D01*
X340493Y22686D01*
X340727Y22527D01*
X340950Y22355D01*
X341162Y22169D01*
X341362Y21969D01*
X341550Y21756D01*
X341727Y21529D01*
X341893Y21287D01*
X342047Y21033D01*
X342190Y20764D01*
X342322Y20481D01*
X342442Y20185D01*
X342550Y19875D01*
X342647Y19551D01*
X342733Y19214D01*
X342807Y18863D01*
X342870Y18497D01*
X342922Y18119D01*
X342990Y17319D01*
X343013Y16465D01*
X343013Y16171D01*
X333542Y16171D01*
X333557Y15617D01*
X333601Y15095D01*
X333675Y14606D01*
X333778Y14150D01*
X333911Y13726D01*
X334074Y13335D01*
X334265Y12976D01*
X334487Y12650D01*
X334737Y12359D01*
X335014Y12108D01*
X335318Y11895D01*
X335649Y11721D01*
X336008Y11585D01*
X336394Y11488D01*
X336807Y11430D01*
X337247Y11411D01*
X337597Y11420D01*
X337929Y11447D01*
X338243Y11492D01*
X338540Y11555D01*
X338819Y11636D01*
X339079Y11735D01*
X339322Y11852D01*
X339547Y11987D01*
X339755Y12136D01*
X339945Y12295D01*
X340118Y12463D01*
X340273Y12641D01*
X340411Y12828D01*
X340531Y13025D01*
X340634Y13231D01*
X340719Y13447D01*
X342657Y12895D01*
X342497Y12515D01*
X342313Y12159D01*
X342105Y11828D01*
X341873Y11521D01*
X341618Y11239D01*
X341339Y10981D01*
X341036Y10748D01*
X340710Y10540D01*
X340360Y10356D01*
X339986Y10196D01*
X339589Y10061D01*
X339168Y9951D01*
X338723Y9865D01*
X338255Y9804D01*
X337763Y9767D01*
X337247Y9755D01*
G37*
%LPC*%
G36*
X340731Y17864D02*
X340674Y18371D01*
X340596Y18842D01*
X340495Y19278D01*
X340372Y19678D01*
X340228Y20043D01*
X340062Y20372D01*
X339874Y20666D01*
X339664Y20925D01*
X339431Y21150D01*
X339174Y21346D01*
X338893Y21512D01*
X338587Y21647D01*
X338258Y21752D01*
X337904Y21828D01*
X337526Y21873D01*
X337125Y21888D01*
X336733Y21871D01*
X336363Y21821D01*
X336013Y21737D01*
X335685Y21619D01*
X335377Y21468D01*
X335090Y21284D01*
X334824Y21066D01*
X334579Y20814D01*
X334358Y20533D01*
X334164Y20227D01*
X333997Y19896D01*
X333857Y19540D01*
X333744Y19159D01*
X333658Y18752D01*
X333599Y18321D01*
X333567Y17864D01*
X340731Y17864D01*
G37*
%LPD*%
G36*
X581591Y9755D02*
X581228Y9762D01*
X580877Y9782D01*
X580536Y9816D01*
X580207Y9864D01*
X579888Y9926D01*
X579580Y10001D01*
X579284Y10090D01*
X578998Y10193D01*
X578723Y10310D01*
X578459Y10440D01*
X578206Y10584D01*
X577965Y10741D01*
X577734Y10913D01*
X577514Y11098D01*
X577305Y11297D01*
X577107Y11509D01*
X576921Y11735D01*
X576746Y11974D01*
X576584Y12227D01*
X576433Y12493D01*
X576295Y12772D01*
X576169Y13065D01*
X576054Y13370D01*
X575952Y13690D01*
X575862Y14022D01*
X575784Y14368D01*
X575718Y14727D01*
X575664Y15100D01*
X575621Y15486D01*
X575591Y15885D01*
X575573Y16297D01*
X575567Y16723D01*
X575573Y17128D01*
X575591Y17521D01*
X575621Y17902D01*
X575664Y18271D01*
X575718Y18628D01*
X575784Y18973D01*
X575862Y19306D01*
X575952Y19627D01*
X576054Y19937D01*
X576169Y20234D01*
X576295Y20519D01*
X576433Y20792D01*
X576584Y21053D01*
X576746Y21303D01*
X576921Y21540D01*
X577107Y21765D01*
X577305Y21978D01*
X577512Y22176D01*
X577731Y22361D01*
X577959Y22533D01*
X578198Y22690D01*
X578447Y22834D01*
X578707Y22964D01*
X578976Y23081D01*
X579256Y23184D01*
X579547Y23273D01*
X579847Y23348D01*
X580158Y23410D01*
X580480Y23458D01*
X580811Y23492D01*
X581153Y23513D01*
X581505Y23519D01*
X581865Y23513D01*
X582214Y23492D01*
X582551Y23457D01*
X582877Y23409D01*
X583191Y23347D01*
X583494Y23271D01*
X583785Y23182D01*
X584065Y23079D01*
X584334Y22961D01*
X584591Y22831D01*
X584837Y22686D01*
X585071Y22527D01*
X585294Y22355D01*
X585505Y22169D01*
X585705Y21969D01*
X585894Y21756D01*
X586071Y21529D01*
X586237Y21287D01*
X586391Y21033D01*
X586534Y20764D01*
X586665Y20481D01*
X586785Y20185D01*
X586894Y19875D01*
X586991Y19551D01*
X587077Y19214D01*
X587151Y18863D01*
X587214Y18497D01*
X587265Y18119D01*
X587334Y17319D01*
X587357Y16465D01*
X587357Y16171D01*
X577886Y16171D01*
X577901Y15617D01*
X577945Y15095D01*
X578019Y14606D01*
X578122Y14150D01*
X578255Y13726D01*
X578417Y13335D01*
X578609Y12976D01*
X578831Y12650D01*
X579080Y12359D01*
X579357Y12108D01*
X579662Y11895D01*
X579993Y11721D01*
X580352Y11585D01*
X580738Y11488D01*
X581151Y11430D01*
X581591Y11411D01*
X581941Y11420D01*
X582273Y11447D01*
X582587Y11492D01*
X582884Y11555D01*
X583162Y11636D01*
X583423Y11735D01*
X583666Y11852D01*
X583891Y11987D01*
X584099Y12136D01*
X584289Y12295D01*
X584461Y12463D01*
X584617Y12641D01*
X584754Y12828D01*
X584875Y13025D01*
X584977Y13231D01*
X585063Y13447D01*
X587001Y12895D01*
X586841Y12515D01*
X586656Y12159D01*
X586448Y11828D01*
X586217Y11521D01*
X585961Y11239D01*
X585683Y10981D01*
X585380Y10748D01*
X585054Y10540D01*
X584704Y10356D01*
X584330Y10196D01*
X583933Y10061D01*
X583512Y9951D01*
X583067Y9865D01*
X582599Y9804D01*
X582107Y9767D01*
X581591Y9755D01*
G37*
%LPC*%
G36*
X585075Y17864D02*
X585018Y18371D01*
X584939Y18842D01*
X584839Y19278D01*
X584716Y19678D01*
X584572Y20043D01*
X584406Y20372D01*
X584218Y20666D01*
X584008Y20925D01*
X583775Y21150D01*
X583518Y21346D01*
X583237Y21512D01*
X582931Y21647D01*
X582602Y21752D01*
X582248Y21828D01*
X581870Y21873D01*
X581468Y21888D01*
X581077Y21871D01*
X580706Y21821D01*
X580357Y21737D01*
X580028Y21619D01*
X579721Y21468D01*
X579434Y21284D01*
X579168Y21066D01*
X578923Y20814D01*
X578702Y20533D01*
X578507Y20227D01*
X578340Y19896D01*
X578200Y19540D01*
X578087Y19159D01*
X578001Y18752D01*
X577942Y18321D01*
X577911Y17864D01*
X585075Y17864D01*
G37*
%LPD*%
G36*
X472325Y10000D02*
X470117Y10000D01*
X470117Y28206D01*
X472325Y28206D01*
X472325Y23470D01*
X472315Y22710D01*
X472282Y21925D01*
X472227Y21004D01*
X472264Y21004D01*
X472446Y21319D01*
X472638Y21611D01*
X472838Y21882D01*
X473048Y22132D01*
X473266Y22359D01*
X473493Y22565D01*
X473730Y22749D01*
X473975Y22912D01*
X474234Y23054D01*
X474509Y23178D01*
X474800Y23282D01*
X475109Y23368D01*
X475434Y23434D01*
X475775Y23481D01*
X476134Y23510D01*
X476509Y23519D01*
X477031Y23503D01*
X477517Y23452D01*
X477969Y23368D01*
X478384Y23251D01*
X478764Y23100D01*
X479109Y22916D01*
X479418Y22698D01*
X479692Y22446D01*
X479932Y22155D01*
X480140Y21818D01*
X480317Y21436D01*
X480461Y21009D01*
X480573Y20536D01*
X480653Y20018D01*
X480701Y19454D01*
X480717Y18845D01*
X480717Y10000D01*
X478496Y10000D01*
X478496Y18416D01*
X478480Y19070D01*
X478432Y19635D01*
X478351Y20110D01*
X478239Y20495D01*
X478089Y20813D01*
X477898Y21086D01*
X477666Y21313D01*
X477392Y21495D01*
X477069Y21635D01*
X476690Y21734D01*
X476253Y21794D01*
X475760Y21814D01*
X475381Y21797D01*
X475020Y21747D01*
X474679Y21662D01*
X474357Y21544D01*
X474055Y21392D01*
X473772Y21207D01*
X473508Y20988D01*
X473264Y20735D01*
X473044Y20453D01*
X472853Y20148D01*
X472692Y19820D01*
X472560Y19468D01*
X472457Y19093D01*
X472384Y18694D01*
X472340Y18272D01*
X472325Y17827D01*
X472325Y10000D01*
G37*
G36*
X565839Y10000D02*
X563630Y10000D01*
X563630Y28206D01*
X565839Y28206D01*
X565839Y16833D01*
X571666Y23274D01*
X574255Y23274D01*
X568869Y17569D01*
X574537Y10000D01*
X571948Y10000D01*
X567458Y16060D01*
X565839Y14723D01*
X565839Y10000D01*
G37*
G36*
X416281Y4786D02*
X415845Y4795D01*
X415446Y4820D01*
X415085Y4862D01*
X414759Y4921D01*
X414759Y6577D01*
X415250Y6522D01*
X415790Y6504D01*
X416044Y6515D01*
X416292Y6551D01*
X416533Y6610D01*
X416767Y6693D01*
X416994Y6800D01*
X417215Y6930D01*
X417429Y7084D01*
X417636Y7261D01*
X417837Y7462D01*
X418031Y7687D01*
X418218Y7936D01*
X418398Y8208D01*
X418572Y8504D01*
X418739Y8824D01*
X418900Y9167D01*
X419053Y9534D01*
X419262Y10061D01*
X413999Y23274D01*
X416354Y23274D01*
X419151Y15938D01*
X419299Y15527D01*
X419851Y13926D01*
X420210Y12865D01*
X420354Y12405D01*
X421212Y14821D01*
X424120Y23274D01*
X426451Y23274D01*
X421347Y10000D01*
X420943Y9007D01*
X420553Y8149D01*
X420177Y7427D01*
X419814Y6841D01*
X419449Y6356D01*
X419064Y5936D01*
X418660Y5583D01*
X418451Y5431D01*
X418237Y5295D01*
X418018Y5176D01*
X417791Y5072D01*
X417557Y4985D01*
X417316Y4913D01*
X417068Y4858D01*
X416812Y4818D01*
X416550Y4794D01*
X416281Y4786D01*
G37*
G36*
X380200Y10000D02*
X377992Y10000D01*
X377992Y20440D01*
X377974Y22308D01*
X377951Y22904D01*
X377918Y23274D01*
X380004Y23274D01*
X380029Y22943D01*
X380059Y22323D01*
X380102Y21004D01*
X380139Y21004D01*
X380333Y21335D01*
X380534Y21641D01*
X380743Y21922D01*
X380959Y22178D01*
X381183Y22408D01*
X381414Y22613D01*
X381653Y22794D01*
X381899Y22949D01*
X382157Y23083D01*
X382430Y23199D01*
X382717Y23297D01*
X383020Y23377D01*
X383339Y23439D01*
X383672Y23484D01*
X384020Y23510D01*
X384384Y23519D01*
X384911Y23502D01*
X385402Y23452D01*
X385857Y23367D01*
X386275Y23248D01*
X386656Y23095D01*
X387000Y22909D01*
X387308Y22688D01*
X387580Y22434D01*
X387817Y22140D01*
X388022Y21802D01*
X388196Y21420D01*
X388339Y20994D01*
X388449Y20523D01*
X388528Y20008D01*
X388576Y19449D01*
X388592Y18845D01*
X388592Y10000D01*
X386371Y10000D01*
X386371Y18416D01*
X386355Y19035D01*
X386307Y19581D01*
X386226Y20054D01*
X386114Y20452D01*
X385966Y20789D01*
X385779Y21075D01*
X385555Y21310D01*
X385292Y21495D01*
X385142Y21570D01*
X384976Y21635D01*
X384595Y21734D01*
X384148Y21794D01*
X383635Y21814D01*
X383247Y21797D01*
X382880Y21746D01*
X382534Y21661D01*
X382209Y21541D01*
X381905Y21388D01*
X381623Y21200D01*
X381361Y20978D01*
X381120Y20722D01*
X380905Y20436D01*
X380718Y20123D01*
X380560Y19784D01*
X380430Y19419D01*
X380330Y19027D01*
X380258Y18608D01*
X380215Y18163D01*
X380200Y17692D01*
X380200Y10000D01*
G37*
G36*
X504450Y10000D02*
X502242Y10000D01*
X502242Y20440D01*
X502224Y22308D01*
X502201Y22904D01*
X502168Y23274D01*
X504254Y23274D01*
X504279Y22943D01*
X504309Y22323D01*
X504352Y21004D01*
X504389Y21004D01*
X504583Y21335D01*
X504784Y21641D01*
X504993Y21922D01*
X505209Y22178D01*
X505433Y22408D01*
X505664Y22613D01*
X505903Y22794D01*
X506149Y22949D01*
X506407Y23083D01*
X506680Y23199D01*
X506967Y23297D01*
X507270Y23377D01*
X507589Y23439D01*
X507922Y23484D01*
X508270Y23510D01*
X508634Y23519D01*
X509161Y23502D01*
X509652Y23452D01*
X510107Y23367D01*
X510525Y23248D01*
X510906Y23095D01*
X511250Y22909D01*
X511558Y22688D01*
X511830Y22434D01*
X512067Y22140D01*
X512272Y21802D01*
X512446Y21420D01*
X512589Y20994D01*
X512699Y20523D01*
X512778Y20008D01*
X512826Y19449D01*
X512842Y18845D01*
X512842Y10000D01*
X510621Y10000D01*
X510621Y18416D01*
X510605Y19035D01*
X510557Y19581D01*
X510476Y20054D01*
X510364Y20452D01*
X510216Y20789D01*
X510029Y21075D01*
X509805Y21310D01*
X509542Y21495D01*
X509392Y21570D01*
X509226Y21635D01*
X508845Y21734D01*
X508398Y21794D01*
X507885Y21814D01*
X507497Y21797D01*
X507130Y21746D01*
X506784Y21661D01*
X506459Y21541D01*
X506155Y21388D01*
X505873Y21200D01*
X505611Y20978D01*
X505370Y20722D01*
X505155Y20436D01*
X504968Y20123D01*
X504810Y19784D01*
X504680Y19419D01*
X504580Y19027D01*
X504508Y18608D01*
X504465Y18163D01*
X504450Y17692D01*
X504450Y10000D01*
G37*
G36*
X350394Y9755D02*
X349792Y9767D01*
X349226Y9806D01*
X348695Y9869D01*
X348200Y9959D01*
X347740Y10073D01*
X347315Y10214D01*
X346926Y10379D01*
X346572Y10570D01*
X346251Y10789D01*
X345959Y11036D01*
X345697Y11311D01*
X345464Y11615D01*
X345260Y11947D01*
X345085Y12308D01*
X344940Y12698D01*
X344824Y13116D01*
X346775Y13496D01*
X346855Y13238D01*
X346954Y12998D01*
X347071Y12776D01*
X347207Y12572D01*
X347362Y12385D01*
X347536Y12216D01*
X347729Y12065D01*
X347940Y11932D01*
X348172Y11816D01*
X348425Y11715D01*
X348699Y11629D01*
X348995Y11560D01*
X349313Y11505D01*
X349652Y11466D01*
X350012Y11443D01*
X350394Y11435D01*
X350800Y11443D01*
X351178Y11468D01*
X351528Y11508D01*
X351849Y11564D01*
X352143Y11637D01*
X352408Y11725D01*
X352645Y11830D01*
X352854Y11951D01*
X353036Y12087D01*
X353195Y12240D01*
X353328Y12410D01*
X353438Y12595D01*
X353523Y12796D01*
X353584Y13013D01*
X353621Y13247D01*
X353633Y13496D01*
X353624Y13688D01*
X353599Y13871D01*
X353557Y14044D01*
X353498Y14208D01*
X353422Y14363D01*
X353329Y14509D01*
X353219Y14645D01*
X353093Y14772D01*
X352948Y14892D01*
X352782Y15007D01*
X352388Y15220D01*
X351911Y15412D01*
X351351Y15582D01*
X349768Y15999D01*
X348886Y16243D01*
X348141Y16485D01*
X347534Y16725D01*
X347063Y16962D01*
X346683Y17211D01*
X346347Y17485D01*
X346055Y17784D01*
X345806Y18109D01*
X345699Y18283D01*
X345607Y18466D01*
X345529Y18658D01*
X345465Y18861D01*
X345416Y19072D01*
X345380Y19294D01*
X345359Y19525D01*
X345352Y19765D01*
X345372Y20206D01*
X345433Y20619D01*
X345534Y21006D01*
X345675Y21365D01*
X345857Y21697D01*
X346080Y22002D01*
X346343Y22281D01*
X346646Y22532D01*
X346988Y22755D01*
X347367Y22948D01*
X347783Y23111D01*
X348236Y23245D01*
X348726Y23349D01*
X349253Y23423D01*
X349817Y23468D01*
X350419Y23483D01*
X350953Y23471D01*
X351460Y23434D01*
X351939Y23374D01*
X352389Y23289D01*
X352811Y23181D01*
X353205Y23048D01*
X353571Y22891D01*
X353909Y22710D01*
X354217Y22502D01*
X354497Y22265D01*
X354746Y21999D01*
X354965Y21704D01*
X355155Y21379D01*
X355315Y21026D01*
X355446Y20643D01*
X355547Y20232D01*
X353559Y19986D01*
X353503Y20201D01*
X353428Y20402D01*
X353334Y20591D01*
X353220Y20767D01*
X353087Y20930D01*
X352935Y21080D01*
X352763Y21217D01*
X352572Y21342D01*
X352362Y21453D01*
X352136Y21548D01*
X351892Y21630D01*
X351632Y21696D01*
X351354Y21748D01*
X351059Y21785D01*
X350747Y21807D01*
X350419Y21814D01*
X350057Y21807D01*
X349719Y21786D01*
X349406Y21750D01*
X349118Y21701D01*
X348854Y21637D01*
X348615Y21559D01*
X348400Y21467D01*
X348210Y21360D01*
X348043Y21239D01*
X347899Y21104D01*
X347777Y20954D01*
X347677Y20790D01*
X347599Y20611D01*
X347543Y20417D01*
X347510Y20209D01*
X347499Y19986D01*
X347517Y19716D01*
X347572Y19471D01*
X347664Y19250D01*
X347793Y19054D01*
X347958Y18877D01*
X348158Y18713D01*
X348394Y18564D01*
X348664Y18428D01*
X349032Y18287D01*
X349560Y18121D01*
X350247Y17931D01*
X351093Y17717D01*
X351909Y17500D01*
X352602Y17292D01*
X353173Y17092D01*
X353620Y16901D01*
X353987Y16709D01*
X354312Y16507D01*
X354597Y16295D01*
X354841Y16073D01*
X355052Y15837D01*
X355238Y15584D01*
X355399Y15312D01*
X355534Y15024D01*
X355642Y14716D01*
X355718Y14387D01*
X355764Y14038D01*
X355780Y13668D01*
X355758Y13212D01*
X355691Y12783D01*
X355580Y12381D01*
X355425Y12006D01*
X355226Y11657D01*
X354983Y11336D01*
X354695Y11041D01*
X354363Y10773D01*
X353991Y10534D01*
X353583Y10327D01*
X353140Y10152D01*
X352662Y10009D01*
X352148Y9898D01*
X351599Y9818D01*
X351014Y9771D01*
X350394Y9755D01*
G37*
G36*
X488613Y9755D02*
X488011Y9767D01*
X487445Y9806D01*
X486914Y9869D01*
X486418Y9959D01*
X485958Y10073D01*
X485534Y10214D01*
X485145Y10379D01*
X484791Y10570D01*
X484470Y10789D01*
X484178Y11036D01*
X483916Y11311D01*
X483683Y11615D01*
X483479Y11947D01*
X483304Y12308D01*
X483159Y12698D01*
X483043Y13116D01*
X484994Y13496D01*
X485074Y13238D01*
X485172Y12998D01*
X485290Y12776D01*
X485426Y12572D01*
X485581Y12385D01*
X485755Y12216D01*
X485948Y12065D01*
X486159Y11932D01*
X486391Y11816D01*
X486644Y11715D01*
X486918Y11629D01*
X487214Y11560D01*
X487532Y11505D01*
X487871Y11466D01*
X488231Y11443D01*
X488613Y11435D01*
X489019Y11443D01*
X489397Y11468D01*
X489746Y11508D01*
X490068Y11564D01*
X490361Y11637D01*
X490627Y11725D01*
X490864Y11830D01*
X491072Y11951D01*
X491255Y12087D01*
X491413Y12240D01*
X491547Y12410D01*
X491657Y12595D01*
X491742Y12796D01*
X491803Y13013D01*
X491839Y13247D01*
X491852Y13496D01*
X491843Y13688D01*
X491818Y13871D01*
X491776Y14044D01*
X491717Y14208D01*
X491641Y14363D01*
X491548Y14509D01*
X491438Y14645D01*
X491312Y14772D01*
X491166Y14892D01*
X491000Y15007D01*
X490606Y15220D01*
X490129Y15412D01*
X489570Y15582D01*
X487987Y15999D01*
X487105Y16243D01*
X486360Y16485D01*
X485752Y16725D01*
X485282Y16962D01*
X484902Y17211D01*
X484566Y17485D01*
X484273Y17784D01*
X484024Y18109D01*
X483918Y18283D01*
X483826Y18466D01*
X483748Y18658D01*
X483684Y18861D01*
X483634Y19072D01*
X483599Y19294D01*
X483578Y19525D01*
X483571Y19765D01*
X483591Y20206D01*
X483651Y20619D01*
X483753Y21006D01*
X483894Y21365D01*
X484076Y21697D01*
X484299Y22002D01*
X484561Y22281D01*
X484865Y22532D01*
X485207Y22755D01*
X485586Y22948D01*
X486002Y23111D01*
X486455Y23245D01*
X486945Y23349D01*
X487472Y23423D01*
X488036Y23468D01*
X488637Y23483D01*
X489172Y23471D01*
X489679Y23434D01*
X490157Y23374D01*
X490608Y23289D01*
X491030Y23181D01*
X491424Y23048D01*
X491790Y22891D01*
X492128Y22710D01*
X492436Y22502D01*
X492715Y22265D01*
X492965Y21999D01*
X493184Y21704D01*
X493374Y21379D01*
X493534Y21026D01*
X493665Y20643D01*
X493765Y20232D01*
X491778Y19986D01*
X491722Y20201D01*
X491647Y20402D01*
X491553Y20591D01*
X491439Y20767D01*
X491306Y20930D01*
X491153Y21080D01*
X490982Y21217D01*
X490790Y21342D01*
X490581Y21453D01*
X490354Y21548D01*
X490111Y21630D01*
X489850Y21696D01*
X489573Y21748D01*
X489278Y21785D01*
X488966Y21807D01*
X488637Y21814D01*
X488275Y21807D01*
X487938Y21786D01*
X487625Y21750D01*
X487337Y21701D01*
X487073Y21637D01*
X486834Y21559D01*
X486619Y21467D01*
X486429Y21360D01*
X486262Y21239D01*
X486118Y21104D01*
X485995Y20954D01*
X485895Y20790D01*
X485818Y20611D01*
X485762Y20417D01*
X485729Y20209D01*
X485717Y19986D01*
X485736Y19716D01*
X485791Y19471D01*
X485883Y19250D01*
X486012Y19054D01*
X486177Y18877D01*
X486377Y18713D01*
X486612Y18564D01*
X486883Y18428D01*
X487251Y18287D01*
X487779Y18121D01*
X488466Y17931D01*
X489312Y17717D01*
X490128Y17500D01*
X490821Y17292D01*
X491391Y17092D01*
X491839Y16901D01*
X492205Y16709D01*
X492531Y16507D01*
X492816Y16295D01*
X493060Y16073D01*
X493271Y15837D01*
X493457Y15584D01*
X493618Y15312D01*
X493753Y15024D01*
X493860Y14716D01*
X493937Y14387D01*
X493983Y14038D01*
X493998Y13668D01*
X493976Y13212D01*
X493910Y12783D01*
X493799Y12381D01*
X493644Y12006D01*
X493445Y11657D01*
X493201Y11336D01*
X492914Y11041D01*
X492581Y10773D01*
X492209Y10534D01*
X491802Y10327D01*
X491359Y10152D01*
X490881Y10009D01*
X490367Y9898D01*
X489818Y9818D01*
X489233Y9771D01*
X488613Y9755D01*
G37*
G36*
X664420Y10000D02*
X653342Y10000D01*
X653342Y27286D01*
X655685Y27286D01*
X655685Y11914D01*
X664420Y11914D01*
X664420Y10000D01*
G37*
G36*
X627939Y9804D02*
X627618Y9815D01*
X627318Y9851D01*
X627038Y9909D01*
X626779Y9992D01*
X626541Y10097D01*
X626324Y10226D01*
X626127Y10379D01*
X625951Y10555D01*
X625796Y10755D01*
X625661Y10978D01*
X625548Y11224D01*
X625454Y11494D01*
X625382Y11788D01*
X625330Y12105D01*
X625299Y12445D01*
X625289Y12809D01*
X625289Y21667D01*
X623755Y21667D01*
X623755Y23274D01*
X625375Y23274D01*
X626025Y26243D01*
X627497Y26243D01*
X627497Y23274D01*
X629951Y23274D01*
X629951Y21667D01*
X627497Y21667D01*
X627497Y13288D01*
X627517Y12845D01*
X627575Y12474D01*
X627619Y12315D01*
X627673Y12173D01*
X627737Y12050D01*
X627810Y11944D01*
X627895Y11854D01*
X627995Y11775D01*
X628109Y11709D01*
X628238Y11655D01*
X628381Y11612D01*
X628538Y11582D01*
X628710Y11564D01*
X628896Y11558D01*
X629141Y11569D01*
X629435Y11601D01*
X630172Y11730D01*
X630172Y10098D01*
X629623Y9969D01*
X629067Y9877D01*
X628506Y9822D01*
X627939Y9804D01*
G37*
G36*
X559631Y10000D02*
X557287Y10000D01*
X557287Y27286D01*
X559631Y27286D01*
X559631Y10000D01*
G37*
G36*
X540714Y10000D02*
X538505Y10000D01*
X538505Y28206D01*
X540714Y28206D01*
X540714Y10000D01*
G37*
G36*
X360576Y10000D02*
X358368Y10000D01*
X358368Y23274D01*
X360576Y23274D01*
X360576Y10000D01*
G37*
G36*
X498795Y10000D02*
X496587Y10000D01*
X496587Y23274D01*
X498795Y23274D01*
X498795Y10000D01*
G37*
G36*
X546295Y10000D02*
X544087Y10000D01*
X544087Y23274D01*
X546295Y23274D01*
X546295Y10000D01*
G37*
G36*
X360576Y26096D02*
X358368Y26096D01*
X358368Y28206D01*
X360576Y28206D01*
X360576Y26096D01*
G37*
G36*
X498795Y26096D02*
X496587Y26096D01*
X496587Y28206D01*
X498795Y28206D01*
X498795Y26096D01*
G37*
G36*
X546295Y26096D02*
X544087Y26096D01*
X544087Y28206D01*
X546295Y28206D01*
X546295Y26096D01*
G37*
G36*
X190260Y119040D02*
X190260Y89040D01*
X110260Y89040D01*
X110260Y119040D01*
X110412Y120776D01*
X110863Y122460D01*
X111600Y124040D01*
X112600Y125468D01*
X113832Y126700D01*
X115260Y127700D01*
X116840Y128437D01*
X118524Y128888D01*
X120260Y129040D01*
X180260Y129040D01*
X181996Y128888D01*
X183680Y128437D01*
X185260Y127700D01*
X186688Y126700D01*
X187920Y125468D01*
X188920Y124040D01*
X189657Y122460D01*
X190108Y120776D01*
X190260Y119040D01*
G37*
G36*
X190260Y119040D02*
X190260Y89040D01*
X110260Y89040D01*
X110260Y119040D01*
X110412Y120776D01*
X110863Y122460D01*
X111600Y124040D01*
X112600Y125468D01*
X113832Y126700D01*
X115260Y127700D01*
X116840Y128437D01*
X118524Y128888D01*
X120260Y129040D01*
X180260Y129040D01*
X181996Y128888D01*
X183680Y128437D01*
X185260Y127700D01*
X186688Y126700D01*
X187920Y125468D01*
X188920Y124040D01*
X189657Y122460D01*
X190108Y120776D01*
X190260Y119040D01*
G37*
G36*
X190260Y154040D02*
X190108Y152304D01*
X189657Y150620D01*
X188920Y149040D01*
X187920Y147612D01*
X186688Y146380D01*
X185260Y145380D01*
X183680Y144643D01*
X181996Y144192D01*
X180260Y144040D01*
X120260Y144040D01*
X118524Y144192D01*
X116840Y144643D01*
X115260Y145380D01*
X113832Y146380D01*
X112600Y147612D01*
X111600Y149040D01*
X110863Y150620D01*
X110412Y152304D01*
X110260Y154040D01*
X110260Y184040D01*
X190260Y184040D01*
X190260Y154040D01*
G37*
G36*
X190260Y154040D02*
X190108Y152304D01*
X189657Y150620D01*
X188920Y149040D01*
X187920Y147612D01*
X186688Y146380D01*
X185260Y145380D01*
X183680Y144643D01*
X181996Y144192D01*
X180260Y144040D01*
X120260Y144040D01*
X118524Y144192D01*
X116840Y144643D01*
X115260Y145380D01*
X113832Y146380D01*
X112600Y147612D01*
X111600Y149040D01*
X110863Y150620D01*
X110412Y152304D01*
X110260Y154040D01*
X110260Y184040D01*
X190260Y184040D01*
X190260Y154040D01*
G37*
G36*
X190260Y309040D02*
X190260Y279040D01*
X110260Y279040D01*
X110260Y309040D01*
X110412Y310776D01*
X110863Y312460D01*
X111600Y314040D01*
X112600Y315468D01*
X113832Y316700D01*
X115260Y317700D01*
X116840Y318437D01*
X118524Y318888D01*
X120260Y319040D01*
X180260Y319040D01*
X181996Y318888D01*
X183680Y318437D01*
X185260Y317700D01*
X186688Y316700D01*
X187920Y315468D01*
X188920Y314040D01*
X189657Y312460D01*
X190108Y310776D01*
X190260Y309040D01*
G37*
G36*
X190260Y309040D02*
X190260Y279040D01*
X110260Y279040D01*
X110260Y309040D01*
X110412Y310776D01*
X110863Y312460D01*
X111600Y314040D01*
X112600Y315468D01*
X113832Y316700D01*
X115260Y317700D01*
X116840Y318437D01*
X118524Y318888D01*
X120260Y319040D01*
X180260Y319040D01*
X181996Y318888D01*
X183680Y318437D01*
X185260Y317700D01*
X186688Y316700D01*
X187920Y315468D01*
X188920Y314040D01*
X189657Y312460D01*
X190108Y310776D01*
X190260Y309040D01*
G37*
G36*
X190260Y344040D02*
X190108Y342304D01*
X189657Y340620D01*
X188920Y339040D01*
X187920Y337612D01*
X186688Y336380D01*
X185260Y335380D01*
X183680Y334643D01*
X181996Y334192D01*
X180260Y334040D01*
X120260Y334040D01*
X118524Y334192D01*
X116840Y334643D01*
X115260Y335380D01*
X113832Y336380D01*
X112600Y337612D01*
X111600Y339040D01*
X110863Y340620D01*
X110412Y342304D01*
X110260Y344040D01*
X110260Y374040D01*
X190260Y374040D01*
X190260Y344040D01*
G37*
G36*
X190260Y344040D02*
X190108Y342304D01*
X189657Y340620D01*
X188920Y339040D01*
X187920Y337612D01*
X186688Y336380D01*
X185260Y335380D01*
X183680Y334643D01*
X181996Y334192D01*
X180260Y334040D01*
X120260Y334040D01*
X118524Y334192D01*
X116840Y334643D01*
X115260Y335380D01*
X113832Y336380D01*
X112600Y337612D01*
X111600Y339040D01*
X110863Y340620D01*
X110412Y342304D01*
X110260Y344040D01*
X110260Y374040D01*
X190260Y374040D01*
X190260Y344040D01*
G37*
G36*
X190260Y499040D02*
X190260Y469040D01*
X110260Y469040D01*
X110260Y499040D01*
X110412Y500776D01*
X110863Y502460D01*
X111600Y504040D01*
X112600Y505468D01*
X113832Y506700D01*
X115260Y507700D01*
X116840Y508437D01*
X118524Y508888D01*
X120260Y509040D01*
X180260Y509040D01*
X181996Y508888D01*
X183680Y508437D01*
X185260Y507700D01*
X186688Y506700D01*
X187920Y505468D01*
X188920Y504040D01*
X189657Y502460D01*
X190108Y500776D01*
X190260Y499040D01*
G37*
G36*
X190260Y499040D02*
X190260Y469040D01*
X110260Y469040D01*
X110260Y499040D01*
X110412Y500776D01*
X110863Y502460D01*
X111600Y504040D01*
X112600Y505468D01*
X113832Y506700D01*
X115260Y507700D01*
X116840Y508437D01*
X118524Y508888D01*
X120260Y509040D01*
X180260Y509040D01*
X181996Y508888D01*
X183680Y508437D01*
X185260Y507700D01*
X186688Y506700D01*
X187920Y505468D01*
X188920Y504040D01*
X189657Y502460D01*
X190108Y500776D01*
X190260Y499040D01*
G37*
G36*
X190260Y534040D02*
X190108Y532304D01*
X189657Y530620D01*
X188920Y529040D01*
X187920Y527612D01*
X186688Y526380D01*
X185260Y525380D01*
X183680Y524643D01*
X181996Y524192D01*
X180260Y524040D01*
X120260Y524040D01*
X118524Y524192D01*
X116840Y524643D01*
X115260Y525380D01*
X113832Y526380D01*
X112600Y527612D01*
X111600Y529040D01*
X110863Y530620D01*
X110412Y532304D01*
X110260Y534040D01*
X110260Y564040D01*
X190260Y564040D01*
X190260Y534040D01*
G37*
G36*
X190260Y534040D02*
X190108Y532304D01*
X189657Y530620D01*
X188920Y529040D01*
X187920Y527612D01*
X186688Y526380D01*
X185260Y525380D01*
X183680Y524643D01*
X181996Y524192D01*
X180260Y524040D01*
X120260Y524040D01*
X118524Y524192D01*
X116840Y524643D01*
X115260Y525380D01*
X113832Y526380D01*
X112600Y527612D01*
X111600Y529040D01*
X110863Y530620D01*
X110412Y532304D01*
X110260Y534040D01*
X110260Y564040D01*
X190260Y564040D01*
X190260Y534040D01*
G37*
G36*
X190260Y689140D02*
X190260Y659140D01*
X110260Y659140D01*
X110260Y689140D01*
X110412Y690876D01*
X110863Y692560D01*
X111600Y694140D01*
X112600Y695568D01*
X113832Y696800D01*
X115260Y697800D01*
X116840Y698537D01*
X118524Y698988D01*
X120260Y699140D01*
X180260Y699140D01*
X181996Y698988D01*
X183680Y698537D01*
X185260Y697800D01*
X186688Y696800D01*
X187920Y695568D01*
X188920Y694140D01*
X189657Y692560D01*
X190108Y690876D01*
X190260Y689140D01*
G37*
G36*
X190260Y689140D02*
X190260Y659140D01*
X110260Y659140D01*
X110260Y689140D01*
X110412Y690876D01*
X110863Y692560D01*
X111600Y694140D01*
X112600Y695568D01*
X113832Y696800D01*
X115260Y697800D01*
X116840Y698537D01*
X118524Y698988D01*
X120260Y699140D01*
X180260Y699140D01*
X181996Y698988D01*
X183680Y698537D01*
X185260Y697800D01*
X186688Y696800D01*
X187920Y695568D01*
X188920Y694140D01*
X189657Y692560D01*
X190108Y690876D01*
X190260Y689140D01*
G37*
G36*
X190260Y724040D02*
X190108Y722304D01*
X189657Y720620D01*
X188920Y719040D01*
X187920Y717612D01*
X186688Y716380D01*
X185260Y715380D01*
X183680Y714643D01*
X181996Y714192D01*
X180260Y714040D01*
X120260Y714040D01*
X118524Y714192D01*
X116840Y714643D01*
X115260Y715380D01*
X113832Y716380D01*
X112600Y717612D01*
X111600Y719040D01*
X110863Y720620D01*
X110412Y722304D01*
X110260Y724040D01*
X110260Y754040D01*
X190260Y754040D01*
X190260Y724040D01*
G37*
G36*
X190260Y724040D02*
X190108Y722304D01*
X189657Y720620D01*
X188920Y719040D01*
X187920Y717612D01*
X186688Y716380D01*
X185260Y715380D01*
X183680Y714643D01*
X181996Y714192D01*
X180260Y714040D01*
X120260Y714040D01*
X118524Y714192D01*
X116840Y714643D01*
X115260Y715380D01*
X113832Y716380D01*
X112600Y717612D01*
X111600Y719040D01*
X110863Y720620D01*
X110412Y722304D01*
X110260Y724040D01*
X110260Y754040D01*
X190260Y754040D01*
X190260Y724040D01*
G37*
G36*
X284860Y439040D02*
X284708Y437304D01*
X284257Y435620D01*
X283520Y434040D01*
X282520Y432612D01*
X281288Y431380D01*
X279860Y430380D01*
X278280Y429643D01*
X276596Y429192D01*
X274860Y429040D01*
X214860Y429040D01*
X213124Y429192D01*
X211440Y429643D01*
X209860Y430380D01*
X208432Y431380D01*
X207200Y432612D01*
X206200Y434040D01*
X205463Y435620D01*
X205012Y437304D01*
X204860Y439040D01*
X204860Y469040D01*
X284860Y469040D01*
X284860Y439040D01*
G37*
G36*
X284860Y439040D02*
X284708Y437304D01*
X284257Y435620D01*
X283520Y434040D01*
X282520Y432612D01*
X281288Y431380D01*
X279860Y430380D01*
X278280Y429643D01*
X276596Y429192D01*
X274860Y429040D01*
X214860Y429040D01*
X213124Y429192D01*
X211440Y429643D01*
X209860Y430380D01*
X208432Y431380D01*
X207200Y432612D01*
X206200Y434040D01*
X205463Y435620D01*
X205012Y437304D01*
X204860Y439040D01*
X204860Y469040D01*
X284860Y469040D01*
X284860Y439040D01*
G37*
G36*
X284860Y629040D02*
X284708Y627304D01*
X284257Y625620D01*
X283520Y624040D01*
X282520Y622612D01*
X281288Y621380D01*
X279860Y620380D01*
X278280Y619643D01*
X276596Y619192D01*
X274860Y619040D01*
X214860Y619040D01*
X213124Y619192D01*
X211440Y619643D01*
X209860Y620380D01*
X208432Y621380D01*
X207200Y622612D01*
X206200Y624040D01*
X205463Y625620D01*
X205012Y627304D01*
X204860Y629040D01*
X204860Y659040D01*
X284860Y659040D01*
X284860Y629040D01*
G37*
G36*
X284860Y629040D02*
X284708Y627304D01*
X284257Y625620D01*
X283520Y624040D01*
X282520Y622612D01*
X281288Y621380D01*
X279860Y620380D01*
X278280Y619643D01*
X276596Y619192D01*
X274860Y619040D01*
X214860Y619040D01*
X213124Y619192D01*
X211440Y619643D01*
X209860Y620380D01*
X208432Y621380D01*
X207200Y622612D01*
X206200Y624040D01*
X205463Y625620D01*
X205012Y627304D01*
X204860Y629040D01*
X204860Y659040D01*
X284860Y659040D01*
X284860Y629040D01*
G37*
G36*
X285060Y59240D02*
X284908Y57504D01*
X284457Y55820D01*
X283720Y54240D01*
X282720Y52812D01*
X281488Y51580D01*
X280060Y50580D01*
X278480Y49843D01*
X276796Y49392D01*
X275060Y49240D01*
X215060Y49240D01*
X213324Y49392D01*
X211640Y49843D01*
X210060Y50580D01*
X208632Y51580D01*
X207400Y52812D01*
X206400Y54240D01*
X205663Y55820D01*
X205212Y57504D01*
X205060Y59240D01*
X205060Y89240D01*
X285060Y89240D01*
X285060Y59240D01*
G37*
G36*
X285060Y59240D02*
X284908Y57504D01*
X284457Y55820D01*
X283720Y54240D01*
X282720Y52812D01*
X281488Y51580D01*
X280060Y50580D01*
X278480Y49843D01*
X276796Y49392D01*
X275060Y49240D01*
X215060Y49240D01*
X213324Y49392D01*
X211640Y49843D01*
X210060Y50580D01*
X208632Y51580D01*
X207400Y52812D01*
X206400Y54240D01*
X205663Y55820D01*
X205212Y57504D01*
X205060Y59240D01*
X205060Y89240D01*
X285060Y89240D01*
X285060Y59240D01*
G37*
G36*
X285060Y249240D02*
X284908Y247504D01*
X284457Y245820D01*
X283720Y244240D01*
X282720Y242812D01*
X281488Y241580D01*
X280060Y240580D01*
X278480Y239843D01*
X276796Y239392D01*
X275060Y239240D01*
X215060Y239240D01*
X213324Y239392D01*
X211640Y239843D01*
X210060Y240580D01*
X208632Y241580D01*
X207400Y242812D01*
X206400Y244240D01*
X205663Y245820D01*
X205212Y247504D01*
X205060Y249240D01*
X205060Y279240D01*
X285060Y279240D01*
X285060Y249240D01*
G37*
G36*
X285060Y249240D02*
X284908Y247504D01*
X284457Y245820D01*
X283720Y244240D01*
X282720Y242812D01*
X281488Y241580D01*
X280060Y240580D01*
X278480Y239843D01*
X276796Y239392D01*
X275060Y239240D01*
X215060Y239240D01*
X213324Y239392D01*
X211640Y239843D01*
X210060Y240580D01*
X208632Y241580D01*
X207400Y242812D01*
X206400Y244240D01*
X205663Y245820D01*
X205212Y247504D01*
X205060Y249240D01*
X205060Y279240D01*
X285060Y279240D01*
X285060Y249240D01*
G37*
G36*
X285060Y593940D02*
X285060Y563940D01*
X205060Y563940D01*
X205060Y593940D01*
X205212Y595676D01*
X205663Y597360D01*
X206400Y598940D01*
X207400Y600368D01*
X208632Y601600D01*
X210060Y602600D01*
X211640Y603337D01*
X213324Y603788D01*
X215060Y603940D01*
X275060Y603940D01*
X276796Y603788D01*
X278480Y603337D01*
X280060Y602600D01*
X281488Y601600D01*
X282720Y600368D01*
X283720Y598940D01*
X284457Y597360D01*
X284908Y595676D01*
X285060Y593940D01*
G37*
G36*
X285060Y593940D02*
X285060Y563940D01*
X205060Y563940D01*
X205060Y593940D01*
X205212Y595676D01*
X205663Y597360D01*
X206400Y598940D01*
X207400Y600368D01*
X208632Y601600D01*
X210060Y602600D01*
X211640Y603337D01*
X213324Y603788D01*
X215060Y603940D01*
X275060Y603940D01*
X276796Y603788D01*
X278480Y603337D01*
X280060Y602600D01*
X281488Y601600D01*
X282720Y600368D01*
X283720Y598940D01*
X284457Y597360D01*
X284908Y595676D01*
X285060Y593940D01*
G37*
G36*
X285060Y783940D02*
X285060Y753940D01*
X205060Y753940D01*
X205060Y783940D01*
X205212Y785676D01*
X205663Y787360D01*
X206400Y788940D01*
X207400Y790368D01*
X208632Y791600D01*
X210060Y792600D01*
X211640Y793337D01*
X213324Y793788D01*
X215060Y793940D01*
X275060Y793940D01*
X276796Y793788D01*
X278480Y793337D01*
X280060Y792600D01*
X281488Y791600D01*
X282720Y790368D01*
X283720Y788940D01*
X284457Y787360D01*
X284908Y785676D01*
X285060Y783940D01*
G37*
G36*
X285060Y783940D02*
X285060Y753940D01*
X205060Y753940D01*
X205060Y783940D01*
X205212Y785676D01*
X205663Y787360D01*
X206400Y788940D01*
X207400Y790368D01*
X208632Y791600D01*
X210060Y792600D01*
X211640Y793337D01*
X213324Y793788D01*
X215060Y793940D01*
X275060Y793940D01*
X276796Y793788D01*
X278480Y793337D01*
X280060Y792600D01*
X281488Y791600D01*
X282720Y790368D01*
X283720Y788940D01*
X284457Y787360D01*
X284908Y785676D01*
X285060Y783940D01*
G37*
G36*
X285260Y214140D02*
X285260Y184140D01*
X205260Y184140D01*
X205260Y214140D01*
X205412Y215876D01*
X205863Y217560D01*
X206600Y219140D01*
X207600Y220568D01*
X208832Y221800D01*
X210260Y222800D01*
X211840Y223537D01*
X213524Y223988D01*
X215260Y224140D01*
X275260Y224140D01*
X276996Y223988D01*
X278680Y223537D01*
X280260Y222800D01*
X281688Y221800D01*
X282920Y220568D01*
X283920Y219140D01*
X284657Y217560D01*
X285108Y215876D01*
X285260Y214140D01*
G37*
G36*
X285260Y214140D02*
X285260Y184140D01*
X205260Y184140D01*
X205260Y214140D01*
X205412Y215876D01*
X205863Y217560D01*
X206600Y219140D01*
X207600Y220568D01*
X208832Y221800D01*
X210260Y222800D01*
X211840Y223537D01*
X213524Y223988D01*
X215260Y224140D01*
X275260Y224140D01*
X276996Y223988D01*
X278680Y223537D01*
X280260Y222800D01*
X281688Y221800D01*
X282920Y220568D01*
X283920Y219140D01*
X284657Y217560D01*
X285108Y215876D01*
X285260Y214140D01*
G37*
G36*
X285260Y404140D02*
X285260Y374140D01*
X205260Y374140D01*
X205260Y404140D01*
X205412Y405876D01*
X205863Y407560D01*
X206600Y409140D01*
X207600Y410568D01*
X208832Y411800D01*
X210260Y412800D01*
X211840Y413537D01*
X213524Y413988D01*
X215260Y414140D01*
X275260Y414140D01*
X276996Y413988D01*
X278680Y413537D01*
X280260Y412800D01*
X281688Y411800D01*
X282920Y410568D01*
X283920Y409140D01*
X284657Y407560D01*
X285108Y405876D01*
X285260Y404140D01*
G37*
G36*
X285260Y404140D02*
X285260Y374140D01*
X205260Y374140D01*
X205260Y404140D01*
X205412Y405876D01*
X205863Y407560D01*
X206600Y409140D01*
X207600Y410568D01*
X208832Y411800D01*
X210260Y412800D01*
X211840Y413537D01*
X213524Y413988D01*
X215260Y414140D01*
X275260Y414140D01*
X276996Y413988D01*
X278680Y413537D01*
X280260Y412800D01*
X281688Y411800D01*
X282920Y410568D01*
X283920Y409140D01*
X284657Y407560D01*
X285108Y405876D01*
X285260Y404140D01*
G37*
G36*
X380060Y119240D02*
X380060Y89240D01*
X300060Y89240D01*
X300060Y119240D01*
X300212Y120976D01*
X300663Y122660D01*
X301400Y124240D01*
X302400Y125668D01*
X303632Y126900D01*
X305060Y127900D01*
X306640Y128637D01*
X308324Y129088D01*
X310060Y129240D01*
X370060Y129240D01*
X371796Y129088D01*
X373480Y128637D01*
X375060Y127900D01*
X376488Y126900D01*
X377720Y125668D01*
X378720Y124240D01*
X379457Y122660D01*
X379908Y120976D01*
X380060Y119240D01*
G37*
G36*
X380060Y119240D02*
X380060Y89240D01*
X300060Y89240D01*
X300060Y119240D01*
X300212Y120976D01*
X300663Y122660D01*
X301400Y124240D01*
X302400Y125668D01*
X303632Y126900D01*
X305060Y127900D01*
X306640Y128637D01*
X308324Y129088D01*
X310060Y129240D01*
X370060Y129240D01*
X371796Y129088D01*
X373480Y128637D01*
X375060Y127900D01*
X376488Y126900D01*
X377720Y125668D01*
X378720Y124240D01*
X379457Y122660D01*
X379908Y120976D01*
X380060Y119240D01*
G37*
G36*
X380160Y344240D02*
X380008Y342504D01*
X379557Y340820D01*
X378820Y339240D01*
X377820Y337812D01*
X376588Y336580D01*
X375160Y335580D01*
X373580Y334843D01*
X371896Y334392D01*
X370160Y334240D01*
X310160Y334240D01*
X308424Y334392D01*
X306740Y334843D01*
X305160Y335580D01*
X303732Y336580D01*
X302500Y337812D01*
X301500Y339240D01*
X300763Y340820D01*
X300312Y342504D01*
X300160Y344240D01*
X300160Y374240D01*
X380160Y374240D01*
X380160Y344240D01*
G37*
G36*
X380160Y344240D02*
X380008Y342504D01*
X379557Y340820D01*
X378820Y339240D01*
X377820Y337812D01*
X376588Y336580D01*
X375160Y335580D01*
X373580Y334843D01*
X371896Y334392D01*
X370160Y334240D01*
X310160Y334240D01*
X308424Y334392D01*
X306740Y334843D01*
X305160Y335580D01*
X303732Y336580D01*
X302500Y337812D01*
X301500Y339240D01*
X300763Y340820D01*
X300312Y342504D01*
X300160Y344240D01*
X300160Y374240D01*
X380160Y374240D01*
X380160Y344240D01*
G37*
G36*
X380260Y214240D02*
X380260Y184240D01*
X300260Y184240D01*
X300260Y214240D01*
X300412Y215976D01*
X300863Y217660D01*
X301600Y219240D01*
X302600Y220668D01*
X303832Y221900D01*
X305260Y222900D01*
X306840Y223637D01*
X308524Y224088D01*
X310260Y224240D01*
X370260Y224240D01*
X371996Y224088D01*
X373680Y223637D01*
X375260Y222900D01*
X376688Y221900D01*
X377920Y220668D01*
X378920Y219240D01*
X379657Y217660D01*
X380108Y215976D01*
X380260Y214240D01*
G37*
G36*
X380260Y214240D02*
X380260Y184240D01*
X300260Y184240D01*
X300260Y214240D01*
X300412Y215976D01*
X300863Y217660D01*
X301600Y219240D01*
X302600Y220668D01*
X303832Y221900D01*
X305260Y222900D01*
X306840Y223637D01*
X308524Y224088D01*
X310260Y224240D01*
X370260Y224240D01*
X371996Y224088D01*
X373680Y223637D01*
X375260Y222900D01*
X376688Y221900D01*
X377920Y220668D01*
X378920Y219240D01*
X379657Y217660D01*
X380108Y215976D01*
X380260Y214240D01*
G37*
G36*
X380260Y249340D02*
X380108Y247604D01*
X379657Y245920D01*
X378920Y244340D01*
X377920Y242912D01*
X376688Y241680D01*
X375260Y240680D01*
X373680Y239943D01*
X371996Y239492D01*
X370260Y239340D01*
X310260Y239340D01*
X308524Y239492D01*
X306840Y239943D01*
X305260Y240680D01*
X303832Y241680D01*
X302600Y242912D01*
X301600Y244340D01*
X300863Y245920D01*
X300412Y247604D01*
X300260Y249340D01*
X300260Y279340D01*
X380260Y279340D01*
X380260Y249340D01*
G37*
G36*
X380260Y249340D02*
X380108Y247604D01*
X379657Y245920D01*
X378920Y244340D01*
X377920Y242912D01*
X376688Y241680D01*
X375260Y240680D01*
X373680Y239943D01*
X371996Y239492D01*
X370260Y239340D01*
X310260Y239340D01*
X308524Y239492D01*
X306840Y239943D01*
X305260Y240680D01*
X303832Y241680D01*
X302600Y242912D01*
X301600Y244340D01*
X300863Y245920D01*
X300412Y247604D01*
X300260Y249340D01*
X300260Y279340D01*
X380260Y279340D01*
X380260Y249340D01*
G37*
G36*
X380260Y499040D02*
X380260Y469040D01*
X300260Y469040D01*
X300260Y499040D01*
X300412Y500776D01*
X300863Y502460D01*
X301600Y504040D01*
X302600Y505468D01*
X303832Y506700D01*
X305260Y507700D01*
X306840Y508437D01*
X308524Y508888D01*
X310260Y509040D01*
X370260Y509040D01*
X371996Y508888D01*
X373680Y508437D01*
X375260Y507700D01*
X376688Y506700D01*
X377920Y505468D01*
X378920Y504040D01*
X379657Y502460D01*
X380108Y500776D01*
X380260Y499040D01*
G37*
G36*
X380260Y499040D02*
X380260Y469040D01*
X300260Y469040D01*
X300260Y499040D01*
X300412Y500776D01*
X300863Y502460D01*
X301600Y504040D01*
X302600Y505468D01*
X303832Y506700D01*
X305260Y507700D01*
X306840Y508437D01*
X308524Y508888D01*
X310260Y509040D01*
X370260Y509040D01*
X371996Y508888D01*
X373680Y508437D01*
X375260Y507700D01*
X376688Y506700D01*
X377920Y505468D01*
X378920Y504040D01*
X379657Y502460D01*
X380108Y500776D01*
X380260Y499040D01*
G37*
G36*
X380360Y724040D02*
X380208Y722304D01*
X379757Y720620D01*
X379020Y719040D01*
X378020Y717612D01*
X376788Y716380D01*
X375360Y715380D01*
X373780Y714643D01*
X372096Y714192D01*
X370360Y714040D01*
X310360Y714040D01*
X308624Y714192D01*
X306940Y714643D01*
X305360Y715380D01*
X303932Y716380D01*
X302700Y717612D01*
X301700Y719040D01*
X300963Y720620D01*
X300512Y722304D01*
X300360Y724040D01*
X300360Y754040D01*
X380360Y754040D01*
X380360Y724040D01*
G37*
G36*
X380360Y724040D02*
X380208Y722304D01*
X379757Y720620D01*
X379020Y719040D01*
X378020Y717612D01*
X376788Y716380D01*
X375360Y715380D01*
X373780Y714643D01*
X372096Y714192D01*
X370360Y714040D01*
X310360Y714040D01*
X308624Y714192D01*
X306940Y714643D01*
X305360Y715380D01*
X303932Y716380D01*
X302700Y717612D01*
X301700Y719040D01*
X300963Y720620D01*
X300512Y722304D01*
X300360Y724040D01*
X300360Y754040D01*
X380360Y754040D01*
X380360Y724040D01*
G37*
G36*
X380460Y594040D02*
X380460Y564040D01*
X300460Y564040D01*
X300460Y594040D01*
X300612Y595776D01*
X301063Y597460D01*
X301800Y599040D01*
X302800Y600468D01*
X304032Y601700D01*
X305460Y602700D01*
X307040Y603437D01*
X308724Y603888D01*
X310460Y604040D01*
X370460Y604040D01*
X372196Y603888D01*
X373880Y603437D01*
X375460Y602700D01*
X376888Y601700D01*
X378120Y600468D01*
X379120Y599040D01*
X379857Y597460D01*
X380308Y595776D01*
X380460Y594040D01*
G37*
G36*
X380460Y594040D02*
X380460Y564040D01*
X300460Y564040D01*
X300460Y594040D01*
X300612Y595776D01*
X301063Y597460D01*
X301800Y599040D01*
X302800Y600468D01*
X304032Y601700D01*
X305460Y602700D01*
X307040Y603437D01*
X308724Y603888D01*
X310460Y604040D01*
X370460Y604040D01*
X372196Y603888D01*
X373880Y603437D01*
X375460Y602700D01*
X376888Y601700D01*
X378120Y600468D01*
X379120Y599040D01*
X379857Y597460D01*
X380308Y595776D01*
X380460Y594040D01*
G37*
G36*
X380460Y629140D02*
X380308Y627404D01*
X379857Y625720D01*
X379120Y624140D01*
X378120Y622712D01*
X376888Y621480D01*
X375460Y620480D01*
X373880Y619743D01*
X372196Y619292D01*
X370460Y619140D01*
X310460Y619140D01*
X308724Y619292D01*
X307040Y619743D01*
X305460Y620480D01*
X304032Y621480D01*
X302800Y622712D01*
X301800Y624140D01*
X301063Y625720D01*
X300612Y627404D01*
X300460Y629140D01*
X300460Y659140D01*
X380460Y659140D01*
X380460Y629140D01*
G37*
G36*
X380460Y629140D02*
X380308Y627404D01*
X379857Y625720D01*
X379120Y624140D01*
X378120Y622712D01*
X376888Y621480D01*
X375460Y620480D01*
X373880Y619743D01*
X372196Y619292D01*
X370460Y619140D01*
X310460Y619140D01*
X308724Y619292D01*
X307040Y619743D01*
X305460Y620480D01*
X304032Y621480D01*
X302800Y622712D01*
X301800Y624140D01*
X301063Y625720D01*
X300612Y627404D01*
X300460Y629140D01*
X300460Y659140D01*
X380460Y659140D01*
X380460Y629140D01*
G37*
G36*
X474960Y534140D02*
X474808Y532404D01*
X474357Y530720D01*
X473620Y529140D01*
X472620Y527712D01*
X471388Y526480D01*
X469960Y525480D01*
X468380Y524743D01*
X466696Y524292D01*
X464960Y524140D01*
X404960Y524140D01*
X403224Y524292D01*
X401540Y524743D01*
X399960Y525480D01*
X398532Y526480D01*
X397300Y527712D01*
X396300Y529140D01*
X395563Y530720D01*
X395112Y532404D01*
X394960Y534140D01*
X394960Y564140D01*
X474960Y564140D01*
X474960Y534140D01*
G37*
G36*
X474960Y534140D02*
X474808Y532404D01*
X474357Y530720D01*
X473620Y529140D01*
X472620Y527712D01*
X471388Y526480D01*
X469960Y525480D01*
X468380Y524743D01*
X466696Y524292D01*
X464960Y524140D01*
X404960Y524140D01*
X403224Y524292D01*
X401540Y524743D01*
X399960Y525480D01*
X398532Y526480D01*
X397300Y527712D01*
X396300Y529140D01*
X395563Y530720D01*
X395112Y532404D01*
X394960Y534140D01*
X394960Y564140D01*
X474960Y564140D01*
X474960Y534140D01*
G37*
G36*
X475060Y154240D02*
X474908Y152504D01*
X474457Y150820D01*
X473720Y149240D01*
X472720Y147812D01*
X471488Y146580D01*
X470060Y145580D01*
X468480Y144843D01*
X466796Y144392D01*
X465060Y144240D01*
X405060Y144240D01*
X403324Y144392D01*
X401640Y144843D01*
X400060Y145580D01*
X398632Y146580D01*
X397400Y147812D01*
X396400Y149240D01*
X395663Y150820D01*
X395212Y152504D01*
X395060Y154240D01*
X395060Y184240D01*
X475060Y184240D01*
X475060Y154240D01*
G37*
G36*
X475060Y154240D02*
X474908Y152504D01*
X474457Y150820D01*
X473720Y149240D01*
X472720Y147812D01*
X471488Y146580D01*
X470060Y145580D01*
X468480Y144843D01*
X466796Y144392D01*
X465060Y144240D01*
X405060Y144240D01*
X403324Y144392D01*
X401640Y144843D01*
X400060Y145580D01*
X398632Y146580D01*
X397400Y147812D01*
X396400Y149240D01*
X395663Y150820D01*
X395212Y152504D01*
X395060Y154240D01*
X395060Y184240D01*
X475060Y184240D01*
X475060Y154240D01*
G37*
G36*
X475060Y439240D02*
X474908Y437504D01*
X474457Y435820D01*
X473720Y434240D01*
X472720Y432812D01*
X471488Y431580D01*
X470060Y430580D01*
X468480Y429843D01*
X466796Y429392D01*
X465060Y429240D01*
X405060Y429240D01*
X403324Y429392D01*
X401640Y429843D01*
X400060Y430580D01*
X398632Y431580D01*
X397400Y432812D01*
X396400Y434240D01*
X395663Y435820D01*
X395212Y437504D01*
X395060Y439240D01*
X395060Y469240D01*
X475060Y469240D01*
X475060Y439240D01*
G37*
G36*
X475060Y439240D02*
X474908Y437504D01*
X474457Y435820D01*
X473720Y434240D01*
X472720Y432812D01*
X471488Y431580D01*
X470060Y430580D01*
X468480Y429843D01*
X466796Y429392D01*
X465060Y429240D01*
X405060Y429240D01*
X403324Y429392D01*
X401640Y429843D01*
X400060Y430580D01*
X398632Y431580D01*
X397400Y432812D01*
X396400Y434240D01*
X395663Y435820D01*
X395212Y437504D01*
X395060Y439240D01*
X395060Y469240D01*
X475060Y469240D01*
X475060Y439240D01*
G37*
G36*
X475060Y689240D02*
X475060Y659240D01*
X395060Y659240D01*
X395060Y689240D01*
X395212Y690976D01*
X395663Y692660D01*
X396400Y694240D01*
X397400Y695668D01*
X398632Y696900D01*
X400060Y697900D01*
X401640Y698637D01*
X403324Y699088D01*
X405060Y699240D01*
X465060Y699240D01*
X466796Y699088D01*
X468480Y698637D01*
X470060Y697900D01*
X471488Y696900D01*
X472720Y695668D01*
X473720Y694240D01*
X474457Y692660D01*
X474908Y690976D01*
X475060Y689240D01*
G37*
G36*
X475060Y689240D02*
X475060Y659240D01*
X395060Y659240D01*
X395060Y689240D01*
X395212Y690976D01*
X395663Y692660D01*
X396400Y694240D01*
X397400Y695668D01*
X398632Y696900D01*
X400060Y697900D01*
X401640Y698637D01*
X403324Y699088D01*
X405060Y699240D01*
X465060Y699240D01*
X466796Y699088D01*
X468480Y698637D01*
X470060Y697900D01*
X471488Y696900D01*
X472720Y695668D01*
X473720Y694240D01*
X474457Y692660D01*
X474908Y690976D01*
X475060Y689240D01*
G37*
G36*
X475160Y59340D02*
X475008Y57604D01*
X474557Y55920D01*
X473820Y54340D01*
X472820Y52912D01*
X471588Y51680D01*
X470160Y50680D01*
X468580Y49943D01*
X466896Y49492D01*
X465160Y49340D01*
X405160Y49340D01*
X403424Y49492D01*
X401740Y49943D01*
X400160Y50680D01*
X398732Y51680D01*
X397500Y52912D01*
X396500Y54340D01*
X395763Y55920D01*
X395312Y57604D01*
X395160Y59340D01*
X395160Y89340D01*
X475160Y89340D01*
X475160Y59340D01*
G37*
G36*
X475160Y59340D02*
X475008Y57604D01*
X474557Y55920D01*
X473820Y54340D01*
X472820Y52912D01*
X471588Y51680D01*
X470160Y50680D01*
X468580Y49943D01*
X466896Y49492D01*
X465160Y49340D01*
X405160Y49340D01*
X403424Y49492D01*
X401740Y49943D01*
X400160Y50680D01*
X398732Y51680D01*
X397500Y52912D01*
X396500Y54340D01*
X395763Y55920D01*
X395312Y57604D01*
X395160Y59340D01*
X395160Y89340D01*
X475160Y89340D01*
X475160Y59340D01*
G37*
G36*
X475160Y309340D02*
X475160Y279340D01*
X395160Y279340D01*
X395160Y309340D01*
X395312Y311076D01*
X395763Y312760D01*
X396500Y314340D01*
X397500Y315768D01*
X398732Y317000D01*
X400160Y318000D01*
X401740Y318737D01*
X403424Y319188D01*
X405160Y319340D01*
X465160Y319340D01*
X466896Y319188D01*
X468580Y318737D01*
X470160Y318000D01*
X471588Y317000D01*
X472820Y315768D01*
X473820Y314340D01*
X474557Y312760D01*
X475008Y311076D01*
X475160Y309340D01*
G37*
G36*
X475160Y309340D02*
X475160Y279340D01*
X395160Y279340D01*
X395160Y309340D01*
X395312Y311076D01*
X395763Y312760D01*
X396500Y314340D01*
X397500Y315768D01*
X398732Y317000D01*
X400160Y318000D01*
X401740Y318737D01*
X403424Y319188D01*
X405160Y319340D01*
X465160Y319340D01*
X466896Y319188D01*
X468580Y318737D01*
X470160Y318000D01*
X471588Y317000D01*
X472820Y315768D01*
X473820Y314340D01*
X474557Y312760D01*
X475008Y311076D01*
X475160Y309340D01*
G37*
G36*
X475260Y784240D02*
X475260Y754240D01*
X395260Y754240D01*
X395260Y784240D01*
X395412Y785976D01*
X395863Y787660D01*
X396600Y789240D01*
X397600Y790668D01*
X398832Y791900D01*
X400260Y792900D01*
X401840Y793637D01*
X403524Y794088D01*
X405260Y794240D01*
X465260Y794240D01*
X466996Y794088D01*
X468680Y793637D01*
X470260Y792900D01*
X471688Y791900D01*
X472920Y790668D01*
X473920Y789240D01*
X474657Y787660D01*
X475108Y785976D01*
X475260Y784240D01*
G37*
G36*
X475260Y784240D02*
X475260Y754240D01*
X395260Y754240D01*
X395260Y784240D01*
X395412Y785976D01*
X395863Y787660D01*
X396600Y789240D01*
X397600Y790668D01*
X398832Y791900D01*
X400260Y792900D01*
X401840Y793637D01*
X403524Y794088D01*
X405260Y794240D01*
X465260Y794240D01*
X466996Y794088D01*
X468680Y793637D01*
X470260Y792900D01*
X471688Y791900D01*
X472920Y790668D01*
X473920Y789240D01*
X474657Y787660D01*
X475108Y785976D01*
X475260Y784240D01*
G37*
G36*
X475360Y404340D02*
X475360Y374340D01*
X395360Y374340D01*
X395360Y404340D01*
X395512Y406076D01*
X395963Y407760D01*
X396700Y409340D01*
X397700Y410768D01*
X398932Y412000D01*
X400360Y413000D01*
X401940Y413737D01*
X403624Y414188D01*
X405360Y414340D01*
X465360Y414340D01*
X467096Y414188D01*
X468780Y413737D01*
X470360Y413000D01*
X471788Y412000D01*
X473020Y410768D01*
X474020Y409340D01*
X474757Y407760D01*
X475208Y406076D01*
X475360Y404340D01*
G37*
G36*
X475360Y404340D02*
X475360Y374340D01*
X395360Y374340D01*
X395360Y404340D01*
X395512Y406076D01*
X395963Y407760D01*
X396700Y409340D01*
X397700Y410768D01*
X398932Y412000D01*
X400360Y413000D01*
X401940Y413737D01*
X403624Y414188D01*
X405360Y414340D01*
X465360Y414340D01*
X467096Y414188D01*
X468780Y413737D01*
X470360Y413000D01*
X471788Y412000D01*
X473020Y410768D01*
X474020Y409340D01*
X474757Y407760D01*
X475208Y406076D01*
X475360Y404340D01*
G37*
G36*
X573910Y120660D02*
X573910Y90660D01*
X493910Y90660D01*
X493910Y120660D01*
X494062Y122396D01*
X494513Y124080D01*
X495250Y125660D01*
X496250Y127088D01*
X497482Y128320D01*
X498910Y129320D01*
X500490Y130057D01*
X502174Y130508D01*
X503910Y130660D01*
X563910Y130660D01*
X565646Y130508D01*
X567330Y130057D01*
X568910Y129320D01*
X570338Y128320D01*
X571570Y127088D01*
X572570Y125660D01*
X573307Y124080D01*
X573758Y122396D01*
X573910Y120660D01*
G37*
G36*
X573910Y120660D02*
X573910Y90660D01*
X493910Y90660D01*
X493910Y120660D01*
X494062Y122396D01*
X494513Y124080D01*
X495250Y125660D01*
X496250Y127088D01*
X497482Y128320D01*
X498910Y129320D01*
X500490Y130057D01*
X502174Y130508D01*
X503910Y130660D01*
X563910Y130660D01*
X565646Y130508D01*
X567330Y130057D01*
X568910Y129320D01*
X570338Y128320D01*
X571570Y127088D01*
X572570Y125660D01*
X573307Y124080D01*
X573758Y122396D01*
X573910Y120660D01*
G37*
G36*
X573910Y155660D02*
X573758Y153924D01*
X573307Y152240D01*
X572570Y150660D01*
X571570Y149232D01*
X570338Y148000D01*
X568910Y147000D01*
X567330Y146263D01*
X565646Y145812D01*
X563910Y145660D01*
X503910Y145660D01*
X502174Y145812D01*
X500490Y146263D01*
X498910Y147000D01*
X497482Y148000D01*
X496250Y149232D01*
X495250Y150660D01*
X494513Y152240D01*
X494062Y153924D01*
X493910Y155660D01*
X493910Y185660D01*
X573910Y185660D01*
X573910Y155660D01*
G37*
G36*
X573910Y155660D02*
X573758Y153924D01*
X573307Y152240D01*
X572570Y150660D01*
X571570Y149232D01*
X570338Y148000D01*
X568910Y147000D01*
X567330Y146263D01*
X565646Y145812D01*
X563910Y145660D01*
X503910Y145660D01*
X502174Y145812D01*
X500490Y146263D01*
X498910Y147000D01*
X497482Y148000D01*
X496250Y149232D01*
X495250Y150660D01*
X494513Y152240D01*
X494062Y153924D01*
X493910Y155660D01*
X493910Y185660D01*
X573910Y185660D01*
X573910Y155660D01*
G37*
G36*
X573910Y310660D02*
X573910Y280660D01*
X493910Y280660D01*
X493910Y310660D01*
X494062Y312396D01*
X494513Y314080D01*
X495250Y315660D01*
X496250Y317088D01*
X497482Y318320D01*
X498910Y319320D01*
X500490Y320057D01*
X502174Y320508D01*
X503910Y320660D01*
X563910Y320660D01*
X565646Y320508D01*
X567330Y320057D01*
X568910Y319320D01*
X570338Y318320D01*
X571570Y317088D01*
X572570Y315660D01*
X573307Y314080D01*
X573758Y312396D01*
X573910Y310660D01*
G37*
G36*
X573910Y310660D02*
X573910Y280660D01*
X493910Y280660D01*
X493910Y310660D01*
X494062Y312396D01*
X494513Y314080D01*
X495250Y315660D01*
X496250Y317088D01*
X497482Y318320D01*
X498910Y319320D01*
X500490Y320057D01*
X502174Y320508D01*
X503910Y320660D01*
X563910Y320660D01*
X565646Y320508D01*
X567330Y320057D01*
X568910Y319320D01*
X570338Y318320D01*
X571570Y317088D01*
X572570Y315660D01*
X573307Y314080D01*
X573758Y312396D01*
X573910Y310660D01*
G37*
G36*
X573910Y345660D02*
X573758Y343924D01*
X573307Y342240D01*
X572570Y340660D01*
X571570Y339232D01*
X570338Y338000D01*
X568910Y337000D01*
X567330Y336263D01*
X565646Y335812D01*
X563910Y335660D01*
X503910Y335660D01*
X502174Y335812D01*
X500490Y336263D01*
X498910Y337000D01*
X497482Y338000D01*
X496250Y339232D01*
X495250Y340660D01*
X494513Y342240D01*
X494062Y343924D01*
X493910Y345660D01*
X493910Y375660D01*
X573910Y375660D01*
X573910Y345660D01*
G37*
G36*
X573910Y345660D02*
X573758Y343924D01*
X573307Y342240D01*
X572570Y340660D01*
X571570Y339232D01*
X570338Y338000D01*
X568910Y337000D01*
X567330Y336263D01*
X565646Y335812D01*
X563910Y335660D01*
X503910Y335660D01*
X502174Y335812D01*
X500490Y336263D01*
X498910Y337000D01*
X497482Y338000D01*
X496250Y339232D01*
X495250Y340660D01*
X494513Y342240D01*
X494062Y343924D01*
X493910Y345660D01*
X493910Y375660D01*
X573910Y375660D01*
X573910Y345660D01*
G37*
G36*
X573910Y500660D02*
X573910Y470660D01*
X493910Y470660D01*
X493910Y500660D01*
X494062Y502396D01*
X494513Y504080D01*
X495250Y505660D01*
X496250Y507088D01*
X497482Y508320D01*
X498910Y509320D01*
X500490Y510057D01*
X502174Y510508D01*
X503910Y510660D01*
X563910Y510660D01*
X565646Y510508D01*
X567330Y510057D01*
X568910Y509320D01*
X570338Y508320D01*
X571570Y507088D01*
X572570Y505660D01*
X573307Y504080D01*
X573758Y502396D01*
X573910Y500660D01*
G37*
G36*
X573910Y500660D02*
X573910Y470660D01*
X493910Y470660D01*
X493910Y500660D01*
X494062Y502396D01*
X494513Y504080D01*
X495250Y505660D01*
X496250Y507088D01*
X497482Y508320D01*
X498910Y509320D01*
X500490Y510057D01*
X502174Y510508D01*
X503910Y510660D01*
X563910Y510660D01*
X565646Y510508D01*
X567330Y510057D01*
X568910Y509320D01*
X570338Y508320D01*
X571570Y507088D01*
X572570Y505660D01*
X573307Y504080D01*
X573758Y502396D01*
X573910Y500660D01*
G37*
G36*
X573910Y535660D02*
X573758Y533924D01*
X573307Y532240D01*
X572570Y530660D01*
X571570Y529232D01*
X570338Y528000D01*
X568910Y527000D01*
X567330Y526263D01*
X565646Y525812D01*
X563910Y525660D01*
X503910Y525660D01*
X502174Y525812D01*
X500490Y526263D01*
X498910Y527000D01*
X497482Y528000D01*
X496250Y529232D01*
X495250Y530660D01*
X494513Y532240D01*
X494062Y533924D01*
X493910Y535660D01*
X493910Y565660D01*
X573910Y565660D01*
X573910Y535660D01*
G37*
G36*
X573910Y535660D02*
X573758Y533924D01*
X573307Y532240D01*
X572570Y530660D01*
X571570Y529232D01*
X570338Y528000D01*
X568910Y527000D01*
X567330Y526263D01*
X565646Y525812D01*
X563910Y525660D01*
X503910Y525660D01*
X502174Y525812D01*
X500490Y526263D01*
X498910Y527000D01*
X497482Y528000D01*
X496250Y529232D01*
X495250Y530660D01*
X494513Y532240D01*
X494062Y533924D01*
X493910Y535660D01*
X493910Y565660D01*
X573910Y565660D01*
X573910Y535660D01*
G37*
G36*
X573910Y690760D02*
X573910Y660760D01*
X493910Y660760D01*
X493910Y690760D01*
X494062Y692496D01*
X494513Y694180D01*
X495250Y695760D01*
X496250Y697188D01*
X497482Y698420D01*
X498910Y699420D01*
X500490Y700157D01*
X502174Y700608D01*
X503910Y700760D01*
X563910Y700760D01*
X565646Y700608D01*
X567330Y700157D01*
X568910Y699420D01*
X570338Y698420D01*
X571570Y697188D01*
X572570Y695760D01*
X573307Y694180D01*
X573758Y692496D01*
X573910Y690760D01*
G37*
G36*
X573910Y690760D02*
X573910Y660760D01*
X493910Y660760D01*
X493910Y690760D01*
X494062Y692496D01*
X494513Y694180D01*
X495250Y695760D01*
X496250Y697188D01*
X497482Y698420D01*
X498910Y699420D01*
X500490Y700157D01*
X502174Y700608D01*
X503910Y700760D01*
X563910Y700760D01*
X565646Y700608D01*
X567330Y700157D01*
X568910Y699420D01*
X570338Y698420D01*
X571570Y697188D01*
X572570Y695760D01*
X573307Y694180D01*
X573758Y692496D01*
X573910Y690760D01*
G37*
G36*
X573910Y725660D02*
X573758Y723924D01*
X573307Y722240D01*
X572570Y720660D01*
X571570Y719232D01*
X570338Y718000D01*
X568910Y717000D01*
X567330Y716263D01*
X565646Y715812D01*
X563910Y715660D01*
X503910Y715660D01*
X502174Y715812D01*
X500490Y716263D01*
X498910Y717000D01*
X497482Y718000D01*
X496250Y719232D01*
X495250Y720660D01*
X494513Y722240D01*
X494062Y723924D01*
X493910Y725660D01*
X493910Y755660D01*
X573910Y755660D01*
X573910Y725660D01*
G37*
G36*
X573910Y725660D02*
X573758Y723924D01*
X573307Y722240D01*
X572570Y720660D01*
X571570Y719232D01*
X570338Y718000D01*
X568910Y717000D01*
X567330Y716263D01*
X565646Y715812D01*
X563910Y715660D01*
X503910Y715660D01*
X502174Y715812D01*
X500490Y716263D01*
X498910Y717000D01*
X497482Y718000D01*
X496250Y719232D01*
X495250Y720660D01*
X494513Y722240D01*
X494062Y723924D01*
X493910Y725660D01*
X493910Y755660D01*
X573910Y755660D01*
X573910Y725660D01*
G37*
G36*
X668510Y440660D02*
X668358Y438924D01*
X667907Y437240D01*
X667170Y435660D01*
X666170Y434232D01*
X664938Y433000D01*
X663510Y432000D01*
X661930Y431263D01*
X660246Y430812D01*
X658510Y430660D01*
X598510Y430660D01*
X596774Y430812D01*
X595090Y431263D01*
X593510Y432000D01*
X592082Y433000D01*
X590850Y434232D01*
X589850Y435660D01*
X589113Y437240D01*
X588662Y438924D01*
X588510Y440660D01*
X588510Y470660D01*
X668510Y470660D01*
X668510Y440660D01*
G37*
G36*
X668510Y440660D02*
X668358Y438924D01*
X667907Y437240D01*
X667170Y435660D01*
X666170Y434232D01*
X664938Y433000D01*
X663510Y432000D01*
X661930Y431263D01*
X660246Y430812D01*
X658510Y430660D01*
X598510Y430660D01*
X596774Y430812D01*
X595090Y431263D01*
X593510Y432000D01*
X592082Y433000D01*
X590850Y434232D01*
X589850Y435660D01*
X589113Y437240D01*
X588662Y438924D01*
X588510Y440660D01*
X588510Y470660D01*
X668510Y470660D01*
X668510Y440660D01*
G37*
G36*
X668510Y630660D02*
X668358Y628924D01*
X667907Y627240D01*
X667170Y625660D01*
X666170Y624232D01*
X664938Y623000D01*
X663510Y622000D01*
X661930Y621263D01*
X660246Y620812D01*
X658510Y620660D01*
X598510Y620660D01*
X596774Y620812D01*
X595090Y621263D01*
X593510Y622000D01*
X592082Y623000D01*
X590850Y624232D01*
X589850Y625660D01*
X589113Y627240D01*
X588662Y628924D01*
X588510Y630660D01*
X588510Y660660D01*
X668510Y660660D01*
X668510Y630660D01*
G37*
G36*
X668510Y630660D02*
X668358Y628924D01*
X667907Y627240D01*
X667170Y625660D01*
X666170Y624232D01*
X664938Y623000D01*
X663510Y622000D01*
X661930Y621263D01*
X660246Y620812D01*
X658510Y620660D01*
X598510Y620660D01*
X596774Y620812D01*
X595090Y621263D01*
X593510Y622000D01*
X592082Y623000D01*
X590850Y624232D01*
X589850Y625660D01*
X589113Y627240D01*
X588662Y628924D01*
X588510Y630660D01*
X588510Y660660D01*
X668510Y660660D01*
X668510Y630660D01*
G37*
G36*
X668710Y60860D02*
X668558Y59124D01*
X668107Y57440D01*
X667370Y55860D01*
X666370Y54432D01*
X665138Y53200D01*
X663710Y52200D01*
X662130Y51463D01*
X660446Y51012D01*
X658710Y50860D01*
X598710Y50860D01*
X596974Y51012D01*
X595290Y51463D01*
X593710Y52200D01*
X592282Y53200D01*
X591050Y54432D01*
X590050Y55860D01*
X589313Y57440D01*
X588862Y59124D01*
X588710Y60860D01*
X588710Y90860D01*
X668710Y90860D01*
X668710Y60860D01*
G37*
G36*
X668710Y60860D02*
X668558Y59124D01*
X668107Y57440D01*
X667370Y55860D01*
X666370Y54432D01*
X665138Y53200D01*
X663710Y52200D01*
X662130Y51463D01*
X660446Y51012D01*
X658710Y50860D01*
X598710Y50860D01*
X596974Y51012D01*
X595290Y51463D01*
X593710Y52200D01*
X592282Y53200D01*
X591050Y54432D01*
X590050Y55860D01*
X589313Y57440D01*
X588862Y59124D01*
X588710Y60860D01*
X588710Y90860D01*
X668710Y90860D01*
X668710Y60860D01*
G37*
G36*
X668710Y250860D02*
X668558Y249124D01*
X668107Y247440D01*
X667370Y245860D01*
X666370Y244432D01*
X665138Y243200D01*
X663710Y242200D01*
X662130Y241463D01*
X660446Y241012D01*
X658710Y240860D01*
X598710Y240860D01*
X596974Y241012D01*
X595290Y241463D01*
X593710Y242200D01*
X592282Y243200D01*
X591050Y244432D01*
X590050Y245860D01*
X589313Y247440D01*
X588862Y249124D01*
X588710Y250860D01*
X588710Y280860D01*
X668710Y280860D01*
X668710Y250860D01*
G37*
G36*
X668710Y250860D02*
X668558Y249124D01*
X668107Y247440D01*
X667370Y245860D01*
X666370Y244432D01*
X665138Y243200D01*
X663710Y242200D01*
X662130Y241463D01*
X660446Y241012D01*
X658710Y240860D01*
X598710Y240860D01*
X596974Y241012D01*
X595290Y241463D01*
X593710Y242200D01*
X592282Y243200D01*
X591050Y244432D01*
X590050Y245860D01*
X589313Y247440D01*
X588862Y249124D01*
X588710Y250860D01*
X588710Y280860D01*
X668710Y280860D01*
X668710Y250860D01*
G37*
G36*
X668710Y595560D02*
X668710Y565560D01*
X588710Y565560D01*
X588710Y595560D01*
X588862Y597296D01*
X589313Y598980D01*
X590050Y600560D01*
X591050Y601988D01*
X592282Y603220D01*
X593710Y604220D01*
X595290Y604957D01*
X596974Y605408D01*
X598710Y605560D01*
X658710Y605560D01*
X660446Y605408D01*
X662130Y604957D01*
X663710Y604220D01*
X665138Y603220D01*
X666370Y601988D01*
X667370Y600560D01*
X668107Y598980D01*
X668558Y597296D01*
X668710Y595560D01*
G37*
G36*
X668710Y595560D02*
X668710Y565560D01*
X588710Y565560D01*
X588710Y595560D01*
X588862Y597296D01*
X589313Y598980D01*
X590050Y600560D01*
X591050Y601988D01*
X592282Y603220D01*
X593710Y604220D01*
X595290Y604957D01*
X596974Y605408D01*
X598710Y605560D01*
X658710Y605560D01*
X660446Y605408D01*
X662130Y604957D01*
X663710Y604220D01*
X665138Y603220D01*
X666370Y601988D01*
X667370Y600560D01*
X668107Y598980D01*
X668558Y597296D01*
X668710Y595560D01*
G37*
G36*
X668710Y785560D02*
X668710Y755560D01*
X588710Y755560D01*
X588710Y785560D01*
X588862Y787296D01*
X589313Y788980D01*
X590050Y790560D01*
X591050Y791988D01*
X592282Y793220D01*
X593710Y794220D01*
X595290Y794957D01*
X596974Y795408D01*
X598710Y795560D01*
X658710Y795560D01*
X660446Y795408D01*
X662130Y794957D01*
X663710Y794220D01*
X665138Y793220D01*
X666370Y791988D01*
X667370Y790560D01*
X668107Y788980D01*
X668558Y787296D01*
X668710Y785560D01*
G37*
G36*
X668710Y785560D02*
X668710Y755560D01*
X588710Y755560D01*
X588710Y785560D01*
X588862Y787296D01*
X589313Y788980D01*
X590050Y790560D01*
X591050Y791988D01*
X592282Y793220D01*
X593710Y794220D01*
X595290Y794957D01*
X596974Y795408D01*
X598710Y795560D01*
X658710Y795560D01*
X660446Y795408D01*
X662130Y794957D01*
X663710Y794220D01*
X665138Y793220D01*
X666370Y791988D01*
X667370Y790560D01*
X668107Y788980D01*
X668558Y787296D01*
X668710Y785560D01*
G37*
G36*
X668910Y215760D02*
X668910Y185760D01*
X588910Y185760D01*
X588910Y215760D01*
X589062Y217496D01*
X589513Y219180D01*
X590250Y220760D01*
X591250Y222188D01*
X592482Y223420D01*
X593910Y224420D01*
X595490Y225157D01*
X597174Y225608D01*
X598910Y225760D01*
X658910Y225760D01*
X660646Y225608D01*
X662330Y225157D01*
X663910Y224420D01*
X665338Y223420D01*
X666570Y222188D01*
X667570Y220760D01*
X668307Y219180D01*
X668758Y217496D01*
X668910Y215760D01*
G37*
G36*
X668910Y215760D02*
X668910Y185760D01*
X588910Y185760D01*
X588910Y215760D01*
X589062Y217496D01*
X589513Y219180D01*
X590250Y220760D01*
X591250Y222188D01*
X592482Y223420D01*
X593910Y224420D01*
X595490Y225157D01*
X597174Y225608D01*
X598910Y225760D01*
X658910Y225760D01*
X660646Y225608D01*
X662330Y225157D01*
X663910Y224420D01*
X665338Y223420D01*
X666570Y222188D01*
X667570Y220760D01*
X668307Y219180D01*
X668758Y217496D01*
X668910Y215760D01*
G37*
G36*
X668910Y405760D02*
X668910Y375760D01*
X588910Y375760D01*
X588910Y405760D01*
X589062Y407496D01*
X589513Y409180D01*
X590250Y410760D01*
X591250Y412188D01*
X592482Y413420D01*
X593910Y414420D01*
X595490Y415157D01*
X597174Y415608D01*
X598910Y415760D01*
X658910Y415760D01*
X660646Y415608D01*
X662330Y415157D01*
X663910Y414420D01*
X665338Y413420D01*
X666570Y412188D01*
X667570Y410760D01*
X668307Y409180D01*
X668758Y407496D01*
X668910Y405760D01*
G37*
G36*
X668910Y405760D02*
X668910Y375760D01*
X588910Y375760D01*
X588910Y405760D01*
X589062Y407496D01*
X589513Y409180D01*
X590250Y410760D01*
X591250Y412188D01*
X592482Y413420D01*
X593910Y414420D01*
X595490Y415157D01*
X597174Y415608D01*
X598910Y415760D01*
X658910Y415760D01*
X660646Y415608D01*
X662330Y415157D01*
X663910Y414420D01*
X665338Y413420D01*
X666570Y412188D01*
X667570Y410760D01*
X668307Y409180D01*
X668758Y407496D01*
X668910Y405760D01*
G37*
G36*
X763710Y120860D02*
X763710Y90860D01*
X683710Y90860D01*
X683710Y120860D01*
X683862Y122596D01*
X684313Y124280D01*
X685050Y125860D01*
X686050Y127288D01*
X687282Y128520D01*
X688710Y129520D01*
X690290Y130257D01*
X691974Y130708D01*
X693710Y130860D01*
X753710Y130860D01*
X755446Y130708D01*
X757130Y130257D01*
X758710Y129520D01*
X760138Y128520D01*
X761370Y127288D01*
X762370Y125860D01*
X763107Y124280D01*
X763558Y122596D01*
X763710Y120860D01*
G37*
G36*
X763710Y120860D02*
X763710Y90860D01*
X683710Y90860D01*
X683710Y120860D01*
X683862Y122596D01*
X684313Y124280D01*
X685050Y125860D01*
X686050Y127288D01*
X687282Y128520D01*
X688710Y129520D01*
X690290Y130257D01*
X691974Y130708D01*
X693710Y130860D01*
X753710Y130860D01*
X755446Y130708D01*
X757130Y130257D01*
X758710Y129520D01*
X760138Y128520D01*
X761370Y127288D01*
X762370Y125860D01*
X763107Y124280D01*
X763558Y122596D01*
X763710Y120860D01*
G37*
G36*
X763810Y345860D02*
X763658Y344124D01*
X763207Y342440D01*
X762470Y340860D01*
X761470Y339432D01*
X760238Y338200D01*
X758810Y337200D01*
X757230Y336463D01*
X755546Y336012D01*
X753810Y335860D01*
X693810Y335860D01*
X692074Y336012D01*
X690390Y336463D01*
X688810Y337200D01*
X687382Y338200D01*
X686150Y339432D01*
X685150Y340860D01*
X684413Y342440D01*
X683962Y344124D01*
X683810Y345860D01*
X683810Y375860D01*
X763810Y375860D01*
X763810Y345860D01*
G37*
G36*
X763810Y345860D02*
X763658Y344124D01*
X763207Y342440D01*
X762470Y340860D01*
X761470Y339432D01*
X760238Y338200D01*
X758810Y337200D01*
X757230Y336463D01*
X755546Y336012D01*
X753810Y335860D01*
X693810Y335860D01*
X692074Y336012D01*
X690390Y336463D01*
X688810Y337200D01*
X687382Y338200D01*
X686150Y339432D01*
X685150Y340860D01*
X684413Y342440D01*
X683962Y344124D01*
X683810Y345860D01*
X683810Y375860D01*
X763810Y375860D01*
X763810Y345860D01*
G37*
G36*
X763910Y215860D02*
X763910Y185860D01*
X683910Y185860D01*
X683910Y215860D01*
X684062Y217596D01*
X684513Y219280D01*
X685250Y220860D01*
X686250Y222288D01*
X687482Y223520D01*
X688910Y224520D01*
X690490Y225257D01*
X692174Y225708D01*
X693910Y225860D01*
X753910Y225860D01*
X755646Y225708D01*
X757330Y225257D01*
X758910Y224520D01*
X760338Y223520D01*
X761570Y222288D01*
X762570Y220860D01*
X763307Y219280D01*
X763758Y217596D01*
X763910Y215860D01*
G37*
G36*
X763910Y215860D02*
X763910Y185860D01*
X683910Y185860D01*
X683910Y215860D01*
X684062Y217596D01*
X684513Y219280D01*
X685250Y220860D01*
X686250Y222288D01*
X687482Y223520D01*
X688910Y224520D01*
X690490Y225257D01*
X692174Y225708D01*
X693910Y225860D01*
X753910Y225860D01*
X755646Y225708D01*
X757330Y225257D01*
X758910Y224520D01*
X760338Y223520D01*
X761570Y222288D01*
X762570Y220860D01*
X763307Y219280D01*
X763758Y217596D01*
X763910Y215860D01*
G37*
G36*
X763910Y250960D02*
X763758Y249224D01*
X763307Y247540D01*
X762570Y245960D01*
X761570Y244532D01*
X760338Y243300D01*
X758910Y242300D01*
X757330Y241563D01*
X755646Y241112D01*
X753910Y240960D01*
X693910Y240960D01*
X692174Y241112D01*
X690490Y241563D01*
X688910Y242300D01*
X687482Y243300D01*
X686250Y244532D01*
X685250Y245960D01*
X684513Y247540D01*
X684062Y249224D01*
X683910Y250960D01*
X683910Y280960D01*
X763910Y280960D01*
X763910Y250960D01*
G37*
G36*
X763910Y250960D02*
X763758Y249224D01*
X763307Y247540D01*
X762570Y245960D01*
X761570Y244532D01*
X760338Y243300D01*
X758910Y242300D01*
X757330Y241563D01*
X755646Y241112D01*
X753910Y240960D01*
X693910Y240960D01*
X692174Y241112D01*
X690490Y241563D01*
X688910Y242300D01*
X687482Y243300D01*
X686250Y244532D01*
X685250Y245960D01*
X684513Y247540D01*
X684062Y249224D01*
X683910Y250960D01*
X683910Y280960D01*
X763910Y280960D01*
X763910Y250960D01*
G37*
G36*
X763910Y500660D02*
X763910Y470660D01*
X683910Y470660D01*
X683910Y500660D01*
X684062Y502396D01*
X684513Y504080D01*
X685250Y505660D01*
X686250Y507088D01*
X687482Y508320D01*
X688910Y509320D01*
X690490Y510057D01*
X692174Y510508D01*
X693910Y510660D01*
X753910Y510660D01*
X755646Y510508D01*
X757330Y510057D01*
X758910Y509320D01*
X760338Y508320D01*
X761570Y507088D01*
X762570Y505660D01*
X763307Y504080D01*
X763758Y502396D01*
X763910Y500660D01*
G37*
G36*
X763910Y500660D02*
X763910Y470660D01*
X683910Y470660D01*
X683910Y500660D01*
X684062Y502396D01*
X684513Y504080D01*
X685250Y505660D01*
X686250Y507088D01*
X687482Y508320D01*
X688910Y509320D01*
X690490Y510057D01*
X692174Y510508D01*
X693910Y510660D01*
X753910Y510660D01*
X755646Y510508D01*
X757330Y510057D01*
X758910Y509320D01*
X760338Y508320D01*
X761570Y507088D01*
X762570Y505660D01*
X763307Y504080D01*
X763758Y502396D01*
X763910Y500660D01*
G37*
G36*
X764010Y725660D02*
X763858Y723924D01*
X763407Y722240D01*
X762670Y720660D01*
X761670Y719232D01*
X760438Y718000D01*
X759010Y717000D01*
X757430Y716263D01*
X755746Y715812D01*
X754010Y715660D01*
X694010Y715660D01*
X692274Y715812D01*
X690590Y716263D01*
X689010Y717000D01*
X687582Y718000D01*
X686350Y719232D01*
X685350Y720660D01*
X684613Y722240D01*
X684162Y723924D01*
X684010Y725660D01*
X684010Y755660D01*
X764010Y755660D01*
X764010Y725660D01*
G37*
G36*
X764010Y725660D02*
X763858Y723924D01*
X763407Y722240D01*
X762670Y720660D01*
X761670Y719232D01*
X760438Y718000D01*
X759010Y717000D01*
X757430Y716263D01*
X755746Y715812D01*
X754010Y715660D01*
X694010Y715660D01*
X692274Y715812D01*
X690590Y716263D01*
X689010Y717000D01*
X687582Y718000D01*
X686350Y719232D01*
X685350Y720660D01*
X684613Y722240D01*
X684162Y723924D01*
X684010Y725660D01*
X684010Y755660D01*
X764010Y755660D01*
X764010Y725660D01*
G37*
G36*
X764110Y595660D02*
X764110Y565660D01*
X684110Y565660D01*
X684110Y595660D01*
X684262Y597396D01*
X684713Y599080D01*
X685450Y600660D01*
X686450Y602088D01*
X687682Y603320D01*
X689110Y604320D01*
X690690Y605057D01*
X692374Y605508D01*
X694110Y605660D01*
X754110Y605660D01*
X755846Y605508D01*
X757530Y605057D01*
X759110Y604320D01*
X760538Y603320D01*
X761770Y602088D01*
X762770Y600660D01*
X763507Y599080D01*
X763958Y597396D01*
X764110Y595660D01*
G37*
G36*
X764110Y595660D02*
X764110Y565660D01*
X684110Y565660D01*
X684110Y595660D01*
X684262Y597396D01*
X684713Y599080D01*
X685450Y600660D01*
X686450Y602088D01*
X687682Y603320D01*
X689110Y604320D01*
X690690Y605057D01*
X692374Y605508D01*
X694110Y605660D01*
X754110Y605660D01*
X755846Y605508D01*
X757530Y605057D01*
X759110Y604320D01*
X760538Y603320D01*
X761770Y602088D01*
X762770Y600660D01*
X763507Y599080D01*
X763958Y597396D01*
X764110Y595660D01*
G37*
G36*
X764110Y630760D02*
X763958Y629024D01*
X763507Y627340D01*
X762770Y625760D01*
X761770Y624332D01*
X760538Y623100D01*
X759110Y622100D01*
X757530Y621363D01*
X755846Y620912D01*
X754110Y620760D01*
X694110Y620760D01*
X692374Y620912D01*
X690690Y621363D01*
X689110Y622100D01*
X687682Y623100D01*
X686450Y624332D01*
X685450Y625760D01*
X684713Y627340D01*
X684262Y629024D01*
X684110Y630760D01*
X684110Y660760D01*
X764110Y660760D01*
X764110Y630760D01*
G37*
G36*
X764110Y630760D02*
X763958Y629024D01*
X763507Y627340D01*
X762770Y625760D01*
X761770Y624332D01*
X760538Y623100D01*
X759110Y622100D01*
X757530Y621363D01*
X755846Y620912D01*
X754110Y620760D01*
X694110Y620760D01*
X692374Y620912D01*
X690690Y621363D01*
X689110Y622100D01*
X687682Y623100D01*
X686450Y624332D01*
X685450Y625760D01*
X684713Y627340D01*
X684262Y629024D01*
X684110Y630760D01*
X684110Y660760D01*
X764110Y660760D01*
X764110Y630760D01*
G37*
G36*
X858610Y535760D02*
X858458Y534024D01*
X858007Y532340D01*
X857270Y530760D01*
X856270Y529332D01*
X855038Y528100D01*
X853610Y527100D01*
X852030Y526363D01*
X850346Y525912D01*
X848610Y525760D01*
X788610Y525760D01*
X786874Y525912D01*
X785190Y526363D01*
X783610Y527100D01*
X782182Y528100D01*
X780950Y529332D01*
X779950Y530760D01*
X779213Y532340D01*
X778762Y534024D01*
X778610Y535760D01*
X778610Y565760D01*
X858610Y565760D01*
X858610Y535760D01*
G37*
G36*
X858610Y535760D02*
X858458Y534024D01*
X858007Y532340D01*
X857270Y530760D01*
X856270Y529332D01*
X855038Y528100D01*
X853610Y527100D01*
X852030Y526363D01*
X850346Y525912D01*
X848610Y525760D01*
X788610Y525760D01*
X786874Y525912D01*
X785190Y526363D01*
X783610Y527100D01*
X782182Y528100D01*
X780950Y529332D01*
X779950Y530760D01*
X779213Y532340D01*
X778762Y534024D01*
X778610Y535760D01*
X778610Y565760D01*
X858610Y565760D01*
X858610Y535760D01*
G37*
G36*
X858710Y155860D02*
X858558Y154124D01*
X858107Y152440D01*
X857370Y150860D01*
X856370Y149432D01*
X855138Y148200D01*
X853710Y147200D01*
X852130Y146463D01*
X850446Y146012D01*
X848710Y145860D01*
X788710Y145860D01*
X786974Y146012D01*
X785290Y146463D01*
X783710Y147200D01*
X782282Y148200D01*
X781050Y149432D01*
X780050Y150860D01*
X779313Y152440D01*
X778862Y154124D01*
X778710Y155860D01*
X778710Y185860D01*
X858710Y185860D01*
X858710Y155860D01*
G37*
G36*
X858710Y155860D02*
X858558Y154124D01*
X858107Y152440D01*
X857370Y150860D01*
X856370Y149432D01*
X855138Y148200D01*
X853710Y147200D01*
X852130Y146463D01*
X850446Y146012D01*
X848710Y145860D01*
X788710Y145860D01*
X786974Y146012D01*
X785290Y146463D01*
X783710Y147200D01*
X782282Y148200D01*
X781050Y149432D01*
X780050Y150860D01*
X779313Y152440D01*
X778862Y154124D01*
X778710Y155860D01*
X778710Y185860D01*
X858710Y185860D01*
X858710Y155860D01*
G37*
G36*
X858710Y440860D02*
X858558Y439124D01*
X858107Y437440D01*
X857370Y435860D01*
X856370Y434432D01*
X855138Y433200D01*
X853710Y432200D01*
X852130Y431463D01*
X850446Y431012D01*
X848710Y430860D01*
X788710Y430860D01*
X786974Y431012D01*
X785290Y431463D01*
X783710Y432200D01*
X782282Y433200D01*
X781050Y434432D01*
X780050Y435860D01*
X779313Y437440D01*
X778862Y439124D01*
X778710Y440860D01*
X778710Y470860D01*
X858710Y470860D01*
X858710Y440860D01*
G37*
G36*
X858710Y440860D02*
X858558Y439124D01*
X858107Y437440D01*
X857370Y435860D01*
X856370Y434432D01*
X855138Y433200D01*
X853710Y432200D01*
X852130Y431463D01*
X850446Y431012D01*
X848710Y430860D01*
X788710Y430860D01*
X786974Y431012D01*
X785290Y431463D01*
X783710Y432200D01*
X782282Y433200D01*
X781050Y434432D01*
X780050Y435860D01*
X779313Y437440D01*
X778862Y439124D01*
X778710Y440860D01*
X778710Y470860D01*
X858710Y470860D01*
X858710Y440860D01*
G37*
G36*
X858710Y690860D02*
X858710Y660860D01*
X778710Y660860D01*
X778710Y690860D01*
X778862Y692596D01*
X779313Y694280D01*
X780050Y695860D01*
X781050Y697288D01*
X782282Y698520D01*
X783710Y699520D01*
X785290Y700257D01*
X786974Y700708D01*
X788710Y700860D01*
X848710Y700860D01*
X850446Y700708D01*
X852130Y700257D01*
X853710Y699520D01*
X855138Y698520D01*
X856370Y697288D01*
X857370Y695860D01*
X858107Y694280D01*
X858558Y692596D01*
X858710Y690860D01*
G37*
G36*
X858710Y690860D02*
X858710Y660860D01*
X778710Y660860D01*
X778710Y690860D01*
X778862Y692596D01*
X779313Y694280D01*
X780050Y695860D01*
X781050Y697288D01*
X782282Y698520D01*
X783710Y699520D01*
X785290Y700257D01*
X786974Y700708D01*
X788710Y700860D01*
X848710Y700860D01*
X850446Y700708D01*
X852130Y700257D01*
X853710Y699520D01*
X855138Y698520D01*
X856370Y697288D01*
X857370Y695860D01*
X858107Y694280D01*
X858558Y692596D01*
X858710Y690860D01*
G37*
G36*
X858810Y60960D02*
X858658Y59224D01*
X858207Y57540D01*
X857470Y55960D01*
X856470Y54532D01*
X855238Y53300D01*
X853810Y52300D01*
X852230Y51563D01*
X850546Y51112D01*
X848810Y50960D01*
X788810Y50960D01*
X787074Y51112D01*
X785390Y51563D01*
X783810Y52300D01*
X782382Y53300D01*
X781150Y54532D01*
X780150Y55960D01*
X779413Y57540D01*
X778962Y59224D01*
X778810Y60960D01*
X778810Y90960D01*
X858810Y90960D01*
X858810Y60960D01*
G37*
G36*
X858810Y60960D02*
X858658Y59224D01*
X858207Y57540D01*
X857470Y55960D01*
X856470Y54532D01*
X855238Y53300D01*
X853810Y52300D01*
X852230Y51563D01*
X850546Y51112D01*
X848810Y50960D01*
X788810Y50960D01*
X787074Y51112D01*
X785390Y51563D01*
X783810Y52300D01*
X782382Y53300D01*
X781150Y54532D01*
X780150Y55960D01*
X779413Y57540D01*
X778962Y59224D01*
X778810Y60960D01*
X778810Y90960D01*
X858810Y90960D01*
X858810Y60960D01*
G37*
G36*
X858810Y310960D02*
X858810Y280960D01*
X778810Y280960D01*
X778810Y310960D01*
X778962Y312696D01*
X779413Y314380D01*
X780150Y315960D01*
X781150Y317388D01*
X782382Y318620D01*
X783810Y319620D01*
X785390Y320357D01*
X787074Y320808D01*
X788810Y320960D01*
X848810Y320960D01*
X850546Y320808D01*
X852230Y320357D01*
X853810Y319620D01*
X855238Y318620D01*
X856470Y317388D01*
X857470Y315960D01*
X858207Y314380D01*
X858658Y312696D01*
X858810Y310960D01*
G37*
G36*
X858810Y310960D02*
X858810Y280960D01*
X778810Y280960D01*
X778810Y310960D01*
X778962Y312696D01*
X779413Y314380D01*
X780150Y315960D01*
X781150Y317388D01*
X782382Y318620D01*
X783810Y319620D01*
X785390Y320357D01*
X787074Y320808D01*
X788810Y320960D01*
X848810Y320960D01*
X850546Y320808D01*
X852230Y320357D01*
X853810Y319620D01*
X855238Y318620D01*
X856470Y317388D01*
X857470Y315960D01*
X858207Y314380D01*
X858658Y312696D01*
X858810Y310960D01*
G37*
G36*
X858910Y785860D02*
X858910Y755860D01*
X778910Y755860D01*
X778910Y785860D01*
X779062Y787596D01*
X779513Y789280D01*
X780250Y790860D01*
X781250Y792288D01*
X782482Y793520D01*
X783910Y794520D01*
X785490Y795257D01*
X787174Y795708D01*
X788910Y795860D01*
X848910Y795860D01*
X850646Y795708D01*
X852330Y795257D01*
X853910Y794520D01*
X855338Y793520D01*
X856570Y792288D01*
X857570Y790860D01*
X858307Y789280D01*
X858758Y787596D01*
X858910Y785860D01*
G37*
G36*
X858910Y785860D02*
X858910Y755860D01*
X778910Y755860D01*
X778910Y785860D01*
X779062Y787596D01*
X779513Y789280D01*
X780250Y790860D01*
X781250Y792288D01*
X782482Y793520D01*
X783910Y794520D01*
X785490Y795257D01*
X787174Y795708D01*
X788910Y795860D01*
X848910Y795860D01*
X850646Y795708D01*
X852330Y795257D01*
X853910Y794520D01*
X855338Y793520D01*
X856570Y792288D01*
X857570Y790860D01*
X858307Y789280D01*
X858758Y787596D01*
X858910Y785860D01*
G37*
G36*
X859010Y405960D02*
X859010Y375960D01*
X779010Y375960D01*
X779010Y405960D01*
X779162Y407696D01*
X779613Y409380D01*
X780350Y410960D01*
X781350Y412388D01*
X782582Y413620D01*
X784010Y414620D01*
X785590Y415357D01*
X787274Y415808D01*
X789010Y415960D01*
X849010Y415960D01*
X850746Y415808D01*
X852430Y415357D01*
X854010Y414620D01*
X855438Y413620D01*
X856670Y412388D01*
X857670Y410960D01*
X858407Y409380D01*
X858858Y407696D01*
X859010Y405960D01*
G37*
G36*
X859010Y405960D02*
X859010Y375960D01*
X779010Y375960D01*
X779010Y405960D01*
X779162Y407696D01*
X779613Y409380D01*
X780350Y410960D01*
X781350Y412388D01*
X782582Y413620D01*
X784010Y414620D01*
X785590Y415357D01*
X787274Y415808D01*
X789010Y415960D01*
X849010Y415960D01*
X850746Y415808D01*
X852430Y415357D01*
X854010Y414620D01*
X855438Y413620D01*
X856670Y412388D01*
X857670Y410960D01*
X858407Y409380D01*
X858858Y407696D01*
X859010Y405960D01*
G37*
D10*
X149960Y107840D03*
X152760Y164340D03*
X341860Y107540D03*
X148460Y356840D03*
X147360Y546240D03*
X240660Y203440D03*
X342260Y204340D03*
X147460Y736740D03*
X243360Y71940D03*
X153260Y301240D03*
X240760Y261040D03*
X435960Y299140D03*
X242960Y451240D03*
X243860Y392640D03*
X242360Y640940D03*
X437060Y392440D03*
X148260Y489740D03*
X339860Y261540D03*
X343460Y488040D03*
X338760Y357440D03*
X250260Y584440D03*
X337260Y641340D03*
X345760Y583940D03*
X339160Y736340D03*
X434860Y72440D03*
X150560Y678340D03*
X432760Y166740D03*
X437260Y678640D03*
X432560Y451240D03*
X434960Y546440D03*
X247560Y775040D03*
X436260Y773640D03*
D11*
X425900Y937384D03*
X430900Y937384D03*
X435900Y937384D03*
X440900Y937384D03*
X445900Y937384D03*
X450900Y937384D03*
X455900Y937384D03*
X460900Y937384D03*
X465900Y937384D03*
X470900Y937384D03*
X475900Y937384D03*
X480900Y937384D03*
X485900Y937384D03*
X490900Y937384D03*
X495900Y937384D03*
X500900Y937384D03*
X505900Y937384D03*
X510900Y937384D03*
X515900Y937384D03*
X520900Y937384D03*
X525900Y937384D03*
X530900Y937384D03*
X535900Y937384D03*
X540900Y937384D03*
D10*
X533610Y109460D03*
X536410Y165960D03*
X725510Y109160D03*
X532110Y358460D03*
X531010Y547860D03*
X624310Y205060D03*
X725910Y205960D03*
X531110Y738360D03*
X627010Y73560D03*
X536910Y302860D03*
X624410Y262660D03*
X819610Y300760D03*
X626610Y452860D03*
X627510Y394260D03*
X626010Y642560D03*
X820710Y394060D03*
X531910Y491360D03*
X723510Y263160D03*
X727110Y489660D03*
X722410Y359060D03*
X633910Y586060D03*
X720910Y642960D03*
X729410Y585560D03*
X722810Y737960D03*
X818510Y74060D03*
X534210Y679960D03*
X816410Y168360D03*
X820910Y680260D03*
X816210Y452860D03*
X818610Y548060D03*
X631210Y776660D03*
X819910Y775260D03*
D12*
X456000Y821000D03*
D13*
X465900Y830859D02*
X465900Y937384D01*
X465900Y830859D02*
X456041Y821000D01*
X456000Y821000D01*
D12*
X197000Y744000D03*
D13*
X154720Y744000D02*
X147460Y736740D01*
X154720Y744000D02*
X197000Y744000D01*
D12*
X149000Y707000D03*
X152000Y613000D03*
X149000Y518000D03*
X151000Y421000D03*
X149000Y326000D03*
X151000Y232000D03*
X153000Y136000D03*
D13*
X147460Y708540D02*
X147460Y736740D01*
X147460Y708540D02*
X149000Y707000D01*
X147360Y546240D02*
X147360Y519640D01*
X149000Y518000D01*
X148460Y356840D02*
X148460Y326540D01*
X149000Y326000D01*
X152760Y164340D02*
X152760Y136240D01*
X153000Y136000D01*
X152000Y613000D02*
X193000Y613000D01*
X183840Y356840D02*
X148460Y356840D01*
X183840Y356840D02*
X193000Y366000D01*
X193000Y412000D01*
X184000Y421000D01*
X151000Y421000D01*
X167420Y179000D02*
X152760Y164340D01*
X167420Y179000D02*
X193000Y179000D01*
X193000Y223000D01*
X184000Y232000D01*
X151000Y232000D01*
X193000Y566880D02*
X193000Y613000D01*
X193000Y566880D02*
X172360Y546240D01*
X147360Y546240D01*
X120000Y826000D02*
X387000Y826000D01*
X149960Y107840D02*
X126960Y107840D01*
X81733Y153067D01*
D12*
X292000Y107000D03*
D13*
X292540Y107540D02*
X341860Y107540D01*
X292540Y107540D02*
X292000Y107000D01*
D12*
X196932Y107000D03*
D13*
X196092Y107840D02*
X149960Y107840D01*
X196092Y107840D02*
X196932Y107000D01*
D12*
X385932Y107000D03*
D13*
X385392Y107540D02*
X341860Y107540D01*
X385392Y107540D02*
X385932Y107000D01*
X82962Y788962D02*
X120000Y826000D01*
X82962Y788962D02*
X81733Y153067D01*
X402209Y841192D02*
X402327Y841327D01*
X402209Y841192D02*
X402118Y841118D01*
X387000Y826000D01*
X425900Y864900D02*
X425900Y937384D01*
X425900Y864900D02*
X402327Y841327D01*
D12*
X416000Y846000D03*
D13*
X430900Y860900D01*
X430900Y937384D01*
D12*
X294000Y204000D03*
D13*
X240660Y203440D02*
X239220Y202000D01*
X240660Y203440D02*
X293440Y203440D01*
X294000Y204000D01*
X341920Y204000D02*
X342260Y204340D01*
X341920Y204000D02*
X294000Y204000D01*
D12*
X386932Y204000D03*
D13*
X386592Y204340D02*
X342260Y204340D01*
X386592Y204340D02*
X386932Y204000D01*
D12*
X199068Y202000D03*
D13*
X239220Y202000D01*
X470900Y825589D02*
X470900Y937384D01*
D12*
X465811Y822189D03*
D13*
X467499Y822189D02*
X470900Y825589D01*
X467499Y822189D02*
X465811Y822189D01*
D12*
X247000Y706000D03*
X245000Y611000D03*
X246000Y517000D03*
X244000Y422000D03*
X244000Y326000D03*
X242000Y231000D03*
X243000Y136000D03*
D13*
X245000Y611000D02*
X245000Y638300D01*
X242360Y640940D01*
X242960Y451240D02*
X244000Y450200D01*
X244000Y422000D01*
X203760Y314760D02*
X203760Y277040D01*
X219760Y261040D02*
X240760Y261040D01*
X219760Y261040D02*
X203760Y277040D01*
X243000Y325000D02*
X244000Y326000D01*
X243000Y325000D02*
X214000Y325000D01*
X203760Y314760D01*
X240760Y261040D02*
X242000Y259800D01*
X242000Y231000D01*
X243360Y71940D02*
X210060Y71940D01*
X203000Y79000D01*
X203000Y126000D01*
X213000Y136000D01*
X243000Y136000D01*
X242960Y451240D02*
X216760Y451240D01*
X203000Y465000D01*
X203000Y507000D01*
X213000Y517000D01*
X246000Y517000D01*
X242360Y640940D02*
X212060Y640940D01*
X203000Y650000D01*
X203000Y694000D01*
X215000Y706000D01*
X247000Y706000D01*
X435900Y855900D02*
X435900Y937384D01*
X435900Y855900D02*
X400000Y820000D01*
X123000Y820000D01*
X89000Y786000D01*
X89000Y343500D01*
X131260Y301240D02*
X153260Y301240D01*
X131260Y301240D02*
X89000Y343500D01*
D12*
X388000Y299000D03*
D13*
X435820Y299000D02*
X435960Y299140D01*
X435820Y299000D02*
X388000Y299000D01*
D12*
X197692Y299000D03*
D13*
X195452Y301240D02*
X153260Y301240D01*
X195452Y301240D02*
X197692Y299000D01*
D12*
X291792Y298000D03*
X428000Y839000D03*
D13*
X428900Y839000D02*
X440900Y851000D01*
X428900Y839000D02*
X428000Y839000D01*
D12*
X388000Y391000D03*
D13*
X243860Y392640D02*
X239220Y388000D01*
X435620Y391000D02*
X437060Y392440D01*
X435620Y391000D02*
X388000Y391000D01*
D12*
X290932Y390000D03*
D13*
X288292Y392640D02*
X243860Y392640D01*
X288292Y392640D02*
X290932Y390000D01*
D12*
X199068Y388000D03*
D13*
X239220Y388000D01*
X440900Y851000D02*
X440900Y937384D01*
X475900Y937384D02*
X475900Y823696D01*
D12*
X386000Y747000D03*
X463676Y811472D03*
D13*
X475900Y823696D01*
X349820Y747000D02*
X339160Y736340D01*
X349820Y747000D02*
X386000Y747000D01*
D12*
X339000Y707000D03*
X338000Y612000D03*
X342000Y516000D03*
X343000Y421000D03*
X339000Y328000D03*
X340000Y232000D03*
X341000Y137000D03*
D13*
X339160Y707160D02*
X339160Y736340D01*
X339160Y707160D02*
X339000Y707000D01*
X337260Y641340D02*
X338000Y640600D01*
X338000Y612000D01*
X338760Y357440D02*
X339000Y357200D01*
X339000Y328000D01*
X297860Y313860D02*
X297860Y279540D01*
X315860Y261540D02*
X339860Y261540D01*
X315860Y261540D02*
X297860Y279540D01*
X312000Y328000D02*
X339000Y328000D01*
X312000Y328000D02*
X297860Y313860D01*
X339860Y261540D02*
X340000Y261400D01*
X340000Y232000D01*
X338760Y357440D02*
X313560Y357440D01*
X297000Y374000D01*
X297000Y408000D01*
X310000Y421000D01*
X343000Y421000D01*
X337260Y641340D02*
X311660Y641340D01*
X297000Y656000D01*
X297000Y692000D01*
X312000Y707000D01*
X339000Y707000D01*
X445900Y847900D02*
X445900Y937384D01*
X445900Y847900D02*
X412500Y814500D01*
X126500Y814500D01*
X96000Y784000D01*
X96000Y537000D01*
X143260Y489740D02*
X148260Y489740D01*
X143260Y489740D02*
X96000Y537000D01*
D12*
X292000Y486000D03*
D13*
X341420Y486000D02*
X343460Y488040D01*
X341420Y486000D02*
X292000Y486000D01*
D12*
X386932Y488000D03*
D13*
X386892Y488040D02*
X343460Y488040D01*
X386892Y488040D02*
X386932Y488000D01*
D12*
X196932Y485000D03*
D13*
X192192Y489740D02*
X148260Y489740D01*
X192192Y489740D02*
X196932Y485000D01*
X450900Y842900D02*
X450900Y937384D01*
D12*
X439000Y832000D03*
D13*
X440000Y832000D02*
X450900Y842900D01*
X440000Y832000D02*
X439000Y832000D01*
D12*
X292000Y584000D03*
D13*
X291560Y584440D02*
X250260Y584440D01*
X291560Y584440D02*
X292000Y584000D01*
X292060Y583940D02*
X345760Y583940D01*
X292060Y583940D02*
X292000Y584000D01*
D12*
X386932Y583000D03*
D13*
X385992Y583940D02*
X345760Y583940D01*
X385992Y583940D02*
X386932Y583000D01*
D12*
X199068Y582000D03*
D13*
X201508Y584440D02*
X250260Y584440D01*
X201508Y584440D02*
X199068Y582000D01*
X480900Y820900D02*
X480900Y937384D01*
D12*
X474393Y811607D03*
D13*
X474393Y814393D02*
X480900Y820900D01*
X474393Y814393D02*
X474393Y811607D01*
D12*
X437000Y707000D03*
X437000Y613000D03*
X436000Y518000D03*
X435000Y423000D03*
X438000Y328000D03*
X435000Y233000D03*
X433000Y137000D03*
D13*
X436000Y545400D02*
X434960Y546440D01*
X436000Y545400D02*
X436000Y518000D01*
X432560Y451240D02*
X435000Y448800D01*
X435000Y423000D01*
X432760Y166740D02*
X433000Y166500D01*
X433000Y137000D01*
X434860Y72440D02*
X403560Y72440D01*
X393000Y83000D01*
X393000Y124000D01*
X405000Y136000D01*
X432000Y136000D02*
X433000Y137000D01*
X432000Y136000D02*
X405000Y136000D01*
X402260Y166740D02*
X432760Y166740D01*
X402260Y166740D02*
X393000Y176000D01*
X393000Y219000D01*
X407000Y233000D01*
X435000Y233000D01*
X432560Y451240D02*
X406760Y451240D01*
X393000Y465000D01*
X393000Y504000D01*
X407000Y518000D01*
X436000Y518000D01*
X434960Y546440D02*
X403560Y546440D01*
X393000Y557000D01*
X393000Y603000D01*
X403000Y613000D01*
X437000Y613000D01*
X455900Y839900D02*
X455900Y937384D01*
X455900Y839900D02*
X425500Y809500D01*
X130200Y809500D01*
X104000Y783300D01*
X104000Y713000D01*
X138660Y678340D01*
X150560Y678340D01*
D12*
X388000Y676000D03*
D13*
X390640Y678640D02*
X437260Y678640D01*
X390640Y678640D02*
X388000Y676000D01*
D12*
X196932Y677000D03*
D13*
X195592Y678340D02*
X150560Y678340D01*
X195592Y678340D02*
X196932Y677000D01*
D12*
X290932Y676000D03*
D13*
X485900Y761100D02*
X485900Y937384D01*
X485900Y761100D02*
X508640Y738360D01*
X531110Y738360D01*
D12*
X533000Y708000D03*
X536000Y614000D03*
X532000Y517000D03*
X535000Y424000D03*
X533000Y328000D03*
X535000Y233000D03*
X536000Y138000D03*
D13*
X533000Y736470D02*
X531110Y738360D01*
X533000Y736470D02*
X533000Y708000D01*
X516870Y562000D02*
X531010Y547860D01*
X516870Y562000D02*
X493000Y562000D01*
X491000Y564000D01*
X491000Y601000D01*
X504000Y614000D01*
X536000Y614000D01*
X531010Y547860D02*
X531010Y517990D01*
X532000Y517000D01*
X519570Y371000D02*
X532110Y358460D01*
X519570Y371000D02*
X491000Y371000D01*
X491000Y416000D01*
X499000Y424000D01*
X535000Y424000D01*
X532110Y358460D02*
X533000Y357570D01*
X533000Y328000D01*
X536410Y165960D02*
X508040Y165960D01*
X490000Y184000D01*
X490000Y222000D01*
X501000Y233000D01*
X535000Y233000D01*
X536410Y165960D02*
X536410Y138410D01*
X536000Y138000D01*
D12*
X555000Y835000D03*
D13*
X540900Y849100D02*
X540900Y937384D01*
X540900Y849100D02*
X555000Y835000D01*
D12*
X677000Y109000D03*
D13*
X534070Y109000D02*
X533610Y109460D01*
X677160Y109160D02*
X725510Y109160D01*
X677160Y109160D02*
X677000Y109000D01*
D12*
X579932Y109000D03*
D13*
X534070Y109000D01*
D12*
X770932Y109000D03*
D13*
X770772Y109160D02*
X725510Y109160D01*
X770772Y109160D02*
X770932Y109000D01*
D12*
X545000Y835000D03*
D13*
X535900Y844100D02*
X535900Y937384D01*
X535900Y844100D02*
X545000Y835000D01*
D12*
X582000Y203000D03*
X677000Y205000D03*
D13*
X624310Y205060D02*
X584060Y205060D01*
X582000Y203000D01*
X624310Y205060D02*
X676940Y205060D01*
X677000Y205000D01*
X724950Y205000D02*
X725910Y205960D01*
X724950Y205000D02*
X677000Y205000D01*
D12*
X770932Y205000D03*
D13*
X769972Y205960D02*
X725910Y205960D01*
X769972Y205960D02*
X770932Y205000D01*
X490900Y810100D02*
X490900Y937384D01*
X490900Y810100D02*
X495000Y806000D01*
D12*
X495000Y806000D03*
X633000Y708000D03*
X628000Y612000D03*
X633000Y518000D03*
X627000Y423000D03*
X627000Y329000D03*
X625000Y233000D03*
X625000Y139000D03*
D13*
X626010Y642560D02*
X600440Y642560D01*
X586000Y657000D01*
X586000Y695000D01*
X599000Y708000D01*
X633000Y708000D01*
X626010Y642560D02*
X628000Y640570D01*
X628000Y612000D01*
X613470Y466000D02*
X626610Y452860D01*
X613470Y466000D02*
X587000Y466000D01*
X587000Y508000D01*
X597000Y518000D01*
X633000Y518000D01*
X626610Y452860D02*
X626610Y423390D01*
X627000Y423000D01*
X613070Y274000D02*
X624410Y262660D01*
X613070Y274000D02*
X587000Y274000D01*
X587000Y317000D01*
X599000Y329000D01*
X627000Y329000D01*
X624410Y262660D02*
X625000Y262070D01*
X625000Y233000D01*
X627010Y73560D02*
X594440Y73560D01*
X586000Y82000D01*
X586000Y129000D01*
X596000Y139000D01*
X625000Y139000D01*
X530900Y839100D02*
X530900Y937384D01*
X879000Y794000D02*
X879000Y360150D01*
X819610Y300760D01*
X545000Y825000D02*
X530900Y839100D01*
X545000Y825000D02*
X848000Y825000D01*
X879000Y794000D01*
D12*
X772000Y300000D03*
D13*
X538770Y301000D02*
X536910Y302860D01*
X818850Y300000D02*
X819610Y300760D01*
X818850Y300000D02*
X772000Y300000D01*
D12*
X580932Y301000D03*
D13*
X538770Y301000D01*
D12*
X675932Y300000D03*
D13*
X525900Y839100D02*
X525900Y937384D01*
X875000Y793000D02*
X875000Y448350D01*
X820710Y394060D01*
X875000Y793000D02*
X846048Y821952D01*
X543048Y821952D02*
X525900Y839100D01*
X543048Y821952D02*
X846048Y821952D01*
D12*
X581000Y395000D03*
X773000Y394000D03*
D13*
X627510Y394260D02*
X581740Y394260D01*
X581000Y395000D01*
X820650Y394000D02*
X820710Y394060D01*
X820650Y394000D02*
X773000Y394000D01*
D12*
X675932Y394000D03*
D13*
X675672Y394260D02*
X627510Y394260D01*
X675672Y394260D02*
X675932Y394000D01*
X495900Y814100D02*
X495900Y937384D01*
X495900Y814100D02*
X508000Y802000D01*
X664000Y802000D01*
X694040Y737960D02*
X722810Y737960D01*
X694040Y737960D02*
X681068Y750932D01*
X681068Y784932D02*
X664000Y802000D01*
X681068Y784932D02*
X681068Y750932D01*
D12*
X722000Y708000D03*
X722000Y613000D03*
X726000Y517000D03*
X727000Y423000D03*
X723000Y328000D03*
X724000Y233000D03*
X725000Y139000D03*
D13*
X722810Y708810D02*
X722810Y737960D01*
X722810Y708810D02*
X722000Y708000D01*
X720910Y642960D02*
X697040Y642960D01*
X682000Y658000D01*
X682000Y702000D01*
X688000Y708000D01*
X722000Y708000D01*
X720910Y642960D02*
X722000Y641870D01*
X722000Y613000D01*
X710470Y371000D02*
X722410Y359060D01*
X710470Y371000D02*
X682000Y371000D01*
X682000Y413000D01*
X692000Y423000D01*
X727000Y423000D01*
X722410Y359060D02*
X722410Y328590D01*
X723000Y328000D01*
X723510Y263160D02*
X695840Y263160D01*
X682000Y277000D01*
X682000Y318000D01*
X692000Y328000D01*
X723000Y328000D01*
X723510Y263160D02*
X723510Y233490D01*
X724000Y233000D01*
X520900Y834100D02*
X520900Y937384D01*
D12*
X531000Y824000D03*
D13*
X520900Y834100D01*
D12*
X677000Y489000D03*
D13*
X677660Y489660D02*
X727110Y489660D01*
X677660Y489660D02*
X677000Y489000D01*
D12*
X580932Y490000D03*
D13*
X579572Y491360D02*
X531910Y491360D01*
X579572Y491360D02*
X580932Y490000D01*
D12*
X770932Y489000D03*
D13*
X770272Y489660D02*
X727110Y489660D01*
X770272Y489660D02*
X770932Y489000D01*
X516000Y937284D02*
X515900Y937384D01*
X516000Y937284D02*
X516000Y829000D01*
D12*
X520000Y825000D03*
D13*
X516000Y829000D01*
D12*
X581000Y586000D03*
X677000Y586000D03*
D13*
X633910Y586060D02*
X581060Y586060D01*
X581000Y586000D01*
X633910Y586060D02*
X676940Y586060D01*
X677000Y586000D01*
X677440Y585560D02*
X729410Y585560D01*
X677440Y585560D02*
X677000Y586000D01*
D12*
X769932Y585000D03*
D13*
X769372Y585560D02*
X729410Y585560D01*
X769372Y585560D02*
X769932Y585000D01*
X500900Y818100D02*
X500900Y937384D01*
D12*
X508000Y812000D03*
D13*
X507000Y812000D02*
X500900Y818100D01*
X507000Y812000D02*
X508000Y812000D01*
D12*
X820000Y708000D03*
X820000Y613000D03*
X819000Y518000D03*
X818000Y424000D03*
X820000Y328000D03*
X818000Y233000D03*
X818000Y139000D03*
D13*
X818610Y548060D02*
X805670Y561000D01*
X777000Y561000D01*
X776000Y562000D01*
X776000Y599000D01*
X790000Y613000D01*
X820000Y613000D01*
X818610Y548060D02*
X819000Y547670D01*
X819000Y518000D01*
X803070Y466000D02*
X816210Y452860D01*
X803070Y466000D02*
X777000Y466000D01*
X777000Y507000D01*
X788000Y518000D01*
X819000Y518000D01*
X816210Y452860D02*
X818000Y451070D01*
X818000Y424000D01*
X816410Y168360D02*
X791640Y168360D01*
X777000Y183000D01*
X777000Y224000D01*
X786000Y233000D01*
X818000Y233000D01*
X816410Y168360D02*
X816410Y140590D01*
X817500Y139500D01*
X818000Y139000D01*
X810570Y82000D02*
X818510Y74060D01*
X810570Y82000D02*
X777000Y82000D01*
X777000Y131000D01*
X785500Y139500D01*
X817500Y139500D01*
X510900Y823100D02*
X510900Y937384D01*
X510900Y823100D02*
X522000Y812000D01*
X843000Y812000D01*
X864000Y791000D01*
X864000Y723350D01*
X820910Y680260D01*
D12*
X772000Y680000D03*
D13*
X820650Y680000D02*
X820910Y680260D01*
X820650Y680000D02*
X772000Y680000D01*
D12*
X579932Y679000D03*
D13*
X578972Y679960D02*
X534210Y679960D01*
X578972Y679960D02*
X579932Y679000D01*
D12*
X675932Y679000D03*
D13*
X505900Y823100D02*
X505900Y937384D01*
X505900Y823100D02*
X521000Y808000D01*
X787170Y808000D01*
X819910Y775260D01*
D12*
X580000Y776000D03*
X675000Y775000D03*
X770000Y774000D03*
D13*
X631210Y776660D02*
X580660Y776660D01*
X580000Y776000D01*
X631210Y776660D02*
X673340Y776660D01*
X675000Y775000D01*
X818650Y774000D02*
X819910Y775260D01*
X818650Y774000D02*
X770000Y774000D01*
X460900Y834900D02*
X460900Y937384D01*
D12*
X446000Y821000D03*
D13*
X447000Y821000D02*
X460900Y834900D01*
X447000Y821000D02*
X446000Y821000D01*
D12*
X196000Y777000D03*
X295000Y773000D03*
X386000Y773000D03*
D13*
X247560Y775040D02*
X197960Y775040D01*
X196000Y777000D01*
X247560Y775040D02*
X292960Y775040D01*
X295000Y773000D01*
X435620Y773000D02*
X436260Y773640D01*
X435620Y773000D02*
X386000Y773000D01*
M02*
