M48
;GenerationSoftware,Autodesk,EAGLE,9.7.0*%
;CreationDate,2026-07-08T09:06:05Z*%
FMAT,2
ICI,OFF
METRIC,TZ,000.000
T1C0.350
%
G90
M71
T1
X45600Y82100
X19700Y74400
X14900Y70700
X15200Y61300
X14900Y51800
X15100Y42100
X14900Y32600
X15100Y23200
X15300Y13600
X29200Y10700
X19693Y10700
X38593Y10700
X41600Y84600
X29400Y20400
X38693Y20400
X19907Y20200
X46581Y82219
X24700Y70600
X24500Y61100
X24600Y51700
X24400Y42200
X24400Y32600
X24200Y23100
X24300Y13600
X38800Y29900
X19769Y29900
X29179Y29800
X42800Y83900
X38800Y39100
X29093Y39000
X19907Y38800
X38600Y74700
X46368Y81147
X33900Y70700
X33800Y61200
X34200Y51600
X34300Y42100
X33900Y32800
X34000Y23200
X34100Y13700
X29200Y48600
X38693Y48800
X19693Y48500
X43900Y83200
X29200Y58400
X38693Y58300
X19907Y58200
X47439Y81161
X43700Y70700
X43700Y61300
X43600Y51800
X43500Y42300
X43800Y32800
X43500Y23300
X43300Y13700
X38800Y67600
X19693Y67700
X29093Y67600
X53300Y70800
X53600Y61400
X53200Y51700
X53500Y42400
X53300Y32800
X53500Y23300
X53600Y13800
X55500Y83500
X67700Y10900
X57993Y10900
X77093Y10900
X54500Y83500
X58200Y20300
X67700Y20500
X77093Y20500
X49500Y80600
X63300Y70800
X62800Y61200
X63300Y51800
X62700Y42300
X62700Y32900
X62500Y23300
X62500Y13900
X77200Y30000
X58093Y30100
X67593Y30000
X58100Y39500
X77300Y39400
X67593Y39400
X72200Y70800
X72200Y61300
X72600Y51700
X72700Y42300
X72300Y32800
X72400Y23300
X72500Y13900
X53100Y82400
X67700Y48900
X58093Y49000
X77093Y48900
X52000Y82500
X58100Y58600
X67700Y58600
X76993Y58500
X50800Y81200
X82000Y70800
X82000Y61300
X81900Y51800
X81800Y42400
X82000Y32800
X81800Y23300
X81800Y13900
X77200Y68000
X57993Y67900
X67593Y67900
X58000Y77600
X67500Y77500
X77000Y77400
X44600Y82100
X19600Y77700
X29500Y77300
X38600Y77300
M30