G04 EAGLE Gerber RS-274X export*
G75*
%MOMM*%
%FSLAX34Y34*%
%LPD*%
%IN*%
%IPPOS*%
%AMOC8*
5,1,8,0,0,1.08239X$1,22.5*%
G01*
G04 Define Apertures*
%ADD10C,0.254000*%
D10*
X70000Y56000D02*
X69882Y52499D01*
X70092Y46691D01*
X70807Y40924D01*
X72022Y35240D01*
X73728Y29684D01*
X75912Y24298D01*
X78557Y19123D01*
X81643Y14198D01*
X85146Y9561D01*
X89041Y5247D01*
X93296Y1288D01*
X97880Y-2284D01*
X102758Y-5444D01*
X107893Y-8166D01*
X113246Y-10430D01*
X118776Y-12219D01*
X124440Y-13520D01*
X130196Y-14321D01*
X136001Y-14618D01*
X833355Y-14618D01*
X839302Y-13056D01*
X846336Y-10596D01*
X853128Y-7532D01*
X859627Y-3888D01*
X865784Y309D01*
X871552Y5027D01*
X876887Y10229D01*
X881748Y15876D01*
X886098Y21926D01*
X889905Y28332D01*
X893139Y35045D01*
X895775Y42014D01*
X897794Y49187D01*
X899180Y56508D01*
X899922Y63922D01*
X899922Y791108D01*
X899911Y791997D01*
X899796Y794152D01*
X899241Y798869D01*
X898278Y803520D01*
X896913Y808069D01*
X895157Y812482D01*
X893023Y816725D01*
X890527Y820766D01*
X887688Y824574D01*
X884529Y828120D01*
X881072Y831377D01*
X877345Y834320D01*
X873375Y836928D01*
X869193Y839179D01*
X864831Y841058D01*
X860322Y842549D01*
X855700Y843641D01*
X851000Y844327D01*
X602003Y844327D01*
X600394Y844370D01*
X596175Y844738D01*
X592004Y845473D01*
X587913Y846568D01*
X583933Y848015D01*
X580094Y849804D01*
X576426Y851921D01*
X572956Y854349D01*
X569711Y857071D01*
X566715Y860065D01*
X563992Y863309D01*
X561562Y866777D01*
X559444Y870445D01*
X557653Y874282D01*
X556204Y878262D01*
X555107Y882352D01*
X554370Y886523D01*
X554000Y890742D01*
X554000Y961000D01*
X412690Y961000D01*
X412690Y892011D01*
X412467Y888619D01*
X411766Y883588D01*
X410629Y878637D01*
X409064Y873804D01*
X407085Y869126D01*
X404705Y864638D01*
X401944Y860375D01*
X398821Y856368D01*
X395361Y852649D01*
X391589Y849246D01*
X387536Y846184D01*
X383231Y843487D01*
X378708Y841176D01*
X374000Y839267D01*
X119920Y839267D01*
X113926Y837199D01*
X107912Y834529D01*
X102155Y831344D01*
X96696Y827670D01*
X91579Y823535D01*
X86842Y818969D01*
X82520Y814007D01*
X78648Y808688D01*
X75254Y803051D01*
X72364Y797140D01*
X70000Y791000D01*
X70000Y56000D01*
M02*
