G04 EAGLE Gerber RS-274X export*
G75*
%MOMM*%
%FSLAX34Y34*%
%LPD*%
%INSolderpaste Top*%
%IPPOS*%
%AMOC8*
5,1,8,0,0,1.08239X$1,22.5*%
G01*
G04 Define Apertures*
%ADD10R,1.270000X2.540000*%
%ADD11R,0.300000X2.000000*%
G36*
X190260Y119040D02*
X190260Y89040D01*
X110260Y89040D01*
X110260Y119040D01*
X110412Y120776D01*
X110863Y122460D01*
X111600Y124040D01*
X112600Y125468D01*
X113832Y126700D01*
X115260Y127700D01*
X116840Y128437D01*
X118524Y128888D01*
X120260Y129040D01*
X180260Y129040D01*
X181996Y128888D01*
X183680Y128437D01*
X185260Y127700D01*
X186688Y126700D01*
X187920Y125468D01*
X188920Y124040D01*
X189657Y122460D01*
X190108Y120776D01*
X190260Y119040D01*
G37*
G36*
X190260Y154040D02*
X190108Y152304D01*
X189657Y150620D01*
X188920Y149040D01*
X187920Y147612D01*
X186688Y146380D01*
X185260Y145380D01*
X183680Y144643D01*
X181996Y144192D01*
X180260Y144040D01*
X120260Y144040D01*
X118524Y144192D01*
X116840Y144643D01*
X115260Y145380D01*
X113832Y146380D01*
X112600Y147612D01*
X111600Y149040D01*
X110863Y150620D01*
X110412Y152304D01*
X110260Y154040D01*
X110260Y184040D01*
X190260Y184040D01*
X190260Y154040D01*
G37*
G36*
X190260Y309040D02*
X190260Y279040D01*
X110260Y279040D01*
X110260Y309040D01*
X110412Y310776D01*
X110863Y312460D01*
X111600Y314040D01*
X112600Y315468D01*
X113832Y316700D01*
X115260Y317700D01*
X116840Y318437D01*
X118524Y318888D01*
X120260Y319040D01*
X180260Y319040D01*
X181996Y318888D01*
X183680Y318437D01*
X185260Y317700D01*
X186688Y316700D01*
X187920Y315468D01*
X188920Y314040D01*
X189657Y312460D01*
X190108Y310776D01*
X190260Y309040D01*
G37*
G36*
X190260Y344040D02*
X190108Y342304D01*
X189657Y340620D01*
X188920Y339040D01*
X187920Y337612D01*
X186688Y336380D01*
X185260Y335380D01*
X183680Y334643D01*
X181996Y334192D01*
X180260Y334040D01*
X120260Y334040D01*
X118524Y334192D01*
X116840Y334643D01*
X115260Y335380D01*
X113832Y336380D01*
X112600Y337612D01*
X111600Y339040D01*
X110863Y340620D01*
X110412Y342304D01*
X110260Y344040D01*
X110260Y374040D01*
X190260Y374040D01*
X190260Y344040D01*
G37*
G36*
X190260Y499040D02*
X190260Y469040D01*
X110260Y469040D01*
X110260Y499040D01*
X110412Y500776D01*
X110863Y502460D01*
X111600Y504040D01*
X112600Y505468D01*
X113832Y506700D01*
X115260Y507700D01*
X116840Y508437D01*
X118524Y508888D01*
X120260Y509040D01*
X180260Y509040D01*
X181996Y508888D01*
X183680Y508437D01*
X185260Y507700D01*
X186688Y506700D01*
X187920Y505468D01*
X188920Y504040D01*
X189657Y502460D01*
X190108Y500776D01*
X190260Y499040D01*
G37*
G36*
X190260Y534040D02*
X190108Y532304D01*
X189657Y530620D01*
X188920Y529040D01*
X187920Y527612D01*
X186688Y526380D01*
X185260Y525380D01*
X183680Y524643D01*
X181996Y524192D01*
X180260Y524040D01*
X120260Y524040D01*
X118524Y524192D01*
X116840Y524643D01*
X115260Y525380D01*
X113832Y526380D01*
X112600Y527612D01*
X111600Y529040D01*
X110863Y530620D01*
X110412Y532304D01*
X110260Y534040D01*
X110260Y564040D01*
X190260Y564040D01*
X190260Y534040D01*
G37*
G36*
X190260Y689140D02*
X190260Y659140D01*
X110260Y659140D01*
X110260Y689140D01*
X110412Y690876D01*
X110863Y692560D01*
X111600Y694140D01*
X112600Y695568D01*
X113832Y696800D01*
X115260Y697800D01*
X116840Y698537D01*
X118524Y698988D01*
X120260Y699140D01*
X180260Y699140D01*
X181996Y698988D01*
X183680Y698537D01*
X185260Y697800D01*
X186688Y696800D01*
X187920Y695568D01*
X188920Y694140D01*
X189657Y692560D01*
X190108Y690876D01*
X190260Y689140D01*
G37*
G36*
X190260Y724040D02*
X190108Y722304D01*
X189657Y720620D01*
X188920Y719040D01*
X187920Y717612D01*
X186688Y716380D01*
X185260Y715380D01*
X183680Y714643D01*
X181996Y714192D01*
X180260Y714040D01*
X120260Y714040D01*
X118524Y714192D01*
X116840Y714643D01*
X115260Y715380D01*
X113832Y716380D01*
X112600Y717612D01*
X111600Y719040D01*
X110863Y720620D01*
X110412Y722304D01*
X110260Y724040D01*
X110260Y754040D01*
X190260Y754040D01*
X190260Y724040D01*
G37*
G36*
X284860Y439040D02*
X284708Y437304D01*
X284257Y435620D01*
X283520Y434040D01*
X282520Y432612D01*
X281288Y431380D01*
X279860Y430380D01*
X278280Y429643D01*
X276596Y429192D01*
X274860Y429040D01*
X214860Y429040D01*
X213124Y429192D01*
X211440Y429643D01*
X209860Y430380D01*
X208432Y431380D01*
X207200Y432612D01*
X206200Y434040D01*
X205463Y435620D01*
X205012Y437304D01*
X204860Y439040D01*
X204860Y469040D01*
X284860Y469040D01*
X284860Y439040D01*
G37*
G36*
X284860Y629040D02*
X284708Y627304D01*
X284257Y625620D01*
X283520Y624040D01*
X282520Y622612D01*
X281288Y621380D01*
X279860Y620380D01*
X278280Y619643D01*
X276596Y619192D01*
X274860Y619040D01*
X214860Y619040D01*
X213124Y619192D01*
X211440Y619643D01*
X209860Y620380D01*
X208432Y621380D01*
X207200Y622612D01*
X206200Y624040D01*
X205463Y625620D01*
X205012Y627304D01*
X204860Y629040D01*
X204860Y659040D01*
X284860Y659040D01*
X284860Y629040D01*
G37*
G36*
X285060Y59240D02*
X284908Y57504D01*
X284457Y55820D01*
X283720Y54240D01*
X282720Y52812D01*
X281488Y51580D01*
X280060Y50580D01*
X278480Y49843D01*
X276796Y49392D01*
X275060Y49240D01*
X215060Y49240D01*
X213324Y49392D01*
X211640Y49843D01*
X210060Y50580D01*
X208632Y51580D01*
X207400Y52812D01*
X206400Y54240D01*
X205663Y55820D01*
X205212Y57504D01*
X205060Y59240D01*
X205060Y89240D01*
X285060Y89240D01*
X285060Y59240D01*
G37*
G36*
X285060Y249240D02*
X284908Y247504D01*
X284457Y245820D01*
X283720Y244240D01*
X282720Y242812D01*
X281488Y241580D01*
X280060Y240580D01*
X278480Y239843D01*
X276796Y239392D01*
X275060Y239240D01*
X215060Y239240D01*
X213324Y239392D01*
X211640Y239843D01*
X210060Y240580D01*
X208632Y241580D01*
X207400Y242812D01*
X206400Y244240D01*
X205663Y245820D01*
X205212Y247504D01*
X205060Y249240D01*
X205060Y279240D01*
X285060Y279240D01*
X285060Y249240D01*
G37*
G36*
X285060Y593940D02*
X285060Y563940D01*
X205060Y563940D01*
X205060Y593940D01*
X205212Y595676D01*
X205663Y597360D01*
X206400Y598940D01*
X207400Y600368D01*
X208632Y601600D01*
X210060Y602600D01*
X211640Y603337D01*
X213324Y603788D01*
X215060Y603940D01*
X275060Y603940D01*
X276796Y603788D01*
X278480Y603337D01*
X280060Y602600D01*
X281488Y601600D01*
X282720Y600368D01*
X283720Y598940D01*
X284457Y597360D01*
X284908Y595676D01*
X285060Y593940D01*
G37*
G36*
X285060Y783940D02*
X285060Y753940D01*
X205060Y753940D01*
X205060Y783940D01*
X205212Y785676D01*
X205663Y787360D01*
X206400Y788940D01*
X207400Y790368D01*
X208632Y791600D01*
X210060Y792600D01*
X211640Y793337D01*
X213324Y793788D01*
X215060Y793940D01*
X275060Y793940D01*
X276796Y793788D01*
X278480Y793337D01*
X280060Y792600D01*
X281488Y791600D01*
X282720Y790368D01*
X283720Y788940D01*
X284457Y787360D01*
X284908Y785676D01*
X285060Y783940D01*
G37*
G36*
X285260Y214140D02*
X285260Y184140D01*
X205260Y184140D01*
X205260Y214140D01*
X205412Y215876D01*
X205863Y217560D01*
X206600Y219140D01*
X207600Y220568D01*
X208832Y221800D01*
X210260Y222800D01*
X211840Y223537D01*
X213524Y223988D01*
X215260Y224140D01*
X275260Y224140D01*
X276996Y223988D01*
X278680Y223537D01*
X280260Y222800D01*
X281688Y221800D01*
X282920Y220568D01*
X283920Y219140D01*
X284657Y217560D01*
X285108Y215876D01*
X285260Y214140D01*
G37*
G36*
X285260Y404140D02*
X285260Y374140D01*
X205260Y374140D01*
X205260Y404140D01*
X205412Y405876D01*
X205863Y407560D01*
X206600Y409140D01*
X207600Y410568D01*
X208832Y411800D01*
X210260Y412800D01*
X211840Y413537D01*
X213524Y413988D01*
X215260Y414140D01*
X275260Y414140D01*
X276996Y413988D01*
X278680Y413537D01*
X280260Y412800D01*
X281688Y411800D01*
X282920Y410568D01*
X283920Y409140D01*
X284657Y407560D01*
X285108Y405876D01*
X285260Y404140D01*
G37*
G36*
X380060Y119240D02*
X380060Y89240D01*
X300060Y89240D01*
X300060Y119240D01*
X300212Y120976D01*
X300663Y122660D01*
X301400Y124240D01*
X302400Y125668D01*
X303632Y126900D01*
X305060Y127900D01*
X306640Y128637D01*
X308324Y129088D01*
X310060Y129240D01*
X370060Y129240D01*
X371796Y129088D01*
X373480Y128637D01*
X375060Y127900D01*
X376488Y126900D01*
X377720Y125668D01*
X378720Y124240D01*
X379457Y122660D01*
X379908Y120976D01*
X380060Y119240D01*
G37*
G36*
X380160Y344240D02*
X380008Y342504D01*
X379557Y340820D01*
X378820Y339240D01*
X377820Y337812D01*
X376588Y336580D01*
X375160Y335580D01*
X373580Y334843D01*
X371896Y334392D01*
X370160Y334240D01*
X310160Y334240D01*
X308424Y334392D01*
X306740Y334843D01*
X305160Y335580D01*
X303732Y336580D01*
X302500Y337812D01*
X301500Y339240D01*
X300763Y340820D01*
X300312Y342504D01*
X300160Y344240D01*
X300160Y374240D01*
X380160Y374240D01*
X380160Y344240D01*
G37*
G36*
X380260Y214240D02*
X380260Y184240D01*
X300260Y184240D01*
X300260Y214240D01*
X300412Y215976D01*
X300863Y217660D01*
X301600Y219240D01*
X302600Y220668D01*
X303832Y221900D01*
X305260Y222900D01*
X306840Y223637D01*
X308524Y224088D01*
X310260Y224240D01*
X370260Y224240D01*
X371996Y224088D01*
X373680Y223637D01*
X375260Y222900D01*
X376688Y221900D01*
X377920Y220668D01*
X378920Y219240D01*
X379657Y217660D01*
X380108Y215976D01*
X380260Y214240D01*
G37*
G36*
X380260Y249340D02*
X380108Y247604D01*
X379657Y245920D01*
X378920Y244340D01*
X377920Y242912D01*
X376688Y241680D01*
X375260Y240680D01*
X373680Y239943D01*
X371996Y239492D01*
X370260Y239340D01*
X310260Y239340D01*
X308524Y239492D01*
X306840Y239943D01*
X305260Y240680D01*
X303832Y241680D01*
X302600Y242912D01*
X301600Y244340D01*
X300863Y245920D01*
X300412Y247604D01*
X300260Y249340D01*
X300260Y279340D01*
X380260Y279340D01*
X380260Y249340D01*
G37*
G36*
X380260Y499040D02*
X380260Y469040D01*
X300260Y469040D01*
X300260Y499040D01*
X300412Y500776D01*
X300863Y502460D01*
X301600Y504040D01*
X302600Y505468D01*
X303832Y506700D01*
X305260Y507700D01*
X306840Y508437D01*
X308524Y508888D01*
X310260Y509040D01*
X370260Y509040D01*
X371996Y508888D01*
X373680Y508437D01*
X375260Y507700D01*
X376688Y506700D01*
X377920Y505468D01*
X378920Y504040D01*
X379657Y502460D01*
X380108Y500776D01*
X380260Y499040D01*
G37*
G36*
X380360Y724040D02*
X380208Y722304D01*
X379757Y720620D01*
X379020Y719040D01*
X378020Y717612D01*
X376788Y716380D01*
X375360Y715380D01*
X373780Y714643D01*
X372096Y714192D01*
X370360Y714040D01*
X310360Y714040D01*
X308624Y714192D01*
X306940Y714643D01*
X305360Y715380D01*
X303932Y716380D01*
X302700Y717612D01*
X301700Y719040D01*
X300963Y720620D01*
X300512Y722304D01*
X300360Y724040D01*
X300360Y754040D01*
X380360Y754040D01*
X380360Y724040D01*
G37*
G36*
X380460Y594040D02*
X380460Y564040D01*
X300460Y564040D01*
X300460Y594040D01*
X300612Y595776D01*
X301063Y597460D01*
X301800Y599040D01*
X302800Y600468D01*
X304032Y601700D01*
X305460Y602700D01*
X307040Y603437D01*
X308724Y603888D01*
X310460Y604040D01*
X370460Y604040D01*
X372196Y603888D01*
X373880Y603437D01*
X375460Y602700D01*
X376888Y601700D01*
X378120Y600468D01*
X379120Y599040D01*
X379857Y597460D01*
X380308Y595776D01*
X380460Y594040D01*
G37*
G36*
X380460Y629140D02*
X380308Y627404D01*
X379857Y625720D01*
X379120Y624140D01*
X378120Y622712D01*
X376888Y621480D01*
X375460Y620480D01*
X373880Y619743D01*
X372196Y619292D01*
X370460Y619140D01*
X310460Y619140D01*
X308724Y619292D01*
X307040Y619743D01*
X305460Y620480D01*
X304032Y621480D01*
X302800Y622712D01*
X301800Y624140D01*
X301063Y625720D01*
X300612Y627404D01*
X300460Y629140D01*
X300460Y659140D01*
X380460Y659140D01*
X380460Y629140D01*
G37*
G36*
X474960Y534140D02*
X474808Y532404D01*
X474357Y530720D01*
X473620Y529140D01*
X472620Y527712D01*
X471388Y526480D01*
X469960Y525480D01*
X468380Y524743D01*
X466696Y524292D01*
X464960Y524140D01*
X404960Y524140D01*
X403224Y524292D01*
X401540Y524743D01*
X399960Y525480D01*
X398532Y526480D01*
X397300Y527712D01*
X396300Y529140D01*
X395563Y530720D01*
X395112Y532404D01*
X394960Y534140D01*
X394960Y564140D01*
X474960Y564140D01*
X474960Y534140D01*
G37*
G36*
X475060Y154240D02*
X474908Y152504D01*
X474457Y150820D01*
X473720Y149240D01*
X472720Y147812D01*
X471488Y146580D01*
X470060Y145580D01*
X468480Y144843D01*
X466796Y144392D01*
X465060Y144240D01*
X405060Y144240D01*
X403324Y144392D01*
X401640Y144843D01*
X400060Y145580D01*
X398632Y146580D01*
X397400Y147812D01*
X396400Y149240D01*
X395663Y150820D01*
X395212Y152504D01*
X395060Y154240D01*
X395060Y184240D01*
X475060Y184240D01*
X475060Y154240D01*
G37*
G36*
X475060Y439240D02*
X474908Y437504D01*
X474457Y435820D01*
X473720Y434240D01*
X472720Y432812D01*
X471488Y431580D01*
X470060Y430580D01*
X468480Y429843D01*
X466796Y429392D01*
X465060Y429240D01*
X405060Y429240D01*
X403324Y429392D01*
X401640Y429843D01*
X400060Y430580D01*
X398632Y431580D01*
X397400Y432812D01*
X396400Y434240D01*
X395663Y435820D01*
X395212Y437504D01*
X395060Y439240D01*
X395060Y469240D01*
X475060Y469240D01*
X475060Y439240D01*
G37*
G36*
X475060Y689240D02*
X475060Y659240D01*
X395060Y659240D01*
X395060Y689240D01*
X395212Y690976D01*
X395663Y692660D01*
X396400Y694240D01*
X397400Y695668D01*
X398632Y696900D01*
X400060Y697900D01*
X401640Y698637D01*
X403324Y699088D01*
X405060Y699240D01*
X465060Y699240D01*
X466796Y699088D01*
X468480Y698637D01*
X470060Y697900D01*
X471488Y696900D01*
X472720Y695668D01*
X473720Y694240D01*
X474457Y692660D01*
X474908Y690976D01*
X475060Y689240D01*
G37*
G36*
X475160Y59340D02*
X475008Y57604D01*
X474557Y55920D01*
X473820Y54340D01*
X472820Y52912D01*
X471588Y51680D01*
X470160Y50680D01*
X468580Y49943D01*
X466896Y49492D01*
X465160Y49340D01*
X405160Y49340D01*
X403424Y49492D01*
X401740Y49943D01*
X400160Y50680D01*
X398732Y51680D01*
X397500Y52912D01*
X396500Y54340D01*
X395763Y55920D01*
X395312Y57604D01*
X395160Y59340D01*
X395160Y89340D01*
X475160Y89340D01*
X475160Y59340D01*
G37*
G36*
X475160Y309340D02*
X475160Y279340D01*
X395160Y279340D01*
X395160Y309340D01*
X395312Y311076D01*
X395763Y312760D01*
X396500Y314340D01*
X397500Y315768D01*
X398732Y317000D01*
X400160Y318000D01*
X401740Y318737D01*
X403424Y319188D01*
X405160Y319340D01*
X465160Y319340D01*
X466896Y319188D01*
X468580Y318737D01*
X470160Y318000D01*
X471588Y317000D01*
X472820Y315768D01*
X473820Y314340D01*
X474557Y312760D01*
X475008Y311076D01*
X475160Y309340D01*
G37*
G36*
X475260Y784240D02*
X475260Y754240D01*
X395260Y754240D01*
X395260Y784240D01*
X395412Y785976D01*
X395863Y787660D01*
X396600Y789240D01*
X397600Y790668D01*
X398832Y791900D01*
X400260Y792900D01*
X401840Y793637D01*
X403524Y794088D01*
X405260Y794240D01*
X465260Y794240D01*
X466996Y794088D01*
X468680Y793637D01*
X470260Y792900D01*
X471688Y791900D01*
X472920Y790668D01*
X473920Y789240D01*
X474657Y787660D01*
X475108Y785976D01*
X475260Y784240D01*
G37*
G36*
X475360Y404340D02*
X475360Y374340D01*
X395360Y374340D01*
X395360Y404340D01*
X395512Y406076D01*
X395963Y407760D01*
X396700Y409340D01*
X397700Y410768D01*
X398932Y412000D01*
X400360Y413000D01*
X401940Y413737D01*
X403624Y414188D01*
X405360Y414340D01*
X465360Y414340D01*
X467096Y414188D01*
X468780Y413737D01*
X470360Y413000D01*
X471788Y412000D01*
X473020Y410768D01*
X474020Y409340D01*
X474757Y407760D01*
X475208Y406076D01*
X475360Y404340D01*
G37*
G36*
X573910Y120660D02*
X573910Y90660D01*
X493910Y90660D01*
X493910Y120660D01*
X494062Y122396D01*
X494513Y124080D01*
X495250Y125660D01*
X496250Y127088D01*
X497482Y128320D01*
X498910Y129320D01*
X500490Y130057D01*
X502174Y130508D01*
X503910Y130660D01*
X563910Y130660D01*
X565646Y130508D01*
X567330Y130057D01*
X568910Y129320D01*
X570338Y128320D01*
X571570Y127088D01*
X572570Y125660D01*
X573307Y124080D01*
X573758Y122396D01*
X573910Y120660D01*
G37*
G36*
X573910Y155660D02*
X573758Y153924D01*
X573307Y152240D01*
X572570Y150660D01*
X571570Y149232D01*
X570338Y148000D01*
X568910Y147000D01*
X567330Y146263D01*
X565646Y145812D01*
X563910Y145660D01*
X503910Y145660D01*
X502174Y145812D01*
X500490Y146263D01*
X498910Y147000D01*
X497482Y148000D01*
X496250Y149232D01*
X495250Y150660D01*
X494513Y152240D01*
X494062Y153924D01*
X493910Y155660D01*
X493910Y185660D01*
X573910Y185660D01*
X573910Y155660D01*
G37*
G36*
X573910Y310660D02*
X573910Y280660D01*
X493910Y280660D01*
X493910Y310660D01*
X494062Y312396D01*
X494513Y314080D01*
X495250Y315660D01*
X496250Y317088D01*
X497482Y318320D01*
X498910Y319320D01*
X500490Y320057D01*
X502174Y320508D01*
X503910Y320660D01*
X563910Y320660D01*
X565646Y320508D01*
X567330Y320057D01*
X568910Y319320D01*
X570338Y318320D01*
X571570Y317088D01*
X572570Y315660D01*
X573307Y314080D01*
X573758Y312396D01*
X573910Y310660D01*
G37*
G36*
X573910Y345660D02*
X573758Y343924D01*
X573307Y342240D01*
X572570Y340660D01*
X571570Y339232D01*
X570338Y338000D01*
X568910Y337000D01*
X567330Y336263D01*
X565646Y335812D01*
X563910Y335660D01*
X503910Y335660D01*
X502174Y335812D01*
X500490Y336263D01*
X498910Y337000D01*
X497482Y338000D01*
X496250Y339232D01*
X495250Y340660D01*
X494513Y342240D01*
X494062Y343924D01*
X493910Y345660D01*
X493910Y375660D01*
X573910Y375660D01*
X573910Y345660D01*
G37*
G36*
X573910Y500660D02*
X573910Y470660D01*
X493910Y470660D01*
X493910Y500660D01*
X494062Y502396D01*
X494513Y504080D01*
X495250Y505660D01*
X496250Y507088D01*
X497482Y508320D01*
X498910Y509320D01*
X500490Y510057D01*
X502174Y510508D01*
X503910Y510660D01*
X563910Y510660D01*
X565646Y510508D01*
X567330Y510057D01*
X568910Y509320D01*
X570338Y508320D01*
X571570Y507088D01*
X572570Y505660D01*
X573307Y504080D01*
X573758Y502396D01*
X573910Y500660D01*
G37*
G36*
X573910Y535660D02*
X573758Y533924D01*
X573307Y532240D01*
X572570Y530660D01*
X571570Y529232D01*
X570338Y528000D01*
X568910Y527000D01*
X567330Y526263D01*
X565646Y525812D01*
X563910Y525660D01*
X503910Y525660D01*
X502174Y525812D01*
X500490Y526263D01*
X498910Y527000D01*
X497482Y528000D01*
X496250Y529232D01*
X495250Y530660D01*
X494513Y532240D01*
X494062Y533924D01*
X493910Y535660D01*
X493910Y565660D01*
X573910Y565660D01*
X573910Y535660D01*
G37*
G36*
X573910Y690760D02*
X573910Y660760D01*
X493910Y660760D01*
X493910Y690760D01*
X494062Y692496D01*
X494513Y694180D01*
X495250Y695760D01*
X496250Y697188D01*
X497482Y698420D01*
X498910Y699420D01*
X500490Y700157D01*
X502174Y700608D01*
X503910Y700760D01*
X563910Y700760D01*
X565646Y700608D01*
X567330Y700157D01*
X568910Y699420D01*
X570338Y698420D01*
X571570Y697188D01*
X572570Y695760D01*
X573307Y694180D01*
X573758Y692496D01*
X573910Y690760D01*
G37*
G36*
X573910Y725660D02*
X573758Y723924D01*
X573307Y722240D01*
X572570Y720660D01*
X571570Y719232D01*
X570338Y718000D01*
X568910Y717000D01*
X567330Y716263D01*
X565646Y715812D01*
X563910Y715660D01*
X503910Y715660D01*
X502174Y715812D01*
X500490Y716263D01*
X498910Y717000D01*
X497482Y718000D01*
X496250Y719232D01*
X495250Y720660D01*
X494513Y722240D01*
X494062Y723924D01*
X493910Y725660D01*
X493910Y755660D01*
X573910Y755660D01*
X573910Y725660D01*
G37*
G36*
X668510Y440660D02*
X668358Y438924D01*
X667907Y437240D01*
X667170Y435660D01*
X666170Y434232D01*
X664938Y433000D01*
X663510Y432000D01*
X661930Y431263D01*
X660246Y430812D01*
X658510Y430660D01*
X598510Y430660D01*
X596774Y430812D01*
X595090Y431263D01*
X593510Y432000D01*
X592082Y433000D01*
X590850Y434232D01*
X589850Y435660D01*
X589113Y437240D01*
X588662Y438924D01*
X588510Y440660D01*
X588510Y470660D01*
X668510Y470660D01*
X668510Y440660D01*
G37*
G36*
X668510Y630660D02*
X668358Y628924D01*
X667907Y627240D01*
X667170Y625660D01*
X666170Y624232D01*
X664938Y623000D01*
X663510Y622000D01*
X661930Y621263D01*
X660246Y620812D01*
X658510Y620660D01*
X598510Y620660D01*
X596774Y620812D01*
X595090Y621263D01*
X593510Y622000D01*
X592082Y623000D01*
X590850Y624232D01*
X589850Y625660D01*
X589113Y627240D01*
X588662Y628924D01*
X588510Y630660D01*
X588510Y660660D01*
X668510Y660660D01*
X668510Y630660D01*
G37*
G36*
X668710Y60860D02*
X668558Y59124D01*
X668107Y57440D01*
X667370Y55860D01*
X666370Y54432D01*
X665138Y53200D01*
X663710Y52200D01*
X662130Y51463D01*
X660446Y51012D01*
X658710Y50860D01*
X598710Y50860D01*
X596974Y51012D01*
X595290Y51463D01*
X593710Y52200D01*
X592282Y53200D01*
X591050Y54432D01*
X590050Y55860D01*
X589313Y57440D01*
X588862Y59124D01*
X588710Y60860D01*
X588710Y90860D01*
X668710Y90860D01*
X668710Y60860D01*
G37*
G36*
X668710Y250860D02*
X668558Y249124D01*
X668107Y247440D01*
X667370Y245860D01*
X666370Y244432D01*
X665138Y243200D01*
X663710Y242200D01*
X662130Y241463D01*
X660446Y241012D01*
X658710Y240860D01*
X598710Y240860D01*
X596974Y241012D01*
X595290Y241463D01*
X593710Y242200D01*
X592282Y243200D01*
X591050Y244432D01*
X590050Y245860D01*
X589313Y247440D01*
X588862Y249124D01*
X588710Y250860D01*
X588710Y280860D01*
X668710Y280860D01*
X668710Y250860D01*
G37*
G36*
X668710Y595560D02*
X668710Y565560D01*
X588710Y565560D01*
X588710Y595560D01*
X588862Y597296D01*
X589313Y598980D01*
X590050Y600560D01*
X591050Y601988D01*
X592282Y603220D01*
X593710Y604220D01*
X595290Y604957D01*
X596974Y605408D01*
X598710Y605560D01*
X658710Y605560D01*
X660446Y605408D01*
X662130Y604957D01*
X663710Y604220D01*
X665138Y603220D01*
X666370Y601988D01*
X667370Y600560D01*
X668107Y598980D01*
X668558Y597296D01*
X668710Y595560D01*
G37*
G36*
X668710Y785560D02*
X668710Y755560D01*
X588710Y755560D01*
X588710Y785560D01*
X588862Y787296D01*
X589313Y788980D01*
X590050Y790560D01*
X591050Y791988D01*
X592282Y793220D01*
X593710Y794220D01*
X595290Y794957D01*
X596974Y795408D01*
X598710Y795560D01*
X658710Y795560D01*
X660446Y795408D01*
X662130Y794957D01*
X663710Y794220D01*
X665138Y793220D01*
X666370Y791988D01*
X667370Y790560D01*
X668107Y788980D01*
X668558Y787296D01*
X668710Y785560D01*
G37*
G36*
X668910Y215760D02*
X668910Y185760D01*
X588910Y185760D01*
X588910Y215760D01*
X589062Y217496D01*
X589513Y219180D01*
X590250Y220760D01*
X591250Y222188D01*
X592482Y223420D01*
X593910Y224420D01*
X595490Y225157D01*
X597174Y225608D01*
X598910Y225760D01*
X658910Y225760D01*
X660646Y225608D01*
X662330Y225157D01*
X663910Y224420D01*
X665338Y223420D01*
X666570Y222188D01*
X667570Y220760D01*
X668307Y219180D01*
X668758Y217496D01*
X668910Y215760D01*
G37*
G36*
X668910Y405760D02*
X668910Y375760D01*
X588910Y375760D01*
X588910Y405760D01*
X589062Y407496D01*
X589513Y409180D01*
X590250Y410760D01*
X591250Y412188D01*
X592482Y413420D01*
X593910Y414420D01*
X595490Y415157D01*
X597174Y415608D01*
X598910Y415760D01*
X658910Y415760D01*
X660646Y415608D01*
X662330Y415157D01*
X663910Y414420D01*
X665338Y413420D01*
X666570Y412188D01*
X667570Y410760D01*
X668307Y409180D01*
X668758Y407496D01*
X668910Y405760D01*
G37*
G36*
X763710Y120860D02*
X763710Y90860D01*
X683710Y90860D01*
X683710Y120860D01*
X683862Y122596D01*
X684313Y124280D01*
X685050Y125860D01*
X686050Y127288D01*
X687282Y128520D01*
X688710Y129520D01*
X690290Y130257D01*
X691974Y130708D01*
X693710Y130860D01*
X753710Y130860D01*
X755446Y130708D01*
X757130Y130257D01*
X758710Y129520D01*
X760138Y128520D01*
X761370Y127288D01*
X762370Y125860D01*
X763107Y124280D01*
X763558Y122596D01*
X763710Y120860D01*
G37*
G36*
X763810Y345860D02*
X763658Y344124D01*
X763207Y342440D01*
X762470Y340860D01*
X761470Y339432D01*
X760238Y338200D01*
X758810Y337200D01*
X757230Y336463D01*
X755546Y336012D01*
X753810Y335860D01*
X693810Y335860D01*
X692074Y336012D01*
X690390Y336463D01*
X688810Y337200D01*
X687382Y338200D01*
X686150Y339432D01*
X685150Y340860D01*
X684413Y342440D01*
X683962Y344124D01*
X683810Y345860D01*
X683810Y375860D01*
X763810Y375860D01*
X763810Y345860D01*
G37*
G36*
X763910Y215860D02*
X763910Y185860D01*
X683910Y185860D01*
X683910Y215860D01*
X684062Y217596D01*
X684513Y219280D01*
X685250Y220860D01*
X686250Y222288D01*
X687482Y223520D01*
X688910Y224520D01*
X690490Y225257D01*
X692174Y225708D01*
X693910Y225860D01*
X753910Y225860D01*
X755646Y225708D01*
X757330Y225257D01*
X758910Y224520D01*
X760338Y223520D01*
X761570Y222288D01*
X762570Y220860D01*
X763307Y219280D01*
X763758Y217596D01*
X763910Y215860D01*
G37*
G36*
X763910Y250960D02*
X763758Y249224D01*
X763307Y247540D01*
X762570Y245960D01*
X761570Y244532D01*
X760338Y243300D01*
X758910Y242300D01*
X757330Y241563D01*
X755646Y241112D01*
X753910Y240960D01*
X693910Y240960D01*
X692174Y241112D01*
X690490Y241563D01*
X688910Y242300D01*
X687482Y243300D01*
X686250Y244532D01*
X685250Y245960D01*
X684513Y247540D01*
X684062Y249224D01*
X683910Y250960D01*
X683910Y280960D01*
X763910Y280960D01*
X763910Y250960D01*
G37*
G36*
X763910Y500660D02*
X763910Y470660D01*
X683910Y470660D01*
X683910Y500660D01*
X684062Y502396D01*
X684513Y504080D01*
X685250Y505660D01*
X686250Y507088D01*
X687482Y508320D01*
X688910Y509320D01*
X690490Y510057D01*
X692174Y510508D01*
X693910Y510660D01*
X753910Y510660D01*
X755646Y510508D01*
X757330Y510057D01*
X758910Y509320D01*
X760338Y508320D01*
X761570Y507088D01*
X762570Y505660D01*
X763307Y504080D01*
X763758Y502396D01*
X763910Y500660D01*
G37*
G36*
X764010Y725660D02*
X763858Y723924D01*
X763407Y722240D01*
X762670Y720660D01*
X761670Y719232D01*
X760438Y718000D01*
X759010Y717000D01*
X757430Y716263D01*
X755746Y715812D01*
X754010Y715660D01*
X694010Y715660D01*
X692274Y715812D01*
X690590Y716263D01*
X689010Y717000D01*
X687582Y718000D01*
X686350Y719232D01*
X685350Y720660D01*
X684613Y722240D01*
X684162Y723924D01*
X684010Y725660D01*
X684010Y755660D01*
X764010Y755660D01*
X764010Y725660D01*
G37*
G36*
X764110Y595660D02*
X764110Y565660D01*
X684110Y565660D01*
X684110Y595660D01*
X684262Y597396D01*
X684713Y599080D01*
X685450Y600660D01*
X686450Y602088D01*
X687682Y603320D01*
X689110Y604320D01*
X690690Y605057D01*
X692374Y605508D01*
X694110Y605660D01*
X754110Y605660D01*
X755846Y605508D01*
X757530Y605057D01*
X759110Y604320D01*
X760538Y603320D01*
X761770Y602088D01*
X762770Y600660D01*
X763507Y599080D01*
X763958Y597396D01*
X764110Y595660D01*
G37*
G36*
X764110Y630760D02*
X763958Y629024D01*
X763507Y627340D01*
X762770Y625760D01*
X761770Y624332D01*
X760538Y623100D01*
X759110Y622100D01*
X757530Y621363D01*
X755846Y620912D01*
X754110Y620760D01*
X694110Y620760D01*
X692374Y620912D01*
X690690Y621363D01*
X689110Y622100D01*
X687682Y623100D01*
X686450Y624332D01*
X685450Y625760D01*
X684713Y627340D01*
X684262Y629024D01*
X684110Y630760D01*
X684110Y660760D01*
X764110Y660760D01*
X764110Y630760D01*
G37*
G36*
X858610Y535760D02*
X858458Y534024D01*
X858007Y532340D01*
X857270Y530760D01*
X856270Y529332D01*
X855038Y528100D01*
X853610Y527100D01*
X852030Y526363D01*
X850346Y525912D01*
X848610Y525760D01*
X788610Y525760D01*
X786874Y525912D01*
X785190Y526363D01*
X783610Y527100D01*
X782182Y528100D01*
X780950Y529332D01*
X779950Y530760D01*
X779213Y532340D01*
X778762Y534024D01*
X778610Y535760D01*
X778610Y565760D01*
X858610Y565760D01*
X858610Y535760D01*
G37*
G36*
X858710Y155860D02*
X858558Y154124D01*
X858107Y152440D01*
X857370Y150860D01*
X856370Y149432D01*
X855138Y148200D01*
X853710Y147200D01*
X852130Y146463D01*
X850446Y146012D01*
X848710Y145860D01*
X788710Y145860D01*
X786974Y146012D01*
X785290Y146463D01*
X783710Y147200D01*
X782282Y148200D01*
X781050Y149432D01*
X780050Y150860D01*
X779313Y152440D01*
X778862Y154124D01*
X778710Y155860D01*
X778710Y185860D01*
X858710Y185860D01*
X858710Y155860D01*
G37*
G36*
X858710Y440860D02*
X858558Y439124D01*
X858107Y437440D01*
X857370Y435860D01*
X856370Y434432D01*
X855138Y433200D01*
X853710Y432200D01*
X852130Y431463D01*
X850446Y431012D01*
X848710Y430860D01*
X788710Y430860D01*
X786974Y431012D01*
X785290Y431463D01*
X783710Y432200D01*
X782282Y433200D01*
X781050Y434432D01*
X780050Y435860D01*
X779313Y437440D01*
X778862Y439124D01*
X778710Y440860D01*
X778710Y470860D01*
X858710Y470860D01*
X858710Y440860D01*
G37*
G36*
X858710Y690860D02*
X858710Y660860D01*
X778710Y660860D01*
X778710Y690860D01*
X778862Y692596D01*
X779313Y694280D01*
X780050Y695860D01*
X781050Y697288D01*
X782282Y698520D01*
X783710Y699520D01*
X785290Y700257D01*
X786974Y700708D01*
X788710Y700860D01*
X848710Y700860D01*
X850446Y700708D01*
X852130Y700257D01*
X853710Y699520D01*
X855138Y698520D01*
X856370Y697288D01*
X857370Y695860D01*
X858107Y694280D01*
X858558Y692596D01*
X858710Y690860D01*
G37*
G36*
X858810Y60960D02*
X858658Y59224D01*
X858207Y57540D01*
X857470Y55960D01*
X856470Y54532D01*
X855238Y53300D01*
X853810Y52300D01*
X852230Y51563D01*
X850546Y51112D01*
X848810Y50960D01*
X788810Y50960D01*
X787074Y51112D01*
X785390Y51563D01*
X783810Y52300D01*
X782382Y53300D01*
X781150Y54532D01*
X780150Y55960D01*
X779413Y57540D01*
X778962Y59224D01*
X778810Y60960D01*
X778810Y90960D01*
X858810Y90960D01*
X858810Y60960D01*
G37*
G36*
X858810Y310960D02*
X858810Y280960D01*
X778810Y280960D01*
X778810Y310960D01*
X778962Y312696D01*
X779413Y314380D01*
X780150Y315960D01*
X781150Y317388D01*
X782382Y318620D01*
X783810Y319620D01*
X785390Y320357D01*
X787074Y320808D01*
X788810Y320960D01*
X848810Y320960D01*
X850546Y320808D01*
X852230Y320357D01*
X853810Y319620D01*
X855238Y318620D01*
X856470Y317388D01*
X857470Y315960D01*
X858207Y314380D01*
X858658Y312696D01*
X858810Y310960D01*
G37*
G36*
X858910Y785860D02*
X858910Y755860D01*
X778910Y755860D01*
X778910Y785860D01*
X779062Y787596D01*
X779513Y789280D01*
X780250Y790860D01*
X781250Y792288D01*
X782482Y793520D01*
X783910Y794520D01*
X785490Y795257D01*
X787174Y795708D01*
X788910Y795860D01*
X848910Y795860D01*
X850646Y795708D01*
X852330Y795257D01*
X853910Y794520D01*
X855338Y793520D01*
X856570Y792288D01*
X857570Y790860D01*
X858307Y789280D01*
X858758Y787596D01*
X858910Y785860D01*
G37*
G36*
X859010Y405960D02*
X859010Y375960D01*
X779010Y375960D01*
X779010Y405960D01*
X779162Y407696D01*
X779613Y409380D01*
X780350Y410960D01*
X781350Y412388D01*
X782582Y413620D01*
X784010Y414620D01*
X785590Y415357D01*
X787274Y415808D01*
X789010Y415960D01*
X849010Y415960D01*
X850746Y415808D01*
X852430Y415357D01*
X854010Y414620D01*
X855438Y413620D01*
X856670Y412388D01*
X857670Y410960D01*
X858407Y409380D01*
X858858Y407696D01*
X859010Y405960D01*
G37*
D10*
X149960Y107840D03*
X152760Y164340D03*
X341860Y107540D03*
X148460Y356840D03*
X147360Y546240D03*
X240660Y203440D03*
X342260Y204340D03*
X147460Y736740D03*
X243360Y71940D03*
X153260Y301240D03*
X240760Y261040D03*
X435960Y299140D03*
X242960Y451240D03*
X243860Y392640D03*
X242360Y640940D03*
X437060Y392440D03*
X148260Y489740D03*
X339860Y261540D03*
X343460Y488040D03*
X338760Y357440D03*
X250260Y584440D03*
X337260Y641340D03*
X345760Y583940D03*
X339160Y736340D03*
X434860Y72440D03*
X150560Y678340D03*
X432760Y166740D03*
X437260Y678640D03*
X432560Y451240D03*
X434960Y546440D03*
X247560Y775040D03*
X436260Y773640D03*
D11*
X425900Y937384D03*
X430900Y937384D03*
X435900Y937384D03*
X440900Y937384D03*
X445900Y937384D03*
X450900Y937384D03*
X455900Y937384D03*
X460900Y937384D03*
X465900Y937384D03*
X470900Y937384D03*
X475900Y937384D03*
X480900Y937384D03*
X485900Y937384D03*
X490900Y937384D03*
X495900Y937384D03*
X500900Y937384D03*
X505900Y937384D03*
X510900Y937384D03*
X515900Y937384D03*
X520900Y937384D03*
X525900Y937384D03*
X530900Y937384D03*
X535900Y937384D03*
X540900Y937384D03*
D10*
X533610Y109460D03*
X536410Y165960D03*
X725510Y109160D03*
X532110Y358460D03*
X531010Y547860D03*
X624310Y205060D03*
X725910Y205960D03*
X531110Y738360D03*
X627010Y73560D03*
X536910Y302860D03*
X624410Y262660D03*
X819610Y300760D03*
X626610Y452860D03*
X627510Y394260D03*
X626010Y642560D03*
X820710Y394060D03*
X531910Y491360D03*
X723510Y263160D03*
X727110Y489660D03*
X722410Y359060D03*
X633910Y586060D03*
X720910Y642960D03*
X729410Y585560D03*
X722810Y737960D03*
X818510Y74060D03*
X534210Y679960D03*
X816410Y168360D03*
X820910Y680260D03*
X816210Y452860D03*
X818610Y548060D03*
X631210Y776660D03*
X819910Y775260D03*
M02*
