G04 EAGLE Gerber RS-274X export*
G75*
%MOMM*%
%FSLAX34Y34*%
%LPD*%
%INTop Copper*%
%IPPOS*%
%AMOC8*
5,1,8,0,0,1.08239X$1,22.5*%
G01*
G04 Define Apertures*
%ADD10R,0.609600X1.549400*%
%ADD11R,1.193800X1.803400*%
%ADD12P,1.64956X8X22.5*%
%ADD13R,0.535100X0.644000*%
%ADD14C,0.152400*%
%ADD15C,0.756400*%
%ADD16C,3.366000*%
G36*
X25833Y780177D02*
X15965Y780177D01*
X15965Y783440D01*
X15985Y784049D01*
X16044Y784623D01*
X16142Y785160D01*
X16279Y785661D01*
X16456Y786127D01*
X16672Y786557D01*
X16928Y786952D01*
X17222Y787310D01*
X17553Y787629D01*
X17917Y787906D01*
X18314Y788140D01*
X18745Y788332D01*
X19208Y788481D01*
X19705Y788587D01*
X20235Y788651D01*
X20798Y788672D01*
X21173Y788663D01*
X21537Y788635D01*
X21889Y788589D01*
X22229Y788523D01*
X22557Y788440D01*
X22873Y788337D01*
X23177Y788216D01*
X23470Y788077D01*
X23748Y787920D01*
X24009Y787748D01*
X24253Y787560D01*
X24481Y787357D01*
X24692Y787139D01*
X24886Y786904D01*
X25063Y786654D01*
X25224Y786389D01*
X25367Y786111D01*
X25491Y785822D01*
X25595Y785522D01*
X25681Y785212D01*
X25748Y784892D01*
X25795Y784561D01*
X25824Y784220D01*
X25833Y783868D01*
X25833Y780177D01*
G37*
%LPC*%
G36*
X24762Y781514D02*
X24762Y783714D01*
X24754Y783981D01*
X24732Y784240D01*
X24695Y784491D01*
X24643Y784733D01*
X24576Y784968D01*
X24494Y785194D01*
X24397Y785412D01*
X24286Y785622D01*
X24160Y785822D01*
X24021Y786010D01*
X23869Y786186D01*
X23704Y786350D01*
X23526Y786502D01*
X23335Y786642D01*
X23130Y786770D01*
X22913Y786886D01*
X22684Y786990D01*
X22444Y787079D01*
X22195Y787155D01*
X21936Y787217D01*
X21666Y787265D01*
X21387Y787300D01*
X21097Y787321D01*
X20798Y787327D01*
X20353Y787312D01*
X19935Y787265D01*
X19544Y787186D01*
X19181Y787076D01*
X18845Y786935D01*
X18536Y786762D01*
X18254Y786558D01*
X18000Y786322D01*
X17774Y786057D01*
X17578Y785764D01*
X17413Y785442D01*
X17277Y785092D01*
X17172Y784715D01*
X17097Y784309D01*
X17052Y783875D01*
X17037Y783412D01*
X17037Y781514D01*
X24762Y781514D01*
G37*
%LPD*%
G36*
X25833Y828802D02*
X15965Y828802D01*
X15965Y832388D01*
X15974Y832808D01*
X16003Y833202D01*
X16049Y833568D01*
X16115Y833907D01*
X16199Y834220D01*
X16302Y834504D01*
X16424Y834762D01*
X16564Y834993D01*
X16723Y835197D01*
X16901Y835373D01*
X17097Y835522D01*
X17312Y835644D01*
X17546Y835739D01*
X17799Y835807D01*
X18070Y835848D01*
X18360Y835861D01*
X18575Y835854D01*
X18781Y835831D01*
X18978Y835793D01*
X19166Y835739D01*
X19345Y835670D01*
X19516Y835586D01*
X19678Y835486D01*
X19831Y835371D01*
X19974Y835242D01*
X20047Y835163D01*
X20104Y835101D01*
X20222Y834946D01*
X20328Y834779D01*
X20422Y834600D01*
X20504Y834407D01*
X20573Y834202D01*
X20630Y833984D01*
X20673Y834270D01*
X20731Y834539D01*
X20806Y834791D01*
X20897Y835026D01*
X21003Y835245D01*
X21125Y835446D01*
X21263Y835631D01*
X21335Y835708D01*
X21418Y835798D01*
X21585Y835948D01*
X21763Y836077D01*
X21951Y836187D01*
X22150Y836276D01*
X22360Y836346D01*
X22580Y836396D01*
X22811Y836426D01*
X23053Y836436D01*
X23373Y836421D01*
X23675Y836376D01*
X23958Y836301D01*
X24223Y836196D01*
X24470Y836061D01*
X24699Y835896D01*
X24909Y835701D01*
X25102Y835476D01*
X25273Y835225D01*
X25422Y834950D01*
X25548Y834651D01*
X25650Y834329D01*
X25730Y833984D01*
X25788Y833615D01*
X25822Y833223D01*
X25833Y832808D01*
X25833Y828802D01*
G37*
%LPC*%
G36*
X24762Y830139D02*
X24762Y832738D01*
X24755Y833034D01*
X24733Y833309D01*
X24698Y833563D01*
X24648Y833797D01*
X24584Y834010D01*
X24506Y834202D01*
X24413Y834373D01*
X24307Y834524D01*
X24186Y834655D01*
X24051Y834769D01*
X23902Y834865D01*
X23739Y834944D01*
X23562Y835005D01*
X23372Y835049D01*
X23167Y835075D01*
X22948Y835084D01*
X22737Y835074D01*
X22539Y835046D01*
X22355Y834998D01*
X22185Y834931D01*
X22028Y834845D01*
X21885Y834739D01*
X21756Y834615D01*
X21640Y834471D01*
X21538Y834308D01*
X21449Y834126D01*
X21374Y833925D01*
X21313Y833705D01*
X21265Y833466D01*
X21231Y833207D01*
X21211Y832930D01*
X21204Y832633D01*
X21204Y830139D01*
X24762Y830139D01*
G37*
G36*
X20160Y830139D02*
X20160Y832388D01*
X20154Y832647D01*
X20135Y832889D01*
X20104Y833115D01*
X20060Y833323D01*
X20003Y833515D01*
X19934Y833690D01*
X19852Y833847D01*
X19758Y833988D01*
X19650Y834112D01*
X19529Y834219D01*
X19395Y834310D01*
X19247Y834385D01*
X19086Y834442D01*
X18911Y834484D01*
X18723Y834508D01*
X18521Y834517D01*
X18329Y834508D01*
X18151Y834483D01*
X17987Y834440D01*
X17837Y834380D01*
X17701Y834303D01*
X17580Y834209D01*
X17473Y834098D01*
X17380Y833970D01*
X17299Y833826D01*
X17230Y833667D01*
X17171Y833492D01*
X17122Y833302D01*
X17058Y832875D01*
X17037Y832388D01*
X17037Y830139D01*
X20160Y830139D01*
G37*
%LPD*%
G36*
X22058Y808290D02*
X21572Y808301D01*
X21119Y808334D01*
X20699Y808389D01*
X20312Y808466D01*
X19958Y808565D01*
X19636Y808686D01*
X19348Y808829D01*
X19092Y808994D01*
X18868Y809181D01*
X18674Y809391D01*
X18510Y809625D01*
X18375Y809881D01*
X18271Y810159D01*
X18196Y810461D01*
X18151Y810786D01*
X18136Y811133D01*
X18159Y811523D01*
X18228Y811885D01*
X18343Y812221D01*
X18504Y812531D01*
X18707Y812810D01*
X18950Y813055D01*
X19231Y813267D01*
X19551Y813445D01*
X19551Y813459D01*
X18823Y813487D01*
X18422Y813515D01*
X18255Y813543D01*
X18255Y814740D01*
X18837Y814709D01*
X19824Y814698D01*
X25616Y814698D01*
X26003Y814686D01*
X26365Y814649D01*
X26702Y814587D01*
X27014Y814500D01*
X27300Y814388D01*
X27562Y814252D01*
X27799Y814091D01*
X28012Y813905D01*
X28199Y813694D01*
X28361Y813459D01*
X28498Y813199D01*
X28610Y812914D01*
X28698Y812604D01*
X28760Y812269D01*
X28798Y811910D01*
X28810Y811526D01*
X28802Y811224D01*
X28780Y810937D01*
X28742Y810667D01*
X28688Y810412D01*
X28620Y810173D01*
X28536Y809950D01*
X28437Y809742D01*
X28323Y809551D01*
X28195Y809375D01*
X28054Y809216D01*
X27901Y809073D01*
X27734Y808946D01*
X27555Y808836D01*
X27363Y808743D01*
X27158Y808666D01*
X26940Y808605D01*
X26758Y809873D01*
X27005Y809955D01*
X27223Y810075D01*
X27410Y810233D01*
X27567Y810429D01*
X27691Y810662D01*
X27780Y810928D01*
X27833Y811227D01*
X27850Y811561D01*
X27842Y811789D01*
X27840Y811801D01*
X27816Y812002D01*
X27773Y812201D01*
X27713Y812385D01*
X27635Y812554D01*
X27540Y812709D01*
X27428Y812848D01*
X27299Y812974D01*
X27152Y813084D01*
X26989Y813180D01*
X26808Y813261D01*
X26609Y813327D01*
X26394Y813378D01*
X26161Y813415D01*
X25911Y813437D01*
X25644Y813445D01*
X24426Y813445D01*
X24426Y813431D01*
X24767Y813235D01*
X25064Y813007D01*
X25315Y812745D01*
X25515Y812460D01*
X25522Y812450D01*
X25683Y812125D01*
X25798Y811774D01*
X25866Y811397D01*
X25889Y810993D01*
X25875Y810656D01*
X25832Y810343D01*
X25759Y810052D01*
X25658Y809784D01*
X25528Y809540D01*
X25369Y809318D01*
X25182Y809120D01*
X24965Y808945D01*
X24717Y808791D01*
X24437Y808658D01*
X24123Y808546D01*
X23776Y808454D01*
X23396Y808382D01*
X22983Y808331D01*
X22537Y808300D01*
X22058Y808290D01*
G37*
%LPC*%
G36*
X22044Y809593D02*
X22419Y809599D01*
X22767Y809618D01*
X23087Y809651D01*
X23380Y809696D01*
X23646Y809754D01*
X23884Y809825D01*
X24095Y809909D01*
X24279Y810006D01*
X24438Y810118D01*
X24576Y810249D01*
X24693Y810398D01*
X24788Y810566D01*
X24862Y810752D01*
X24915Y810957D01*
X24947Y811179D01*
X24958Y811421D01*
X24936Y811710D01*
X24870Y811983D01*
X24761Y812239D01*
X24608Y812478D01*
X24414Y812696D01*
X24272Y812813D01*
X24181Y812888D01*
X23911Y813053D01*
X23603Y813192D01*
X23260Y813303D01*
X22886Y813382D01*
X22481Y813429D01*
X22044Y813445D01*
X21598Y813429D01*
X21184Y813382D01*
X20801Y813303D01*
X20451Y813192D01*
X20136Y813053D01*
X19861Y812889D01*
X19625Y812698D01*
X19428Y812482D01*
X19274Y812245D01*
X19163Y811992D01*
X19097Y811725D01*
X19075Y811442D01*
X19086Y811208D01*
X19119Y810991D01*
X19173Y810791D01*
X19250Y810606D01*
X19348Y810439D01*
X19469Y810287D01*
X19611Y810152D01*
X19775Y810034D01*
X19964Y809930D01*
X20180Y809841D01*
X20423Y809765D01*
X20693Y809703D01*
X20990Y809655D01*
X21314Y809620D01*
X21666Y809599D01*
X22044Y809593D01*
G37*
%LPD*%
G36*
X41073Y850893D02*
X40494Y850925D01*
X39512Y850935D01*
X30680Y850935D01*
X30680Y852196D01*
X33642Y852196D01*
X34714Y852168D01*
X34714Y852196D01*
X34376Y852385D01*
X34089Y852603D01*
X33854Y852849D01*
X33670Y853124D01*
X33533Y853430D01*
X33434Y853771D01*
X33375Y854146D01*
X33355Y854556D01*
X33370Y854903D01*
X33416Y855227D01*
X33491Y855526D01*
X33597Y855802D01*
X33733Y856054D01*
X33899Y856282D01*
X34095Y856487D01*
X34322Y856668D01*
X34579Y856826D01*
X34867Y856964D01*
X35187Y857080D01*
X35537Y857175D01*
X35918Y857249D01*
X36331Y857301D01*
X36775Y857333D01*
X37249Y857344D01*
X37729Y857333D01*
X38178Y857300D01*
X38597Y857246D01*
X38984Y857170D01*
X39340Y857072D01*
X39665Y856952D01*
X39959Y856810D01*
X40222Y856647D01*
X40455Y856462D01*
X40656Y856255D01*
X40826Y856026D01*
X40966Y855776D01*
X41074Y855504D01*
X41152Y855210D01*
X41198Y854894D01*
X41213Y854556D01*
X41194Y854144D01*
X41136Y853767D01*
X41038Y853428D01*
X40902Y853124D01*
X40722Y852852D01*
X40495Y852607D01*
X40220Y852388D01*
X39897Y852196D01*
X39897Y852182D01*
X40559Y852154D01*
X41073Y852112D01*
X41073Y850893D01*
G37*
%LPC*%
G36*
X37368Y852196D02*
X37729Y852203D01*
X38065Y852226D01*
X38377Y852263D01*
X38665Y852315D01*
X38928Y852382D01*
X39167Y852464D01*
X39381Y852561D01*
X39571Y852672D01*
X39738Y852801D01*
X39882Y852948D01*
X40004Y853113D01*
X40104Y853297D01*
X40182Y853500D01*
X40238Y853721D01*
X40271Y853961D01*
X40282Y854220D01*
X40271Y854450D01*
X40238Y854663D01*
X40183Y854860D01*
X40106Y855040D01*
X40007Y855204D01*
X39886Y855351D01*
X39743Y855482D01*
X39578Y855596D01*
X39388Y855696D01*
X39171Y855782D01*
X38927Y855855D01*
X38654Y855914D01*
X38355Y855960D01*
X38028Y855994D01*
X37673Y856013D01*
X37291Y856020D01*
X36908Y856013D01*
X36553Y855994D01*
X36226Y855961D01*
X35927Y855915D01*
X35657Y855856D01*
X35415Y855784D01*
X35201Y855698D01*
X35015Y855600D01*
X34854Y855487D01*
X34715Y855357D01*
X34597Y855211D01*
X34500Y855048D01*
X34425Y854869D01*
X34372Y854674D01*
X34339Y854462D01*
X34329Y854234D01*
X34340Y853977D01*
X34374Y853738D01*
X34431Y853517D01*
X34511Y853314D01*
X34613Y853129D01*
X34738Y852962D01*
X34886Y852813D01*
X35057Y852683D01*
X35253Y852569D01*
X35475Y852470D01*
X35724Y852386D01*
X35999Y852318D01*
X36301Y852264D01*
X36630Y852226D01*
X36986Y852204D01*
X37368Y852196D01*
G37*
%LPD*%
G36*
X22037Y860915D02*
X21562Y860928D01*
X21118Y860968D01*
X20704Y861034D01*
X20321Y861127D01*
X19969Y861247D01*
X19647Y861393D01*
X19356Y861565D01*
X19096Y861764D01*
X18866Y861990D01*
X18667Y862242D01*
X18498Y862520D01*
X18360Y862826D01*
X18253Y863157D01*
X18177Y863516D01*
X18131Y863900D01*
X18115Y864312D01*
X18130Y864732D01*
X18175Y865123D01*
X18250Y865485D01*
X18354Y865819D01*
X18489Y866124D01*
X18653Y866401D01*
X18847Y866649D01*
X19071Y866868D01*
X19327Y867060D01*
X19615Y867227D01*
X19936Y867367D01*
X20291Y867483D01*
X20678Y867572D01*
X21098Y867636D01*
X21551Y867675D01*
X22037Y867687D01*
X22519Y867674D01*
X22968Y867633D01*
X23386Y867564D01*
X23773Y867469D01*
X24127Y867346D01*
X24450Y867195D01*
X24741Y867017D01*
X25000Y866812D01*
X25228Y866581D01*
X25426Y866325D01*
X25593Y866044D01*
X25730Y865739D01*
X25837Y865409D01*
X25913Y865054D01*
X25958Y864674D01*
X25973Y864270D01*
X25958Y863867D01*
X25910Y863490D01*
X25831Y863139D01*
X25720Y862813D01*
X25578Y862512D01*
X25404Y862237D01*
X25199Y861987D01*
X24961Y861762D01*
X24694Y861564D01*
X24399Y861392D01*
X24076Y861246D01*
X23724Y861127D01*
X23345Y861034D01*
X22937Y860968D01*
X22501Y860928D01*
X22037Y860915D01*
G37*
%LPC*%
G36*
X22037Y862239D02*
X22400Y862246D01*
X22740Y862269D01*
X23057Y862307D01*
X23350Y862360D01*
X23619Y862429D01*
X23866Y862512D01*
X24089Y862611D01*
X24289Y862725D01*
X24466Y862856D01*
X24618Y863003D01*
X24748Y863169D01*
X24854Y863351D01*
X24936Y863551D01*
X24995Y863769D01*
X25030Y864003D01*
X25042Y864256D01*
X25031Y864529D01*
X24996Y864782D01*
X24940Y865015D01*
X24860Y865228D01*
X24757Y865421D01*
X24632Y865593D01*
X24484Y865745D01*
X24314Y865877D01*
X24119Y865991D01*
X23898Y866090D01*
X23652Y866174D01*
X23380Y866242D01*
X23083Y866295D01*
X22760Y866333D01*
X22412Y866356D01*
X22037Y866364D01*
X21659Y866356D01*
X21307Y866335D01*
X20981Y866298D01*
X20683Y866247D01*
X20411Y866182D01*
X20167Y866102D01*
X19949Y866007D01*
X19758Y865898D01*
X19591Y865772D01*
X19447Y865626D01*
X19324Y865460D01*
X19224Y865274D01*
X19147Y865068D01*
X19091Y864843D01*
X19058Y864598D01*
X19047Y864333D01*
X19058Y864066D01*
X19092Y863818D01*
X19149Y863589D01*
X19228Y863379D01*
X19330Y863189D01*
X19454Y863017D01*
X19602Y862865D01*
X19772Y862732D01*
X19966Y862617D01*
X20185Y862516D01*
X20430Y862431D01*
X20701Y862362D01*
X20996Y862308D01*
X21318Y862269D01*
X21665Y862246D01*
X22037Y862239D01*
G37*
%LPD*%
G36*
X37277Y810696D02*
X36802Y810709D01*
X36358Y810749D01*
X35944Y810815D01*
X35561Y810908D01*
X35209Y811028D01*
X34887Y811174D01*
X34596Y811346D01*
X34336Y811545D01*
X34106Y811771D01*
X33907Y812023D01*
X33738Y812302D01*
X33600Y812607D01*
X33493Y812939D01*
X33417Y813297D01*
X33371Y813682D01*
X33355Y814093D01*
X33370Y814513D01*
X33415Y814904D01*
X33490Y815267D01*
X33594Y815600D01*
X33729Y815906D01*
X33893Y816182D01*
X34087Y816430D01*
X34311Y816649D01*
X34567Y816841D01*
X34855Y817008D01*
X35176Y817149D01*
X35531Y817264D01*
X35918Y817354D01*
X36338Y817418D01*
X36791Y817456D01*
X37277Y817469D01*
X37759Y817455D01*
X38208Y817414D01*
X38626Y817346D01*
X39013Y817250D01*
X39367Y817127D01*
X39690Y816976D01*
X39981Y816798D01*
X40240Y816593D01*
X40468Y816362D01*
X40666Y816106D01*
X40833Y815825D01*
X40970Y815520D01*
X41077Y815190D01*
X41153Y814835D01*
X41198Y814455D01*
X41213Y814051D01*
X41198Y813649D01*
X41150Y813272D01*
X41071Y812920D01*
X40960Y812594D01*
X40818Y812293D01*
X40644Y812018D01*
X40439Y811768D01*
X40201Y811544D01*
X39934Y811345D01*
X39639Y811173D01*
X39316Y811027D01*
X38964Y810908D01*
X38585Y810815D01*
X38177Y810749D01*
X37741Y810709D01*
X37277Y810696D01*
G37*
%LPC*%
G36*
X37277Y812020D02*
X37640Y812027D01*
X37980Y812050D01*
X38297Y812088D01*
X38590Y812141D01*
X38859Y812210D01*
X39106Y812294D01*
X39329Y812392D01*
X39529Y812507D01*
X39706Y812637D01*
X39858Y812785D01*
X39988Y812950D01*
X40094Y813133D01*
X40176Y813333D01*
X40235Y813550D01*
X40270Y813785D01*
X40282Y814037D01*
X40271Y814310D01*
X40236Y814564D01*
X40180Y814797D01*
X40100Y815010D01*
X39997Y815202D01*
X39872Y815374D01*
X39724Y815526D01*
X39554Y815658D01*
X39359Y815772D01*
X39138Y815871D01*
X38892Y815955D01*
X38620Y816023D01*
X38323Y816077D01*
X38000Y816115D01*
X37652Y816137D01*
X37277Y816145D01*
X36899Y816138D01*
X36547Y816116D01*
X36221Y816080D01*
X35923Y816029D01*
X35651Y815963D01*
X35407Y815883D01*
X35189Y815788D01*
X34998Y815679D01*
X34831Y815553D01*
X34687Y815407D01*
X34564Y815241D01*
X34464Y815055D01*
X34387Y814849D01*
X34331Y814624D01*
X34298Y814379D01*
X34287Y814114D01*
X34298Y813847D01*
X34332Y813599D01*
X34389Y813370D01*
X34468Y813161D01*
X34570Y812970D01*
X34694Y812799D01*
X34842Y812647D01*
X35012Y812514D01*
X35206Y812398D01*
X35425Y812298D01*
X35670Y812213D01*
X35941Y812143D01*
X36236Y812089D01*
X36558Y812051D01*
X36905Y812028D01*
X37277Y812020D01*
G37*
%LPD*%
G36*
X37277Y822665D02*
X36802Y822678D01*
X36358Y822718D01*
X35944Y822784D01*
X35561Y822877D01*
X35209Y822997D01*
X34887Y823143D01*
X34596Y823315D01*
X34336Y823514D01*
X34106Y823740D01*
X33907Y823992D01*
X33738Y824270D01*
X33600Y824576D01*
X33493Y824907D01*
X33417Y825266D01*
X33371Y825650D01*
X33355Y826062D01*
X33370Y826482D01*
X33415Y826873D01*
X33490Y827235D01*
X33594Y827569D01*
X33729Y827874D01*
X33893Y828151D01*
X34087Y828399D01*
X34311Y828618D01*
X34567Y828810D01*
X34855Y828977D01*
X35176Y829117D01*
X35531Y829233D01*
X35918Y829322D01*
X36338Y829386D01*
X36791Y829425D01*
X37277Y829437D01*
X37759Y829424D01*
X38208Y829383D01*
X38626Y829314D01*
X39013Y829219D01*
X39367Y829096D01*
X39690Y828945D01*
X39981Y828767D01*
X40240Y828562D01*
X40468Y828331D01*
X40666Y828075D01*
X40833Y827794D01*
X40970Y827489D01*
X41077Y827159D01*
X41153Y826804D01*
X41198Y826424D01*
X41213Y826020D01*
X41198Y825617D01*
X41150Y825240D01*
X41071Y824889D01*
X40960Y824563D01*
X40818Y824262D01*
X40644Y823987D01*
X40439Y823737D01*
X40201Y823512D01*
X39934Y823314D01*
X39639Y823142D01*
X39316Y822996D01*
X38964Y822877D01*
X38585Y822784D01*
X38177Y822718D01*
X37741Y822678D01*
X37277Y822665D01*
G37*
%LPC*%
G36*
X37277Y823989D02*
X37640Y823996D01*
X37980Y824019D01*
X38297Y824057D01*
X38590Y824110D01*
X38859Y824179D01*
X39106Y824262D01*
X39329Y824361D01*
X39529Y824475D01*
X39706Y824606D01*
X39858Y824753D01*
X39988Y824919D01*
X40094Y825101D01*
X40176Y825301D01*
X40235Y825519D01*
X40270Y825753D01*
X40282Y826006D01*
X40271Y826279D01*
X40236Y826532D01*
X40180Y826765D01*
X40100Y826978D01*
X39997Y827171D01*
X39872Y827343D01*
X39724Y827495D01*
X39554Y827627D01*
X39359Y827741D01*
X39138Y827840D01*
X38892Y827924D01*
X38620Y827992D01*
X38323Y828045D01*
X38000Y828083D01*
X37652Y828106D01*
X37277Y828114D01*
X36899Y828106D01*
X36547Y828085D01*
X36221Y828048D01*
X35923Y827997D01*
X35651Y827932D01*
X35407Y827852D01*
X35189Y827757D01*
X34998Y827648D01*
X34831Y827522D01*
X34687Y827376D01*
X34564Y827210D01*
X34464Y827024D01*
X34387Y826818D01*
X34331Y826593D01*
X34298Y826348D01*
X34287Y826083D01*
X34298Y825816D01*
X34332Y825568D01*
X34389Y825339D01*
X34468Y825129D01*
X34570Y824939D01*
X34694Y824767D01*
X34842Y824615D01*
X35012Y824482D01*
X35206Y824367D01*
X35425Y824266D01*
X35670Y824181D01*
X35941Y824112D01*
X36236Y824058D01*
X36558Y824019D01*
X36905Y823996D01*
X37277Y823989D01*
G37*
%LPD*%
G36*
X25833Y849552D02*
X15965Y849552D01*
X15965Y851310D01*
X22808Y853936D01*
X23694Y854206D01*
X24377Y854377D01*
X24024Y854464D01*
X23526Y854612D01*
X22808Y854854D01*
X15965Y857431D01*
X15965Y859147D01*
X25833Y859147D01*
X25833Y857942D01*
X19250Y857942D01*
X18178Y857958D01*
X17149Y858005D01*
X18266Y857680D01*
X19110Y857389D01*
X25833Y854839D01*
X25833Y853901D01*
X19110Y851317D01*
X17919Y850924D01*
X17149Y850693D01*
X17926Y850714D01*
X19250Y850742D01*
X25833Y850742D01*
X25833Y849552D01*
G37*
G36*
X25833Y897841D02*
X15965Y901868D01*
X15965Y903388D01*
X25833Y907352D01*
X25833Y905986D01*
X22948Y904858D01*
X22948Y900362D01*
X25833Y899227D01*
X25833Y897841D01*
G37*
%LPC*%
G36*
X21904Y900768D02*
X21904Y904459D01*
X18648Y903191D01*
X18133Y902995D01*
X17555Y902799D01*
X16974Y902610D01*
X17170Y902547D01*
X17833Y902330D01*
X18662Y902029D01*
X21904Y900768D01*
G37*
%LPD*%
G36*
X38958Y842609D02*
X38673Y842621D01*
X38404Y842658D01*
X38153Y842718D01*
X37918Y842803D01*
X37701Y842912D01*
X37501Y843045D01*
X37317Y843202D01*
X37151Y843383D01*
X37003Y843592D01*
X36873Y843830D01*
X36761Y844097D01*
X36668Y844394D01*
X36593Y844721D01*
X36537Y845078D01*
X36499Y845464D01*
X36479Y845880D01*
X36451Y847582D01*
X36038Y847582D01*
X35815Y847576D01*
X35608Y847558D01*
X35418Y847527D01*
X35245Y847484D01*
X35087Y847429D01*
X34946Y847361D01*
X34822Y847282D01*
X34714Y847190D01*
X34620Y847085D01*
X34539Y846966D01*
X34471Y846833D01*
X34415Y846686D01*
X34371Y846524D01*
X34340Y846349D01*
X34321Y846160D01*
X34315Y845957D01*
X34333Y845562D01*
X34387Y845225D01*
X34476Y844946D01*
X34602Y844724D01*
X34767Y844551D01*
X34975Y844416D01*
X35226Y844320D01*
X35519Y844262D01*
X35400Y842946D01*
X35153Y842995D01*
X34921Y843063D01*
X34705Y843151D01*
X34506Y843256D01*
X34322Y843381D01*
X34154Y843524D01*
X34002Y843686D01*
X33867Y843867D01*
X33747Y844066D01*
X33643Y844284D01*
X33555Y844521D01*
X33483Y844776D01*
X33427Y845050D01*
X33387Y845343D01*
X33363Y845655D01*
X33355Y845985D01*
X33365Y846331D01*
X33396Y846655D01*
X33447Y846957D01*
X33519Y847237D01*
X33611Y847495D01*
X33724Y847730D01*
X33857Y847944D01*
X34010Y848135D01*
X34183Y848304D01*
X34374Y848451D01*
X34583Y848575D01*
X34811Y848676D01*
X35057Y848755D01*
X35321Y848812D01*
X35604Y848845D01*
X35905Y848857D01*
X39168Y848857D01*
X39431Y848866D01*
X39660Y848893D01*
X39853Y848939D01*
X40012Y849004D01*
X40136Y849094D01*
X40225Y849217D01*
X40278Y849374D01*
X40296Y849564D01*
X40284Y849758D01*
X40247Y849977D01*
X41031Y849977D01*
X41080Y849738D01*
X41115Y849496D01*
X41136Y849251D01*
X41143Y849004D01*
X41120Y848677D01*
X41052Y848399D01*
X40937Y848168D01*
X40776Y847985D01*
X40566Y847843D01*
X40304Y847735D01*
X39990Y847662D01*
X39624Y847624D01*
X39624Y847582D01*
X40026Y847331D01*
X40365Y847059D01*
X40641Y846768D01*
X40853Y846458D01*
X41011Y846120D01*
X41123Y845748D01*
X41191Y845341D01*
X41213Y844900D01*
X41204Y844623D01*
X41176Y844364D01*
X41129Y844123D01*
X41063Y843900D01*
X40978Y843694D01*
X40875Y843506D01*
X40752Y843336D01*
X40611Y843184D01*
X40454Y843049D01*
X40282Y842932D01*
X40096Y842834D01*
X39897Y842753D01*
X39683Y842690D01*
X39456Y842645D01*
X39214Y842618D01*
X38958Y842609D01*
G37*
%LPC*%
G36*
X38979Y843905D02*
X39270Y843926D01*
X39526Y843988D01*
X39746Y844092D01*
X39932Y844238D01*
X40079Y844422D01*
X40184Y844641D01*
X40247Y844896D01*
X40268Y845187D01*
X40248Y845524D01*
X40189Y845842D01*
X40091Y846140D01*
X39953Y846419D01*
X39781Y846675D01*
X39579Y846902D01*
X39348Y847100D01*
X39088Y847270D01*
X38811Y847407D01*
X38530Y847504D01*
X38245Y847563D01*
X37957Y847582D01*
X37333Y847582D01*
X37361Y846202D01*
X37378Y845784D01*
X37414Y845420D01*
X37469Y845110D01*
X37543Y844854D01*
X37639Y844638D01*
X37757Y844449D01*
X37898Y844286D01*
X38062Y844150D01*
X38250Y844043D01*
X38466Y843966D01*
X38709Y843920D01*
X38979Y843905D01*
G37*
%LPD*%
G36*
X33495Y799109D02*
X33495Y800299D01*
X33684Y800313D01*
X34038Y800331D01*
X34791Y800355D01*
X34791Y800376D01*
X34419Y800587D01*
X34108Y800812D01*
X33859Y801053D01*
X33670Y801308D01*
X33533Y801585D01*
X33434Y801891D01*
X33375Y802226D01*
X33355Y802590D01*
X33377Y802998D01*
X33441Y803361D01*
X33548Y803679D01*
X33698Y803952D01*
X33895Y804183D01*
X34143Y804376D01*
X34442Y804532D01*
X34791Y804649D01*
X34791Y804670D01*
X34436Y804876D01*
X34134Y805103D01*
X33886Y805351D01*
X33691Y805619D01*
X33544Y805912D01*
X33439Y806234D01*
X33376Y806586D01*
X33355Y806967D01*
X33365Y807244D01*
X33394Y807502D01*
X33443Y807740D01*
X33511Y807959D01*
X33599Y808158D01*
X33706Y808337D01*
X33832Y808497D01*
X33979Y808637D01*
X34147Y808760D01*
X34340Y808866D01*
X34558Y808955D01*
X34802Y809029D01*
X35070Y809086D01*
X35363Y809127D01*
X35681Y809151D01*
X36024Y809159D01*
X41073Y809159D01*
X41073Y807913D01*
X36269Y807913D01*
X35761Y807894D01*
X35339Y807837D01*
X35160Y807795D01*
X35002Y807743D01*
X34865Y807682D01*
X34749Y807611D01*
X34650Y807529D01*
X34565Y807431D01*
X34493Y807318D01*
X34434Y807189D01*
X34388Y807046D01*
X34355Y806888D01*
X34335Y806714D01*
X34329Y806526D01*
X34338Y806325D01*
X34367Y806136D01*
X34415Y805958D01*
X34482Y805791D01*
X34568Y805636D01*
X34673Y805493D01*
X34798Y805361D01*
X34942Y805241D01*
X35103Y805133D01*
X35280Y805040D01*
X35474Y804961D01*
X35683Y804897D01*
X35909Y804846D01*
X36150Y804811D01*
X36408Y804789D01*
X36682Y804782D01*
X41073Y804782D01*
X41073Y803535D01*
X36269Y803535D01*
X35761Y803516D01*
X35339Y803460D01*
X35160Y803418D01*
X35002Y803366D01*
X34865Y803305D01*
X34749Y803234D01*
X34650Y803151D01*
X34565Y803053D01*
X34493Y802940D01*
X34434Y802812D01*
X34388Y802669D01*
X34355Y802510D01*
X34335Y802337D01*
X34329Y802148D01*
X34338Y801952D01*
X34367Y801767D01*
X34415Y801592D01*
X34483Y801427D01*
X34570Y801273D01*
X34675Y801129D01*
X34801Y800996D01*
X34945Y800874D01*
X35107Y800764D01*
X35285Y800668D01*
X35478Y800588D01*
X35687Y800522D01*
X35912Y800470D01*
X36153Y800434D01*
X36410Y800412D01*
X36682Y800404D01*
X41073Y800404D01*
X41073Y799151D01*
X35113Y799151D01*
X34047Y799140D01*
X33707Y799127D01*
X33495Y799109D01*
G37*
G36*
X21995Y789953D02*
X21540Y789967D01*
X21112Y790008D01*
X20711Y790077D01*
X20337Y790173D01*
X19991Y790296D01*
X19672Y790448D01*
X19381Y790626D01*
X19117Y790832D01*
X18882Y791064D01*
X18679Y791319D01*
X18506Y791597D01*
X18366Y791899D01*
X18256Y792225D01*
X18178Y792574D01*
X18131Y792947D01*
X18115Y793343D01*
X18131Y793747D01*
X18178Y794126D01*
X18257Y794478D01*
X18367Y794805D01*
X18509Y795105D01*
X18682Y795379D01*
X18886Y795627D01*
X19122Y795849D01*
X19389Y796044D01*
X19688Y796214D01*
X20019Y796357D01*
X20381Y796475D01*
X20774Y796566D01*
X21199Y796632D01*
X21655Y796671D01*
X22142Y796684D01*
X22311Y796684D01*
X22311Y791277D01*
X22627Y791285D01*
X22925Y791311D01*
X23204Y791353D01*
X23464Y791412D01*
X23706Y791487D01*
X23930Y791580D01*
X24134Y791690D01*
X24321Y791816D01*
X24486Y791959D01*
X24630Y792117D01*
X24752Y792290D01*
X24851Y792480D01*
X24928Y792684D01*
X24984Y792905D01*
X25017Y793141D01*
X25028Y793392D01*
X25007Y793781D01*
X24946Y794130D01*
X24843Y794438D01*
X24699Y794705D01*
X24523Y794932D01*
X24326Y795119D01*
X24107Y795267D01*
X23865Y795374D01*
X24181Y796481D01*
X24398Y796389D01*
X24601Y796284D01*
X24790Y796165D01*
X24965Y796033D01*
X25126Y795887D01*
X25273Y795728D01*
X25406Y795555D01*
X25525Y795369D01*
X25630Y795169D01*
X25721Y794956D01*
X25798Y794729D01*
X25861Y794488D01*
X25910Y794235D01*
X25945Y793967D01*
X25966Y793686D01*
X25973Y793392D01*
X25958Y792984D01*
X25911Y792602D01*
X25833Y792244D01*
X25723Y791912D01*
X25582Y791604D01*
X25410Y791322D01*
X25207Y791064D01*
X24972Y790832D01*
X24706Y790626D01*
X24410Y790448D01*
X24084Y790296D01*
X23727Y790173D01*
X23340Y790077D01*
X22922Y790008D01*
X22474Y789967D01*
X21995Y789953D01*
G37*
%LPC*%
G36*
X21344Y791291D02*
X21344Y795381D01*
X21055Y795349D01*
X20786Y795304D01*
X20537Y795246D01*
X20308Y795176D01*
X20100Y795094D01*
X19912Y794999D01*
X19744Y794892D01*
X19597Y794772D01*
X19468Y794639D01*
X19356Y794492D01*
X19262Y794331D01*
X19184Y794157D01*
X19124Y793969D01*
X19081Y793767D01*
X19055Y793551D01*
X19047Y793322D01*
X19056Y793098D01*
X19085Y792887D01*
X19133Y792687D01*
X19200Y792500D01*
X19286Y792324D01*
X19391Y792160D01*
X19516Y792009D01*
X19660Y791869D01*
X19820Y791742D01*
X19995Y791632D01*
X20184Y791536D01*
X20387Y791456D01*
X20605Y791392D01*
X20837Y791343D01*
X21083Y791309D01*
X21344Y791291D01*
G37*
%LPD*%
G36*
X37235Y790797D02*
X36780Y790811D01*
X36352Y790852D01*
X35951Y790920D01*
X35577Y791017D01*
X35231Y791140D01*
X34912Y791291D01*
X34621Y791470D01*
X34357Y791676D01*
X34122Y791907D01*
X33919Y792162D01*
X33746Y792441D01*
X33606Y792743D01*
X33496Y793069D01*
X33418Y793418D01*
X33371Y793790D01*
X33355Y794187D01*
X33371Y794591D01*
X33418Y794970D01*
X33497Y795322D01*
X33607Y795648D01*
X33749Y795948D01*
X33922Y796222D01*
X34126Y796470D01*
X34362Y796692D01*
X34629Y796888D01*
X34928Y797058D01*
X35259Y797201D01*
X35621Y797319D01*
X36014Y797410D01*
X36439Y797475D01*
X36895Y797514D01*
X37382Y797527D01*
X37551Y797527D01*
X37551Y792121D01*
X37867Y792129D01*
X38165Y792154D01*
X38444Y792196D01*
X38704Y792255D01*
X38946Y792331D01*
X39170Y792424D01*
X39374Y792533D01*
X39561Y792660D01*
X39726Y792802D01*
X39870Y792961D01*
X39992Y793134D01*
X40091Y793323D01*
X40168Y793528D01*
X40224Y793748D01*
X40257Y793984D01*
X40268Y794236D01*
X40247Y794625D01*
X40186Y794974D01*
X40083Y795282D01*
X39939Y795549D01*
X39763Y795776D01*
X39566Y795963D01*
X39347Y796110D01*
X39105Y796218D01*
X39421Y797324D01*
X39638Y797233D01*
X39841Y797127D01*
X40030Y797009D01*
X40205Y796877D01*
X40366Y796731D01*
X40513Y796572D01*
X40646Y796399D01*
X40765Y796213D01*
X40870Y796013D01*
X40961Y795799D01*
X41038Y795573D01*
X41101Y795332D01*
X41150Y795078D01*
X41185Y794811D01*
X41206Y794530D01*
X41213Y794236D01*
X41198Y793828D01*
X41151Y793445D01*
X41073Y793088D01*
X40963Y792755D01*
X40822Y792448D01*
X40650Y792165D01*
X40447Y791908D01*
X40212Y791676D01*
X39946Y791470D01*
X39650Y791291D01*
X39324Y791140D01*
X38967Y791017D01*
X38580Y790920D01*
X38162Y790852D01*
X37714Y790811D01*
X37235Y790797D01*
G37*
%LPC*%
G36*
X36584Y792135D02*
X36584Y796225D01*
X36295Y796192D01*
X36026Y796147D01*
X35777Y796090D01*
X35548Y796020D01*
X35340Y795937D01*
X35152Y795843D01*
X34984Y795735D01*
X34837Y795615D01*
X34708Y795482D01*
X34596Y795336D01*
X34502Y795175D01*
X34424Y795001D01*
X34364Y794813D01*
X34321Y794611D01*
X34295Y794395D01*
X34287Y794166D01*
X34296Y793942D01*
X34325Y793731D01*
X34373Y793531D01*
X34440Y793344D01*
X34526Y793168D01*
X34631Y793004D01*
X34756Y792852D01*
X34900Y792712D01*
X35060Y792586D01*
X35235Y792475D01*
X35424Y792380D01*
X35627Y792300D01*
X35845Y792236D01*
X36077Y792186D01*
X36323Y792153D01*
X36584Y792135D01*
G37*
%LPD*%
G36*
X25833Y869276D02*
X15440Y869276D01*
X15440Y870536D01*
X18143Y870536D01*
X19026Y870512D01*
X19551Y870480D01*
X19551Y870501D01*
X19205Y870715D01*
X18908Y870949D01*
X18660Y871203D01*
X18462Y871478D01*
X18310Y871783D01*
X18202Y872125D01*
X18137Y872506D01*
X18115Y872925D01*
X18125Y873223D01*
X18154Y873501D01*
X18201Y873758D01*
X18268Y873995D01*
X18355Y874213D01*
X18460Y874409D01*
X18584Y874586D01*
X18728Y874742D01*
X18894Y874879D01*
X19086Y874998D01*
X19304Y875099D01*
X19548Y875181D01*
X19818Y875245D01*
X20114Y875291D01*
X20436Y875318D01*
X20784Y875327D01*
X25833Y875327D01*
X25833Y874059D01*
X21029Y874059D01*
X20655Y874050D01*
X20333Y874023D01*
X20062Y873977D01*
X19842Y873912D01*
X19660Y873827D01*
X19505Y873718D01*
X19375Y873585D01*
X19271Y873429D01*
X19191Y873245D01*
X19134Y873028D01*
X19100Y872779D01*
X19089Y872498D01*
X19098Y872281D01*
X19127Y872075D01*
X19175Y871880D01*
X19243Y871696D01*
X19330Y871524D01*
X19435Y871362D01*
X19561Y871212D01*
X19705Y871072D01*
X19866Y870947D01*
X20040Y870838D01*
X20227Y870746D01*
X20428Y870670D01*
X20642Y870612D01*
X20870Y870570D01*
X21111Y870545D01*
X21365Y870536D01*
X25833Y870536D01*
X25833Y869276D01*
G37*
G36*
X41073Y783967D02*
X30680Y783967D01*
X30680Y785227D01*
X37172Y785227D01*
X33495Y788554D01*
X33495Y790032D01*
X36752Y786957D01*
X41073Y790193D01*
X41073Y788715D01*
X37614Y786152D01*
X38377Y785227D01*
X41073Y785227D01*
X41073Y783967D01*
G37*
G36*
X18255Y837223D02*
X18255Y838567D01*
X22444Y840164D01*
X22678Y840248D01*
X23592Y840563D01*
X24461Y840850D01*
X23081Y841341D01*
X18255Y843001D01*
X18255Y844331D01*
X25833Y841418D01*
X26400Y841187D01*
X26890Y840964D01*
X27302Y840749D01*
X27637Y840542D01*
X27914Y840334D01*
X28153Y840114D01*
X28355Y839884D01*
X28519Y839642D01*
X28646Y839387D01*
X28737Y839116D01*
X28792Y838829D01*
X28810Y838525D01*
X28791Y838049D01*
X28733Y837657D01*
X27787Y837657D01*
X27819Y837937D01*
X27829Y838245D01*
X27823Y838390D01*
X27802Y838532D01*
X27721Y838803D01*
X27586Y839059D01*
X27397Y839299D01*
X27154Y839524D01*
X26856Y839734D01*
X26505Y839929D01*
X26100Y840108D01*
X25798Y840227D01*
X18255Y837223D01*
G37*
G36*
X18255Y816609D02*
X18255Y817799D01*
X18444Y817813D01*
X18798Y817831D01*
X19551Y817855D01*
X19551Y817876D01*
X19187Y818102D01*
X18881Y818345D01*
X18632Y818605D01*
X18441Y818881D01*
X18298Y819184D01*
X18197Y819521D01*
X18136Y819893D01*
X18115Y820300D01*
X18125Y820601D01*
X18154Y820881D01*
X18202Y821141D01*
X18270Y821379D01*
X18357Y821597D01*
X18464Y821794D01*
X18590Y821969D01*
X18735Y822124D01*
X18903Y822260D01*
X19096Y822377D01*
X19314Y822476D01*
X19557Y822558D01*
X19826Y822621D01*
X20120Y822666D01*
X20439Y822693D01*
X20784Y822702D01*
X25833Y822702D01*
X25833Y821434D01*
X21029Y821434D01*
X20675Y821425D01*
X20363Y821398D01*
X20094Y821352D01*
X19866Y821287D01*
X19674Y821203D01*
X19511Y821096D01*
X19376Y820968D01*
X19271Y820818D01*
X19191Y820638D01*
X19134Y820421D01*
X19100Y820165D01*
X19089Y819873D01*
X19099Y819651D01*
X19128Y819441D01*
X19176Y819244D01*
X19245Y819058D01*
X19332Y818885D01*
X19439Y818723D01*
X19566Y818574D01*
X19712Y818437D01*
X19875Y818314D01*
X20054Y818207D01*
X20248Y818117D01*
X20456Y818043D01*
X20680Y817985D01*
X20919Y817944D01*
X21173Y817920D01*
X21442Y817911D01*
X25833Y817911D01*
X25833Y816651D01*
X19873Y816651D01*
X18807Y816640D01*
X18467Y816627D01*
X18255Y816609D01*
G37*
G36*
X18255Y887578D02*
X18255Y888768D01*
X18444Y888782D01*
X18798Y888800D01*
X19551Y888824D01*
X19551Y888845D01*
X19187Y889071D01*
X18881Y889314D01*
X18632Y889573D01*
X18441Y889850D01*
X18298Y890153D01*
X18197Y890490D01*
X18136Y890862D01*
X18115Y891269D01*
X18125Y891570D01*
X18154Y891850D01*
X18202Y892109D01*
X18270Y892348D01*
X18357Y892566D01*
X18464Y892762D01*
X18590Y892938D01*
X18735Y893093D01*
X18903Y893228D01*
X19096Y893346D01*
X19314Y893445D01*
X19557Y893526D01*
X19826Y893590D01*
X20120Y893635D01*
X20439Y893662D01*
X20784Y893671D01*
X25833Y893671D01*
X25833Y892403D01*
X21029Y892403D01*
X20675Y892394D01*
X20363Y892366D01*
X20094Y892320D01*
X19866Y892256D01*
X19674Y892172D01*
X19511Y892065D01*
X19376Y891937D01*
X19271Y891787D01*
X19191Y891607D01*
X19134Y891389D01*
X19100Y891134D01*
X19089Y890841D01*
X19099Y890620D01*
X19128Y890410D01*
X19176Y890213D01*
X19245Y890027D01*
X19332Y889854D01*
X19439Y889692D01*
X19566Y889543D01*
X19712Y889406D01*
X19875Y889282D01*
X20054Y889176D01*
X20248Y889085D01*
X20456Y889012D01*
X20680Y888954D01*
X20919Y888913D01*
X21173Y888888D01*
X21442Y888880D01*
X25833Y888880D01*
X25833Y887620D01*
X19873Y887620D01*
X18807Y887609D01*
X18467Y887596D01*
X18255Y887578D01*
G37*
G36*
X24054Y797712D02*
X23837Y798825D01*
X24122Y798927D01*
X24365Y799072D01*
X24568Y799260D01*
X24730Y799491D01*
X24854Y799767D01*
X24943Y800093D01*
X24996Y800468D01*
X25014Y800891D01*
X24996Y801339D01*
X24940Y801722D01*
X24848Y802041D01*
X24720Y802296D01*
X24554Y802490D01*
X24458Y802567D01*
X24352Y802629D01*
X24237Y802678D01*
X24113Y802713D01*
X23980Y802733D01*
X23837Y802740D01*
X23624Y802721D01*
X23431Y802663D01*
X23260Y802567D01*
X23109Y802432D01*
X22975Y802255D01*
X22853Y802030D01*
X22744Y801757D01*
X22647Y801438D01*
X22409Y800534D01*
X22269Y800031D01*
X22131Y799605D01*
X21994Y799258D01*
X21859Y798990D01*
X21717Y798773D01*
X21560Y798581D01*
X21389Y798414D01*
X21204Y798272D01*
X21000Y798159D01*
X20775Y798078D01*
X20528Y798029D01*
X20258Y798013D01*
X20007Y798024D01*
X19771Y798059D01*
X19550Y798117D01*
X19345Y798198D01*
X19156Y798302D01*
X18981Y798429D01*
X18822Y798579D01*
X18679Y798752D01*
X18552Y798947D01*
X18442Y799163D01*
X18348Y799401D01*
X18272Y799660D01*
X18213Y799939D01*
X18170Y800240D01*
X18145Y800562D01*
X18136Y800905D01*
X18143Y801211D01*
X18164Y801500D01*
X18198Y801773D01*
X18247Y802030D01*
X18309Y802271D01*
X18384Y802496D01*
X18474Y802705D01*
X18577Y802898D01*
X18696Y803074D01*
X18831Y803234D01*
X18983Y803376D01*
X19152Y803501D01*
X19337Y803610D01*
X19539Y803701D01*
X19757Y803776D01*
X19992Y803833D01*
X20132Y802698D01*
X19895Y802624D01*
X19687Y802505D01*
X19508Y802342D01*
X19358Y802135D01*
X19240Y801886D01*
X19156Y801598D01*
X19106Y801271D01*
X19089Y800905D01*
X19105Y800506D01*
X19154Y800163D01*
X19235Y799876D01*
X19348Y799645D01*
X19494Y799467D01*
X19674Y799340D01*
X19886Y799264D01*
X20005Y799245D01*
X20132Y799239D01*
X20286Y799249D01*
X20426Y799281D01*
X20553Y799333D01*
X20665Y799407D01*
X20766Y799501D01*
X20859Y799615D01*
X20944Y799749D01*
X21022Y799904D01*
X21102Y800114D01*
X21197Y800415D01*
X21428Y801291D01*
X21671Y802152D01*
X21785Y802478D01*
X21894Y802733D01*
X22003Y802942D01*
X22119Y803128D01*
X22240Y803291D01*
X22367Y803430D01*
X22501Y803551D01*
X22646Y803657D01*
X22801Y803749D01*
X22965Y803826D01*
X23141Y803887D01*
X23329Y803931D01*
X23528Y803957D01*
X23739Y803966D01*
X24000Y803953D01*
X24244Y803916D01*
X24474Y803852D01*
X24688Y803764D01*
X24887Y803650D01*
X25071Y803511D01*
X25239Y803347D01*
X25392Y803157D01*
X25528Y802945D01*
X25646Y802712D01*
X25746Y802459D01*
X25828Y802186D01*
X25892Y801893D01*
X25937Y801579D01*
X25964Y801246D01*
X25973Y800891D01*
X25966Y800548D01*
X25944Y800225D01*
X25908Y799921D01*
X25857Y799639D01*
X25792Y799376D01*
X25711Y799134D01*
X25617Y798912D01*
X25508Y798710D01*
X25383Y798526D01*
X25242Y798360D01*
X25085Y798210D01*
X24912Y798077D01*
X24722Y797960D01*
X24516Y797861D01*
X24293Y797778D01*
X24054Y797712D01*
G37*
G36*
X24054Y876649D02*
X23837Y877763D01*
X24122Y877865D01*
X24365Y878010D01*
X24568Y878197D01*
X24730Y878428D01*
X24854Y878705D01*
X24943Y879031D01*
X24996Y879405D01*
X25014Y879829D01*
X24996Y880277D01*
X24940Y880660D01*
X24848Y880979D01*
X24720Y881233D01*
X24554Y881428D01*
X24458Y881504D01*
X24352Y881567D01*
X24237Y881615D01*
X24113Y881650D01*
X23980Y881671D01*
X23837Y881678D01*
X23624Y881659D01*
X23431Y881601D01*
X23260Y881505D01*
X23109Y881370D01*
X22975Y881192D01*
X22853Y880967D01*
X22744Y880695D01*
X22647Y880375D01*
X22409Y879472D01*
X22269Y878968D01*
X22131Y878543D01*
X21994Y878196D01*
X21859Y877927D01*
X21717Y877711D01*
X21560Y877519D01*
X21389Y877352D01*
X21204Y877210D01*
X21000Y877096D01*
X20775Y877015D01*
X20528Y876967D01*
X20258Y876950D01*
X20007Y876962D01*
X19771Y876997D01*
X19550Y877054D01*
X19345Y877135D01*
X19156Y877239D01*
X18981Y877366D01*
X18822Y877516D01*
X18679Y877689D01*
X18552Y877885D01*
X18442Y878101D01*
X18348Y878338D01*
X18272Y878597D01*
X18213Y878877D01*
X18170Y879178D01*
X18145Y879500D01*
X18136Y879843D01*
X18143Y880148D01*
X18164Y880438D01*
X18198Y880711D01*
X18247Y880968D01*
X18309Y881209D01*
X18384Y881434D01*
X18474Y881643D01*
X18577Y881836D01*
X18696Y882012D01*
X18831Y882171D01*
X18983Y882313D01*
X19152Y882439D01*
X19337Y882547D01*
X19539Y882639D01*
X19757Y882713D01*
X19992Y882771D01*
X20132Y881636D01*
X19895Y881561D01*
X19687Y881442D01*
X19508Y881279D01*
X19358Y881072D01*
X19240Y880823D01*
X19156Y880535D01*
X19106Y880209D01*
X19089Y879843D01*
X19105Y879444D01*
X19154Y879101D01*
X19235Y878813D01*
X19348Y878582D01*
X19494Y878405D01*
X19674Y878278D01*
X19886Y878201D01*
X20005Y878182D01*
X20132Y878176D01*
X20286Y878187D01*
X20426Y878218D01*
X20553Y878271D01*
X20665Y878344D01*
X20766Y878438D01*
X20859Y878552D01*
X20944Y878687D01*
X21022Y878841D01*
X21102Y879052D01*
X21197Y879353D01*
X21428Y880228D01*
X21671Y881090D01*
X21785Y881415D01*
X21894Y881671D01*
X22003Y881880D01*
X22119Y882066D01*
X22240Y882228D01*
X22367Y882368D01*
X22501Y882488D01*
X22646Y882595D01*
X22801Y882686D01*
X22965Y882764D01*
X23141Y882825D01*
X23329Y882869D01*
X23528Y882895D01*
X23739Y882904D01*
X24000Y882891D01*
X24244Y882853D01*
X24474Y882790D01*
X24688Y882701D01*
X24887Y882588D01*
X25071Y882449D01*
X25239Y882284D01*
X25392Y882095D01*
X25528Y881882D01*
X25646Y881650D01*
X25746Y881397D01*
X25828Y881124D01*
X25892Y880830D01*
X25937Y880517D01*
X25964Y880183D01*
X25973Y879829D01*
X25966Y879485D01*
X25944Y879162D01*
X25908Y878859D01*
X25857Y878576D01*
X25792Y878314D01*
X25711Y878071D01*
X25617Y877849D01*
X25508Y877647D01*
X25383Y877464D01*
X25242Y877297D01*
X25085Y877147D01*
X24912Y877014D01*
X24722Y876898D01*
X24516Y876798D01*
X24293Y876715D01*
X24054Y876649D01*
G37*
G36*
X41073Y835208D02*
X31205Y835208D01*
X31205Y836546D01*
X39981Y836546D01*
X39981Y841532D01*
X41073Y841532D01*
X41073Y835208D01*
G37*
G36*
X34413Y818280D02*
X33495Y818280D01*
X33495Y819204D01*
X31800Y819575D01*
X31800Y820416D01*
X33495Y820416D01*
X33495Y821817D01*
X34413Y821817D01*
X34413Y820416D01*
X39196Y820416D01*
X39449Y820427D01*
X39661Y820460D01*
X39833Y820516D01*
X39963Y820594D01*
X40060Y820700D01*
X40129Y820839D01*
X40170Y821010D01*
X40184Y821214D01*
X40159Y821522D01*
X40086Y821943D01*
X41017Y821943D01*
X41091Y821629D01*
X41143Y821312D01*
X41175Y820992D01*
X41185Y820668D01*
X41179Y820485D01*
X41159Y820313D01*
X41125Y820154D01*
X41078Y820006D01*
X41018Y819870D01*
X40944Y819746D01*
X40857Y819634D01*
X40756Y819533D01*
X40643Y819445D01*
X40515Y819368D01*
X40374Y819303D01*
X40220Y819250D01*
X40053Y819208D01*
X39872Y819179D01*
X39677Y819161D01*
X39470Y819155D01*
X34413Y819155D01*
X34413Y818280D01*
G37*
G36*
X41073Y780324D02*
X31205Y780324D01*
X31205Y781661D01*
X41073Y781661D01*
X41073Y780324D01*
G37*
G36*
X25833Y908342D02*
X15440Y908342D01*
X15440Y909602D01*
X25833Y909602D01*
X25833Y908342D01*
G37*
G36*
X25833Y805460D02*
X18255Y805460D01*
X18255Y806720D01*
X25833Y806720D01*
X25833Y805460D01*
G37*
G36*
X25833Y884397D02*
X18255Y884397D01*
X18255Y885658D01*
X25833Y885658D01*
X25833Y884397D01*
G37*
G36*
X25833Y911522D02*
X18255Y911522D01*
X18255Y912783D01*
X25833Y912783D01*
X25833Y911522D01*
G37*
G36*
X16644Y805460D02*
X15440Y805460D01*
X15440Y806720D01*
X16644Y806720D01*
X16644Y805460D01*
G37*
G36*
X16644Y884397D02*
X15440Y884397D01*
X15440Y885658D01*
X16644Y885658D01*
X16644Y884397D01*
G37*
G36*
X16644Y911522D02*
X15440Y911522D01*
X15440Y912783D01*
X16644Y912783D01*
X16644Y911522D01*
G37*
D10*
X262300Y942073D03*
X252300Y942073D03*
X242300Y942073D03*
X232300Y942073D03*
X222300Y942073D03*
X212300Y942073D03*
X202300Y942073D03*
X192300Y942073D03*
X182300Y942073D03*
X172300Y942073D03*
X162300Y942073D03*
X152300Y942073D03*
X142300Y942073D03*
X132300Y942073D03*
X122300Y942073D03*
X112300Y942073D03*
X102300Y942073D03*
X92300Y942073D03*
X82300Y942073D03*
X72300Y942073D03*
D11*
X275300Y980823D03*
X59300Y980823D03*
D12*
X83700Y730700D03*
X83700Y756100D03*
X109100Y730700D03*
X109100Y756100D03*
X134500Y730700D03*
X134500Y756100D03*
X159900Y730700D03*
X159900Y756100D03*
X185300Y730700D03*
X185300Y756100D03*
X210700Y730700D03*
X210700Y756100D03*
X236100Y730700D03*
X236100Y756100D03*
X261500Y730700D03*
X261500Y756100D03*
X286900Y730700D03*
X286900Y756100D03*
X312300Y730700D03*
X312300Y756100D03*
X337700Y730700D03*
X337700Y756100D03*
X363100Y730700D03*
X363100Y756100D03*
X388500Y730700D03*
X388500Y756100D03*
X413900Y730700D03*
X413900Y756100D03*
X439300Y730700D03*
X439300Y756100D03*
X464700Y730700D03*
X464700Y756100D03*
X490100Y730700D03*
X490100Y756100D03*
X515500Y730700D03*
X515500Y756100D03*
X540900Y730700D03*
X540900Y756100D03*
X566300Y730700D03*
X566300Y756100D03*
D13*
X600825Y917700D03*
X610975Y917700D03*
X563825Y826300D03*
X573975Y826300D03*
X333925Y874700D03*
X344075Y874700D03*
X370525Y873900D03*
X380675Y873900D03*
X406725Y872900D03*
X416875Y872900D03*
X447925Y871900D03*
X458075Y871900D03*
X560725Y919700D03*
X570875Y919700D03*
X487125Y872900D03*
X497275Y872900D03*
X525325Y872900D03*
X535475Y872900D03*
X562525Y871900D03*
X572675Y871900D03*
X603725Y872900D03*
X613875Y872900D03*
X334925Y826900D03*
X345075Y826900D03*
X371125Y826900D03*
X381275Y826900D03*
X408325Y825900D03*
X418475Y825900D03*
X445525Y826900D03*
X455675Y826900D03*
X482525Y826700D03*
X492675Y826700D03*
X523625Y917700D03*
X533775Y917700D03*
X520725Y825700D03*
X530875Y825700D03*
X487525Y917700D03*
X497675Y917700D03*
X445425Y917700D03*
X455575Y917700D03*
X405325Y917700D03*
X415475Y917700D03*
X366225Y917700D03*
X376375Y917700D03*
X329125Y916700D03*
X339275Y916700D03*
X603025Y826700D03*
X613175Y826700D03*
D14*
X358140Y915924D02*
X339852Y915924D01*
X358140Y915924D02*
X362712Y911352D01*
X370332Y911352D01*
X376428Y917448D01*
X339852Y915924D02*
X339275Y916700D01*
X416052Y917448D02*
X416052Y911352D01*
X416052Y877824D01*
X416052Y873252D01*
X416875Y872900D01*
X416052Y917448D02*
X415475Y917700D01*
X452628Y877824D02*
X454152Y876300D01*
X457200Y873252D01*
X452628Y877824D02*
X416052Y877824D01*
X457200Y873252D02*
X458075Y871900D01*
X454152Y876300D02*
X454152Y917448D01*
X455575Y917700D01*
X394716Y917448D02*
X376428Y917448D01*
X394716Y917448D02*
X400812Y911352D01*
X416052Y911352D01*
X376428Y917448D02*
X376375Y917700D01*
X574548Y826008D02*
X579120Y826008D01*
X585216Y819912D01*
X606552Y819912D01*
X612648Y826008D01*
X574548Y826008D02*
X573975Y826300D01*
X612648Y826008D02*
X613175Y826700D01*
X513588Y917448D02*
X498348Y917448D01*
X513588Y917448D02*
X519684Y911352D01*
X527304Y911352D01*
X533400Y917448D01*
X498348Y917448D02*
X497675Y917700D01*
X533400Y917448D02*
X533775Y917700D01*
X606552Y914400D02*
X609600Y917448D01*
X606552Y914400D02*
X606552Y912876D01*
X605028Y911352D01*
X579120Y911352D01*
X571500Y918972D01*
X609600Y917448D02*
X610975Y917700D01*
X571500Y918972D02*
X570875Y919700D01*
X550164Y918972D02*
X534924Y918972D01*
X550164Y918972D02*
X557784Y926592D01*
X563880Y926592D01*
X569976Y920496D01*
X534924Y918972D02*
X533775Y917700D01*
X569976Y920496D02*
X570875Y919700D01*
X614172Y862584D02*
X614172Y827532D01*
X614172Y862584D02*
X620268Y868680D01*
X620268Y896112D01*
X605028Y911352D01*
X614172Y827532D02*
X613175Y826700D01*
X478536Y918972D02*
X455676Y918972D01*
X478536Y918972D02*
X483108Y923544D01*
X492252Y923544D01*
X496824Y918972D01*
X455676Y918972D02*
X455575Y917700D01*
X496824Y918972D02*
X497675Y917700D01*
X493776Y879348D02*
X487680Y873252D01*
X493776Y879348D02*
X518160Y879348D01*
X524256Y873252D01*
X487680Y873252D02*
X487125Y872900D01*
X524256Y873252D02*
X525325Y872900D01*
X545592Y873252D02*
X562356Y873252D01*
X545592Y873252D02*
X539496Y879348D01*
X531876Y879348D01*
X525780Y873252D01*
X562356Y873252D02*
X562525Y871900D01*
X525780Y873252D02*
X525325Y872900D01*
X582168Y871728D02*
X603504Y871728D01*
X582168Y871728D02*
X576072Y865632D01*
X568452Y865632D01*
X562356Y871728D01*
X603504Y871728D02*
X603725Y872900D01*
X562525Y871900D02*
X562356Y871728D01*
X519684Y824484D02*
X499872Y824484D01*
X495300Y819912D01*
X489204Y819912D01*
X483108Y826008D01*
X519684Y824484D02*
X520725Y825700D01*
X483108Y826008D02*
X482525Y826700D01*
X414528Y832104D02*
X408432Y826008D01*
X414528Y832104D02*
X440436Y832104D01*
X445008Y827532D01*
X408432Y826008D02*
X408325Y825900D01*
X445008Y827532D02*
X445525Y826900D01*
X382524Y838200D02*
X371856Y827532D01*
X382524Y838200D02*
X394716Y838200D01*
X406908Y826008D01*
X371856Y827532D02*
X371125Y826900D01*
X406908Y826008D02*
X408325Y825900D01*
X464820Y827532D02*
X475488Y827532D01*
X481584Y827532D01*
X464820Y827532D02*
X458724Y833628D01*
X452628Y833628D01*
X446532Y827532D01*
X481584Y827532D02*
X482525Y826700D01*
X446532Y827532D02*
X445525Y826900D01*
X475488Y861060D02*
X486156Y871728D01*
X475488Y861060D02*
X475488Y827532D01*
X486156Y871728D02*
X487125Y872900D01*
X338328Y877824D02*
X335280Y874776D01*
X338328Y877824D02*
X338328Y879348D01*
X339852Y880872D01*
X364236Y880872D01*
X370332Y874776D01*
X335280Y874776D02*
X333925Y874700D01*
X370332Y874776D02*
X370525Y873900D01*
X333756Y826008D02*
X266700Y826008D01*
X333756Y826008D02*
X334925Y826900D01*
X333756Y874776D02*
X274320Y874776D01*
X239268Y909828D01*
X333756Y874776D02*
X333925Y874700D01*
X358140Y826008D02*
X370332Y826008D01*
X358140Y826008D02*
X350520Y818388D01*
X370332Y826008D02*
X371125Y826900D01*
D15*
X266700Y826008D03*
X239268Y909828D03*
X350520Y818388D03*
D14*
X582168Y918972D02*
X600456Y918972D01*
X582168Y918972D02*
X545592Y955548D01*
X266700Y955548D01*
X248412Y973836D01*
X99060Y973836D01*
X73152Y947928D01*
X73152Y943356D01*
X600456Y918972D02*
X600825Y917700D01*
X73152Y943356D02*
X72300Y942073D01*
X108204Y737616D02*
X108204Y731520D01*
X108204Y737616D02*
X94488Y751332D01*
X94488Y914400D01*
X73152Y935736D01*
X73152Y941832D01*
X108204Y731520D02*
X109100Y730700D01*
X73152Y941832D02*
X72300Y942073D01*
X553212Y912876D02*
X559308Y918972D01*
X91440Y955548D02*
X83820Y947928D01*
X83820Y943356D01*
X559308Y918972D02*
X560725Y919700D01*
X83820Y943356D02*
X82300Y942073D01*
X123444Y731520D02*
X134112Y731520D01*
X123444Y731520D02*
X109728Y745236D01*
X105156Y745236D01*
X97536Y752856D01*
X97536Y920496D01*
X83820Y934212D01*
X83820Y941832D01*
X134112Y731520D02*
X134500Y730700D01*
X83820Y941832D02*
X82300Y942073D01*
D15*
X553212Y912876D03*
X91440Y955548D03*
D14*
X563880Y816864D02*
X563880Y777240D01*
X563880Y816864D02*
X563880Y826008D01*
X563880Y777240D02*
X580644Y760476D01*
X580644Y729996D01*
X569976Y719328D01*
X501396Y719328D01*
X490728Y729996D01*
X563880Y826008D02*
X563825Y826300D01*
X490100Y730700D02*
X490728Y729996D01*
X233172Y943356D02*
X233172Y947928D01*
X246888Y961644D01*
X350520Y961644D02*
X577596Y961644D01*
X623316Y915924D01*
X623316Y827532D01*
X612648Y816864D01*
X563880Y816864D01*
X233172Y943356D02*
X232300Y942073D01*
D15*
X246888Y961644D03*
X350520Y961644D03*
D14*
X391668Y873252D02*
X405384Y873252D01*
X391668Y873252D02*
X355092Y909828D01*
X248412Y909828D01*
X242316Y915924D01*
X242316Y941832D01*
X405384Y873252D02*
X406725Y872900D01*
X242316Y941832D02*
X242300Y942073D01*
X406908Y871728D02*
X437388Y841248D01*
X406908Y871728D02*
X406725Y872900D01*
D15*
X437388Y841248D03*
D14*
X448056Y867156D02*
X448056Y871728D01*
X448056Y867156D02*
X452628Y862584D01*
X448056Y871728D02*
X447925Y871900D01*
X310896Y941832D02*
X263652Y941832D01*
X262300Y942073D01*
D15*
X452628Y862584D03*
X310896Y941832D03*
D14*
X492252Y949452D02*
X522732Y918972D01*
X100584Y955548D02*
X92964Y947928D01*
X92964Y943356D01*
X522732Y918972D02*
X523625Y917700D01*
X92964Y943356D02*
X92300Y942073D01*
X121920Y749808D02*
X121920Y745236D01*
X121920Y749808D02*
X120396Y751332D01*
X120396Y758952D01*
X100584Y778764D01*
X100584Y922020D01*
X92964Y929640D01*
X92964Y941832D01*
X92300Y942073D01*
D15*
X492252Y949452D03*
X100584Y955548D03*
X121920Y745236D03*
D14*
X487680Y888492D02*
X487680Y917448D01*
X487525Y917700D01*
X103632Y928116D02*
X103632Y941832D01*
X102300Y942073D01*
D15*
X487680Y888492D03*
X103632Y928116D03*
D14*
X423672Y918972D02*
X445008Y918972D01*
X143256Y967740D02*
X123444Y947928D01*
X123444Y943356D01*
X445008Y918972D02*
X445425Y917700D01*
X123444Y943356D02*
X122300Y942073D01*
D15*
X423672Y918972D03*
X143256Y967740D03*
D14*
X397764Y918972D02*
X403860Y918972D01*
X397764Y918972D02*
X364236Y952500D01*
X265176Y952500D01*
X249936Y967740D01*
X153924Y967740D01*
X132588Y946404D01*
X132588Y943356D01*
X403860Y918972D02*
X405325Y917700D01*
X132588Y943356D02*
X132300Y942073D01*
X249936Y729996D02*
X260604Y729996D01*
X249936Y729996D02*
X239268Y719328D01*
X156972Y719328D01*
X144780Y731520D01*
X144780Y734568D01*
X134112Y745236D01*
X131064Y745236D01*
X123444Y752856D01*
X123444Y928116D01*
X131064Y935736D01*
X131064Y941832D01*
X261500Y730700D02*
X260604Y729996D01*
X132300Y942073D02*
X131064Y941832D01*
X352044Y918972D02*
X365760Y918972D01*
X352044Y918972D02*
X347472Y923544D01*
X190500Y955548D02*
X182880Y947928D01*
X182880Y943356D01*
X365760Y918972D02*
X366225Y917700D01*
X182880Y943356D02*
X182300Y942073D01*
D15*
X347472Y923544D03*
X190500Y955548D03*
D14*
X249936Y917448D02*
X327660Y917448D01*
X207264Y928116D02*
X207264Y932688D01*
X202692Y937260D01*
X202692Y941832D01*
X327660Y917448D02*
X329125Y916700D01*
X202692Y941832D02*
X202300Y942073D01*
X324612Y758952D02*
X324612Y749808D01*
X324612Y758952D02*
X239268Y844296D01*
X237744Y844296D01*
D15*
X249936Y917448D03*
X207264Y928116D03*
X324612Y749808D03*
X237744Y844296D03*
D14*
X582168Y827532D02*
X601980Y827532D01*
X582168Y827532D02*
X577596Y832104D01*
X559308Y832104D01*
X557784Y830580D01*
X557784Y778764D01*
X577596Y758952D01*
X577596Y752856D01*
X565404Y740664D01*
X473964Y740664D01*
X464820Y731520D01*
X601980Y827532D02*
X603025Y826700D01*
X464820Y731520D02*
X464700Y730700D01*
X213360Y917448D02*
X213360Y941832D01*
X213360Y917448D02*
X271272Y859536D01*
X390144Y822960D02*
X390144Y803148D01*
X400812Y792480D01*
X400812Y749808D01*
X409956Y740664D01*
X454152Y740664D01*
X463296Y731520D01*
X213360Y941832D02*
X212300Y942073D01*
X463296Y731520D02*
X464700Y730700D01*
D15*
X271272Y859536D03*
X390144Y822960D03*
D14*
X379476Y865632D02*
X379476Y873252D01*
X379476Y865632D02*
X364236Y850392D01*
X222504Y850392D01*
X160020Y787908D01*
X160020Y757428D01*
X379476Y873252D02*
X380675Y873900D01*
X160020Y757428D02*
X159900Y756100D01*
X481584Y856488D02*
X496824Y871728D01*
X214884Y812292D02*
X214884Y786384D01*
X185928Y757428D01*
X496824Y871728D02*
X497275Y872900D01*
X185928Y757428D02*
X185300Y756100D01*
D15*
X481584Y856488D03*
X214884Y812292D03*
D14*
X510540Y847344D02*
X534924Y871728D01*
X510540Y847344D02*
X481584Y847344D01*
X534924Y871728D02*
X535475Y872900D01*
X111252Y941832D02*
X111252Y777240D01*
X111252Y941832D02*
X112300Y942073D01*
D15*
X481584Y847344D03*
X111252Y777240D03*
D14*
X562356Y882396D02*
X571500Y873252D01*
X562356Y882396D02*
X481584Y882396D01*
X455676Y856488D01*
X437388Y856488D01*
X425196Y868680D01*
X150876Y955548D02*
X143256Y947928D01*
X143256Y943356D01*
X571500Y873252D02*
X572675Y871900D01*
X143256Y943356D02*
X142300Y942073D01*
X260604Y775716D02*
X260604Y757428D01*
X260604Y775716D02*
X214884Y821436D01*
X211836Y821436D01*
X207264Y826008D01*
X260604Y757428D02*
X261500Y756100D01*
D15*
X425196Y868680D03*
X150876Y955548D03*
X207264Y826008D03*
D14*
X576072Y835152D02*
X612648Y871728D01*
X576072Y835152D02*
X487680Y835152D01*
X612648Y871728D02*
X613875Y872900D01*
X152400Y891540D02*
X152400Y941832D01*
X216408Y827532D02*
X286512Y757428D01*
X152400Y941832D02*
X152300Y942073D01*
X286512Y757428D02*
X286900Y756100D01*
D15*
X487680Y835152D03*
X152400Y891540D03*
X216408Y827532D03*
D14*
X344424Y826008D02*
X344424Y763524D01*
X338328Y757428D01*
X344424Y826008D02*
X345075Y826900D01*
X338328Y757428D02*
X337700Y756100D01*
X163068Y931164D02*
X163068Y941832D01*
X163068Y931164D02*
X166116Y928116D01*
X381000Y862584D02*
X385572Y862584D01*
X381000Y862584D02*
X345948Y827532D01*
X163068Y941832D02*
X162300Y942073D01*
X345075Y826900D02*
X345948Y827532D01*
D15*
X166116Y928116D03*
X385572Y862584D03*
D14*
X382524Y826008D02*
X382524Y806196D01*
X393192Y795528D01*
X393192Y762000D01*
X388620Y757428D01*
X382524Y826008D02*
X381275Y826900D01*
X388620Y757428D02*
X388500Y756100D01*
X172212Y809244D02*
X172212Y941832D01*
X172212Y809244D02*
X146304Y783336D01*
X146304Y749808D01*
X155448Y740664D01*
X371856Y740664D01*
X374904Y737616D01*
X381000Y737616D01*
X387096Y743712D01*
X387096Y755904D01*
X172212Y941832D02*
X172300Y942073D01*
X387096Y755904D02*
X388500Y756100D01*
X417576Y760476D02*
X417576Y824484D01*
X417576Y760476D02*
X414528Y757428D01*
X417576Y824484D02*
X418475Y825900D01*
X414528Y757428D02*
X413900Y756100D01*
X192024Y824484D02*
X192024Y941832D01*
X192024Y824484D02*
X149352Y781812D01*
X149352Y751332D01*
X156972Y743712D01*
X377952Y743712D01*
X192300Y942073D02*
X192024Y941832D01*
D15*
X377952Y743712D03*
D14*
X455676Y765048D02*
X455676Y826008D01*
X455676Y765048D02*
X463296Y757428D01*
X455676Y826008D02*
X455675Y826900D01*
X463296Y757428D02*
X464700Y756100D01*
X222504Y917448D02*
X222504Y941832D01*
X222504Y917448D02*
X283464Y856488D01*
X373380Y806196D02*
X387096Y792480D01*
X222504Y941832D02*
X222300Y942073D01*
D15*
X283464Y856488D03*
X373380Y806196D03*
X387096Y792480D03*
D14*
X493776Y827532D02*
X512064Y827532D01*
X516636Y832104D01*
X524256Y832104D01*
X525780Y830580D01*
X525780Y766572D01*
X516636Y757428D01*
X492675Y826700D02*
X493776Y827532D01*
X516636Y757428D02*
X515500Y756100D01*
X252984Y937260D02*
X252984Y941832D01*
X252984Y937260D02*
X260604Y929640D01*
X377952Y929640D01*
X252984Y941832D02*
X252300Y942073D01*
D15*
X377952Y929640D03*
D14*
X531876Y824484D02*
X531876Y765048D01*
X539496Y757428D01*
X531876Y824484D02*
X530875Y825700D01*
X539496Y757428D02*
X540900Y756100D01*
X361188Y856488D02*
X344424Y873252D01*
X390144Y832104D02*
X403860Y818388D01*
X403860Y751332D01*
X409956Y745236D01*
X554736Y745236D01*
X565404Y755904D01*
X344424Y873252D02*
X344075Y874700D01*
X565404Y755904D02*
X566300Y756100D01*
D15*
X361188Y856488D03*
X390144Y832104D03*
D16*
X623010Y973010D03*
X623010Y726990D03*
X26990Y973010D03*
X26990Y726990D03*
M02*
