G04 EAGLE Gerber RS-274X export*
G75*
%MOMM*%
%FSLAX34Y34*%
%LPD*%
%INBottom Copper*%
%IPPOS*%
%AMOC8*
5,1,8,0,0,1.08239X$1,22.5*%
G01*
G04 Define Apertures*
%ADD10P,1.64956X8X22.5*%
%ADD11C,0.152400*%
%ADD12C,0.756400*%
%ADD13C,3.366000*%
D10*
X83700Y730700D03*
X83700Y756100D03*
X109100Y730700D03*
X109100Y756100D03*
X134500Y730700D03*
X134500Y756100D03*
X159900Y730700D03*
X159900Y756100D03*
X185300Y730700D03*
X185300Y756100D03*
X210700Y730700D03*
X210700Y756100D03*
X236100Y730700D03*
X236100Y756100D03*
X261500Y730700D03*
X261500Y756100D03*
X286900Y730700D03*
X286900Y756100D03*
X312300Y730700D03*
X312300Y756100D03*
X337700Y730700D03*
X337700Y756100D03*
X363100Y730700D03*
X363100Y756100D03*
X388500Y730700D03*
X388500Y756100D03*
X413900Y730700D03*
X413900Y756100D03*
X439300Y730700D03*
X439300Y756100D03*
X464700Y730700D03*
X464700Y756100D03*
X490100Y730700D03*
X490100Y756100D03*
X515500Y730700D03*
X515500Y756100D03*
X540900Y730700D03*
X540900Y756100D03*
X566300Y730700D03*
X566300Y756100D03*
D11*
X266700Y826008D02*
X237744Y826008D01*
X214884Y803148D02*
X181356Y769620D01*
X214884Y803148D02*
X237744Y826008D01*
X181356Y769620D02*
X121920Y769620D01*
X109728Y757428D01*
X109100Y756100D01*
X239268Y905256D02*
X239268Y909828D01*
X239268Y905256D02*
X222504Y888492D01*
X222504Y824484D01*
X216408Y818388D01*
X211836Y818388D01*
X208788Y815340D01*
X208788Y809244D01*
X214884Y803148D01*
X274320Y818388D02*
X350520Y818388D01*
X274320Y818388D02*
X266700Y826008D01*
D12*
X266700Y826008D03*
X239268Y909828D03*
X350520Y818388D03*
D11*
X537972Y912876D02*
X553212Y912876D01*
X537972Y912876D02*
X473964Y976884D01*
X112776Y976884D01*
X91440Y955548D01*
D12*
X553212Y912876D03*
X91440Y955548D03*
D11*
X246888Y961644D02*
X350520Y961644D01*
D12*
X246888Y961644D03*
X350520Y961644D03*
D11*
X515112Y742188D02*
X515112Y731520D01*
X515112Y742188D02*
X501396Y755904D01*
X501396Y830580D01*
X490728Y841248D01*
X437388Y841248D01*
X515112Y731520D02*
X515500Y730700D01*
D12*
X437388Y841248D03*
D11*
X452628Y862584D02*
X484632Y862584D01*
X530352Y816864D01*
X530352Y740664D01*
X539496Y731520D01*
X540900Y730700D01*
X315468Y941832D02*
X310896Y941832D01*
X315468Y941832D02*
X394716Y862584D01*
X452628Y862584D01*
D12*
X452628Y862584D03*
X310896Y941832D03*
D11*
X376428Y949452D02*
X492252Y949452D01*
X376428Y949452D02*
X352044Y973836D01*
X118872Y973836D01*
X100584Y955548D01*
X147828Y731520D02*
X158496Y731520D01*
X147828Y731520D02*
X134112Y745236D01*
X121920Y745236D01*
X158496Y731520D02*
X159900Y730700D01*
D12*
X492252Y949452D03*
X100584Y955548D03*
X121920Y745236D03*
D11*
X487680Y873252D02*
X487680Y888492D01*
X487680Y873252D02*
X577596Y783336D01*
X577596Y726948D01*
X563880Y713232D01*
X246888Y713232D02*
X228600Y713232D01*
X246888Y713232D02*
X563880Y713232D01*
X228600Y713232D02*
X211836Y729996D01*
X210700Y730700D01*
X103632Y769620D02*
X103632Y928116D01*
X103632Y769620D02*
X96012Y762000D01*
X96012Y749808D01*
X105156Y740664D01*
X114300Y740664D01*
X123444Y731520D01*
X123444Y726948D01*
X131064Y719328D01*
X163068Y719328D01*
X175260Y731520D01*
X175260Y736092D01*
X182880Y743712D01*
X237744Y743712D01*
X246888Y734568D01*
X246888Y713232D01*
D12*
X487680Y888492D03*
X103632Y928116D03*
D11*
X402336Y918972D02*
X423672Y918972D01*
X402336Y918972D02*
X353568Y967740D01*
X143256Y967740D01*
X224028Y731520D02*
X234696Y731520D01*
X224028Y731520D02*
X214884Y740664D01*
X205740Y740664D01*
X196596Y731520D01*
X196596Y726948D01*
X185928Y716280D01*
X108204Y716280D01*
X94488Y729996D01*
X94488Y734568D01*
X83820Y745236D01*
X79248Y745236D01*
X73152Y751332D01*
X73152Y906780D01*
X134112Y967740D01*
X143256Y967740D01*
X234696Y731520D02*
X236100Y730700D01*
D12*
X423672Y918972D03*
X143256Y967740D03*
D11*
X342900Y923544D02*
X347472Y923544D01*
X342900Y923544D02*
X310896Y955548D01*
X190500Y955548D01*
X414528Y731520D02*
X425196Y731520D01*
X434340Y740664D01*
X495300Y740664D01*
X504444Y731520D01*
X504444Y726948D01*
X515112Y716280D01*
X545592Y716280D01*
X554736Y725424D01*
X554736Y801624D01*
X443484Y912876D01*
X403860Y912876D01*
X381000Y935736D01*
X359664Y935736D01*
X347472Y923544D01*
X414528Y731520D02*
X413900Y730700D01*
D12*
X347472Y923544D03*
X190500Y955548D03*
D11*
X217932Y917448D02*
X245364Y917448D01*
X249936Y917448D01*
X217932Y917448D02*
X207264Y928116D01*
X428244Y729996D02*
X438912Y729996D01*
X428244Y729996D02*
X417576Y719328D01*
X359664Y719328D01*
X348996Y729996D01*
X348996Y734568D01*
X338328Y745236D01*
X329184Y745236D01*
X324612Y749808D01*
X237744Y844296D02*
X237744Y899160D01*
X245364Y906780D01*
X245364Y917448D01*
X439300Y730700D02*
X438912Y729996D01*
D12*
X249936Y917448D03*
X207264Y928116D03*
X324612Y749808D03*
X237744Y844296D03*
D11*
X271272Y859536D02*
X277368Y859536D01*
X280416Y862584D01*
X345948Y862584D01*
X385572Y822960D01*
X390144Y822960D01*
D12*
X271272Y859536D03*
X390144Y822960D03*
D11*
X370332Y856488D02*
X481584Y856488D01*
X370332Y856488D02*
X361188Y865632D01*
X268224Y865632D01*
X214884Y812292D01*
D12*
X481584Y856488D03*
X214884Y812292D03*
D11*
X423672Y847344D02*
X481584Y847344D01*
X423672Y847344D02*
X345948Y769620D01*
X224028Y769620D01*
X211836Y757428D01*
X210700Y756100D01*
X111252Y772668D02*
X111252Y777240D01*
X111252Y772668D02*
X99060Y760476D01*
X99060Y751332D01*
X105156Y745236D01*
X112776Y745236D01*
X123444Y755904D01*
X123444Y760476D01*
X129540Y766572D01*
X201168Y766572D01*
X210312Y757428D01*
X210700Y756100D01*
D12*
X481584Y847344D03*
X111252Y777240D03*
D11*
X393192Y868680D02*
X425196Y868680D01*
X393192Y868680D02*
X312420Y949452D01*
X156972Y949452D01*
X150876Y955548D01*
X146304Y886968D02*
X207264Y826008D01*
X146304Y886968D02*
X146304Y938784D01*
X156972Y949452D01*
D12*
X425196Y868680D03*
X150876Y955548D03*
X207264Y826008D03*
D11*
X416052Y835152D02*
X487680Y835152D01*
X416052Y835152D02*
X347472Y766572D01*
X297180Y766572D01*
X288036Y757428D01*
X286900Y756100D01*
X216408Y827532D02*
X152400Y891540D01*
D12*
X487680Y835152D03*
X152400Y891540D03*
X216408Y827532D03*
D11*
X198120Y928116D02*
X166116Y928116D01*
X198120Y928116D02*
X204216Y934212D01*
X313944Y934212D01*
X385572Y862584D01*
D12*
X166116Y928116D03*
X385572Y862584D03*
D11*
X377952Y743712D02*
X400812Y743712D01*
X413004Y755904D01*
X413900Y756100D01*
D12*
X377952Y743712D03*
D11*
X323088Y856488D02*
X283464Y856488D01*
X323088Y856488D02*
X373380Y806196D01*
X387096Y792480D02*
X428244Y792480D01*
X463296Y757428D01*
X464700Y756100D01*
D12*
X283464Y856488D03*
X373380Y806196D03*
X387096Y792480D03*
D11*
X382524Y929640D02*
X377952Y929640D01*
X382524Y929640D02*
X443484Y868680D01*
X483108Y868680D01*
X551688Y800100D01*
X551688Y726948D01*
X544068Y719328D01*
X537972Y719328D01*
X525780Y731520D01*
X525780Y746760D01*
X516636Y755904D01*
X515500Y756100D01*
D12*
X377952Y929640D03*
D11*
X365760Y856488D02*
X361188Y856488D01*
X365760Y856488D02*
X390144Y832104D01*
D12*
X361188Y856488D03*
X390144Y832104D03*
D13*
X623010Y973010D03*
X623010Y726990D03*
X26990Y973010D03*
X26990Y726990D03*
M02*
