M48
;GenerationSoftware,Autodesk,EAGLE,9.7.0*%
;CreationDate,2026-06-29T01:25:21Z*%
FMAT,2
ICI,OFF
METRIC,TZ,000.000
T3C0.350
T2C1.016
T1C2.350
%
G90
M71
T1
X2699Y97301
X62301Y97301
X62301Y72699
X2699Y72699
T2
X43930Y73070
X8370Y73070
X8370Y75610
X10910Y73070
X10910Y75610
X13450Y73070
X13450Y75610
X15990Y73070
X18530Y73070
X18530Y75610
X21070Y73070
X15990Y75610
X21070Y75610
X23610Y73070
X23610Y75610
X26150Y73070
X26150Y75610
X28690Y73070
X28690Y75610
X31230Y73070
X31230Y75610
X33770Y73070
X33770Y75610
X36310Y73070
X36310Y75610
X38850Y73070
X38850Y75610
X41390Y73070
X41390Y75610
X43930Y75610
X46470Y73070
X46470Y75610
X49010Y73070
X49010Y75610
X51550Y73070
X51550Y75610
X54090Y73070
X54090Y75610
X56630Y73070
X56630Y75610
T3
X26670Y82601
X23927Y90983
X35052Y81839
X55321Y91288
X9144Y95555
X24689Y96164
X35052Y96164
X43739Y84125
X45263Y86258
X31090Y94183
X49225Y94945
X12192Y74524
X48768Y88849
X10363Y92812
X42367Y91897
X14326Y96774
X34747Y92354
X19050Y95555
X24994Y91745
X20726Y92812
X32461Y74981
X23774Y84430
X27127Y85954
X39014Y82296
X48158Y85649
X21488Y81229
X48158Y84734
X11125Y77724
X42520Y86868
X15088Y95555
X20726Y82601
X48768Y83515
X21641Y82753
X16612Y92812
X38557Y86258
X37795Y74371
X28346Y85649
X37338Y80620
X38710Y79248
X37795Y92964
X39014Y83210
X15240Y89154
X10058Y95555
X36119Y85649
M30