G04 EAGLE Gerber RS-274X export*
G75*
%MOMM*%
%FSLAX34Y34*%
%LPD*%
%INSilkscreen Top*%
%IPPOS*%
%AMOC8*
5,1,8,0,0,1.08239X$1,22.5*%
G01*
G04 Define Apertures*
%ADD10C,0.152400*%
%ADD11C,0.508000*%
%ADD12C,0.127000*%
G36*
X321660Y775150D02*
X319987Y775150D01*
X319987Y787491D01*
X325181Y787491D01*
X325685Y787476D01*
X326160Y787430D01*
X326606Y787354D01*
X327022Y787248D01*
X327410Y787111D01*
X327767Y786944D01*
X328096Y786746D01*
X328395Y786519D01*
X328662Y786263D01*
X328893Y785983D01*
X329089Y785677D01*
X329249Y785347D01*
X329374Y784992D01*
X329463Y784612D01*
X329516Y784207D01*
X329534Y783777D01*
X329516Y783350D01*
X329462Y782946D01*
X329373Y782564D01*
X329248Y782205D01*
X329087Y781868D01*
X328891Y781554D01*
X328659Y781262D01*
X328391Y780992D01*
X328092Y780750D01*
X327768Y780540D01*
X327418Y780362D01*
X327043Y780217D01*
X326642Y780104D01*
X326216Y780023D01*
X325764Y779975D01*
X325286Y779958D01*
X321660Y779958D01*
X321660Y775150D01*
G37*
%LPC*%
G36*
X325049Y781281D02*
X325389Y781291D01*
X325706Y781320D01*
X326002Y781368D01*
X326276Y781436D01*
X326528Y781523D01*
X326757Y781630D01*
X326965Y781755D01*
X327152Y781901D01*
X327316Y782065D01*
X327458Y782249D01*
X327579Y782453D01*
X327677Y782675D01*
X327754Y782917D01*
X327808Y783179D01*
X327841Y783459D01*
X327852Y783760D01*
X327841Y784049D01*
X327807Y784320D01*
X327751Y784572D01*
X327673Y784806D01*
X327572Y785021D01*
X327448Y785217D01*
X327302Y785394D01*
X327134Y785553D01*
X326943Y785693D01*
X326730Y785814D01*
X326494Y785917D01*
X326236Y786001D01*
X325956Y786067D01*
X325653Y786113D01*
X325327Y786141D01*
X324979Y786151D01*
X321660Y786151D01*
X321660Y781281D01*
X325049Y781281D01*
G37*
%LPD*%
G36*
X339585Y775150D02*
X331851Y775150D01*
X331851Y776490D01*
X334995Y776490D01*
X334995Y785984D01*
X332210Y783996D01*
X332210Y785485D01*
X335126Y787491D01*
X336580Y787491D01*
X336580Y776490D01*
X339585Y776490D01*
X339585Y775150D01*
G37*
G36*
X313550Y774975D02*
X313168Y774988D01*
X312805Y775025D01*
X312463Y775089D01*
X312141Y775177D01*
X311839Y775291D01*
X311556Y775431D01*
X311294Y775595D01*
X311051Y775785D01*
X310828Y776000D01*
X310626Y776241D01*
X310443Y776507D01*
X310280Y776798D01*
X310137Y777114D01*
X310014Y777456D01*
X309910Y777823D01*
X309827Y778215D01*
X311465Y778487D01*
X311511Y778240D01*
X311568Y778007D01*
X311639Y777788D01*
X311721Y777583D01*
X311816Y777392D01*
X311923Y777214D01*
X312043Y777051D01*
X312174Y776902D01*
X312317Y776768D01*
X312468Y776653D01*
X312628Y776555D01*
X312796Y776475D01*
X312974Y776412D01*
X313160Y776368D01*
X313355Y776341D01*
X313558Y776332D01*
X313780Y776342D01*
X313990Y776372D01*
X314187Y776420D01*
X314373Y776489D01*
X314546Y776577D01*
X314708Y776685D01*
X314857Y776812D01*
X314995Y776959D01*
X315118Y777124D01*
X315225Y777308D01*
X315315Y777510D01*
X315389Y777730D01*
X315446Y777969D01*
X315487Y778226D01*
X315512Y778500D01*
X315520Y778794D01*
X315520Y786124D01*
X313147Y786124D01*
X313147Y787491D01*
X317184Y787491D01*
X317184Y778829D01*
X317169Y778392D01*
X317124Y777979D01*
X317048Y777590D01*
X316941Y777225D01*
X316805Y776884D01*
X316637Y776566D01*
X316440Y776273D01*
X316212Y776004D01*
X315958Y775763D01*
X315681Y775554D01*
X315382Y775377D01*
X315060Y775232D01*
X314716Y775120D01*
X314350Y775039D01*
X313961Y774991D01*
X313550Y774975D01*
G37*
G36*
X597576Y930400D02*
X595903Y930400D01*
X595903Y942741D01*
X601710Y942741D01*
X602216Y942726D01*
X602692Y942682D01*
X603139Y942610D01*
X603557Y942508D01*
X603944Y942376D01*
X604302Y942216D01*
X604630Y942027D01*
X604928Y941808D01*
X605194Y941563D01*
X605425Y941296D01*
X605620Y941006D01*
X605779Y940692D01*
X605903Y940356D01*
X605992Y939997D01*
X606045Y939616D01*
X606063Y939211D01*
X606050Y938874D01*
X606013Y938551D01*
X605950Y938241D01*
X605862Y937945D01*
X605750Y937663D01*
X605612Y937395D01*
X605449Y937140D01*
X605261Y936899D01*
X605051Y936675D01*
X604822Y936474D01*
X604575Y936293D01*
X604464Y936227D01*
X604308Y936135D01*
X604022Y935998D01*
X603717Y935882D01*
X603393Y935789D01*
X603050Y935716D01*
X604541Y933453D01*
X606553Y930400D01*
X604626Y930400D01*
X601421Y935524D01*
X597576Y935524D01*
X597576Y930400D01*
G37*
%LPC*%
G36*
X601613Y936846D02*
X601935Y936856D01*
X602237Y936885D01*
X602521Y936933D01*
X602786Y937001D01*
X603032Y937087D01*
X603260Y937194D01*
X603468Y937319D01*
X603658Y937464D01*
X603828Y937626D01*
X603975Y937803D01*
X604099Y937996D01*
X604200Y938205D01*
X604279Y938429D01*
X604336Y938668D01*
X604370Y938923D01*
X604381Y939194D01*
X604370Y939455D01*
X604335Y939700D01*
X604278Y939930D01*
X604198Y940143D01*
X604095Y940340D01*
X603970Y940521D01*
X603821Y940687D01*
X603650Y940836D01*
X603457Y940968D01*
X603244Y941083D01*
X603011Y941180D01*
X602757Y941260D01*
X602484Y941321D01*
X602190Y941365D01*
X601877Y941392D01*
X601543Y941401D01*
X597576Y941401D01*
X597576Y936846D01*
X601613Y936846D01*
G37*
%LPD*%
G36*
X616500Y930400D02*
X608766Y930400D01*
X608766Y931740D01*
X611911Y931740D01*
X611911Y941234D01*
X609125Y939246D01*
X609125Y940735D01*
X612042Y942741D01*
X613496Y942741D01*
X613496Y931740D01*
X616500Y931740D01*
X616500Y930400D01*
G37*
G36*
X578350Y836825D02*
X578089Y836831D01*
X577835Y836850D01*
X577590Y836882D01*
X577353Y836926D01*
X576903Y837053D01*
X576487Y837230D01*
X576104Y837458D01*
X575754Y837736D01*
X575437Y838065D01*
X575154Y838445D01*
X574903Y838874D01*
X574686Y839348D01*
X574502Y839870D01*
X574352Y840438D01*
X574235Y841052D01*
X574152Y841713D01*
X574102Y842421D01*
X574085Y843175D01*
X574101Y843945D01*
X574150Y844665D01*
X574231Y845335D01*
X574345Y845956D01*
X574490Y846526D01*
X574669Y847047D01*
X574880Y847518D01*
X575123Y847939D01*
X575401Y848311D01*
X575717Y848633D01*
X576071Y848905D01*
X576462Y849128D01*
X576891Y849302D01*
X577119Y849370D01*
X577357Y849426D01*
X577605Y849469D01*
X577861Y849500D01*
X578127Y849519D01*
X578403Y849525D01*
X578671Y849518D01*
X578930Y849500D01*
X579181Y849468D01*
X579422Y849425D01*
X579654Y849368D01*
X579878Y849299D01*
X580298Y849124D01*
X580683Y848899D01*
X581031Y848623D01*
X581344Y848298D01*
X581622Y847922D01*
X581865Y847497D01*
X582076Y847024D01*
X582254Y846503D01*
X582400Y845934D01*
X582514Y845316D01*
X582595Y844651D01*
X582643Y843937D01*
X582660Y843175D01*
X582643Y842425D01*
X582592Y841720D01*
X582506Y841062D01*
X582387Y840449D01*
X582234Y839881D01*
X582046Y839360D01*
X581825Y838884D01*
X581569Y838454D01*
X581280Y838072D01*
X580959Y837741D01*
X580605Y837461D01*
X580219Y837232D01*
X579801Y837054D01*
X579350Y836927D01*
X579112Y836882D01*
X578866Y836850D01*
X578612Y836831D01*
X578350Y836825D01*
G37*
%LPC*%
G36*
X578368Y838112D02*
X578705Y838132D01*
X579018Y838190D01*
X579308Y838287D01*
X579574Y838423D01*
X579818Y838598D01*
X580038Y838812D01*
X580235Y839065D01*
X580409Y839356D01*
X580561Y839688D01*
X580692Y840061D01*
X580804Y840476D01*
X580895Y840933D01*
X580966Y841431D01*
X581016Y841970D01*
X581047Y842552D01*
X581057Y843175D01*
X581047Y843820D01*
X581018Y844418D01*
X580970Y844971D01*
X580902Y845478D01*
X580816Y845939D01*
X580710Y846354D01*
X580584Y846723D01*
X580439Y847046D01*
X580272Y847327D01*
X580081Y847571D01*
X579864Y847777D01*
X579622Y847946D01*
X579354Y848077D01*
X579062Y848171D01*
X578745Y848227D01*
X578403Y848246D01*
X578052Y848227D01*
X577727Y848172D01*
X577428Y848080D01*
X577154Y847950D01*
X576906Y847784D01*
X576683Y847581D01*
X576486Y847341D01*
X576314Y847064D01*
X576165Y846744D01*
X576036Y846377D01*
X575927Y845962D01*
X575838Y845500D01*
X575768Y844990D01*
X575719Y844433D01*
X575689Y843828D01*
X575679Y843175D01*
X575689Y842540D01*
X575719Y841949D01*
X575770Y841402D01*
X575840Y840900D01*
X575931Y840441D01*
X576041Y840027D01*
X576172Y839656D01*
X576323Y839330D01*
X576496Y839044D01*
X576692Y838797D01*
X576912Y838588D01*
X577156Y838417D01*
X577424Y838284D01*
X577715Y838188D01*
X578029Y838131D01*
X578368Y838112D01*
G37*
%LPD*%
G36*
X553591Y837000D02*
X551918Y837000D01*
X551918Y849341D01*
X557725Y849341D01*
X558232Y849326D01*
X558708Y849282D01*
X559155Y849210D01*
X559572Y849108D01*
X559960Y848976D01*
X560317Y848816D01*
X560646Y848627D01*
X560944Y848408D01*
X561210Y848163D01*
X561440Y847896D01*
X561635Y847606D01*
X561795Y847292D01*
X561919Y846956D01*
X562007Y846597D01*
X562061Y846216D01*
X562078Y845811D01*
X562066Y845474D01*
X562028Y845151D01*
X561966Y844841D01*
X561878Y844545D01*
X561765Y844263D01*
X561627Y843995D01*
X561465Y843740D01*
X561277Y843499D01*
X561067Y843275D01*
X560838Y843074D01*
X560590Y842893D01*
X560479Y842827D01*
X560323Y842735D01*
X560037Y842598D01*
X559732Y842482D01*
X559408Y842389D01*
X559065Y842316D01*
X560557Y840053D01*
X562569Y837000D01*
X560642Y837000D01*
X557436Y842124D01*
X553591Y842124D01*
X553591Y837000D01*
G37*
%LPC*%
G36*
X557629Y843446D02*
X557950Y843456D01*
X558253Y843485D01*
X558536Y843533D01*
X558801Y843601D01*
X559048Y843687D01*
X559275Y843794D01*
X559484Y843919D01*
X559674Y844064D01*
X559843Y844226D01*
X559990Y844403D01*
X560114Y844596D01*
X560216Y844805D01*
X560295Y845029D01*
X560351Y845268D01*
X560385Y845523D01*
X560397Y845794D01*
X560385Y846055D01*
X560351Y846300D01*
X560294Y846530D01*
X560214Y846743D01*
X560111Y846940D01*
X559985Y847121D01*
X559837Y847287D01*
X559665Y847436D01*
X559472Y847568D01*
X559259Y847683D01*
X559026Y847780D01*
X558773Y847860D01*
X558500Y847921D01*
X558206Y847965D01*
X557893Y847992D01*
X557559Y848001D01*
X553591Y848001D01*
X553591Y843446D01*
X557629Y843446D01*
G37*
%LPD*%
G36*
X572516Y837000D02*
X564782Y837000D01*
X564782Y838340D01*
X567926Y838340D01*
X567926Y847834D01*
X565141Y845846D01*
X565141Y847335D01*
X568058Y849341D01*
X569512Y849341D01*
X569512Y838340D01*
X572516Y838340D01*
X572516Y837000D01*
G37*
G36*
X325363Y887400D02*
X323690Y887400D01*
X323690Y899741D01*
X329497Y899741D01*
X330003Y899726D01*
X330480Y899682D01*
X330927Y899610D01*
X331344Y899508D01*
X331732Y899376D01*
X332089Y899216D01*
X332417Y899027D01*
X332716Y898808D01*
X332982Y898563D01*
X333212Y898296D01*
X333407Y898006D01*
X333567Y897692D01*
X333691Y897356D01*
X333779Y896997D01*
X333832Y896616D01*
X333850Y896211D01*
X333838Y895874D01*
X333800Y895551D01*
X333737Y895241D01*
X333650Y894945D01*
X333537Y894663D01*
X333399Y894395D01*
X333237Y894140D01*
X333049Y893899D01*
X332839Y893675D01*
X332610Y893474D01*
X332362Y893293D01*
X332251Y893227D01*
X332095Y893135D01*
X331809Y892998D01*
X331504Y892882D01*
X331180Y892789D01*
X330837Y892716D01*
X332329Y890453D01*
X334341Y887400D01*
X332414Y887400D01*
X329208Y892524D01*
X325363Y892524D01*
X325363Y887400D01*
G37*
%LPC*%
G36*
X329401Y893846D02*
X329722Y893856D01*
X330025Y893885D01*
X330308Y893933D01*
X330573Y894001D01*
X330820Y894087D01*
X331047Y894194D01*
X331256Y894319D01*
X331446Y894464D01*
X331615Y894626D01*
X331762Y894803D01*
X331886Y894996D01*
X331988Y895205D01*
X332067Y895429D01*
X332123Y895668D01*
X332157Y895923D01*
X332168Y896194D01*
X332157Y896455D01*
X332123Y896700D01*
X332066Y896930D01*
X331986Y897143D01*
X331883Y897340D01*
X331757Y897521D01*
X331609Y897687D01*
X331437Y897836D01*
X331244Y897968D01*
X331031Y898083D01*
X330798Y898180D01*
X330545Y898260D01*
X330271Y898321D01*
X329978Y898365D01*
X329664Y898392D01*
X329331Y898401D01*
X325363Y898401D01*
X325363Y893846D01*
X329401Y893846D01*
G37*
%LPD*%
G36*
X344288Y887400D02*
X336554Y887400D01*
X336554Y888740D01*
X339698Y888740D01*
X339698Y898234D01*
X336913Y896246D01*
X336913Y897735D01*
X339830Y899741D01*
X341283Y899741D01*
X341283Y888740D01*
X344288Y888740D01*
X344288Y887400D01*
G37*
G36*
X352913Y887400D02*
X345179Y887400D01*
X345179Y888740D01*
X348323Y888740D01*
X348323Y898234D01*
X345538Y896246D01*
X345538Y897735D01*
X348455Y899741D01*
X349908Y899741D01*
X349908Y888740D01*
X352913Y888740D01*
X352913Y887400D01*
G37*
G36*
X362291Y886600D02*
X360618Y886600D01*
X360618Y898941D01*
X366425Y898941D01*
X366932Y898926D01*
X367408Y898882D01*
X367855Y898810D01*
X368272Y898708D01*
X368660Y898576D01*
X369017Y898416D01*
X369346Y898227D01*
X369644Y898008D01*
X369910Y897763D01*
X370140Y897496D01*
X370335Y897206D01*
X370495Y896892D01*
X370619Y896556D01*
X370707Y896197D01*
X370761Y895816D01*
X370778Y895411D01*
X370766Y895074D01*
X370728Y894751D01*
X370666Y894441D01*
X370578Y894145D01*
X370465Y893863D01*
X370327Y893595D01*
X370165Y893340D01*
X369977Y893099D01*
X369767Y892875D01*
X369538Y892674D01*
X369290Y892493D01*
X369179Y892427D01*
X369023Y892335D01*
X368737Y892198D01*
X368432Y892082D01*
X368108Y891989D01*
X367765Y891916D01*
X369257Y889653D01*
X371269Y886600D01*
X369342Y886600D01*
X366136Y891724D01*
X362291Y891724D01*
X362291Y886600D01*
G37*
%LPC*%
G36*
X366329Y893046D02*
X366650Y893056D01*
X366953Y893085D01*
X367236Y893133D01*
X367501Y893201D01*
X367748Y893287D01*
X367975Y893394D01*
X368184Y893519D01*
X368374Y893664D01*
X368543Y893826D01*
X368690Y894003D01*
X368814Y894196D01*
X368916Y894405D01*
X368995Y894629D01*
X369051Y894868D01*
X369085Y895123D01*
X369097Y895394D01*
X369085Y895655D01*
X369051Y895900D01*
X368994Y896130D01*
X368914Y896343D01*
X368811Y896540D01*
X368685Y896721D01*
X368537Y896887D01*
X368365Y897036D01*
X368172Y897168D01*
X367959Y897283D01*
X367726Y897380D01*
X367473Y897460D01*
X367200Y897521D01*
X366906Y897565D01*
X366593Y897592D01*
X366259Y897601D01*
X362291Y897601D01*
X362291Y893046D01*
X366329Y893046D01*
G37*
%LPD*%
G36*
X391158Y886600D02*
X382987Y886600D01*
X382987Y887712D01*
X383222Y888210D01*
X383482Y888677D01*
X383767Y889114D01*
X384077Y889521D01*
X384403Y889904D01*
X384737Y890268D01*
X385080Y890613D01*
X385430Y890940D01*
X386136Y891552D01*
X386836Y892118D01*
X387498Y892661D01*
X388093Y893204D01*
X388360Y893479D01*
X388600Y893760D01*
X388813Y894048D01*
X388999Y894343D01*
X389151Y894650D01*
X389259Y894978D01*
X389324Y895325D01*
X389345Y895691D01*
X389336Y895938D01*
X389308Y896171D01*
X389261Y896389D01*
X389196Y896593D01*
X389113Y896783D01*
X389010Y896959D01*
X388889Y897121D01*
X388750Y897268D01*
X388593Y897399D01*
X388423Y897513D01*
X388238Y897609D01*
X388038Y897688D01*
X387824Y897750D01*
X387595Y897793D01*
X387352Y897820D01*
X387094Y897828D01*
X386848Y897820D01*
X386613Y897794D01*
X386389Y897751D01*
X386176Y897692D01*
X385974Y897615D01*
X385783Y897521D01*
X385603Y897409D01*
X385435Y897281D01*
X385280Y897137D01*
X385142Y896980D01*
X385021Y896808D01*
X384917Y896623D01*
X384829Y896424D01*
X384759Y896211D01*
X384705Y895984D01*
X384668Y895744D01*
X383057Y895893D01*
X383115Y896253D01*
X383201Y896595D01*
X383315Y896918D01*
X383458Y897222D01*
X383630Y897507D01*
X383829Y897773D01*
X384057Y898020D01*
X384313Y898249D01*
X384593Y898454D01*
X384893Y898632D01*
X385212Y898783D01*
X385549Y898906D01*
X385907Y899002D01*
X386283Y899070D01*
X386679Y899111D01*
X387094Y899125D01*
X387547Y899111D01*
X387973Y899070D01*
X388372Y899001D01*
X388744Y898905D01*
X389089Y898781D01*
X389407Y898630D01*
X389698Y898451D01*
X389963Y898244D01*
X390198Y898013D01*
X390401Y897758D01*
X390574Y897480D01*
X390715Y897179D01*
X390825Y896855D01*
X390903Y896508D01*
X390950Y896137D01*
X390966Y895744D01*
X390945Y895385D01*
X390883Y895028D01*
X390781Y894672D01*
X390637Y894316D01*
X390453Y893962D01*
X390229Y893607D01*
X389965Y893252D01*
X389661Y892897D01*
X389263Y892494D01*
X388717Y891993D01*
X388023Y891395D01*
X387182Y890699D01*
X386704Y890297D01*
X386278Y889916D01*
X385903Y889555D01*
X385579Y889214D01*
X385302Y888887D01*
X385067Y888565D01*
X384873Y888250D01*
X384721Y887940D01*
X391158Y887940D01*
X391158Y886600D01*
G37*
G36*
X381216Y886600D02*
X373482Y886600D01*
X373482Y887940D01*
X376626Y887940D01*
X376626Y897434D01*
X373841Y895446D01*
X373841Y896935D01*
X376758Y898941D01*
X378212Y898941D01*
X378212Y887940D01*
X381216Y887940D01*
X381216Y886600D01*
G37*
G36*
X398491Y885600D02*
X396818Y885600D01*
X396818Y897941D01*
X402625Y897941D01*
X403132Y897926D01*
X403608Y897882D01*
X404055Y897810D01*
X404472Y897708D01*
X404860Y897576D01*
X405217Y897416D01*
X405546Y897227D01*
X405844Y897008D01*
X406110Y896763D01*
X406340Y896496D01*
X406535Y896206D01*
X406695Y895892D01*
X406819Y895556D01*
X406907Y895197D01*
X406961Y894816D01*
X406978Y894411D01*
X406966Y894074D01*
X406928Y893751D01*
X406866Y893441D01*
X406778Y893145D01*
X406665Y892863D01*
X406527Y892595D01*
X406365Y892340D01*
X406177Y892099D01*
X405967Y891875D01*
X405738Y891674D01*
X405490Y891493D01*
X405379Y891427D01*
X405223Y891335D01*
X404937Y891198D01*
X404632Y891082D01*
X404308Y890989D01*
X403965Y890916D01*
X405457Y888653D01*
X407469Y885600D01*
X405542Y885600D01*
X402336Y890724D01*
X398491Y890724D01*
X398491Y885600D01*
G37*
%LPC*%
G36*
X402529Y892046D02*
X402850Y892056D01*
X403153Y892085D01*
X403436Y892133D01*
X403701Y892201D01*
X403948Y892287D01*
X404175Y892394D01*
X404384Y892519D01*
X404574Y892664D01*
X404743Y892826D01*
X404890Y893003D01*
X405014Y893196D01*
X405116Y893405D01*
X405195Y893629D01*
X405251Y893868D01*
X405285Y894123D01*
X405297Y894394D01*
X405285Y894655D01*
X405251Y894900D01*
X405194Y895130D01*
X405114Y895343D01*
X405011Y895540D01*
X404885Y895721D01*
X404737Y895887D01*
X404565Y896036D01*
X404372Y896168D01*
X404159Y896283D01*
X403926Y896380D01*
X403673Y896460D01*
X403400Y896521D01*
X403106Y896565D01*
X402793Y896592D01*
X402459Y896601D01*
X398491Y896601D01*
X398491Y892046D01*
X402529Y892046D01*
G37*
%LPD*%
G36*
X423286Y885425D02*
X422829Y885438D01*
X422396Y885478D01*
X421986Y885544D01*
X421601Y885636D01*
X421239Y885755D01*
X420900Y885900D01*
X420585Y886072D01*
X420294Y886270D01*
X420029Y886494D01*
X419793Y886743D01*
X419584Y887018D01*
X419404Y887318D01*
X419253Y887643D01*
X419129Y887994D01*
X419034Y888369D01*
X418968Y888771D01*
X420597Y888919D01*
X420644Y888654D01*
X420708Y888406D01*
X420787Y888175D01*
X420883Y887962D01*
X420995Y887765D01*
X421123Y887585D01*
X421266Y887423D01*
X421427Y887277D01*
X421603Y887149D01*
X421795Y887038D01*
X422003Y886944D01*
X422227Y886867D01*
X422468Y886807D01*
X422724Y886764D01*
X422997Y886738D01*
X423286Y886730D01*
X423575Y886739D01*
X423849Y886767D01*
X424107Y886812D01*
X424349Y886877D01*
X424574Y886959D01*
X424784Y887060D01*
X424978Y887179D01*
X425155Y887317D01*
X425315Y887472D01*
X425452Y887646D01*
X425569Y887837D01*
X425665Y888046D01*
X425739Y888273D01*
X425792Y888517D01*
X425824Y888779D01*
X425834Y889060D01*
X425822Y889305D01*
X425786Y889536D01*
X425725Y889753D01*
X425640Y889956D01*
X425531Y890146D01*
X425398Y890322D01*
X425241Y890484D01*
X425059Y890632D01*
X424855Y890764D01*
X424629Y890879D01*
X424381Y890976D01*
X424112Y891055D01*
X423822Y891117D01*
X423510Y891161D01*
X423176Y891188D01*
X422821Y891197D01*
X421928Y891197D01*
X421928Y892563D01*
X422786Y892563D01*
X423101Y892572D01*
X423398Y892598D01*
X423677Y892642D01*
X423937Y892704D01*
X424179Y892784D01*
X424403Y892881D01*
X424609Y892996D01*
X424796Y893128D01*
X424964Y893276D01*
X425109Y893438D01*
X425231Y893613D01*
X425332Y893801D01*
X425410Y894003D01*
X425466Y894219D01*
X425499Y894449D01*
X425510Y894691D01*
X425501Y894932D01*
X425474Y895160D01*
X425428Y895375D01*
X425365Y895577D01*
X425283Y895766D01*
X425183Y895942D01*
X425064Y896105D01*
X424928Y896255D01*
X424773Y896389D01*
X424601Y896506D01*
X424411Y896604D01*
X424204Y896685D01*
X423979Y896748D01*
X423736Y896793D01*
X423476Y896819D01*
X423198Y896828D01*
X422944Y896820D01*
X422702Y896795D01*
X422472Y896753D01*
X422255Y896695D01*
X422051Y896620D01*
X421859Y896528D01*
X421679Y896419D01*
X421512Y896294D01*
X421359Y896154D01*
X421224Y896000D01*
X421105Y895832D01*
X421003Y895650D01*
X420918Y895455D01*
X420849Y895246D01*
X420798Y895024D01*
X420763Y894788D01*
X419178Y894910D01*
X419236Y895279D01*
X419322Y895626D01*
X419437Y895953D01*
X419580Y896259D01*
X419751Y896544D01*
X419950Y896809D01*
X420178Y897052D01*
X420435Y897275D01*
X420715Y897474D01*
X421014Y897647D01*
X421333Y897793D01*
X421671Y897912D01*
X422028Y898005D01*
X422404Y898072D01*
X422800Y898111D01*
X423215Y898125D01*
X423667Y898111D01*
X424092Y898071D01*
X424492Y898003D01*
X424865Y897909D01*
X425213Y897788D01*
X425535Y897639D01*
X425831Y897464D01*
X426101Y897262D01*
X426343Y897036D01*
X426552Y896788D01*
X426729Y896520D01*
X426873Y896230D01*
X426986Y895918D01*
X427066Y895586D01*
X427114Y895233D01*
X427131Y894858D01*
X427120Y894569D01*
X427089Y894294D01*
X427038Y894033D01*
X426965Y893786D01*
X426872Y893553D01*
X426759Y893333D01*
X426624Y893127D01*
X426469Y892935D01*
X426295Y892758D01*
X426101Y892595D01*
X425889Y892447D01*
X425658Y892315D01*
X425408Y892197D01*
X425140Y892094D01*
X424853Y892006D01*
X424547Y891932D01*
X424547Y891897D01*
X424883Y891850D01*
X425200Y891784D01*
X425498Y891697D01*
X425777Y891591D01*
X426037Y891465D01*
X426278Y891319D01*
X426499Y891154D01*
X426701Y890969D01*
X426882Y890768D01*
X427039Y890554D01*
X427171Y890328D01*
X427279Y890089D01*
X427364Y889837D01*
X427424Y889573D01*
X427460Y889296D01*
X427472Y889007D01*
X427455Y888592D01*
X427404Y888201D01*
X427319Y887835D01*
X427201Y887492D01*
X427048Y887173D01*
X426861Y886879D01*
X426641Y886608D01*
X426386Y886362D01*
X426100Y886142D01*
X425785Y885952D01*
X425441Y885791D01*
X425068Y885659D01*
X424666Y885557D01*
X424235Y885483D01*
X423775Y885440D01*
X423286Y885425D01*
G37*
G36*
X417416Y885600D02*
X409682Y885600D01*
X409682Y886940D01*
X412826Y886940D01*
X412826Y896434D01*
X410041Y894446D01*
X410041Y895935D01*
X412958Y897941D01*
X414412Y897941D01*
X414412Y886940D01*
X417416Y886940D01*
X417416Y885600D01*
G37*
G36*
X439691Y884600D02*
X438018Y884600D01*
X438018Y896941D01*
X443825Y896941D01*
X444332Y896926D01*
X444808Y896882D01*
X445255Y896810D01*
X445672Y896708D01*
X446060Y896576D01*
X446417Y896416D01*
X446746Y896227D01*
X447044Y896008D01*
X447310Y895763D01*
X447540Y895496D01*
X447735Y895206D01*
X447895Y894892D01*
X448019Y894556D01*
X448107Y894197D01*
X448161Y893816D01*
X448178Y893411D01*
X448166Y893074D01*
X448128Y892751D01*
X448066Y892441D01*
X447978Y892145D01*
X447865Y891863D01*
X447727Y891595D01*
X447565Y891340D01*
X447377Y891099D01*
X447167Y890875D01*
X446938Y890674D01*
X446690Y890493D01*
X446579Y890427D01*
X446423Y890335D01*
X446137Y890198D01*
X445832Y890082D01*
X445508Y889989D01*
X445165Y889916D01*
X446657Y887653D01*
X448669Y884600D01*
X446742Y884600D01*
X443536Y889724D01*
X439691Y889724D01*
X439691Y884600D01*
G37*
%LPC*%
G36*
X443729Y891046D02*
X444050Y891056D01*
X444353Y891085D01*
X444636Y891133D01*
X444901Y891201D01*
X445148Y891287D01*
X445375Y891394D01*
X445584Y891519D01*
X445774Y891664D01*
X445943Y891826D01*
X446090Y892003D01*
X446214Y892196D01*
X446316Y892405D01*
X446395Y892629D01*
X446451Y892868D01*
X446485Y893123D01*
X446497Y893394D01*
X446485Y893655D01*
X446451Y893900D01*
X446394Y894130D01*
X446314Y894343D01*
X446211Y894540D01*
X446085Y894721D01*
X445937Y894887D01*
X445765Y895036D01*
X445572Y895168D01*
X445359Y895283D01*
X445126Y895380D01*
X444873Y895460D01*
X444600Y895521D01*
X444306Y895565D01*
X443993Y895592D01*
X443659Y895601D01*
X439691Y895601D01*
X439691Y891046D01*
X443729Y891046D01*
G37*
%LPD*%
G36*
X467201Y884600D02*
X465712Y884600D01*
X465712Y887394D01*
X459896Y887394D01*
X459896Y888620D01*
X465545Y896941D01*
X467201Y896941D01*
X467201Y888638D01*
X468935Y888638D01*
X468935Y887394D01*
X467201Y887394D01*
X467201Y884600D01*
G37*
%LPC*%
G36*
X465712Y888638D02*
X465712Y895163D01*
X465466Y894699D01*
X465125Y894121D01*
X461963Y889461D01*
X461490Y888813D01*
X461350Y888638D01*
X465712Y888638D01*
G37*
%LPD*%
G36*
X458616Y884600D02*
X450882Y884600D01*
X450882Y885940D01*
X454026Y885940D01*
X454026Y895434D01*
X451241Y893446D01*
X451241Y894935D01*
X454158Y896941D01*
X455612Y896941D01*
X455612Y885940D01*
X458616Y885940D01*
X458616Y884600D01*
G37*
G36*
X557476Y932400D02*
X555803Y932400D01*
X555803Y944741D01*
X561610Y944741D01*
X562116Y944726D01*
X562592Y944682D01*
X563039Y944610D01*
X563457Y944508D01*
X563844Y944376D01*
X564202Y944216D01*
X564530Y944027D01*
X564828Y943808D01*
X565094Y943563D01*
X565325Y943296D01*
X565520Y943006D01*
X565679Y942692D01*
X565803Y942356D01*
X565892Y941997D01*
X565945Y941616D01*
X565963Y941211D01*
X565950Y940874D01*
X565913Y940551D01*
X565850Y940241D01*
X565762Y939945D01*
X565650Y939663D01*
X565512Y939395D01*
X565349Y939140D01*
X565161Y938899D01*
X564951Y938675D01*
X564722Y938474D01*
X564475Y938293D01*
X564364Y938227D01*
X564208Y938135D01*
X563922Y937998D01*
X563617Y937882D01*
X563293Y937789D01*
X562950Y937716D01*
X564441Y935453D01*
X566453Y932400D01*
X564526Y932400D01*
X561321Y937524D01*
X557476Y937524D01*
X557476Y932400D01*
G37*
%LPC*%
G36*
X561513Y938846D02*
X561835Y938856D01*
X562137Y938885D01*
X562421Y938933D01*
X562686Y939001D01*
X562932Y939087D01*
X563160Y939194D01*
X563368Y939319D01*
X563558Y939464D01*
X563728Y939626D01*
X563875Y939803D01*
X563999Y939996D01*
X564100Y940205D01*
X564179Y940429D01*
X564236Y940668D01*
X564270Y940923D01*
X564281Y941194D01*
X564270Y941455D01*
X564235Y941700D01*
X564178Y941930D01*
X564098Y942143D01*
X563995Y942340D01*
X563870Y942521D01*
X563721Y942687D01*
X563550Y942836D01*
X563357Y942968D01*
X563144Y943083D01*
X562911Y943180D01*
X562657Y943260D01*
X562384Y943321D01*
X562090Y943365D01*
X561777Y943392D01*
X561443Y943401D01*
X557476Y943401D01*
X557476Y938846D01*
X561513Y938846D01*
G37*
%LPD*%
G36*
X576374Y932400D02*
X568202Y932400D01*
X568202Y933512D01*
X568438Y934010D01*
X568698Y934477D01*
X568983Y934914D01*
X569293Y935321D01*
X569619Y935704D01*
X569953Y936068D01*
X570295Y936413D01*
X570646Y936740D01*
X571352Y937352D01*
X572052Y937918D01*
X572714Y938461D01*
X573308Y939004D01*
X573575Y939279D01*
X573815Y939560D01*
X574028Y939848D01*
X574215Y940143D01*
X574366Y940450D01*
X574474Y940778D01*
X574539Y941125D01*
X574561Y941491D01*
X574552Y941738D01*
X574524Y941971D01*
X574477Y942189D01*
X574412Y942393D01*
X574328Y942583D01*
X574226Y942759D01*
X574105Y942921D01*
X573965Y943068D01*
X573809Y943199D01*
X573638Y943313D01*
X573453Y943409D01*
X573254Y943488D01*
X573039Y943550D01*
X572811Y943593D01*
X572568Y943620D01*
X572310Y943628D01*
X572064Y943620D01*
X571828Y943594D01*
X571604Y943551D01*
X571391Y943492D01*
X571189Y943415D01*
X570999Y943321D01*
X570819Y943209D01*
X570650Y943081D01*
X570495Y942937D01*
X570358Y942780D01*
X570237Y942608D01*
X570132Y942423D01*
X570045Y942224D01*
X569974Y942011D01*
X569921Y941784D01*
X569884Y941544D01*
X568272Y941693D01*
X568330Y942053D01*
X568416Y942395D01*
X568531Y942718D01*
X568674Y943022D01*
X568845Y943307D01*
X569045Y943573D01*
X569273Y943820D01*
X569529Y944049D01*
X569809Y944254D01*
X570108Y944432D01*
X570427Y944583D01*
X570765Y944706D01*
X571122Y944802D01*
X571499Y944870D01*
X571895Y944911D01*
X572310Y944925D01*
X572763Y944911D01*
X573189Y944870D01*
X573588Y944801D01*
X573960Y944705D01*
X574305Y944581D01*
X574623Y944430D01*
X574914Y944251D01*
X575178Y944044D01*
X575413Y943813D01*
X575617Y943558D01*
X575789Y943280D01*
X575930Y942979D01*
X576040Y942655D01*
X576118Y942308D01*
X576165Y941937D01*
X576181Y941544D01*
X576161Y941185D01*
X576099Y940828D01*
X575996Y940472D01*
X575853Y940116D01*
X575669Y939762D01*
X575444Y939407D01*
X575180Y939052D01*
X574876Y938697D01*
X574478Y938294D01*
X573932Y937793D01*
X573239Y937195D01*
X572397Y936499D01*
X571920Y936097D01*
X571493Y935716D01*
X571118Y935355D01*
X570795Y935014D01*
X570518Y934687D01*
X570282Y934365D01*
X570089Y934050D01*
X569936Y933740D01*
X576374Y933740D01*
X576374Y932400D01*
G37*
G36*
X478891Y885600D02*
X477218Y885600D01*
X477218Y897941D01*
X483025Y897941D01*
X483532Y897926D01*
X484008Y897882D01*
X484455Y897810D01*
X484872Y897708D01*
X485260Y897576D01*
X485617Y897416D01*
X485946Y897227D01*
X486244Y897008D01*
X486510Y896763D01*
X486740Y896496D01*
X486935Y896206D01*
X487095Y895892D01*
X487219Y895556D01*
X487307Y895197D01*
X487361Y894816D01*
X487378Y894411D01*
X487366Y894074D01*
X487328Y893751D01*
X487266Y893441D01*
X487178Y893145D01*
X487065Y892863D01*
X486927Y892595D01*
X486765Y892340D01*
X486577Y892099D01*
X486367Y891875D01*
X486138Y891674D01*
X485890Y891493D01*
X485779Y891427D01*
X485623Y891335D01*
X485337Y891198D01*
X485032Y891082D01*
X484708Y890989D01*
X484365Y890916D01*
X485857Y888653D01*
X487869Y885600D01*
X485942Y885600D01*
X482736Y890724D01*
X478891Y890724D01*
X478891Y885600D01*
G37*
%LPC*%
G36*
X482929Y892046D02*
X483250Y892056D01*
X483553Y892085D01*
X483836Y892133D01*
X484101Y892201D01*
X484348Y892287D01*
X484575Y892394D01*
X484784Y892519D01*
X484974Y892664D01*
X485143Y892826D01*
X485290Y893003D01*
X485414Y893196D01*
X485516Y893405D01*
X485595Y893629D01*
X485651Y893868D01*
X485685Y894123D01*
X485697Y894394D01*
X485685Y894655D01*
X485651Y894900D01*
X485594Y895130D01*
X485514Y895343D01*
X485411Y895540D01*
X485285Y895721D01*
X485137Y895887D01*
X484965Y896036D01*
X484772Y896168D01*
X484559Y896283D01*
X484326Y896380D01*
X484073Y896460D01*
X483800Y896521D01*
X483506Y896565D01*
X483193Y896592D01*
X482859Y896601D01*
X478891Y896601D01*
X478891Y892046D01*
X482929Y892046D01*
G37*
%LPD*%
G36*
X497789Y885600D02*
X489618Y885600D01*
X489618Y886712D01*
X489853Y887210D01*
X490114Y887677D01*
X490399Y888114D01*
X490708Y888521D01*
X491034Y888904D01*
X491368Y889268D01*
X491711Y889613D01*
X492061Y889940D01*
X492768Y890552D01*
X493467Y891118D01*
X494130Y891661D01*
X494724Y892204D01*
X494991Y892479D01*
X495231Y892760D01*
X495444Y893048D01*
X495630Y893343D01*
X495782Y893650D01*
X495890Y893978D01*
X495955Y894325D01*
X495976Y894691D01*
X495967Y894938D01*
X495939Y895171D01*
X495893Y895389D01*
X495828Y895593D01*
X495744Y895783D01*
X495641Y895959D01*
X495520Y896121D01*
X495381Y896268D01*
X495225Y896399D01*
X495054Y896513D01*
X494869Y896609D01*
X494669Y896688D01*
X494455Y896750D01*
X494226Y896793D01*
X493983Y896820D01*
X493726Y896828D01*
X493479Y896820D01*
X493244Y896794D01*
X493020Y896751D01*
X492807Y896692D01*
X492605Y896615D01*
X492414Y896521D01*
X492234Y896409D01*
X492066Y896281D01*
X491911Y896137D01*
X491773Y895980D01*
X491652Y895808D01*
X491548Y895623D01*
X491461Y895424D01*
X491390Y895211D01*
X491336Y894984D01*
X491299Y894744D01*
X489688Y894893D01*
X489746Y895253D01*
X489832Y895595D01*
X489947Y895918D01*
X490090Y896222D01*
X490261Y896507D01*
X490460Y896773D01*
X490688Y897020D01*
X490945Y897249D01*
X491225Y897454D01*
X491524Y897632D01*
X491843Y897783D01*
X492181Y897906D01*
X492538Y898002D01*
X492915Y898070D01*
X493310Y898111D01*
X493726Y898125D01*
X494178Y898111D01*
X494604Y898070D01*
X495003Y898001D01*
X495375Y897905D01*
X495720Y897781D01*
X496039Y897630D01*
X496330Y897451D01*
X496594Y897244D01*
X496829Y897013D01*
X497033Y896758D01*
X497205Y896480D01*
X497346Y896179D01*
X497456Y895855D01*
X497534Y895508D01*
X497581Y895137D01*
X497597Y894744D01*
X497576Y894385D01*
X497515Y894028D01*
X497412Y893672D01*
X497268Y893316D01*
X497084Y892962D01*
X496860Y892607D01*
X496596Y892252D01*
X496292Y891897D01*
X495894Y891494D01*
X495348Y890993D01*
X494654Y890395D01*
X493813Y889699D01*
X493335Y889297D01*
X492909Y888916D01*
X492534Y888555D01*
X492210Y888214D01*
X491933Y887887D01*
X491698Y887565D01*
X491504Y887250D01*
X491352Y886940D01*
X497789Y886940D01*
X497789Y885600D01*
G37*
G36*
X507785Y885600D02*
X500051Y885600D01*
X500051Y886940D01*
X503195Y886940D01*
X503195Y896434D01*
X500410Y894446D01*
X500410Y895935D01*
X503326Y897941D01*
X504780Y897941D01*
X504780Y886940D01*
X507785Y886940D01*
X507785Y885600D01*
G37*
G36*
X517091Y885600D02*
X515418Y885600D01*
X515418Y897941D01*
X521225Y897941D01*
X521732Y897926D01*
X522208Y897882D01*
X522655Y897810D01*
X523072Y897708D01*
X523460Y897576D01*
X523817Y897416D01*
X524146Y897227D01*
X524444Y897008D01*
X524710Y896763D01*
X524940Y896496D01*
X525135Y896206D01*
X525295Y895892D01*
X525419Y895556D01*
X525507Y895197D01*
X525561Y894816D01*
X525578Y894411D01*
X525566Y894074D01*
X525528Y893751D01*
X525466Y893441D01*
X525378Y893145D01*
X525265Y892863D01*
X525127Y892595D01*
X524965Y892340D01*
X524777Y892099D01*
X524567Y891875D01*
X524338Y891674D01*
X524090Y891493D01*
X523979Y891427D01*
X523823Y891335D01*
X523537Y891198D01*
X523232Y891082D01*
X522908Y890989D01*
X522565Y890916D01*
X524057Y888653D01*
X526069Y885600D01*
X524142Y885600D01*
X520936Y890724D01*
X517091Y890724D01*
X517091Y885600D01*
G37*
%LPC*%
G36*
X521129Y892046D02*
X521450Y892056D01*
X521753Y892085D01*
X522036Y892133D01*
X522301Y892201D01*
X522548Y892287D01*
X522775Y892394D01*
X522984Y892519D01*
X523174Y892664D01*
X523343Y892826D01*
X523490Y893003D01*
X523614Y893196D01*
X523716Y893405D01*
X523795Y893629D01*
X523851Y893868D01*
X523885Y894123D01*
X523897Y894394D01*
X523885Y894655D01*
X523851Y894900D01*
X523794Y895130D01*
X523714Y895343D01*
X523611Y895540D01*
X523485Y895721D01*
X523337Y895887D01*
X523165Y896036D01*
X522972Y896168D01*
X522759Y896283D01*
X522526Y896380D01*
X522273Y896460D01*
X522000Y896521D01*
X521706Y896565D01*
X521393Y896592D01*
X521059Y896601D01*
X517091Y896601D01*
X517091Y892046D01*
X521129Y892046D01*
G37*
%LPD*%
G36*
X535989Y885600D02*
X527818Y885600D01*
X527818Y886712D01*
X528053Y887210D01*
X528314Y887677D01*
X528599Y888114D01*
X528908Y888521D01*
X529234Y888904D01*
X529568Y889268D01*
X529911Y889613D01*
X530261Y889940D01*
X530968Y890552D01*
X531667Y891118D01*
X532330Y891661D01*
X532924Y892204D01*
X533191Y892479D01*
X533431Y892760D01*
X533644Y893048D01*
X533830Y893343D01*
X533982Y893650D01*
X534090Y893978D01*
X534155Y894325D01*
X534176Y894691D01*
X534167Y894938D01*
X534139Y895171D01*
X534093Y895389D01*
X534028Y895593D01*
X533944Y895783D01*
X533841Y895959D01*
X533720Y896121D01*
X533581Y896268D01*
X533425Y896399D01*
X533254Y896513D01*
X533069Y896609D01*
X532869Y896688D01*
X532655Y896750D01*
X532426Y896793D01*
X532183Y896820D01*
X531926Y896828D01*
X531679Y896820D01*
X531444Y896794D01*
X531220Y896751D01*
X531007Y896692D01*
X530805Y896615D01*
X530614Y896521D01*
X530434Y896409D01*
X530266Y896281D01*
X530111Y896137D01*
X529973Y895980D01*
X529852Y895808D01*
X529748Y895623D01*
X529661Y895424D01*
X529590Y895211D01*
X529536Y894984D01*
X529499Y894744D01*
X527888Y894893D01*
X527946Y895253D01*
X528032Y895595D01*
X528147Y895918D01*
X528290Y896222D01*
X528461Y896507D01*
X528660Y896773D01*
X528888Y897020D01*
X529145Y897249D01*
X529425Y897454D01*
X529724Y897632D01*
X530043Y897783D01*
X530381Y897906D01*
X530738Y898002D01*
X531115Y898070D01*
X531510Y898111D01*
X531926Y898125D01*
X532378Y898111D01*
X532804Y898070D01*
X533203Y898001D01*
X533575Y897905D01*
X533920Y897781D01*
X534239Y897630D01*
X534530Y897451D01*
X534794Y897244D01*
X535029Y897013D01*
X535233Y896758D01*
X535405Y896480D01*
X535546Y896179D01*
X535656Y895855D01*
X535734Y895508D01*
X535781Y895137D01*
X535797Y894744D01*
X535776Y894385D01*
X535715Y894028D01*
X535612Y893672D01*
X535468Y893316D01*
X535284Y892962D01*
X535060Y892607D01*
X534796Y892252D01*
X534492Y891897D01*
X534094Y891494D01*
X533548Y890993D01*
X532854Y890395D01*
X532013Y889699D01*
X531535Y889297D01*
X531109Y888916D01*
X530734Y888555D01*
X530410Y888214D01*
X530133Y887887D01*
X529898Y887565D01*
X529704Y887250D01*
X529552Y886940D01*
X535989Y886940D01*
X535989Y885600D01*
G37*
G36*
X545958Y885600D02*
X537787Y885600D01*
X537787Y886712D01*
X538022Y887210D01*
X538282Y887677D01*
X538567Y888114D01*
X538877Y888521D01*
X539203Y888904D01*
X539537Y889268D01*
X539880Y889613D01*
X540230Y889940D01*
X540936Y890552D01*
X541636Y891118D01*
X542298Y891661D01*
X542893Y892204D01*
X543160Y892479D01*
X543400Y892760D01*
X543613Y893048D01*
X543799Y893343D01*
X543951Y893650D01*
X544059Y893978D01*
X544124Y894325D01*
X544145Y894691D01*
X544136Y894938D01*
X544108Y895171D01*
X544061Y895389D01*
X543996Y895593D01*
X543913Y895783D01*
X543810Y895959D01*
X543689Y896121D01*
X543550Y896268D01*
X543393Y896399D01*
X543223Y896513D01*
X543038Y896609D01*
X542838Y896688D01*
X542624Y896750D01*
X542395Y896793D01*
X542152Y896820D01*
X541894Y896828D01*
X541648Y896820D01*
X541413Y896794D01*
X541189Y896751D01*
X540976Y896692D01*
X540774Y896615D01*
X540583Y896521D01*
X540403Y896409D01*
X540235Y896281D01*
X540080Y896137D01*
X539942Y895980D01*
X539821Y895808D01*
X539717Y895623D01*
X539629Y895424D01*
X539559Y895211D01*
X539505Y894984D01*
X539468Y894744D01*
X537857Y894893D01*
X537915Y895253D01*
X538001Y895595D01*
X538115Y895918D01*
X538258Y896222D01*
X538430Y896507D01*
X538629Y896773D01*
X538857Y897020D01*
X539113Y897249D01*
X539393Y897454D01*
X539693Y897632D01*
X540012Y897783D01*
X540349Y897906D01*
X540707Y898002D01*
X541083Y898070D01*
X541479Y898111D01*
X541894Y898125D01*
X542347Y898111D01*
X542773Y898070D01*
X543172Y898001D01*
X543544Y897905D01*
X543889Y897781D01*
X544207Y897630D01*
X544498Y897451D01*
X544763Y897244D01*
X544998Y897013D01*
X545201Y896758D01*
X545374Y896480D01*
X545515Y896179D01*
X545625Y895855D01*
X545703Y895508D01*
X545750Y895137D01*
X545766Y894744D01*
X545745Y894385D01*
X545683Y894028D01*
X545581Y893672D01*
X545437Y893316D01*
X545253Y892962D01*
X545029Y892607D01*
X544765Y892252D01*
X544461Y891897D01*
X544063Y891494D01*
X543517Y890993D01*
X542823Y890395D01*
X541982Y889699D01*
X541504Y889297D01*
X541078Y888916D01*
X540703Y888555D01*
X540379Y888214D01*
X540102Y887887D01*
X539867Y887565D01*
X539673Y887250D01*
X539521Y886940D01*
X545958Y886940D01*
X545958Y885600D01*
G37*
G36*
X554291Y884600D02*
X552618Y884600D01*
X552618Y896941D01*
X558425Y896941D01*
X558932Y896926D01*
X559408Y896882D01*
X559855Y896810D01*
X560272Y896708D01*
X560660Y896576D01*
X561017Y896416D01*
X561346Y896227D01*
X561644Y896008D01*
X561910Y895763D01*
X562140Y895496D01*
X562335Y895206D01*
X562495Y894892D01*
X562619Y894556D01*
X562707Y894197D01*
X562761Y893816D01*
X562778Y893411D01*
X562766Y893074D01*
X562728Y892751D01*
X562666Y892441D01*
X562578Y892145D01*
X562465Y891863D01*
X562327Y891595D01*
X562165Y891340D01*
X561977Y891099D01*
X561767Y890875D01*
X561538Y890674D01*
X561290Y890493D01*
X561179Y890427D01*
X561023Y890335D01*
X560737Y890198D01*
X560432Y890082D01*
X560108Y889989D01*
X559765Y889916D01*
X561257Y887653D01*
X563269Y884600D01*
X561342Y884600D01*
X558136Y889724D01*
X554291Y889724D01*
X554291Y884600D01*
G37*
%LPC*%
G36*
X558329Y891046D02*
X558650Y891056D01*
X558953Y891085D01*
X559236Y891133D01*
X559501Y891201D01*
X559748Y891287D01*
X559975Y891394D01*
X560184Y891519D01*
X560374Y891664D01*
X560543Y891826D01*
X560690Y892003D01*
X560814Y892196D01*
X560916Y892405D01*
X560995Y892629D01*
X561051Y892868D01*
X561085Y893123D01*
X561097Y893394D01*
X561085Y893655D01*
X561051Y893900D01*
X560994Y894130D01*
X560914Y894343D01*
X560811Y894540D01*
X560685Y894721D01*
X560537Y894887D01*
X560365Y895036D01*
X560172Y895168D01*
X559959Y895283D01*
X559726Y895380D01*
X559473Y895460D01*
X559200Y895521D01*
X558906Y895565D01*
X558593Y895592D01*
X558259Y895601D01*
X554291Y895601D01*
X554291Y891046D01*
X558329Y891046D01*
G37*
%LPD*%
G36*
X579086Y884425D02*
X578629Y884438D01*
X578196Y884478D01*
X577786Y884544D01*
X577401Y884636D01*
X577039Y884755D01*
X576700Y884900D01*
X576385Y885072D01*
X576094Y885270D01*
X575829Y885494D01*
X575593Y885743D01*
X575384Y886018D01*
X575204Y886318D01*
X575053Y886643D01*
X574929Y886994D01*
X574834Y887369D01*
X574768Y887771D01*
X576397Y887919D01*
X576444Y887654D01*
X576508Y887406D01*
X576587Y887175D01*
X576683Y886962D01*
X576795Y886765D01*
X576923Y886585D01*
X577066Y886423D01*
X577227Y886277D01*
X577403Y886149D01*
X577595Y886038D01*
X577803Y885944D01*
X578027Y885867D01*
X578268Y885807D01*
X578524Y885764D01*
X578797Y885738D01*
X579086Y885730D01*
X579375Y885739D01*
X579649Y885767D01*
X579907Y885812D01*
X580149Y885877D01*
X580374Y885959D01*
X580584Y886060D01*
X580778Y886179D01*
X580955Y886317D01*
X581115Y886472D01*
X581252Y886646D01*
X581369Y886837D01*
X581465Y887046D01*
X581539Y887273D01*
X581592Y887517D01*
X581624Y887779D01*
X581634Y888060D01*
X581622Y888305D01*
X581586Y888536D01*
X581525Y888753D01*
X581440Y888956D01*
X581331Y889146D01*
X581198Y889322D01*
X581041Y889484D01*
X580859Y889632D01*
X580655Y889764D01*
X580429Y889879D01*
X580181Y889976D01*
X579912Y890055D01*
X579622Y890117D01*
X579310Y890161D01*
X578976Y890188D01*
X578621Y890197D01*
X577728Y890197D01*
X577728Y891563D01*
X578586Y891563D01*
X578901Y891572D01*
X579198Y891598D01*
X579477Y891642D01*
X579737Y891704D01*
X579979Y891784D01*
X580203Y891881D01*
X580409Y891996D01*
X580596Y892128D01*
X580764Y892276D01*
X580909Y892438D01*
X581031Y892613D01*
X581132Y892801D01*
X581210Y893003D01*
X581266Y893219D01*
X581299Y893449D01*
X581310Y893691D01*
X581301Y893932D01*
X581274Y894160D01*
X581228Y894375D01*
X581165Y894577D01*
X581083Y894766D01*
X580983Y894942D01*
X580864Y895105D01*
X580728Y895255D01*
X580573Y895389D01*
X580401Y895506D01*
X580211Y895604D01*
X580004Y895685D01*
X579779Y895748D01*
X579536Y895793D01*
X579276Y895819D01*
X578998Y895828D01*
X578744Y895820D01*
X578502Y895795D01*
X578272Y895753D01*
X578055Y895695D01*
X577851Y895620D01*
X577659Y895528D01*
X577479Y895419D01*
X577312Y895294D01*
X577159Y895154D01*
X577024Y895000D01*
X576905Y894832D01*
X576803Y894650D01*
X576718Y894455D01*
X576649Y894246D01*
X576598Y894024D01*
X576563Y893788D01*
X574978Y893910D01*
X575036Y894279D01*
X575122Y894626D01*
X575237Y894953D01*
X575380Y895259D01*
X575551Y895544D01*
X575750Y895809D01*
X575978Y896052D01*
X576235Y896275D01*
X576515Y896474D01*
X576814Y896647D01*
X577133Y896793D01*
X577471Y896912D01*
X577828Y897005D01*
X578204Y897072D01*
X578600Y897111D01*
X579015Y897125D01*
X579467Y897111D01*
X579892Y897071D01*
X580292Y897003D01*
X580665Y896909D01*
X581013Y896788D01*
X581335Y896639D01*
X581631Y896464D01*
X581901Y896262D01*
X582143Y896036D01*
X582352Y895788D01*
X582529Y895520D01*
X582673Y895230D01*
X582786Y894918D01*
X582866Y894586D01*
X582914Y894233D01*
X582931Y893858D01*
X582920Y893569D01*
X582889Y893294D01*
X582838Y893033D01*
X582765Y892786D01*
X582672Y892553D01*
X582559Y892333D01*
X582424Y892127D01*
X582269Y891935D01*
X582095Y891758D01*
X581901Y891595D01*
X581689Y891447D01*
X581458Y891315D01*
X581208Y891197D01*
X580940Y891094D01*
X580653Y891006D01*
X580347Y890932D01*
X580347Y890897D01*
X580683Y890850D01*
X581000Y890784D01*
X581298Y890697D01*
X581577Y890591D01*
X581837Y890465D01*
X582078Y890319D01*
X582299Y890154D01*
X582501Y889969D01*
X582682Y889768D01*
X582839Y889554D01*
X582971Y889328D01*
X583079Y889089D01*
X583164Y888837D01*
X583224Y888573D01*
X583260Y888296D01*
X583272Y888007D01*
X583255Y887592D01*
X583204Y887201D01*
X583119Y886835D01*
X583001Y886492D01*
X582848Y886173D01*
X582661Y885879D01*
X582441Y885608D01*
X582186Y885362D01*
X581900Y885142D01*
X581585Y884952D01*
X581241Y884791D01*
X580868Y884659D01*
X580466Y884557D01*
X580035Y884483D01*
X579575Y884440D01*
X579086Y884425D01*
G37*
G36*
X573189Y884600D02*
X565018Y884600D01*
X565018Y885712D01*
X565253Y886210D01*
X565514Y886677D01*
X565799Y887114D01*
X566108Y887521D01*
X566434Y887904D01*
X566768Y888268D01*
X567111Y888613D01*
X567461Y888940D01*
X568168Y889552D01*
X568867Y890118D01*
X569530Y890661D01*
X570124Y891204D01*
X570391Y891479D01*
X570631Y891760D01*
X570844Y892048D01*
X571030Y892343D01*
X571182Y892650D01*
X571290Y892978D01*
X571355Y893325D01*
X571376Y893691D01*
X571367Y893938D01*
X571339Y894171D01*
X571293Y894389D01*
X571228Y894593D01*
X571144Y894783D01*
X571041Y894959D01*
X570920Y895121D01*
X570781Y895268D01*
X570625Y895399D01*
X570454Y895513D01*
X570269Y895609D01*
X570069Y895688D01*
X569855Y895750D01*
X569626Y895793D01*
X569383Y895820D01*
X569126Y895828D01*
X568879Y895820D01*
X568644Y895794D01*
X568420Y895751D01*
X568207Y895692D01*
X568005Y895615D01*
X567814Y895521D01*
X567634Y895409D01*
X567466Y895281D01*
X567311Y895137D01*
X567173Y894980D01*
X567052Y894808D01*
X566948Y894623D01*
X566861Y894424D01*
X566790Y894211D01*
X566736Y893984D01*
X566699Y893744D01*
X565088Y893893D01*
X565146Y894253D01*
X565232Y894595D01*
X565347Y894918D01*
X565490Y895222D01*
X565661Y895507D01*
X565860Y895773D01*
X566088Y896020D01*
X566345Y896249D01*
X566625Y896454D01*
X566924Y896632D01*
X567243Y896783D01*
X567581Y896906D01*
X567938Y897002D01*
X568315Y897070D01*
X568710Y897111D01*
X569126Y897125D01*
X569578Y897111D01*
X570004Y897070D01*
X570403Y897001D01*
X570775Y896905D01*
X571120Y896781D01*
X571439Y896630D01*
X571730Y896451D01*
X571994Y896244D01*
X572229Y896013D01*
X572433Y895758D01*
X572605Y895480D01*
X572746Y895179D01*
X572856Y894855D01*
X572934Y894508D01*
X572981Y894137D01*
X572997Y893744D01*
X572976Y893385D01*
X572915Y893028D01*
X572812Y892672D01*
X572668Y892316D01*
X572484Y891962D01*
X572260Y891607D01*
X571996Y891252D01*
X571692Y890897D01*
X571294Y890494D01*
X570748Y889993D01*
X570054Y889395D01*
X569213Y888699D01*
X568735Y888297D01*
X568309Y887916D01*
X567934Y887555D01*
X567610Y887214D01*
X567333Y886887D01*
X567098Y886565D01*
X566904Y886250D01*
X566752Y885940D01*
X573189Y885940D01*
X573189Y884600D01*
G37*
G36*
X595491Y885600D02*
X593818Y885600D01*
X593818Y897941D01*
X599625Y897941D01*
X600132Y897926D01*
X600608Y897882D01*
X601055Y897810D01*
X601472Y897708D01*
X601860Y897576D01*
X602217Y897416D01*
X602546Y897227D01*
X602844Y897008D01*
X603110Y896763D01*
X603340Y896496D01*
X603535Y896206D01*
X603695Y895892D01*
X603819Y895556D01*
X603907Y895197D01*
X603961Y894816D01*
X603978Y894411D01*
X603966Y894074D01*
X603928Y893751D01*
X603866Y893441D01*
X603778Y893145D01*
X603665Y892863D01*
X603527Y892595D01*
X603365Y892340D01*
X603177Y892099D01*
X602967Y891875D01*
X602738Y891674D01*
X602490Y891493D01*
X602379Y891427D01*
X602223Y891335D01*
X601937Y891198D01*
X601632Y891082D01*
X601308Y890989D01*
X600965Y890916D01*
X602457Y888653D01*
X604469Y885600D01*
X602542Y885600D01*
X599336Y890724D01*
X595491Y890724D01*
X595491Y885600D01*
G37*
%LPC*%
G36*
X599529Y892046D02*
X599850Y892056D01*
X600153Y892085D01*
X600436Y892133D01*
X600701Y892201D01*
X600948Y892287D01*
X601175Y892394D01*
X601384Y892519D01*
X601574Y892664D01*
X601743Y892826D01*
X601890Y893003D01*
X602014Y893196D01*
X602116Y893405D01*
X602195Y893629D01*
X602251Y893868D01*
X602285Y894123D01*
X602297Y894394D01*
X602285Y894655D01*
X602251Y894900D01*
X602194Y895130D01*
X602114Y895343D01*
X602011Y895540D01*
X601885Y895721D01*
X601737Y895887D01*
X601565Y896036D01*
X601372Y896168D01*
X601159Y896283D01*
X600926Y896380D01*
X600673Y896460D01*
X600400Y896521D01*
X600106Y896565D01*
X599793Y896592D01*
X599459Y896601D01*
X595491Y896601D01*
X595491Y892046D01*
X599529Y892046D01*
G37*
%LPD*%
G36*
X623001Y885600D02*
X621512Y885600D01*
X621512Y888394D01*
X615696Y888394D01*
X615696Y889620D01*
X621345Y897941D01*
X623001Y897941D01*
X623001Y889638D01*
X624735Y889638D01*
X624735Y888394D01*
X623001Y888394D01*
X623001Y885600D01*
G37*
%LPC*%
G36*
X621512Y889638D02*
X621512Y896163D01*
X621266Y895699D01*
X620925Y895121D01*
X617763Y890461D01*
X617290Y889813D01*
X617150Y889638D01*
X621512Y889638D01*
G37*
%LPD*%
G36*
X614389Y885600D02*
X606218Y885600D01*
X606218Y886712D01*
X606453Y887210D01*
X606714Y887677D01*
X606999Y888114D01*
X607308Y888521D01*
X607634Y888904D01*
X607968Y889268D01*
X608311Y889613D01*
X608661Y889940D01*
X609368Y890552D01*
X610067Y891118D01*
X610730Y891661D01*
X611324Y892204D01*
X611591Y892479D01*
X611831Y892760D01*
X612044Y893048D01*
X612230Y893343D01*
X612382Y893650D01*
X612490Y893978D01*
X612555Y894325D01*
X612576Y894691D01*
X612567Y894938D01*
X612539Y895171D01*
X612493Y895389D01*
X612428Y895593D01*
X612344Y895783D01*
X612241Y895959D01*
X612120Y896121D01*
X611981Y896268D01*
X611825Y896399D01*
X611654Y896513D01*
X611469Y896609D01*
X611269Y896688D01*
X611055Y896750D01*
X610826Y896793D01*
X610583Y896820D01*
X610326Y896828D01*
X610079Y896820D01*
X609844Y896794D01*
X609620Y896751D01*
X609407Y896692D01*
X609205Y896615D01*
X609014Y896521D01*
X608834Y896409D01*
X608666Y896281D01*
X608511Y896137D01*
X608373Y895980D01*
X608252Y895808D01*
X608148Y895623D01*
X608061Y895424D01*
X607990Y895211D01*
X607936Y894984D01*
X607899Y894744D01*
X606288Y894893D01*
X606346Y895253D01*
X606432Y895595D01*
X606547Y895918D01*
X606690Y896222D01*
X606861Y896507D01*
X607060Y896773D01*
X607288Y897020D01*
X607545Y897249D01*
X607825Y897454D01*
X608124Y897632D01*
X608443Y897783D01*
X608781Y897906D01*
X609138Y898002D01*
X609515Y898070D01*
X609910Y898111D01*
X610326Y898125D01*
X610778Y898111D01*
X611204Y898070D01*
X611603Y898001D01*
X611975Y897905D01*
X612320Y897781D01*
X612639Y897630D01*
X612930Y897451D01*
X613194Y897244D01*
X613429Y897013D01*
X613633Y896758D01*
X613805Y896480D01*
X613946Y896179D01*
X614056Y895855D01*
X614134Y895508D01*
X614181Y895137D01*
X614197Y894744D01*
X614176Y894385D01*
X614115Y894028D01*
X614012Y893672D01*
X613868Y893316D01*
X613684Y892962D01*
X613460Y892607D01*
X613196Y892252D01*
X612892Y891897D01*
X612494Y891494D01*
X611948Y890993D01*
X611254Y890395D01*
X610413Y889699D01*
X609935Y889297D01*
X609509Y888916D01*
X609134Y888555D01*
X608810Y888214D01*
X608533Y887887D01*
X608298Y887565D01*
X608104Y887250D01*
X607952Y886940D01*
X614389Y886940D01*
X614389Y885600D01*
G37*
G36*
X326691Y839600D02*
X325018Y839600D01*
X325018Y851941D01*
X330825Y851941D01*
X331332Y851926D01*
X331808Y851882D01*
X332255Y851810D01*
X332672Y851708D01*
X333060Y851576D01*
X333417Y851416D01*
X333746Y851227D01*
X334044Y851008D01*
X334310Y850763D01*
X334540Y850496D01*
X334735Y850206D01*
X334895Y849892D01*
X335019Y849556D01*
X335107Y849197D01*
X335161Y848816D01*
X335178Y848411D01*
X335166Y848074D01*
X335128Y847751D01*
X335066Y847441D01*
X334978Y847145D01*
X334865Y846863D01*
X334727Y846595D01*
X334565Y846340D01*
X334377Y846099D01*
X334167Y845875D01*
X333938Y845674D01*
X333690Y845493D01*
X333579Y845427D01*
X333423Y845335D01*
X333137Y845198D01*
X332832Y845082D01*
X332508Y844989D01*
X332165Y844916D01*
X333657Y842653D01*
X335669Y839600D01*
X333742Y839600D01*
X330536Y844724D01*
X326691Y844724D01*
X326691Y839600D01*
G37*
%LPC*%
G36*
X330729Y846046D02*
X331050Y846056D01*
X331353Y846085D01*
X331636Y846133D01*
X331901Y846201D01*
X332148Y846287D01*
X332375Y846394D01*
X332584Y846519D01*
X332774Y846664D01*
X332943Y846826D01*
X333090Y847003D01*
X333214Y847196D01*
X333316Y847405D01*
X333395Y847629D01*
X333451Y847868D01*
X333485Y848123D01*
X333497Y848394D01*
X333485Y848655D01*
X333451Y848900D01*
X333394Y849130D01*
X333314Y849343D01*
X333211Y849540D01*
X333085Y849721D01*
X332937Y849887D01*
X332765Y850036D01*
X332572Y850168D01*
X332359Y850283D01*
X332126Y850380D01*
X331873Y850460D01*
X331600Y850521D01*
X331306Y850565D01*
X330993Y850592D01*
X330659Y850601D01*
X326691Y850601D01*
X326691Y846046D01*
X330729Y846046D01*
G37*
%LPD*%
G36*
X351328Y839425D02*
X350907Y839437D01*
X350507Y839472D01*
X350127Y839531D01*
X349769Y839613D01*
X349431Y839719D01*
X349114Y839849D01*
X348818Y840002D01*
X348543Y840178D01*
X348290Y840377D01*
X348061Y840597D01*
X347857Y840838D01*
X347678Y841100D01*
X347522Y841383D01*
X347391Y841687D01*
X347285Y842013D01*
X347203Y842359D01*
X348797Y842543D01*
X348865Y842321D01*
X348946Y842114D01*
X349039Y841921D01*
X349144Y841742D01*
X349262Y841578D01*
X349392Y841427D01*
X349534Y841292D01*
X349688Y841170D01*
X349854Y841063D01*
X350033Y840970D01*
X350224Y840891D01*
X350427Y840827D01*
X350643Y840777D01*
X350871Y840741D01*
X351111Y840719D01*
X351363Y840712D01*
X351672Y840724D01*
X351963Y840760D01*
X352238Y840820D01*
X352495Y840904D01*
X352735Y841012D01*
X352957Y841143D01*
X353163Y841299D01*
X353351Y841479D01*
X353519Y841679D01*
X353665Y841898D01*
X353789Y842134D01*
X353890Y842389D01*
X353968Y842661D01*
X354024Y842951D01*
X354058Y843259D01*
X354069Y843585D01*
X354058Y843869D01*
X354024Y844140D01*
X353968Y844396D01*
X353889Y844638D01*
X353787Y844867D01*
X353663Y845081D01*
X353516Y845282D01*
X353347Y845468D01*
X353158Y845637D01*
X352954Y845782D01*
X352734Y845906D01*
X352498Y846007D01*
X352247Y846085D01*
X351980Y846142D01*
X351697Y846175D01*
X351398Y846186D01*
X351084Y846174D01*
X350780Y846136D01*
X350488Y846073D01*
X350207Y845985D01*
X349931Y845867D01*
X349655Y845713D01*
X349379Y845525D01*
X349103Y845302D01*
X347562Y845302D01*
X347973Y851941D01*
X354989Y851941D01*
X354989Y850601D01*
X349410Y850601D01*
X349173Y846686D01*
X349437Y846870D01*
X349717Y847031D01*
X350012Y847166D01*
X350323Y847277D01*
X350649Y847363D01*
X350991Y847425D01*
X351349Y847462D01*
X351722Y847474D01*
X352166Y847457D01*
X352587Y847407D01*
X352984Y847324D01*
X353359Y847207D01*
X353710Y847057D01*
X354038Y846873D01*
X354343Y846656D01*
X354625Y846405D01*
X354879Y846128D01*
X355099Y845831D01*
X355285Y845513D01*
X355437Y845175D01*
X355555Y844817D01*
X355640Y844438D01*
X355690Y844039D01*
X355707Y843620D01*
X355689Y843145D01*
X355635Y842696D01*
X355544Y842272D01*
X355417Y841875D01*
X355254Y841504D01*
X355054Y841158D01*
X354819Y840839D01*
X354547Y840546D01*
X354242Y840283D01*
X353910Y840055D01*
X353550Y839863D01*
X353162Y839705D01*
X352745Y839583D01*
X352301Y839495D01*
X351828Y839442D01*
X351328Y839425D01*
G37*
G36*
X345589Y839600D02*
X337418Y839600D01*
X337418Y840712D01*
X337653Y841210D01*
X337914Y841677D01*
X338199Y842114D01*
X338508Y842521D01*
X338834Y842904D01*
X339168Y843268D01*
X339511Y843613D01*
X339861Y843940D01*
X340568Y844552D01*
X341267Y845118D01*
X341930Y845661D01*
X342524Y846204D01*
X342791Y846479D01*
X343031Y846760D01*
X343244Y847048D01*
X343430Y847343D01*
X343582Y847650D01*
X343690Y847978D01*
X343755Y848325D01*
X343776Y848691D01*
X343767Y848938D01*
X343739Y849171D01*
X343693Y849389D01*
X343628Y849593D01*
X343544Y849783D01*
X343441Y849959D01*
X343320Y850121D01*
X343181Y850268D01*
X343025Y850399D01*
X342854Y850513D01*
X342669Y850609D01*
X342469Y850688D01*
X342255Y850750D01*
X342026Y850793D01*
X341783Y850820D01*
X341526Y850828D01*
X341279Y850820D01*
X341044Y850794D01*
X340820Y850751D01*
X340607Y850692D01*
X340405Y850615D01*
X340214Y850521D01*
X340034Y850409D01*
X339866Y850281D01*
X339711Y850137D01*
X339573Y849980D01*
X339452Y849808D01*
X339348Y849623D01*
X339261Y849424D01*
X339190Y849211D01*
X339136Y848984D01*
X339099Y848744D01*
X337488Y848893D01*
X337546Y849253D01*
X337632Y849595D01*
X337747Y849918D01*
X337890Y850222D01*
X338061Y850507D01*
X338260Y850773D01*
X338488Y851020D01*
X338745Y851249D01*
X339025Y851454D01*
X339324Y851632D01*
X339643Y851783D01*
X339981Y851906D01*
X340338Y852002D01*
X340715Y852070D01*
X341110Y852111D01*
X341526Y852125D01*
X341978Y852111D01*
X342404Y852070D01*
X342803Y852001D01*
X343175Y851905D01*
X343520Y851781D01*
X343839Y851630D01*
X344130Y851451D01*
X344394Y851244D01*
X344629Y851013D01*
X344833Y850758D01*
X345005Y850480D01*
X345146Y850179D01*
X345256Y849855D01*
X345334Y849508D01*
X345381Y849137D01*
X345397Y848744D01*
X345376Y848385D01*
X345315Y848028D01*
X345212Y847672D01*
X345068Y847316D01*
X344884Y846962D01*
X344660Y846607D01*
X344396Y846252D01*
X344092Y845897D01*
X343694Y845494D01*
X343148Y844993D01*
X342454Y844395D01*
X341613Y843699D01*
X341135Y843297D01*
X340709Y842916D01*
X340334Y842555D01*
X340010Y842214D01*
X339733Y841887D01*
X339498Y841565D01*
X339304Y841250D01*
X339152Y840940D01*
X345589Y840940D01*
X345589Y839600D01*
G37*
G36*
X362891Y839600D02*
X361218Y839600D01*
X361218Y851941D01*
X367025Y851941D01*
X367532Y851926D01*
X368008Y851882D01*
X368455Y851810D01*
X368872Y851708D01*
X369260Y851576D01*
X369617Y851416D01*
X369946Y851227D01*
X370244Y851008D01*
X370510Y850763D01*
X370740Y850496D01*
X370935Y850206D01*
X371095Y849892D01*
X371219Y849556D01*
X371307Y849197D01*
X371361Y848816D01*
X371378Y848411D01*
X371366Y848074D01*
X371328Y847751D01*
X371266Y847441D01*
X371178Y847145D01*
X371065Y846863D01*
X370927Y846595D01*
X370765Y846340D01*
X370577Y846099D01*
X370367Y845875D01*
X370138Y845674D01*
X369890Y845493D01*
X369779Y845427D01*
X369623Y845335D01*
X369337Y845198D01*
X369032Y845082D01*
X368708Y844989D01*
X368365Y844916D01*
X369857Y842653D01*
X371869Y839600D01*
X369942Y839600D01*
X366736Y844724D01*
X362891Y844724D01*
X362891Y839600D01*
G37*
%LPC*%
G36*
X366929Y846046D02*
X367250Y846056D01*
X367553Y846085D01*
X367836Y846133D01*
X368101Y846201D01*
X368348Y846287D01*
X368575Y846394D01*
X368784Y846519D01*
X368974Y846664D01*
X369143Y846826D01*
X369290Y847003D01*
X369414Y847196D01*
X369516Y847405D01*
X369595Y847629D01*
X369651Y847868D01*
X369685Y848123D01*
X369697Y848394D01*
X369685Y848655D01*
X369651Y848900D01*
X369594Y849130D01*
X369514Y849343D01*
X369411Y849540D01*
X369285Y849721D01*
X369137Y849887D01*
X368965Y850036D01*
X368772Y850168D01*
X368559Y850283D01*
X368326Y850380D01*
X368073Y850460D01*
X367800Y850521D01*
X367506Y850565D01*
X367193Y850592D01*
X366859Y850601D01*
X362891Y850601D01*
X362891Y846046D01*
X366929Y846046D01*
G37*
%LPD*%
G36*
X387887Y839425D02*
X387630Y839431D01*
X387381Y839449D01*
X386906Y839522D01*
X386461Y839643D01*
X386048Y839812D01*
X385664Y840030D01*
X385312Y840297D01*
X384990Y840612D01*
X384699Y840975D01*
X384440Y841385D01*
X384216Y841838D01*
X384026Y842336D01*
X383871Y842878D01*
X383750Y843464D01*
X383664Y844094D01*
X383613Y844768D01*
X383595Y845486D01*
X383613Y846264D01*
X383667Y846995D01*
X383757Y847681D01*
X383882Y848319D01*
X384043Y848911D01*
X384241Y849457D01*
X384474Y849956D01*
X384743Y850408D01*
X385045Y850810D01*
X385377Y851159D01*
X385740Y851454D01*
X386133Y851696D01*
X386557Y851883D01*
X386780Y851957D01*
X387011Y852017D01*
X387249Y852064D01*
X387495Y852098D01*
X387748Y852118D01*
X388010Y852125D01*
X388351Y852115D01*
X388676Y852085D01*
X388985Y852036D01*
X389277Y851968D01*
X389554Y851879D01*
X389814Y851771D01*
X390059Y851644D01*
X390287Y851496D01*
X390499Y851329D01*
X390695Y851143D01*
X390874Y850937D01*
X391038Y850711D01*
X391185Y850465D01*
X391316Y850200D01*
X391432Y849915D01*
X391531Y849611D01*
X390024Y849340D01*
X389891Y849693D01*
X389723Y849999D01*
X389521Y850258D01*
X389284Y850469D01*
X389013Y850634D01*
X388707Y850752D01*
X388367Y850822D01*
X387992Y850846D01*
X387664Y850826D01*
X387356Y850767D01*
X387066Y850669D01*
X386795Y850532D01*
X386544Y850355D01*
X386311Y850139D01*
X386098Y849884D01*
X385903Y849589D01*
X385730Y849257D01*
X385579Y848890D01*
X385452Y848488D01*
X385348Y848051D01*
X385267Y847578D01*
X385209Y847071D01*
X385175Y846528D01*
X385163Y845950D01*
X385400Y846325D01*
X385680Y846652D01*
X386004Y846931D01*
X386372Y847163D01*
X386776Y847345D01*
X387208Y847475D01*
X387435Y847521D01*
X387669Y847553D01*
X387910Y847573D01*
X388158Y847579D01*
X388574Y847562D01*
X388968Y847512D01*
X389340Y847429D01*
X389690Y847312D01*
X390018Y847162D01*
X390324Y846978D01*
X390608Y846761D01*
X390869Y846510D01*
X391104Y846232D01*
X391308Y845930D01*
X391480Y845606D01*
X391621Y845258D01*
X391731Y844887D01*
X391809Y844494D01*
X391856Y844077D01*
X391872Y843638D01*
X391856Y843162D01*
X391806Y842713D01*
X391723Y842289D01*
X391607Y841890D01*
X391458Y841518D01*
X391276Y841171D01*
X391061Y840850D01*
X390812Y840555D01*
X390535Y840290D01*
X390232Y840060D01*
X389904Y839866D01*
X389551Y839707D01*
X389173Y839584D01*
X388769Y839495D01*
X388341Y839443D01*
X387887Y839425D01*
G37*
%LPC*%
G36*
X387834Y840695D02*
X388111Y840707D01*
X388373Y840743D01*
X388619Y840803D01*
X388850Y840886D01*
X389066Y840994D01*
X389266Y841126D01*
X389451Y841282D01*
X389621Y841461D01*
X389773Y841662D01*
X389905Y841880D01*
X390016Y842117D01*
X390107Y842371D01*
X390178Y842643D01*
X390229Y842933D01*
X390259Y843242D01*
X390269Y843568D01*
X390259Y843893D01*
X390228Y844199D01*
X390177Y844486D01*
X390105Y844754D01*
X390013Y845003D01*
X389900Y845233D01*
X389766Y845443D01*
X389612Y845635D01*
X389440Y845805D01*
X389252Y845953D01*
X389047Y846078D01*
X388826Y846180D01*
X388589Y846259D01*
X388336Y846316D01*
X388067Y846350D01*
X387782Y846362D01*
X387513Y846352D01*
X387257Y846321D01*
X387014Y846271D01*
X386784Y846201D01*
X386568Y846110D01*
X386365Y845999D01*
X386176Y845869D01*
X385999Y845718D01*
X385840Y845549D01*
X385703Y845366D01*
X385586Y845167D01*
X385490Y844953D01*
X385416Y844723D01*
X385363Y844479D01*
X385331Y844219D01*
X385321Y843944D01*
X385332Y843595D01*
X385365Y843263D01*
X385420Y842946D01*
X385497Y842646D01*
X385596Y842362D01*
X385717Y842093D01*
X385861Y841842D01*
X386026Y841606D01*
X386208Y841392D01*
X386403Y841207D01*
X386611Y841051D01*
X386830Y840923D01*
X387063Y840823D01*
X387308Y840752D01*
X387565Y840709D01*
X387834Y840695D01*
G37*
%LPD*%
G36*
X381789Y839600D02*
X373618Y839600D01*
X373618Y840712D01*
X373853Y841210D01*
X374114Y841677D01*
X374399Y842114D01*
X374708Y842521D01*
X375034Y842904D01*
X375368Y843268D01*
X375711Y843613D01*
X376061Y843940D01*
X376768Y844552D01*
X377467Y845118D01*
X378130Y845661D01*
X378724Y846204D01*
X378991Y846479D01*
X379231Y846760D01*
X379444Y847048D01*
X379630Y847343D01*
X379782Y847650D01*
X379890Y847978D01*
X379955Y848325D01*
X379976Y848691D01*
X379967Y848938D01*
X379939Y849171D01*
X379893Y849389D01*
X379828Y849593D01*
X379744Y849783D01*
X379641Y849959D01*
X379520Y850121D01*
X379381Y850268D01*
X379225Y850399D01*
X379054Y850513D01*
X378869Y850609D01*
X378669Y850688D01*
X378455Y850750D01*
X378226Y850793D01*
X377983Y850820D01*
X377726Y850828D01*
X377479Y850820D01*
X377244Y850794D01*
X377020Y850751D01*
X376807Y850692D01*
X376605Y850615D01*
X376414Y850521D01*
X376234Y850409D01*
X376066Y850281D01*
X375911Y850137D01*
X375773Y849980D01*
X375652Y849808D01*
X375548Y849623D01*
X375461Y849424D01*
X375390Y849211D01*
X375336Y848984D01*
X375299Y848744D01*
X373688Y848893D01*
X373746Y849253D01*
X373832Y849595D01*
X373947Y849918D01*
X374090Y850222D01*
X374261Y850507D01*
X374460Y850773D01*
X374688Y851020D01*
X374945Y851249D01*
X375225Y851454D01*
X375524Y851632D01*
X375843Y851783D01*
X376181Y851906D01*
X376538Y852002D01*
X376915Y852070D01*
X377310Y852111D01*
X377726Y852125D01*
X378178Y852111D01*
X378604Y852070D01*
X379003Y852001D01*
X379375Y851905D01*
X379720Y851781D01*
X380039Y851630D01*
X380330Y851451D01*
X380594Y851244D01*
X380829Y851013D01*
X381033Y850758D01*
X381205Y850480D01*
X381346Y850179D01*
X381456Y849855D01*
X381534Y849508D01*
X381581Y849137D01*
X381597Y848744D01*
X381576Y848385D01*
X381515Y848028D01*
X381412Y847672D01*
X381268Y847316D01*
X381084Y846962D01*
X380860Y846607D01*
X380596Y846252D01*
X380292Y845897D01*
X379894Y845494D01*
X379348Y844993D01*
X378654Y844395D01*
X377813Y843699D01*
X377335Y843297D01*
X376909Y842916D01*
X376534Y842555D01*
X376210Y842214D01*
X375933Y841887D01*
X375698Y841565D01*
X375504Y841250D01*
X375352Y840940D01*
X381789Y840940D01*
X381789Y839600D01*
G37*
G36*
X400091Y838600D02*
X398418Y838600D01*
X398418Y850941D01*
X404225Y850941D01*
X404732Y850926D01*
X405208Y850882D01*
X405655Y850810D01*
X406072Y850708D01*
X406460Y850576D01*
X406817Y850416D01*
X407146Y850227D01*
X407444Y850008D01*
X407710Y849763D01*
X407940Y849496D01*
X408135Y849206D01*
X408295Y848892D01*
X408419Y848556D01*
X408507Y848197D01*
X408561Y847816D01*
X408578Y847411D01*
X408566Y847074D01*
X408528Y846751D01*
X408466Y846441D01*
X408378Y846145D01*
X408265Y845863D01*
X408127Y845595D01*
X407965Y845340D01*
X407777Y845099D01*
X407567Y844875D01*
X407338Y844674D01*
X407090Y844493D01*
X406979Y844427D01*
X406823Y844335D01*
X406537Y844198D01*
X406232Y844082D01*
X405908Y843989D01*
X405565Y843916D01*
X407057Y841653D01*
X409069Y838600D01*
X407142Y838600D01*
X403936Y843724D01*
X400091Y843724D01*
X400091Y838600D01*
G37*
%LPC*%
G36*
X404129Y845046D02*
X404450Y845056D01*
X404753Y845085D01*
X405036Y845133D01*
X405301Y845201D01*
X405548Y845287D01*
X405775Y845394D01*
X405984Y845519D01*
X406174Y845664D01*
X406343Y845826D01*
X406490Y846003D01*
X406614Y846196D01*
X406716Y846405D01*
X406795Y846629D01*
X406851Y846868D01*
X406885Y847123D01*
X406897Y847394D01*
X406885Y847655D01*
X406851Y847900D01*
X406794Y848130D01*
X406714Y848343D01*
X406611Y848540D01*
X406485Y848721D01*
X406337Y848887D01*
X406165Y849036D01*
X405972Y849168D01*
X405759Y849283D01*
X405526Y849380D01*
X405273Y849460D01*
X405000Y849521D01*
X404706Y849565D01*
X404393Y849592D01*
X404059Y849601D01*
X400091Y849601D01*
X400091Y845046D01*
X404129Y845046D01*
G37*
%LPD*%
G36*
X418989Y838600D02*
X410818Y838600D01*
X410818Y839712D01*
X411053Y840210D01*
X411314Y840677D01*
X411599Y841114D01*
X411908Y841521D01*
X412234Y841904D01*
X412568Y842268D01*
X412911Y842613D01*
X413261Y842940D01*
X413968Y843552D01*
X414667Y844118D01*
X415330Y844661D01*
X415924Y845204D01*
X416191Y845479D01*
X416431Y845760D01*
X416644Y846048D01*
X416830Y846343D01*
X416982Y846650D01*
X417090Y846978D01*
X417155Y847325D01*
X417176Y847691D01*
X417167Y847938D01*
X417139Y848171D01*
X417093Y848389D01*
X417028Y848593D01*
X416944Y848783D01*
X416841Y848959D01*
X416720Y849121D01*
X416581Y849268D01*
X416425Y849399D01*
X416254Y849513D01*
X416069Y849609D01*
X415869Y849688D01*
X415655Y849750D01*
X415426Y849793D01*
X415183Y849820D01*
X414926Y849828D01*
X414679Y849820D01*
X414444Y849794D01*
X414220Y849751D01*
X414007Y849692D01*
X413805Y849615D01*
X413614Y849521D01*
X413434Y849409D01*
X413266Y849281D01*
X413111Y849137D01*
X412973Y848980D01*
X412852Y848808D01*
X412748Y848623D01*
X412661Y848424D01*
X412590Y848211D01*
X412536Y847984D01*
X412499Y847744D01*
X410888Y847893D01*
X410946Y848253D01*
X411032Y848595D01*
X411147Y848918D01*
X411290Y849222D01*
X411461Y849507D01*
X411660Y849773D01*
X411888Y850020D01*
X412145Y850249D01*
X412425Y850454D01*
X412724Y850632D01*
X413043Y850783D01*
X413381Y850906D01*
X413738Y851002D01*
X414115Y851070D01*
X414510Y851111D01*
X414926Y851125D01*
X415378Y851111D01*
X415804Y851070D01*
X416203Y851001D01*
X416575Y850905D01*
X416920Y850781D01*
X417239Y850630D01*
X417530Y850451D01*
X417794Y850244D01*
X418029Y850013D01*
X418233Y849758D01*
X418405Y849480D01*
X418546Y849179D01*
X418656Y848855D01*
X418734Y848508D01*
X418781Y848137D01*
X418797Y847744D01*
X418776Y847385D01*
X418715Y847028D01*
X418612Y846672D01*
X418468Y846316D01*
X418284Y845962D01*
X418060Y845607D01*
X417796Y845252D01*
X417492Y844897D01*
X417094Y844494D01*
X416548Y843993D01*
X415854Y843395D01*
X415013Y842699D01*
X414535Y842297D01*
X414109Y841916D01*
X413734Y841555D01*
X413410Y841214D01*
X413133Y840887D01*
X412898Y840565D01*
X412704Y840250D01*
X412552Y839940D01*
X418989Y839940D01*
X418989Y838600D01*
G37*
G36*
X424728Y838600D02*
X423081Y838600D01*
X423097Y839195D01*
X423144Y839798D01*
X423222Y840409D01*
X423332Y841027D01*
X423473Y841654D01*
X423645Y842288D01*
X423849Y842930D01*
X424084Y843579D01*
X424356Y844245D01*
X424670Y844936D01*
X425025Y845652D01*
X425423Y846392D01*
X425863Y847157D01*
X426345Y847947D01*
X426868Y848761D01*
X427434Y849601D01*
X420804Y849601D01*
X420804Y850941D01*
X428958Y850941D01*
X428958Y849662D01*
X428082Y848295D01*
X427344Y847085D01*
X426746Y846031D01*
X426287Y845134D01*
X425921Y844318D01*
X425605Y843507D01*
X425337Y842702D01*
X425118Y841902D01*
X424947Y841098D01*
X424825Y840279D01*
X424752Y839447D01*
X424734Y839025D01*
X424728Y838600D01*
G37*
G36*
X462077Y839425D02*
X461595Y839440D01*
X461141Y839483D01*
X460713Y839557D01*
X460313Y839659D01*
X459939Y839791D01*
X459593Y839952D01*
X459273Y840142D01*
X458981Y840362D01*
X458719Y840609D01*
X458492Y840880D01*
X458300Y841176D01*
X458143Y841496D01*
X458021Y841841D01*
X457934Y842211D01*
X457881Y842606D01*
X457864Y843025D01*
X457875Y843321D01*
X457907Y843605D01*
X457961Y843877D01*
X458037Y844137D01*
X458134Y844385D01*
X458253Y844621D01*
X458394Y844845D01*
X458556Y845057D01*
X458735Y845252D01*
X458926Y845428D01*
X459129Y845583D01*
X459344Y845718D01*
X459571Y845833D01*
X459810Y845927D01*
X460062Y846001D01*
X460325Y846055D01*
X460325Y846090D01*
X460080Y846158D01*
X459848Y846243D01*
X459629Y846345D01*
X459424Y846465D01*
X459232Y846601D01*
X459053Y846755D01*
X458888Y846926D01*
X458735Y847115D01*
X458599Y847316D01*
X458481Y847526D01*
X458380Y847744D01*
X458299Y847971D01*
X458235Y848206D01*
X458189Y848450D01*
X458162Y848702D01*
X458153Y848963D01*
X458169Y849307D01*
X458219Y849635D01*
X458301Y849945D01*
X458417Y850239D01*
X458565Y850517D01*
X458747Y850778D01*
X458961Y851022D01*
X459208Y851249D01*
X459483Y851454D01*
X459781Y851632D01*
X460101Y851783D01*
X460444Y851906D01*
X460810Y852002D01*
X461198Y852070D01*
X461609Y852111D01*
X462042Y852125D01*
X462485Y852111D01*
X462905Y852071D01*
X463300Y852004D01*
X463672Y851910D01*
X464020Y851789D01*
X464343Y851642D01*
X464643Y851468D01*
X464919Y851266D01*
X465166Y851042D01*
X465381Y850799D01*
X465562Y850538D01*
X465710Y850257D01*
X465826Y849957D01*
X465908Y849639D01*
X465958Y849302D01*
X465974Y848945D01*
X465965Y848685D01*
X465938Y848432D01*
X465892Y848189D01*
X465828Y847953D01*
X465745Y847727D01*
X465644Y847508D01*
X465525Y847299D01*
X465387Y847097D01*
X465234Y846909D01*
X465067Y846740D01*
X465050Y846725D01*
X464887Y846589D01*
X464693Y846456D01*
X464486Y846341D01*
X464266Y846245D01*
X464032Y846167D01*
X463785Y846108D01*
X463785Y846073D01*
X464072Y846015D01*
X464343Y845938D01*
X464598Y845841D01*
X464836Y845726D01*
X465057Y845591D01*
X465263Y845436D01*
X465452Y845263D01*
X465590Y845107D01*
X465624Y845070D01*
X465778Y844861D01*
X465911Y844639D01*
X466024Y844405D01*
X466117Y844158D01*
X466188Y843898D01*
X466240Y843625D01*
X466271Y843340D01*
X466281Y843042D01*
X466264Y842627D01*
X466213Y842235D01*
X466128Y841867D01*
X466009Y841523D01*
X465857Y841201D01*
X465670Y840904D01*
X465449Y840630D01*
X465195Y840380D01*
X464908Y840156D01*
X464593Y839962D01*
X464247Y839798D01*
X463872Y839663D01*
X463468Y839559D01*
X463034Y839485D01*
X462570Y839440D01*
X462077Y839425D01*
G37*
%LPC*%
G36*
X462094Y840607D02*
X462406Y840617D01*
X462697Y840646D01*
X462968Y840694D01*
X463218Y840762D01*
X463447Y840848D01*
X463656Y840955D01*
X463844Y841080D01*
X464012Y841225D01*
X464160Y841391D01*
X464288Y841579D01*
X464397Y841791D01*
X464485Y842025D01*
X464554Y842282D01*
X464604Y842562D01*
X464633Y842865D01*
X464643Y843191D01*
X464632Y843469D01*
X464600Y843729D01*
X464547Y843972D01*
X464472Y844197D01*
X464376Y844405D01*
X464259Y844594D01*
X464120Y844766D01*
X463960Y844921D01*
X463780Y845057D01*
X463584Y845176D01*
X463370Y845276D01*
X463139Y845358D01*
X462890Y845421D01*
X462625Y845467D01*
X462342Y845494D01*
X462042Y845503D01*
X461750Y845493D01*
X461475Y845464D01*
X461216Y845415D01*
X460973Y845347D01*
X460747Y845259D01*
X460537Y845151D01*
X460344Y845024D01*
X460167Y844877D01*
X460009Y844713D01*
X459872Y844535D01*
X459756Y844341D01*
X459662Y844134D01*
X459588Y843911D01*
X459535Y843674D01*
X459504Y843422D01*
X459493Y843156D01*
X459503Y842847D01*
X459534Y842559D01*
X459584Y842290D01*
X459656Y842041D01*
X459747Y841812D01*
X459859Y841603D01*
X459991Y841414D01*
X460143Y841244D01*
X460316Y841095D01*
X460509Y840966D01*
X460722Y840856D01*
X460956Y840767D01*
X461210Y840697D01*
X461485Y840647D01*
X461779Y840617D01*
X462094Y840607D01*
G37*
G36*
X462059Y846686D02*
X462329Y846694D01*
X462582Y846718D01*
X462819Y846758D01*
X463039Y846814D01*
X463243Y846886D01*
X463430Y846974D01*
X463600Y847078D01*
X463754Y847198D01*
X463891Y847336D01*
X464009Y847494D01*
X464109Y847672D01*
X464191Y847869D01*
X464255Y848087D01*
X464300Y848324D01*
X464327Y848581D01*
X464336Y848858D01*
X464327Y849111D01*
X464301Y849348D01*
X464256Y849569D01*
X464193Y849774D01*
X464112Y849962D01*
X464014Y850133D01*
X463897Y850289D01*
X463763Y850428D01*
X463610Y850550D01*
X463440Y850657D01*
X463252Y850747D01*
X463046Y850820D01*
X462822Y850877D01*
X462580Y850918D01*
X462320Y850943D01*
X462042Y850951D01*
X461772Y850943D01*
X461519Y850918D01*
X461282Y850877D01*
X461062Y850820D01*
X460858Y850746D01*
X460671Y850655D01*
X460501Y850549D01*
X460347Y850426D01*
X460210Y850286D01*
X460092Y850131D01*
X459992Y849959D01*
X459910Y849771D01*
X459846Y849567D01*
X459801Y849347D01*
X459774Y849110D01*
X459764Y848858D01*
X459774Y848601D01*
X459802Y848359D01*
X459849Y848134D01*
X459914Y847924D01*
X459999Y847730D01*
X460102Y847551D01*
X460224Y847389D01*
X460364Y847242D01*
X460522Y847111D01*
X460695Y846999D01*
X460884Y846903D01*
X461088Y846825D01*
X461308Y846764D01*
X461543Y846720D01*
X461793Y846694D01*
X462059Y846686D01*
G37*
%LPD*%
G36*
X437291Y839600D02*
X435618Y839600D01*
X435618Y851941D01*
X441425Y851941D01*
X441932Y851926D01*
X442408Y851882D01*
X442855Y851810D01*
X443272Y851708D01*
X443660Y851576D01*
X444017Y851416D01*
X444346Y851227D01*
X444644Y851008D01*
X444910Y850763D01*
X445140Y850496D01*
X445335Y850206D01*
X445495Y849892D01*
X445619Y849556D01*
X445707Y849197D01*
X445761Y848816D01*
X445778Y848411D01*
X445766Y848074D01*
X445728Y847751D01*
X445666Y847441D01*
X445578Y847145D01*
X445465Y846863D01*
X445327Y846595D01*
X445165Y846340D01*
X444977Y846099D01*
X444767Y845875D01*
X444538Y845674D01*
X444290Y845493D01*
X444179Y845427D01*
X444023Y845335D01*
X443737Y845198D01*
X443432Y845082D01*
X443108Y844989D01*
X442765Y844916D01*
X444257Y842653D01*
X446269Y839600D01*
X444342Y839600D01*
X441136Y844724D01*
X437291Y844724D01*
X437291Y839600D01*
G37*
%LPC*%
G36*
X441329Y846046D02*
X441650Y846056D01*
X441953Y846085D01*
X442236Y846133D01*
X442501Y846201D01*
X442748Y846287D01*
X442975Y846394D01*
X443184Y846519D01*
X443374Y846664D01*
X443543Y846826D01*
X443690Y847003D01*
X443814Y847196D01*
X443916Y847405D01*
X443995Y847629D01*
X444051Y847868D01*
X444085Y848123D01*
X444097Y848394D01*
X444085Y848655D01*
X444051Y848900D01*
X443994Y849130D01*
X443914Y849343D01*
X443811Y849540D01*
X443685Y849721D01*
X443537Y849887D01*
X443365Y850036D01*
X443172Y850168D01*
X442959Y850283D01*
X442726Y850380D01*
X442473Y850460D01*
X442200Y850521D01*
X441906Y850565D01*
X441593Y850592D01*
X441259Y850601D01*
X437291Y850601D01*
X437291Y846046D01*
X441329Y846046D01*
G37*
%LPD*%
G36*
X456189Y839600D02*
X448018Y839600D01*
X448018Y840712D01*
X448253Y841210D01*
X448514Y841677D01*
X448799Y842114D01*
X449108Y842521D01*
X449434Y842904D01*
X449768Y843268D01*
X450111Y843613D01*
X450461Y843940D01*
X451168Y844552D01*
X451867Y845118D01*
X452530Y845661D01*
X453124Y846204D01*
X453391Y846479D01*
X453631Y846760D01*
X453844Y847048D01*
X454030Y847343D01*
X454182Y847650D01*
X454290Y847978D01*
X454355Y848325D01*
X454376Y848691D01*
X454367Y848938D01*
X454339Y849171D01*
X454293Y849389D01*
X454228Y849593D01*
X454144Y849783D01*
X454041Y849959D01*
X453920Y850121D01*
X453781Y850268D01*
X453625Y850399D01*
X453454Y850513D01*
X453269Y850609D01*
X453069Y850688D01*
X452855Y850750D01*
X452626Y850793D01*
X452383Y850820D01*
X452126Y850828D01*
X451879Y850820D01*
X451644Y850794D01*
X451420Y850751D01*
X451207Y850692D01*
X451005Y850615D01*
X450814Y850521D01*
X450634Y850409D01*
X450466Y850281D01*
X450311Y850137D01*
X450173Y849980D01*
X450052Y849808D01*
X449948Y849623D01*
X449861Y849424D01*
X449790Y849211D01*
X449736Y848984D01*
X449699Y848744D01*
X448088Y848893D01*
X448146Y849253D01*
X448232Y849595D01*
X448347Y849918D01*
X448490Y850222D01*
X448661Y850507D01*
X448860Y850773D01*
X449088Y851020D01*
X449345Y851249D01*
X449625Y851454D01*
X449924Y851632D01*
X450243Y851783D01*
X450581Y851906D01*
X450938Y852002D01*
X451315Y852070D01*
X451710Y852111D01*
X452126Y852125D01*
X452578Y852111D01*
X453004Y852070D01*
X453403Y852001D01*
X453775Y851905D01*
X454120Y851781D01*
X454439Y851630D01*
X454730Y851451D01*
X454994Y851244D01*
X455229Y851013D01*
X455433Y850758D01*
X455605Y850480D01*
X455746Y850179D01*
X455856Y849855D01*
X455934Y849508D01*
X455981Y849137D01*
X455997Y848744D01*
X455976Y848385D01*
X455915Y848028D01*
X455812Y847672D01*
X455668Y847316D01*
X455484Y846962D01*
X455260Y846607D01*
X454996Y846252D01*
X454692Y845897D01*
X454294Y845494D01*
X453748Y844993D01*
X453054Y844395D01*
X452213Y843699D01*
X451735Y843297D01*
X451309Y842916D01*
X450934Y842555D01*
X450610Y842214D01*
X450333Y841887D01*
X450098Y841565D01*
X449904Y841250D01*
X449752Y840940D01*
X456189Y840940D01*
X456189Y839600D01*
G37*
G36*
X474291Y839400D02*
X472618Y839400D01*
X472618Y851741D01*
X478425Y851741D01*
X478932Y851726D01*
X479408Y851682D01*
X479855Y851610D01*
X480272Y851508D01*
X480660Y851376D01*
X481017Y851216D01*
X481346Y851027D01*
X481644Y850808D01*
X481910Y850563D01*
X482140Y850296D01*
X482335Y850006D01*
X482495Y849692D01*
X482619Y849356D01*
X482707Y848997D01*
X482761Y848616D01*
X482778Y848211D01*
X482766Y847874D01*
X482728Y847551D01*
X482666Y847241D01*
X482578Y846945D01*
X482465Y846663D01*
X482327Y846395D01*
X482165Y846140D01*
X481977Y845899D01*
X481767Y845675D01*
X481538Y845474D01*
X481290Y845293D01*
X481179Y845227D01*
X481023Y845135D01*
X480737Y844998D01*
X480432Y844882D01*
X480108Y844789D01*
X479765Y844716D01*
X481257Y842453D01*
X483269Y839400D01*
X481342Y839400D01*
X478136Y844524D01*
X474291Y844524D01*
X474291Y839400D01*
G37*
%LPC*%
G36*
X478329Y845846D02*
X478650Y845856D01*
X478953Y845885D01*
X479236Y845933D01*
X479501Y846001D01*
X479748Y846087D01*
X479975Y846194D01*
X480184Y846319D01*
X480374Y846464D01*
X480543Y846626D01*
X480690Y846803D01*
X480814Y846996D01*
X480916Y847205D01*
X480995Y847429D01*
X481051Y847668D01*
X481085Y847923D01*
X481097Y848194D01*
X481085Y848455D01*
X481051Y848700D01*
X480994Y848930D01*
X480914Y849143D01*
X480811Y849340D01*
X480685Y849521D01*
X480537Y849687D01*
X480365Y849836D01*
X480172Y849968D01*
X479959Y850083D01*
X479726Y850180D01*
X479473Y850260D01*
X479200Y850321D01*
X478906Y850365D01*
X478593Y850392D01*
X478259Y850401D01*
X474291Y850401D01*
X474291Y845846D01*
X478329Y845846D01*
G37*
%LPD*%
G36*
X498744Y839225D02*
X498392Y839234D01*
X498057Y839263D01*
X497741Y839310D01*
X497442Y839377D01*
X497162Y839463D01*
X496899Y839567D01*
X496654Y839691D01*
X496427Y839834D01*
X496217Y839997D01*
X496022Y840185D01*
X495843Y840395D01*
X495680Y840629D01*
X495531Y840887D01*
X495398Y841168D01*
X495281Y841472D01*
X495179Y841800D01*
X496686Y842036D01*
X496822Y841675D01*
X496993Y841362D01*
X497201Y841097D01*
X497443Y840880D01*
X497722Y840712D01*
X498036Y840591D01*
X498385Y840519D01*
X498573Y840501D01*
X498770Y840495D01*
X499100Y840515D01*
X499411Y840574D01*
X499702Y840672D01*
X499974Y840810D01*
X500228Y840987D01*
X500462Y841204D01*
X500677Y841460D01*
X500872Y841756D01*
X501047Y842088D01*
X501200Y842454D01*
X501331Y842853D01*
X501439Y843287D01*
X501526Y843753D01*
X501590Y844254D01*
X501632Y844788D01*
X501652Y845356D01*
X501556Y845164D01*
X501445Y844981D01*
X501319Y844808D01*
X501177Y844645D01*
X501019Y844492D01*
X500845Y844348D01*
X500656Y844214D01*
X500452Y844090D01*
X500237Y843978D01*
X500017Y843881D01*
X499791Y843799D01*
X499561Y843732D01*
X499325Y843680D01*
X499084Y843643D01*
X498838Y843620D01*
X498586Y843613D01*
X498181Y843631D01*
X497796Y843684D01*
X497432Y843773D01*
X497089Y843898D01*
X496766Y844058D01*
X496465Y844253D01*
X496184Y844485D01*
X495924Y844751D01*
X495690Y845048D01*
X495487Y845367D01*
X495315Y845710D01*
X495175Y846076D01*
X495066Y846466D01*
X494988Y846878D01*
X494941Y847314D01*
X494925Y847773D01*
X494942Y848244D01*
X494993Y848689D01*
X495078Y849109D01*
X495197Y849502D01*
X495349Y849869D01*
X495536Y850211D01*
X495757Y850527D01*
X496011Y850817D01*
X496296Y851076D01*
X496607Y851301D01*
X496945Y851492D01*
X497310Y851648D01*
X497701Y851769D01*
X498118Y851855D01*
X498562Y851907D01*
X499033Y851925D01*
X499286Y851919D01*
X499532Y851901D01*
X500000Y851829D01*
X500436Y851710D01*
X500842Y851544D01*
X501216Y851329D01*
X501559Y851067D01*
X501870Y850758D01*
X502151Y850401D01*
X502399Y849996D01*
X502615Y849543D01*
X502797Y849042D01*
X502946Y848494D01*
X503062Y847897D01*
X503145Y847253D01*
X503194Y846560D01*
X503211Y845820D01*
X503193Y845048D01*
X503138Y844322D01*
X503048Y843642D01*
X502921Y843009D01*
X502757Y842421D01*
X502558Y841879D01*
X502322Y841383D01*
X502050Y840933D01*
X501745Y840532D01*
X501408Y840186D01*
X501041Y839892D01*
X500643Y839652D01*
X500215Y839465D01*
X499989Y839392D01*
X499755Y839332D01*
X499514Y839285D01*
X499265Y839252D01*
X499008Y839232D01*
X498744Y839225D01*
G37*
%LPC*%
G36*
X498963Y844857D02*
X499298Y844876D01*
X499622Y844934D01*
X499933Y845031D01*
X500233Y845168D01*
X500511Y845339D01*
X500757Y845543D01*
X500973Y845779D01*
X501157Y846048D01*
X501304Y846342D01*
X501410Y846656D01*
X501473Y846990D01*
X501494Y847344D01*
X501483Y847707D01*
X501451Y848052D01*
X501398Y848379D01*
X501323Y848687D01*
X501227Y848978D01*
X501110Y849250D01*
X500971Y849504D01*
X500811Y849739D01*
X500633Y849952D01*
X500440Y850136D01*
X500233Y850292D01*
X500012Y850419D01*
X499776Y850518D01*
X499525Y850589D01*
X499260Y850632D01*
X498980Y850646D01*
X498703Y850634D01*
X498441Y850598D01*
X498194Y850537D01*
X497962Y850452D01*
X497745Y850343D01*
X497543Y850210D01*
X497357Y850053D01*
X497185Y849871D01*
X497031Y849669D01*
X496898Y849449D01*
X496785Y849213D01*
X496692Y848959D01*
X496620Y848688D01*
X496569Y848400D01*
X496538Y848095D01*
X496528Y847773D01*
X496538Y847445D01*
X496569Y847134D01*
X496620Y846841D01*
X496692Y846566D01*
X496785Y846308D01*
X496898Y846068D01*
X497031Y845845D01*
X497185Y845640D01*
X497356Y845457D01*
X497542Y845298D01*
X497743Y845163D01*
X497958Y845053D01*
X498187Y844967D01*
X498431Y844906D01*
X498690Y844869D01*
X498963Y844857D01*
G37*
%LPD*%
G36*
X493189Y839400D02*
X485018Y839400D01*
X485018Y840512D01*
X485253Y841010D01*
X485514Y841477D01*
X485799Y841914D01*
X486108Y842321D01*
X486434Y842704D01*
X486768Y843068D01*
X487111Y843413D01*
X487461Y843740D01*
X488168Y844352D01*
X488867Y844918D01*
X489530Y845461D01*
X490124Y846004D01*
X490391Y846279D01*
X490631Y846560D01*
X490844Y846848D01*
X491030Y847143D01*
X491182Y847450D01*
X491290Y847778D01*
X491355Y848125D01*
X491376Y848491D01*
X491367Y848738D01*
X491339Y848971D01*
X491293Y849189D01*
X491228Y849393D01*
X491144Y849583D01*
X491041Y849759D01*
X490920Y849921D01*
X490781Y850068D01*
X490625Y850199D01*
X490454Y850313D01*
X490269Y850409D01*
X490069Y850488D01*
X489855Y850550D01*
X489626Y850593D01*
X489383Y850620D01*
X489126Y850628D01*
X488879Y850620D01*
X488644Y850594D01*
X488420Y850551D01*
X488207Y850492D01*
X488005Y850415D01*
X487814Y850321D01*
X487634Y850209D01*
X487466Y850081D01*
X487311Y849937D01*
X487173Y849780D01*
X487052Y849608D01*
X486948Y849423D01*
X486861Y849224D01*
X486790Y849011D01*
X486736Y848784D01*
X486699Y848544D01*
X485088Y848693D01*
X485146Y849053D01*
X485232Y849395D01*
X485347Y849718D01*
X485490Y850022D01*
X485661Y850307D01*
X485860Y850573D01*
X486088Y850820D01*
X486345Y851049D01*
X486625Y851254D01*
X486924Y851432D01*
X487243Y851583D01*
X487581Y851706D01*
X487938Y851802D01*
X488315Y851870D01*
X488710Y851911D01*
X489126Y851925D01*
X489578Y851911D01*
X490004Y851870D01*
X490403Y851801D01*
X490775Y851705D01*
X491120Y851581D01*
X491439Y851430D01*
X491730Y851251D01*
X491994Y851044D01*
X492229Y850813D01*
X492433Y850558D01*
X492605Y850280D01*
X492746Y849979D01*
X492856Y849655D01*
X492934Y849308D01*
X492981Y848937D01*
X492997Y848544D01*
X492976Y848185D01*
X492915Y847828D01*
X492812Y847472D01*
X492668Y847116D01*
X492484Y846762D01*
X492260Y846407D01*
X491996Y846052D01*
X491692Y845697D01*
X491294Y845294D01*
X490748Y844793D01*
X490054Y844195D01*
X489213Y843499D01*
X488735Y843097D01*
X488309Y842716D01*
X487934Y842355D01*
X487610Y842014D01*
X487333Y841687D01*
X487098Y841365D01*
X486904Y841050D01*
X486752Y840740D01*
X493189Y840740D01*
X493189Y839400D01*
G37*
G36*
X520376Y930400D02*
X518703Y930400D01*
X518703Y942741D01*
X524510Y942741D01*
X525016Y942726D01*
X525492Y942682D01*
X525939Y942610D01*
X526357Y942508D01*
X526744Y942376D01*
X527102Y942216D01*
X527430Y942027D01*
X527728Y941808D01*
X527994Y941563D01*
X528225Y941296D01*
X528420Y941006D01*
X528579Y940692D01*
X528703Y940356D01*
X528792Y939997D01*
X528845Y939616D01*
X528863Y939211D01*
X528850Y938874D01*
X528813Y938551D01*
X528750Y938241D01*
X528662Y937945D01*
X528550Y937663D01*
X528412Y937395D01*
X528249Y937140D01*
X528061Y936899D01*
X527851Y936675D01*
X527622Y936474D01*
X527375Y936293D01*
X527264Y936227D01*
X527108Y936135D01*
X526822Y935998D01*
X526517Y935882D01*
X526193Y935789D01*
X525850Y935716D01*
X527341Y933453D01*
X529353Y930400D01*
X527426Y930400D01*
X524221Y935524D01*
X520376Y935524D01*
X520376Y930400D01*
G37*
%LPC*%
G36*
X524413Y936846D02*
X524735Y936856D01*
X525037Y936885D01*
X525321Y936933D01*
X525586Y937001D01*
X525832Y937087D01*
X526060Y937194D01*
X526268Y937319D01*
X526458Y937464D01*
X526628Y937626D01*
X526775Y937803D01*
X526899Y937996D01*
X527000Y938205D01*
X527079Y938429D01*
X527136Y938668D01*
X527170Y938923D01*
X527181Y939194D01*
X527170Y939455D01*
X527135Y939700D01*
X527078Y939930D01*
X526998Y940143D01*
X526895Y940340D01*
X526770Y940521D01*
X526621Y940687D01*
X526450Y940836D01*
X526257Y940968D01*
X526044Y941083D01*
X525811Y941180D01*
X525557Y941260D01*
X525284Y941321D01*
X524990Y941365D01*
X524677Y941392D01*
X524343Y941401D01*
X520376Y941401D01*
X520376Y936846D01*
X524413Y936846D01*
G37*
%LPD*%
G36*
X535201Y930225D02*
X534744Y930238D01*
X534311Y930278D01*
X533902Y930344D01*
X533516Y930436D01*
X533154Y930555D01*
X532816Y930700D01*
X532501Y930872D01*
X532210Y931070D01*
X531945Y931294D01*
X531708Y931543D01*
X531500Y931818D01*
X531320Y932118D01*
X531168Y932443D01*
X531045Y932794D01*
X530950Y933169D01*
X530883Y933571D01*
X532512Y933719D01*
X532560Y933454D01*
X532623Y933206D01*
X532703Y932975D01*
X532799Y932762D01*
X532910Y932565D01*
X533038Y932385D01*
X533182Y932223D01*
X533342Y932077D01*
X533518Y931949D01*
X533710Y931838D01*
X533919Y931744D01*
X534143Y931667D01*
X534383Y931607D01*
X534640Y931564D01*
X534912Y931538D01*
X535201Y931530D01*
X535491Y931539D01*
X535765Y931567D01*
X536022Y931612D01*
X536264Y931677D01*
X536490Y931759D01*
X536700Y931860D01*
X536893Y931979D01*
X537071Y932117D01*
X537230Y932272D01*
X537368Y932446D01*
X537485Y932637D01*
X537580Y932846D01*
X537654Y933073D01*
X537707Y933317D01*
X537739Y933579D01*
X537750Y933860D01*
X537738Y934105D01*
X537701Y934336D01*
X537641Y934553D01*
X537556Y934756D01*
X537447Y934946D01*
X537314Y935122D01*
X537156Y935284D01*
X536975Y935432D01*
X536770Y935564D01*
X536544Y935679D01*
X536297Y935776D01*
X536028Y935855D01*
X535737Y935917D01*
X535425Y935961D01*
X535092Y935988D01*
X534737Y935997D01*
X533844Y935997D01*
X533844Y937363D01*
X534702Y937363D01*
X535017Y937372D01*
X535314Y937398D01*
X535592Y937442D01*
X535853Y937504D01*
X536095Y937584D01*
X536319Y937681D01*
X536524Y937796D01*
X536712Y937928D01*
X536879Y938076D01*
X537024Y938238D01*
X537147Y938413D01*
X537247Y938601D01*
X537325Y938803D01*
X537381Y939019D01*
X537415Y939249D01*
X537426Y939491D01*
X537417Y939732D01*
X537389Y939960D01*
X537344Y940175D01*
X537280Y940377D01*
X537198Y940566D01*
X537098Y940742D01*
X536980Y940905D01*
X536843Y941055D01*
X536689Y941189D01*
X536517Y941306D01*
X536327Y941404D01*
X536120Y941485D01*
X535895Y941548D01*
X535652Y941593D01*
X535392Y941619D01*
X535114Y941628D01*
X534859Y941620D01*
X534617Y941595D01*
X534388Y941553D01*
X534171Y941495D01*
X533966Y941420D01*
X533774Y941328D01*
X533595Y941219D01*
X533428Y941094D01*
X533275Y940954D01*
X533139Y940800D01*
X533020Y940632D01*
X532918Y940450D01*
X532833Y940255D01*
X532765Y940046D01*
X532713Y939824D01*
X532679Y939588D01*
X531093Y939710D01*
X531151Y940079D01*
X531238Y940426D01*
X531352Y940753D01*
X531495Y941059D01*
X531666Y941344D01*
X531866Y941609D01*
X532094Y941852D01*
X532350Y942075D01*
X532630Y942274D01*
X532930Y942447D01*
X533248Y942593D01*
X533586Y942712D01*
X533944Y942805D01*
X534320Y942872D01*
X534716Y942911D01*
X535131Y942925D01*
X535582Y942911D01*
X536008Y942871D01*
X536407Y942803D01*
X536781Y942709D01*
X537129Y942588D01*
X537451Y942439D01*
X537747Y942264D01*
X538017Y942062D01*
X538258Y941836D01*
X538467Y941588D01*
X538644Y941320D01*
X538789Y941030D01*
X538901Y940718D01*
X538982Y940386D01*
X539030Y940033D01*
X539046Y939658D01*
X539036Y939369D01*
X539005Y939094D01*
X538953Y938833D01*
X538881Y938586D01*
X538788Y938353D01*
X538674Y938133D01*
X538540Y937927D01*
X538385Y937735D01*
X538210Y937558D01*
X538017Y937395D01*
X537805Y937247D01*
X537574Y937115D01*
X537324Y936997D01*
X537055Y936894D01*
X536768Y936806D01*
X536462Y936732D01*
X536462Y936697D01*
X536799Y936650D01*
X537116Y936584D01*
X537414Y936497D01*
X537693Y936391D01*
X537953Y936265D01*
X538193Y936119D01*
X538415Y935954D01*
X538617Y935769D01*
X538798Y935568D01*
X538954Y935354D01*
X539087Y935128D01*
X539195Y934889D01*
X539279Y934637D01*
X539340Y934373D01*
X539376Y934096D01*
X539388Y933807D01*
X539371Y933392D01*
X539320Y933001D01*
X539235Y932635D01*
X539116Y932292D01*
X538963Y931973D01*
X538777Y931679D01*
X538556Y931408D01*
X538302Y931162D01*
X538016Y930942D01*
X537701Y930752D01*
X537357Y930591D01*
X536983Y930459D01*
X536581Y930357D01*
X536150Y930283D01*
X535690Y930240D01*
X535201Y930225D01*
G37*
G36*
X537250Y838225D02*
X536989Y838231D01*
X536735Y838250D01*
X536490Y838282D01*
X536253Y838326D01*
X535803Y838453D01*
X535387Y838630D01*
X535004Y838858D01*
X534654Y839136D01*
X534337Y839465D01*
X534054Y839845D01*
X533803Y840274D01*
X533586Y840748D01*
X533402Y841270D01*
X533252Y841838D01*
X533135Y842452D01*
X533052Y843113D01*
X533002Y843821D01*
X532985Y844575D01*
X533001Y845345D01*
X533050Y846065D01*
X533131Y846735D01*
X533245Y847356D01*
X533390Y847926D01*
X533569Y848447D01*
X533780Y848918D01*
X534023Y849339D01*
X534301Y849711D01*
X534617Y850033D01*
X534971Y850305D01*
X535362Y850528D01*
X535791Y850702D01*
X536019Y850770D01*
X536257Y850826D01*
X536505Y850869D01*
X536761Y850900D01*
X537027Y850919D01*
X537303Y850925D01*
X537571Y850918D01*
X537830Y850900D01*
X538081Y850868D01*
X538322Y850825D01*
X538554Y850768D01*
X538778Y850699D01*
X539198Y850524D01*
X539583Y850299D01*
X539931Y850023D01*
X540244Y849698D01*
X540522Y849322D01*
X540765Y848897D01*
X540976Y848424D01*
X541154Y847903D01*
X541300Y847334D01*
X541414Y846716D01*
X541495Y846051D01*
X541543Y845337D01*
X541560Y844575D01*
X541543Y843825D01*
X541492Y843120D01*
X541406Y842462D01*
X541287Y841849D01*
X541134Y841281D01*
X540946Y840760D01*
X540725Y840284D01*
X540469Y839854D01*
X540180Y839472D01*
X539859Y839141D01*
X539505Y838861D01*
X539119Y838632D01*
X538701Y838454D01*
X538250Y838327D01*
X538012Y838282D01*
X537766Y838250D01*
X537512Y838231D01*
X537250Y838225D01*
G37*
%LPC*%
G36*
X537268Y839512D02*
X537605Y839532D01*
X537918Y839590D01*
X538208Y839687D01*
X538474Y839823D01*
X538718Y839998D01*
X538938Y840212D01*
X539135Y840465D01*
X539309Y840756D01*
X539461Y841088D01*
X539592Y841461D01*
X539704Y841876D01*
X539795Y842333D01*
X539866Y842831D01*
X539916Y843370D01*
X539947Y843952D01*
X539957Y844575D01*
X539947Y845220D01*
X539918Y845818D01*
X539870Y846371D01*
X539802Y846878D01*
X539716Y847339D01*
X539610Y847754D01*
X539484Y848123D01*
X539339Y848446D01*
X539172Y848727D01*
X538981Y848971D01*
X538764Y849177D01*
X538522Y849346D01*
X538254Y849477D01*
X537962Y849571D01*
X537645Y849627D01*
X537303Y849646D01*
X536952Y849627D01*
X536627Y849572D01*
X536328Y849480D01*
X536054Y849350D01*
X535806Y849184D01*
X535583Y848981D01*
X535386Y848741D01*
X535214Y848464D01*
X535065Y848144D01*
X534936Y847777D01*
X534827Y847362D01*
X534738Y846900D01*
X534668Y846390D01*
X534619Y845833D01*
X534589Y845228D01*
X534579Y844575D01*
X534589Y843940D01*
X534619Y843349D01*
X534670Y842802D01*
X534740Y842300D01*
X534831Y841841D01*
X534941Y841427D01*
X535072Y841056D01*
X535223Y840730D01*
X535396Y840444D01*
X535592Y840197D01*
X535812Y839988D01*
X536056Y839817D01*
X536324Y839684D01*
X536615Y839588D01*
X536929Y839531D01*
X537268Y839512D01*
G37*
%LPD*%
G36*
X512491Y838400D02*
X510818Y838400D01*
X510818Y850741D01*
X516625Y850741D01*
X517132Y850726D01*
X517608Y850682D01*
X518055Y850610D01*
X518472Y850508D01*
X518860Y850376D01*
X519217Y850216D01*
X519546Y850027D01*
X519844Y849808D01*
X520110Y849563D01*
X520340Y849296D01*
X520535Y849006D01*
X520695Y848692D01*
X520819Y848356D01*
X520907Y847997D01*
X520961Y847616D01*
X520978Y847211D01*
X520966Y846874D01*
X520928Y846551D01*
X520866Y846241D01*
X520778Y845945D01*
X520665Y845663D01*
X520527Y845395D01*
X520365Y845140D01*
X520177Y844899D01*
X519967Y844675D01*
X519738Y844474D01*
X519490Y844293D01*
X519379Y844227D01*
X519223Y844135D01*
X518937Y843998D01*
X518632Y843882D01*
X518308Y843789D01*
X517965Y843716D01*
X519457Y841453D01*
X521469Y838400D01*
X519542Y838400D01*
X516336Y843524D01*
X512491Y843524D01*
X512491Y838400D01*
G37*
%LPC*%
G36*
X516529Y844846D02*
X516850Y844856D01*
X517153Y844885D01*
X517436Y844933D01*
X517701Y845001D01*
X517948Y845087D01*
X518175Y845194D01*
X518384Y845319D01*
X518574Y845464D01*
X518743Y845626D01*
X518890Y845803D01*
X519014Y845996D01*
X519116Y846205D01*
X519195Y846429D01*
X519251Y846668D01*
X519285Y846923D01*
X519297Y847194D01*
X519285Y847455D01*
X519251Y847700D01*
X519194Y847930D01*
X519114Y848143D01*
X519011Y848340D01*
X518885Y848521D01*
X518737Y848687D01*
X518565Y848836D01*
X518372Y848968D01*
X518159Y849083D01*
X517926Y849180D01*
X517673Y849260D01*
X517400Y849321D01*
X517106Y849365D01*
X516793Y849392D01*
X516459Y849401D01*
X512491Y849401D01*
X512491Y844846D01*
X516529Y844846D01*
G37*
%LPD*%
G36*
X527317Y838225D02*
X526860Y838238D01*
X526427Y838278D01*
X526018Y838344D01*
X525632Y838436D01*
X525270Y838555D01*
X524931Y838700D01*
X524617Y838872D01*
X524326Y839070D01*
X524061Y839294D01*
X523824Y839543D01*
X523616Y839818D01*
X523436Y840118D01*
X523284Y840443D01*
X523161Y840794D01*
X523066Y841169D01*
X522999Y841571D01*
X524628Y841719D01*
X524675Y841454D01*
X524739Y841206D01*
X524818Y840975D01*
X524914Y840762D01*
X525026Y840565D01*
X525154Y840385D01*
X525298Y840223D01*
X525458Y840077D01*
X525634Y839949D01*
X525826Y839838D01*
X526034Y839744D01*
X526259Y839667D01*
X526499Y839607D01*
X526756Y839564D01*
X527028Y839538D01*
X527317Y839530D01*
X527607Y839539D01*
X527880Y839567D01*
X528138Y839612D01*
X528380Y839677D01*
X528606Y839759D01*
X528815Y839860D01*
X529009Y839979D01*
X529187Y840117D01*
X529346Y840272D01*
X529484Y840446D01*
X529600Y840637D01*
X529696Y840846D01*
X529770Y841073D01*
X529823Y841317D01*
X529855Y841579D01*
X529865Y841860D01*
X529853Y842105D01*
X529817Y842336D01*
X529756Y842553D01*
X529672Y842756D01*
X529563Y842946D01*
X529429Y843122D01*
X529272Y843284D01*
X529090Y843432D01*
X528886Y843564D01*
X528660Y843679D01*
X528412Y843776D01*
X528143Y843855D01*
X527853Y843917D01*
X527541Y843961D01*
X527207Y843988D01*
X526853Y843997D01*
X525959Y843997D01*
X525959Y845363D01*
X526818Y845363D01*
X527132Y845372D01*
X527429Y845398D01*
X527708Y845442D01*
X527968Y845504D01*
X528210Y845584D01*
X528434Y845681D01*
X528640Y845796D01*
X528828Y845928D01*
X528995Y846076D01*
X529140Y846238D01*
X529263Y846413D01*
X529363Y846601D01*
X529441Y846803D01*
X529497Y847019D01*
X529530Y847249D01*
X529541Y847491D01*
X529532Y847732D01*
X529505Y847960D01*
X529460Y848175D01*
X529396Y848377D01*
X529314Y848566D01*
X529214Y848742D01*
X529095Y848905D01*
X528959Y849055D01*
X528805Y849189D01*
X528632Y849306D01*
X528443Y849404D01*
X528235Y849485D01*
X528010Y849548D01*
X527768Y849593D01*
X527507Y849619D01*
X527229Y849628D01*
X526975Y849620D01*
X526733Y849595D01*
X526504Y849553D01*
X526287Y849495D01*
X526082Y849420D01*
X525890Y849328D01*
X525710Y849219D01*
X525543Y849094D01*
X525391Y848954D01*
X525255Y848800D01*
X525136Y848632D01*
X525034Y848450D01*
X524949Y848255D01*
X524881Y848046D01*
X524829Y847824D01*
X524794Y847588D01*
X523209Y847710D01*
X523267Y848079D01*
X523353Y848426D01*
X523468Y848753D01*
X523611Y849059D01*
X523782Y849344D01*
X523982Y849609D01*
X524210Y849852D01*
X524466Y850075D01*
X524746Y850274D01*
X525045Y850447D01*
X525364Y850593D01*
X525702Y850712D01*
X526059Y850805D01*
X526436Y850872D01*
X526832Y850911D01*
X527247Y850925D01*
X527698Y850911D01*
X528123Y850871D01*
X528523Y850803D01*
X528897Y850709D01*
X529244Y850588D01*
X529566Y850439D01*
X529862Y850264D01*
X530133Y850062D01*
X530374Y849836D01*
X530583Y849588D01*
X530760Y849320D01*
X530904Y849030D01*
X531017Y848718D01*
X531097Y848386D01*
X531146Y848033D01*
X531162Y847658D01*
X531151Y847369D01*
X531120Y847094D01*
X531069Y846833D01*
X530996Y846586D01*
X530903Y846353D01*
X530790Y846133D01*
X530655Y845927D01*
X530500Y845735D01*
X530326Y845558D01*
X530132Y845395D01*
X529920Y845247D01*
X529689Y845115D01*
X529440Y844997D01*
X529171Y844894D01*
X528884Y844806D01*
X528578Y844732D01*
X528578Y844697D01*
X528914Y844650D01*
X529232Y844584D01*
X529530Y844497D01*
X529809Y844391D01*
X530068Y844265D01*
X530309Y844119D01*
X530530Y843954D01*
X530733Y843769D01*
X530913Y843568D01*
X531070Y843354D01*
X531202Y843128D01*
X531311Y842889D01*
X531395Y842637D01*
X531455Y842373D01*
X531491Y842096D01*
X531503Y841807D01*
X531486Y841392D01*
X531435Y841001D01*
X531351Y840635D01*
X531232Y840292D01*
X531079Y839973D01*
X530892Y839679D01*
X530672Y839408D01*
X530417Y839162D01*
X530131Y838942D01*
X529816Y838752D01*
X529472Y838591D01*
X529099Y838459D01*
X528697Y838357D01*
X528266Y838283D01*
X527806Y838240D01*
X527317Y838225D01*
G37*
G36*
X484276Y930400D02*
X482603Y930400D01*
X482603Y942741D01*
X488410Y942741D01*
X488916Y942726D01*
X489392Y942682D01*
X489839Y942610D01*
X490257Y942508D01*
X490644Y942376D01*
X491002Y942216D01*
X491330Y942027D01*
X491628Y941808D01*
X491894Y941563D01*
X492125Y941296D01*
X492320Y941006D01*
X492479Y940692D01*
X492603Y940356D01*
X492692Y939997D01*
X492745Y939616D01*
X492763Y939211D01*
X492750Y938874D01*
X492713Y938551D01*
X492650Y938241D01*
X492562Y937945D01*
X492450Y937663D01*
X492312Y937395D01*
X492149Y937140D01*
X491961Y936899D01*
X491751Y936675D01*
X491522Y936474D01*
X491275Y936293D01*
X491164Y936227D01*
X491008Y936135D01*
X490722Y935998D01*
X490417Y935882D01*
X490093Y935789D01*
X489750Y935716D01*
X491241Y933453D01*
X493253Y930400D01*
X491326Y930400D01*
X488121Y935524D01*
X484276Y935524D01*
X484276Y930400D01*
G37*
%LPC*%
G36*
X488313Y936846D02*
X488635Y936856D01*
X488937Y936885D01*
X489221Y936933D01*
X489486Y937001D01*
X489732Y937087D01*
X489960Y937194D01*
X490168Y937319D01*
X490358Y937464D01*
X490528Y937626D01*
X490675Y937803D01*
X490799Y937996D01*
X490900Y938205D01*
X490979Y938429D01*
X491036Y938668D01*
X491070Y938923D01*
X491081Y939194D01*
X491070Y939455D01*
X491035Y939700D01*
X490978Y939930D01*
X490898Y940143D01*
X490795Y940340D01*
X490670Y940521D01*
X490521Y940687D01*
X490350Y940836D01*
X490157Y940968D01*
X489944Y941083D01*
X489711Y941180D01*
X489457Y941260D01*
X489184Y941321D01*
X488890Y941365D01*
X488577Y941392D01*
X488243Y941401D01*
X484276Y941401D01*
X484276Y936846D01*
X488313Y936846D01*
G37*
%LPD*%
G36*
X501816Y930400D02*
X500327Y930400D01*
X500327Y933194D01*
X494512Y933194D01*
X494512Y934420D01*
X500161Y942741D01*
X501816Y942741D01*
X501816Y934438D01*
X503550Y934438D01*
X503550Y933194D01*
X501816Y933194D01*
X501816Y930400D01*
G37*
%LPC*%
G36*
X500327Y934438D02*
X500327Y940963D01*
X500082Y940499D01*
X499741Y939921D01*
X496579Y935261D01*
X496106Y934613D01*
X495966Y934438D01*
X500327Y934438D01*
G37*
%LPD*%
G36*
X442176Y930400D02*
X440503Y930400D01*
X440503Y942741D01*
X446310Y942741D01*
X446816Y942726D01*
X447292Y942682D01*
X447739Y942610D01*
X448157Y942508D01*
X448544Y942376D01*
X448902Y942216D01*
X449230Y942027D01*
X449528Y941808D01*
X449794Y941563D01*
X450025Y941296D01*
X450220Y941006D01*
X450379Y940692D01*
X450503Y940356D01*
X450592Y939997D01*
X450645Y939616D01*
X450663Y939211D01*
X450650Y938874D01*
X450613Y938551D01*
X450550Y938241D01*
X450462Y937945D01*
X450350Y937663D01*
X450212Y937395D01*
X450049Y937140D01*
X449861Y936899D01*
X449651Y936675D01*
X449422Y936474D01*
X449175Y936293D01*
X449064Y936227D01*
X448908Y936135D01*
X448622Y935998D01*
X448317Y935882D01*
X447993Y935789D01*
X447650Y935716D01*
X449141Y933453D01*
X451153Y930400D01*
X449226Y930400D01*
X446021Y935524D01*
X442176Y935524D01*
X442176Y930400D01*
G37*
%LPC*%
G36*
X446213Y936846D02*
X446535Y936856D01*
X446837Y936885D01*
X447121Y936933D01*
X447386Y937001D01*
X447632Y937087D01*
X447860Y937194D01*
X448068Y937319D01*
X448258Y937464D01*
X448428Y937626D01*
X448575Y937803D01*
X448699Y937996D01*
X448800Y938205D01*
X448879Y938429D01*
X448936Y938668D01*
X448970Y938923D01*
X448981Y939194D01*
X448970Y939455D01*
X448935Y939700D01*
X448878Y939930D01*
X448798Y940143D01*
X448695Y940340D01*
X448570Y940521D01*
X448421Y940687D01*
X448250Y940836D01*
X448057Y940968D01*
X447844Y941083D01*
X447611Y941180D01*
X447357Y941260D01*
X447084Y941321D01*
X446790Y941365D01*
X446477Y941392D01*
X446143Y941401D01*
X442176Y941401D01*
X442176Y936846D01*
X446213Y936846D01*
G37*
%LPD*%
G36*
X456843Y930225D02*
X456423Y930237D01*
X456022Y930272D01*
X455643Y930331D01*
X455284Y930413D01*
X454947Y930519D01*
X454630Y930649D01*
X454334Y930802D01*
X454058Y930978D01*
X453805Y931177D01*
X453577Y931397D01*
X453373Y931638D01*
X453193Y931900D01*
X453038Y932183D01*
X452907Y932487D01*
X452800Y932813D01*
X452718Y933159D01*
X454312Y933343D01*
X454381Y933121D01*
X454462Y932914D01*
X454555Y932721D01*
X454660Y932542D01*
X454777Y932378D01*
X454907Y932227D01*
X455049Y932092D01*
X455203Y931970D01*
X455370Y931863D01*
X455549Y931770D01*
X455740Y931691D01*
X455943Y931627D01*
X456158Y931577D01*
X456386Y931541D01*
X456626Y931519D01*
X456879Y931512D01*
X457187Y931524D01*
X457479Y931560D01*
X457753Y931620D01*
X458011Y931704D01*
X458250Y931812D01*
X458473Y931943D01*
X458679Y932099D01*
X458867Y932279D01*
X459035Y932479D01*
X459181Y932698D01*
X459304Y932934D01*
X459405Y933189D01*
X459484Y933461D01*
X459540Y933751D01*
X459574Y934059D01*
X459585Y934385D01*
X459574Y934669D01*
X459540Y934940D01*
X459483Y935196D01*
X459404Y935438D01*
X459303Y935667D01*
X459178Y935881D01*
X459032Y936082D01*
X458862Y936268D01*
X458674Y936437D01*
X458470Y936582D01*
X458250Y936706D01*
X458014Y936807D01*
X457762Y936885D01*
X457495Y936942D01*
X457212Y936975D01*
X456914Y936986D01*
X456599Y936974D01*
X456296Y936936D01*
X456004Y936873D01*
X455722Y936785D01*
X455446Y936667D01*
X455171Y936513D01*
X454895Y936325D01*
X454619Y936102D01*
X453077Y936102D01*
X453489Y942741D01*
X460505Y942741D01*
X460505Y941401D01*
X454925Y941401D01*
X454689Y937486D01*
X454953Y937670D01*
X455232Y937831D01*
X455528Y937966D01*
X455838Y938077D01*
X456165Y938163D01*
X456507Y938225D01*
X456864Y938262D01*
X457238Y938274D01*
X457681Y938257D01*
X458102Y938207D01*
X458500Y938124D01*
X458874Y938007D01*
X459226Y937857D01*
X459554Y937673D01*
X459859Y937456D01*
X460141Y937205D01*
X460395Y936928D01*
X460614Y936631D01*
X460800Y936313D01*
X460952Y935975D01*
X461071Y935617D01*
X461155Y935238D01*
X461206Y934839D01*
X461223Y934420D01*
X461205Y933945D01*
X461150Y933496D01*
X461060Y933072D01*
X460933Y932675D01*
X460769Y932304D01*
X460570Y931958D01*
X460334Y931639D01*
X460062Y931346D01*
X459758Y931083D01*
X459426Y930855D01*
X459066Y930663D01*
X458677Y930505D01*
X458261Y930383D01*
X457816Y930295D01*
X457344Y930242D01*
X456843Y930225D01*
G37*
G36*
X402076Y930400D02*
X400403Y930400D01*
X400403Y942741D01*
X406210Y942741D01*
X406716Y942726D01*
X407192Y942682D01*
X407639Y942610D01*
X408057Y942508D01*
X408444Y942376D01*
X408802Y942216D01*
X409130Y942027D01*
X409428Y941808D01*
X409694Y941563D01*
X409925Y941296D01*
X410120Y941006D01*
X410279Y940692D01*
X410403Y940356D01*
X410492Y939997D01*
X410545Y939616D01*
X410563Y939211D01*
X410550Y938874D01*
X410513Y938551D01*
X410450Y938241D01*
X410362Y937945D01*
X410250Y937663D01*
X410112Y937395D01*
X409949Y937140D01*
X409761Y936899D01*
X409551Y936675D01*
X409322Y936474D01*
X409075Y936293D01*
X408964Y936227D01*
X408808Y936135D01*
X408522Y935998D01*
X408217Y935882D01*
X407893Y935789D01*
X407550Y935716D01*
X409041Y933453D01*
X411053Y930400D01*
X409126Y930400D01*
X405921Y935524D01*
X402076Y935524D01*
X402076Y930400D01*
G37*
%LPC*%
G36*
X406113Y936846D02*
X406435Y936856D01*
X406737Y936885D01*
X407021Y936933D01*
X407286Y937001D01*
X407532Y937087D01*
X407760Y937194D01*
X407968Y937319D01*
X408158Y937464D01*
X408328Y937626D01*
X408475Y937803D01*
X408599Y937996D01*
X408700Y938205D01*
X408779Y938429D01*
X408836Y938668D01*
X408870Y938923D01*
X408881Y939194D01*
X408870Y939455D01*
X408835Y939700D01*
X408778Y939930D01*
X408698Y940143D01*
X408595Y940340D01*
X408470Y940521D01*
X408321Y940687D01*
X408150Y940836D01*
X407957Y940968D01*
X407744Y941083D01*
X407511Y941180D01*
X407257Y941260D01*
X406984Y941321D01*
X406690Y941365D01*
X406377Y941392D01*
X406043Y941401D01*
X402076Y941401D01*
X402076Y936846D01*
X406113Y936846D01*
G37*
%LPD*%
G36*
X417103Y930225D02*
X416846Y930231D01*
X416597Y930249D01*
X416122Y930322D01*
X415677Y930443D01*
X415263Y930612D01*
X414880Y930830D01*
X414528Y931097D01*
X414206Y931412D01*
X413914Y931775D01*
X413656Y932185D01*
X413432Y932638D01*
X413242Y933136D01*
X413087Y933678D01*
X412966Y934264D01*
X412880Y934894D01*
X412828Y935568D01*
X412811Y936286D01*
X412829Y937064D01*
X412883Y937795D01*
X412972Y938481D01*
X413098Y939119D01*
X413259Y939711D01*
X413456Y940257D01*
X413689Y940756D01*
X413958Y941208D01*
X414260Y941610D01*
X414593Y941959D01*
X414956Y942254D01*
X415349Y942496D01*
X415772Y942683D01*
X415995Y942757D01*
X416226Y942817D01*
X416465Y942864D01*
X416710Y942898D01*
X416964Y942918D01*
X417225Y942925D01*
X417566Y942915D01*
X417891Y942885D01*
X418200Y942836D01*
X418493Y942768D01*
X418770Y942679D01*
X419030Y942571D01*
X419274Y942444D01*
X419502Y942296D01*
X419714Y942129D01*
X419910Y941943D01*
X420090Y941737D01*
X420253Y941511D01*
X420401Y941265D01*
X420532Y941000D01*
X420647Y940715D01*
X420746Y940411D01*
X419240Y940140D01*
X419106Y940493D01*
X418939Y940799D01*
X418736Y941058D01*
X418500Y941269D01*
X418228Y941434D01*
X417923Y941552D01*
X417582Y941622D01*
X417208Y941646D01*
X416880Y941626D01*
X416571Y941567D01*
X416282Y941469D01*
X416011Y941332D01*
X415759Y941155D01*
X415527Y940939D01*
X415313Y940684D01*
X415119Y940389D01*
X414945Y940057D01*
X414795Y939690D01*
X414668Y939288D01*
X414564Y938851D01*
X414483Y938378D01*
X414425Y937871D01*
X414390Y937328D01*
X414379Y936750D01*
X414615Y937125D01*
X414895Y937452D01*
X415219Y937731D01*
X415587Y937963D01*
X415991Y938145D01*
X416424Y938275D01*
X416651Y938321D01*
X416885Y938353D01*
X417126Y938373D01*
X417374Y938379D01*
X417790Y938362D01*
X418184Y938312D01*
X418556Y938229D01*
X418906Y938112D01*
X419234Y937962D01*
X419539Y937778D01*
X419823Y937561D01*
X420085Y937310D01*
X420320Y937032D01*
X420524Y936730D01*
X420696Y936406D01*
X420837Y936058D01*
X420947Y935687D01*
X421025Y935294D01*
X421072Y934877D01*
X421088Y934438D01*
X421071Y933962D01*
X421021Y933513D01*
X420939Y933089D01*
X420823Y932690D01*
X420674Y932318D01*
X420492Y931971D01*
X420276Y931650D01*
X420028Y931355D01*
X419750Y931090D01*
X419448Y930860D01*
X419120Y930666D01*
X418767Y930507D01*
X418388Y930384D01*
X417985Y930295D01*
X417556Y930243D01*
X417103Y930225D01*
G37*
%LPC*%
G36*
X417050Y931495D02*
X417327Y931507D01*
X417589Y931543D01*
X417835Y931603D01*
X418066Y931686D01*
X418282Y931794D01*
X418482Y931926D01*
X418667Y932082D01*
X418837Y932261D01*
X418989Y932462D01*
X419120Y932680D01*
X419232Y932917D01*
X419323Y933171D01*
X419394Y933443D01*
X419444Y933733D01*
X419475Y934042D01*
X419485Y934368D01*
X419475Y934693D01*
X419444Y934999D01*
X419393Y935286D01*
X419321Y935554D01*
X419228Y935803D01*
X419115Y936033D01*
X418982Y936243D01*
X418828Y936435D01*
X418656Y936605D01*
X418467Y936753D01*
X418263Y936878D01*
X418042Y936980D01*
X417805Y937059D01*
X417552Y937116D01*
X417283Y937150D01*
X416997Y937162D01*
X416728Y937152D01*
X416472Y937121D01*
X416230Y937071D01*
X416000Y937001D01*
X415784Y936910D01*
X415581Y936799D01*
X415391Y936669D01*
X415215Y936518D01*
X415056Y936349D01*
X414918Y936166D01*
X414801Y935967D01*
X414706Y935753D01*
X414632Y935523D01*
X414579Y935279D01*
X414547Y935019D01*
X414536Y934744D01*
X414547Y934395D01*
X414580Y934063D01*
X414635Y933746D01*
X414713Y933446D01*
X414812Y933162D01*
X414933Y932893D01*
X415076Y932642D01*
X415241Y932406D01*
X415424Y932192D01*
X415619Y932007D01*
X415826Y931851D01*
X416046Y931723D01*
X416278Y931623D01*
X416523Y931552D01*
X416780Y931509D01*
X417050Y931495D01*
G37*
%LPD*%
G36*
X362976Y930400D02*
X361303Y930400D01*
X361303Y942741D01*
X367110Y942741D01*
X367616Y942726D01*
X368092Y942682D01*
X368539Y942610D01*
X368957Y942508D01*
X369344Y942376D01*
X369702Y942216D01*
X370030Y942027D01*
X370328Y941808D01*
X370594Y941563D01*
X370825Y941296D01*
X371020Y941006D01*
X371179Y940692D01*
X371303Y940356D01*
X371392Y939997D01*
X371445Y939616D01*
X371463Y939211D01*
X371450Y938874D01*
X371413Y938551D01*
X371350Y938241D01*
X371262Y937945D01*
X371150Y937663D01*
X371012Y937395D01*
X370849Y937140D01*
X370661Y936899D01*
X370451Y936675D01*
X370222Y936474D01*
X369975Y936293D01*
X369864Y936227D01*
X369708Y936135D01*
X369422Y935998D01*
X369117Y935882D01*
X368793Y935789D01*
X368450Y935716D01*
X369941Y933453D01*
X371953Y930400D01*
X370026Y930400D01*
X366821Y935524D01*
X362976Y935524D01*
X362976Y930400D01*
G37*
%LPC*%
G36*
X367013Y936846D02*
X367335Y936856D01*
X367637Y936885D01*
X367921Y936933D01*
X368186Y937001D01*
X368432Y937087D01*
X368660Y937194D01*
X368868Y937319D01*
X369058Y937464D01*
X369228Y937626D01*
X369375Y937803D01*
X369499Y937996D01*
X369600Y938205D01*
X369679Y938429D01*
X369736Y938668D01*
X369770Y938923D01*
X369781Y939194D01*
X369770Y939455D01*
X369735Y939700D01*
X369678Y939930D01*
X369598Y940143D01*
X369495Y940340D01*
X369370Y940521D01*
X369221Y940687D01*
X369050Y940836D01*
X368857Y940968D01*
X368644Y941083D01*
X368411Y941180D01*
X368157Y941260D01*
X367884Y941321D01*
X367590Y941365D01*
X367277Y941392D01*
X366943Y941401D01*
X362976Y941401D01*
X362976Y936846D01*
X367013Y936846D01*
G37*
%LPD*%
G36*
X377643Y930400D02*
X375997Y930400D01*
X376013Y930995D01*
X376060Y931598D01*
X376138Y932209D01*
X376248Y932827D01*
X376389Y933454D01*
X376561Y934088D01*
X376765Y934730D01*
X377000Y935379D01*
X377271Y936045D01*
X377585Y936736D01*
X377941Y937452D01*
X378339Y938192D01*
X378778Y938957D01*
X379260Y939747D01*
X379784Y940561D01*
X380350Y941401D01*
X373720Y941401D01*
X373720Y942741D01*
X381874Y942741D01*
X381874Y941462D01*
X380997Y940095D01*
X380260Y938885D01*
X379662Y937831D01*
X379202Y936934D01*
X378837Y936118D01*
X378520Y935307D01*
X378252Y934502D01*
X378033Y933702D01*
X377863Y932898D01*
X377741Y932079D01*
X377668Y931247D01*
X377650Y930825D01*
X377643Y930400D01*
G37*
G36*
X340692Y929225D02*
X340211Y929240D01*
X339757Y929283D01*
X339329Y929357D01*
X338929Y929459D01*
X338555Y929591D01*
X338209Y929752D01*
X337889Y929942D01*
X337596Y930162D01*
X337334Y930409D01*
X337108Y930680D01*
X336916Y930976D01*
X336759Y931296D01*
X336637Y931641D01*
X336549Y932011D01*
X336497Y932406D01*
X336480Y932825D01*
X336490Y933121D01*
X336523Y933405D01*
X336577Y933677D01*
X336652Y933937D01*
X336750Y934185D01*
X336869Y934421D01*
X337009Y934645D01*
X337171Y934857D01*
X337350Y935052D01*
X337541Y935228D01*
X337745Y935383D01*
X337960Y935518D01*
X338187Y935633D01*
X338426Y935727D01*
X338677Y935801D01*
X338941Y935855D01*
X338941Y935890D01*
X338695Y935958D01*
X338464Y936043D01*
X338245Y936145D01*
X338040Y936265D01*
X337848Y936401D01*
X337669Y936555D01*
X337503Y936726D01*
X337351Y936915D01*
X337214Y937116D01*
X337096Y937326D01*
X336996Y937544D01*
X336914Y937771D01*
X336850Y938006D01*
X336805Y938250D01*
X336778Y938502D01*
X336769Y938763D01*
X336785Y939107D01*
X336835Y939435D01*
X336917Y939745D01*
X337032Y940039D01*
X337181Y940317D01*
X337362Y940578D01*
X337577Y940822D01*
X337824Y941049D01*
X338099Y941254D01*
X338397Y941432D01*
X338717Y941583D01*
X339060Y941706D01*
X339425Y941802D01*
X339814Y941870D01*
X340224Y941911D01*
X340657Y941925D01*
X341101Y941911D01*
X341520Y941871D01*
X341916Y941804D01*
X342288Y941710D01*
X342635Y941589D01*
X342959Y941442D01*
X343259Y941268D01*
X343535Y941066D01*
X343782Y940842D01*
X343996Y940599D01*
X344178Y940338D01*
X344326Y940057D01*
X344442Y939757D01*
X344524Y939439D01*
X344573Y939102D01*
X344590Y938745D01*
X344581Y938485D01*
X344553Y938232D01*
X344507Y937989D01*
X344443Y937753D01*
X344361Y937527D01*
X344260Y937308D01*
X344141Y937099D01*
X344003Y936897D01*
X343850Y936709D01*
X343683Y936540D01*
X343665Y936525D01*
X343503Y936389D01*
X343309Y936256D01*
X343102Y936141D01*
X342881Y936045D01*
X342648Y935967D01*
X342400Y935908D01*
X342400Y935873D01*
X342688Y935815D01*
X342959Y935738D01*
X343213Y935641D01*
X343451Y935526D01*
X343673Y935391D01*
X343878Y935236D01*
X344067Y935063D01*
X344206Y934907D01*
X344240Y934870D01*
X344394Y934661D01*
X344527Y934439D01*
X344640Y934205D01*
X344732Y933958D01*
X344804Y933698D01*
X344855Y933425D01*
X344886Y933140D01*
X344896Y932842D01*
X344880Y932427D01*
X344829Y932035D01*
X344744Y931667D01*
X344625Y931323D01*
X344472Y931001D01*
X344286Y930704D01*
X344065Y930430D01*
X343810Y930180D01*
X343524Y929956D01*
X343208Y929762D01*
X342863Y929598D01*
X342488Y929463D01*
X342083Y929359D01*
X341649Y929285D01*
X341186Y929240D01*
X340692Y929225D01*
G37*
%LPC*%
G36*
X340710Y930407D02*
X341022Y930417D01*
X341313Y930446D01*
X341583Y930494D01*
X341833Y930562D01*
X342063Y930648D01*
X342272Y930755D01*
X342460Y930880D01*
X342628Y931025D01*
X342776Y931191D01*
X342904Y931379D01*
X343012Y931591D01*
X343101Y931825D01*
X343170Y932082D01*
X343219Y932362D01*
X343249Y932665D01*
X343259Y932991D01*
X343248Y933269D01*
X343216Y933529D01*
X343163Y933772D01*
X343088Y933997D01*
X342992Y934205D01*
X342874Y934394D01*
X342736Y934566D01*
X342575Y934721D01*
X342396Y934857D01*
X342199Y934976D01*
X341985Y935076D01*
X341754Y935158D01*
X341506Y935221D01*
X341240Y935267D01*
X340957Y935294D01*
X340657Y935303D01*
X340366Y935293D01*
X340090Y935264D01*
X339831Y935215D01*
X339589Y935147D01*
X339363Y935059D01*
X339153Y934951D01*
X338960Y934824D01*
X338783Y934677D01*
X338625Y934513D01*
X338488Y934335D01*
X338372Y934141D01*
X338277Y933934D01*
X338203Y933711D01*
X338151Y933474D01*
X338119Y933222D01*
X338109Y932956D01*
X338119Y932647D01*
X338149Y932359D01*
X338200Y932090D01*
X338271Y931841D01*
X338363Y931612D01*
X338474Y931403D01*
X338607Y931214D01*
X338759Y931044D01*
X338932Y930895D01*
X339125Y930766D01*
X339338Y930656D01*
X339572Y930567D01*
X339826Y930497D01*
X340100Y930447D01*
X340395Y930417D01*
X340710Y930407D01*
G37*
G36*
X340675Y936486D02*
X340945Y936494D01*
X341198Y936518D01*
X341435Y936558D01*
X341655Y936614D01*
X341858Y936686D01*
X342045Y936774D01*
X342216Y936878D01*
X342370Y936998D01*
X342506Y937136D01*
X342624Y937294D01*
X342725Y937472D01*
X342806Y937669D01*
X342870Y937887D01*
X342916Y938124D01*
X342943Y938381D01*
X342952Y938658D01*
X342943Y938911D01*
X342916Y939148D01*
X342871Y939369D01*
X342809Y939574D01*
X342728Y939762D01*
X342629Y939933D01*
X342513Y940089D01*
X342378Y940228D01*
X342226Y940350D01*
X342056Y940457D01*
X341867Y940547D01*
X341661Y940620D01*
X341437Y940677D01*
X341195Y940718D01*
X340935Y940743D01*
X340657Y940751D01*
X340388Y940743D01*
X340134Y940718D01*
X339898Y940677D01*
X339677Y940620D01*
X339474Y940546D01*
X339287Y940455D01*
X339116Y940349D01*
X338963Y940226D01*
X338826Y940086D01*
X338708Y939931D01*
X338608Y939759D01*
X338526Y939571D01*
X338462Y939367D01*
X338417Y939147D01*
X338389Y938910D01*
X338380Y938658D01*
X338389Y938401D01*
X338418Y938159D01*
X338464Y937934D01*
X338530Y937724D01*
X338614Y937530D01*
X338718Y937351D01*
X338839Y937189D01*
X338980Y937042D01*
X339138Y936911D01*
X339311Y936799D01*
X339500Y936703D01*
X339704Y936625D01*
X339923Y936564D01*
X340158Y936520D01*
X340409Y936494D01*
X340675Y936486D01*
G37*
%LPD*%
G36*
X325876Y929400D02*
X324203Y929400D01*
X324203Y941741D01*
X330010Y941741D01*
X330516Y941726D01*
X330992Y941682D01*
X331439Y941610D01*
X331857Y941508D01*
X332244Y941376D01*
X332602Y941216D01*
X332930Y941027D01*
X333228Y940808D01*
X333494Y940563D01*
X333725Y940296D01*
X333920Y940006D01*
X334079Y939692D01*
X334203Y939356D01*
X334292Y938997D01*
X334345Y938616D01*
X334363Y938211D01*
X334350Y937874D01*
X334313Y937551D01*
X334250Y937241D01*
X334162Y936945D01*
X334050Y936663D01*
X333912Y936395D01*
X333749Y936140D01*
X333561Y935899D01*
X333351Y935675D01*
X333122Y935474D01*
X332875Y935293D01*
X332764Y935227D01*
X332608Y935135D01*
X332322Y934998D01*
X332017Y934882D01*
X331693Y934789D01*
X331350Y934716D01*
X332841Y932453D01*
X334853Y929400D01*
X332926Y929400D01*
X329721Y934524D01*
X325876Y934524D01*
X325876Y929400D01*
G37*
%LPC*%
G36*
X329913Y935846D02*
X330235Y935856D01*
X330537Y935885D01*
X330821Y935933D01*
X331086Y936001D01*
X331332Y936087D01*
X331560Y936194D01*
X331768Y936319D01*
X331958Y936464D01*
X332128Y936626D01*
X332275Y936803D01*
X332399Y936996D01*
X332500Y937205D01*
X332579Y937429D01*
X332636Y937668D01*
X332670Y937923D01*
X332681Y938194D01*
X332670Y938455D01*
X332635Y938700D01*
X332578Y938930D01*
X332498Y939143D01*
X332395Y939340D01*
X332270Y939521D01*
X332121Y939687D01*
X331950Y939836D01*
X331757Y939968D01*
X331544Y940083D01*
X331311Y940180D01*
X331057Y940260D01*
X330784Y940321D01*
X330490Y940365D01*
X330177Y940392D01*
X329843Y940401D01*
X325876Y940401D01*
X325876Y935846D01*
X329913Y935846D01*
G37*
%LPD*%
G36*
X599776Y839400D02*
X598103Y839400D01*
X598103Y851741D01*
X603910Y851741D01*
X604416Y851726D01*
X604892Y851682D01*
X605339Y851610D01*
X605757Y851508D01*
X606144Y851376D01*
X606502Y851216D01*
X606830Y851027D01*
X607128Y850808D01*
X607394Y850563D01*
X607625Y850296D01*
X607820Y850006D01*
X607979Y849692D01*
X608103Y849356D01*
X608192Y848997D01*
X608245Y848616D01*
X608263Y848211D01*
X608250Y847874D01*
X608213Y847551D01*
X608150Y847241D01*
X608062Y846945D01*
X607950Y846663D01*
X607812Y846395D01*
X607649Y846140D01*
X607461Y845899D01*
X607251Y845675D01*
X607022Y845474D01*
X606775Y845293D01*
X606664Y845227D01*
X606508Y845135D01*
X606222Y844998D01*
X605917Y844882D01*
X605593Y844789D01*
X605250Y844716D01*
X606741Y842453D01*
X608753Y839400D01*
X606826Y839400D01*
X603621Y844524D01*
X599776Y844524D01*
X599776Y839400D01*
G37*
%LPC*%
G36*
X603813Y845846D02*
X604135Y845856D01*
X604437Y845885D01*
X604721Y845933D01*
X604986Y846001D01*
X605232Y846087D01*
X605460Y846194D01*
X605668Y846319D01*
X605858Y846464D01*
X606028Y846626D01*
X606175Y846803D01*
X606299Y846996D01*
X606400Y847205D01*
X606479Y847429D01*
X606536Y847668D01*
X606570Y847923D01*
X606581Y848194D01*
X606570Y848455D01*
X606535Y848700D01*
X606478Y848930D01*
X606398Y849143D01*
X606295Y849340D01*
X606170Y849521D01*
X606021Y849687D01*
X605850Y849836D01*
X605657Y849968D01*
X605444Y850083D01*
X605211Y850180D01*
X604957Y850260D01*
X604684Y850321D01*
X604390Y850365D01*
X604077Y850392D01*
X603743Y850401D01*
X599776Y850401D01*
X599776Y845846D01*
X603813Y845846D01*
G37*
%LPD*%
G36*
X614260Y839225D02*
X613907Y839234D01*
X613573Y839263D01*
X613256Y839310D01*
X612958Y839377D01*
X612677Y839463D01*
X612415Y839567D01*
X612170Y839691D01*
X611943Y839834D01*
X611733Y839997D01*
X611538Y840185D01*
X611359Y840395D01*
X611195Y840629D01*
X611047Y840887D01*
X610914Y841168D01*
X610797Y841472D01*
X610695Y841800D01*
X612201Y842036D01*
X612337Y841675D01*
X612509Y841362D01*
X612716Y841097D01*
X612959Y840880D01*
X613237Y840712D01*
X613551Y840591D01*
X613901Y840519D01*
X614089Y840501D01*
X614286Y840495D01*
X614616Y840515D01*
X614926Y840574D01*
X615218Y840672D01*
X615490Y840810D01*
X615743Y840987D01*
X615977Y841204D01*
X616192Y841460D01*
X616388Y841756D01*
X616563Y842088D01*
X616716Y842454D01*
X616846Y842853D01*
X616955Y843287D01*
X617041Y843753D01*
X617106Y844254D01*
X617148Y844788D01*
X617167Y845356D01*
X617072Y845164D01*
X616961Y844981D01*
X616834Y844808D01*
X616692Y844645D01*
X616534Y844492D01*
X616361Y844348D01*
X616172Y844214D01*
X615967Y844090D01*
X615752Y843978D01*
X615532Y843881D01*
X615307Y843799D01*
X615076Y843732D01*
X614840Y843680D01*
X614599Y843643D01*
X614353Y843620D01*
X614102Y843613D01*
X613696Y843631D01*
X613311Y843684D01*
X612947Y843773D01*
X612604Y843898D01*
X612282Y844058D01*
X611980Y844253D01*
X611699Y844485D01*
X611439Y844751D01*
X611205Y845048D01*
X611002Y845367D01*
X610831Y845710D01*
X610690Y846076D01*
X610581Y846466D01*
X610503Y846878D01*
X610456Y847314D01*
X610441Y847773D01*
X610458Y848244D01*
X610509Y848689D01*
X610594Y849109D01*
X610712Y849502D01*
X610865Y849869D01*
X611052Y850211D01*
X611272Y850527D01*
X611527Y850817D01*
X611812Y851076D01*
X612123Y851301D01*
X612461Y851492D01*
X612825Y851648D01*
X613216Y851769D01*
X613634Y851855D01*
X614078Y851907D01*
X614549Y851925D01*
X614802Y851919D01*
X615048Y851901D01*
X615515Y851829D01*
X615952Y851710D01*
X616357Y851544D01*
X616731Y851329D01*
X617074Y851067D01*
X617386Y850758D01*
X617667Y850401D01*
X617915Y849996D01*
X618130Y849543D01*
X618312Y849042D01*
X618461Y848494D01*
X618577Y847897D01*
X618660Y847253D01*
X618710Y846560D01*
X618726Y845820D01*
X618708Y845048D01*
X618654Y844322D01*
X618563Y843642D01*
X618436Y843009D01*
X618273Y842421D01*
X618074Y841879D01*
X617838Y841383D01*
X617566Y840933D01*
X617260Y840532D01*
X616924Y840186D01*
X616557Y839892D01*
X616159Y839652D01*
X615730Y839465D01*
X615504Y839392D01*
X615271Y839332D01*
X615030Y839285D01*
X614781Y839252D01*
X614524Y839232D01*
X614260Y839225D01*
G37*
%LPC*%
G36*
X614479Y844857D02*
X614814Y844876D01*
X615138Y844934D01*
X615449Y845031D01*
X615748Y845168D01*
X616026Y845339D01*
X616273Y845543D01*
X616488Y845779D01*
X616673Y846048D01*
X616820Y846342D01*
X616925Y846656D01*
X616989Y846990D01*
X617010Y847344D01*
X616999Y847707D01*
X616967Y848052D01*
X616914Y848379D01*
X616839Y848687D01*
X616743Y848978D01*
X616625Y849250D01*
X616487Y849504D01*
X616327Y849739D01*
X616149Y849952D01*
X615956Y850136D01*
X615749Y850292D01*
X615527Y850419D01*
X615291Y850518D01*
X615041Y850589D01*
X614776Y850632D01*
X614496Y850646D01*
X614219Y850634D01*
X613957Y850598D01*
X613710Y850537D01*
X613478Y850452D01*
X613261Y850343D01*
X613059Y850210D01*
X612872Y850053D01*
X612701Y849871D01*
X612547Y849669D01*
X612413Y849449D01*
X612300Y849213D01*
X612208Y848959D01*
X612136Y848688D01*
X612085Y848400D01*
X612054Y848095D01*
X612044Y847773D01*
X612054Y847445D01*
X612085Y847134D01*
X612136Y846841D01*
X612208Y846566D01*
X612300Y846308D01*
X612413Y846068D01*
X612547Y845845D01*
X612701Y845640D01*
X612872Y845457D01*
X613058Y845298D01*
X613258Y845163D01*
X613473Y845053D01*
X613703Y844967D01*
X613947Y844906D01*
X614205Y844869D01*
X614479Y844857D01*
G37*
%LPD*%
D10*
X266004Y989011D02*
X68596Y989011D01*
X56048Y968479D02*
X56048Y944053D01*
X65925Y944053D01*
X278552Y944053D02*
X278552Y968479D01*
X278552Y944053D02*
X268675Y944053D01*
D11*
X292522Y942073D02*
X292524Y942195D01*
X292530Y942317D01*
X292540Y942439D01*
X292553Y942560D01*
X292571Y942681D01*
X292592Y942801D01*
X292618Y942921D01*
X292647Y943039D01*
X292679Y943157D01*
X292716Y943274D01*
X292756Y943389D01*
X292800Y943503D01*
X292848Y943615D01*
X292899Y943726D01*
X292954Y943835D01*
X293012Y943943D01*
X293074Y944048D01*
X293139Y944151D01*
X293207Y944253D01*
X293279Y944352D01*
X293353Y944448D01*
X293431Y944543D01*
X293512Y944634D01*
X293595Y944724D01*
X293681Y944810D01*
X293771Y944893D01*
X293862Y944974D01*
X293957Y945052D01*
X294053Y945126D01*
X294152Y945198D01*
X294254Y945266D01*
X294357Y945331D01*
X294462Y945393D01*
X294570Y945451D01*
X294679Y945506D01*
X294790Y945557D01*
X294902Y945605D01*
X295016Y945649D01*
X295131Y945689D01*
X295248Y945726D01*
X295366Y945758D01*
X295484Y945787D01*
X295604Y945813D01*
X295724Y945834D01*
X295845Y945852D01*
X295966Y945865D01*
X296088Y945875D01*
X296210Y945881D01*
X296332Y945883D01*
X296454Y945881D01*
X296576Y945875D01*
X296698Y945865D01*
X296819Y945852D01*
X296940Y945834D01*
X297060Y945813D01*
X297180Y945787D01*
X297298Y945758D01*
X297416Y945726D01*
X297533Y945689D01*
X297648Y945649D01*
X297762Y945605D01*
X297874Y945557D01*
X297985Y945506D01*
X298094Y945451D01*
X298202Y945393D01*
X298307Y945331D01*
X298410Y945266D01*
X298512Y945198D01*
X298611Y945126D01*
X298707Y945052D01*
X298802Y944974D01*
X298893Y944893D01*
X298983Y944810D01*
X299069Y944724D01*
X299152Y944634D01*
X299233Y944543D01*
X299311Y944448D01*
X299385Y944352D01*
X299457Y944253D01*
X299525Y944151D01*
X299590Y944048D01*
X299652Y943943D01*
X299710Y943835D01*
X299765Y943726D01*
X299816Y943615D01*
X299864Y943503D01*
X299908Y943389D01*
X299948Y943274D01*
X299985Y943157D01*
X300017Y943039D01*
X300046Y942921D01*
X300072Y942801D01*
X300093Y942681D01*
X300111Y942560D01*
X300124Y942439D01*
X300134Y942317D01*
X300140Y942195D01*
X300142Y942073D01*
X300140Y941951D01*
X300134Y941829D01*
X300124Y941707D01*
X300111Y941586D01*
X300093Y941465D01*
X300072Y941345D01*
X300046Y941225D01*
X300017Y941107D01*
X299985Y940989D01*
X299948Y940872D01*
X299908Y940757D01*
X299864Y940643D01*
X299816Y940531D01*
X299765Y940420D01*
X299710Y940311D01*
X299652Y940203D01*
X299590Y940098D01*
X299525Y939995D01*
X299457Y939893D01*
X299385Y939794D01*
X299311Y939698D01*
X299233Y939603D01*
X299152Y939512D01*
X299069Y939422D01*
X298983Y939336D01*
X298893Y939253D01*
X298802Y939172D01*
X298707Y939094D01*
X298611Y939020D01*
X298512Y938948D01*
X298410Y938880D01*
X298307Y938815D01*
X298202Y938753D01*
X298094Y938695D01*
X297985Y938640D01*
X297874Y938589D01*
X297762Y938541D01*
X297648Y938497D01*
X297533Y938457D01*
X297416Y938420D01*
X297298Y938388D01*
X297180Y938359D01*
X297060Y938333D01*
X296940Y938312D01*
X296819Y938294D01*
X296698Y938281D01*
X296576Y938271D01*
X296454Y938265D01*
X296332Y938263D01*
X296210Y938265D01*
X296088Y938271D01*
X295966Y938281D01*
X295845Y938294D01*
X295724Y938312D01*
X295604Y938333D01*
X295484Y938359D01*
X295366Y938388D01*
X295248Y938420D01*
X295131Y938457D01*
X295016Y938497D01*
X294902Y938541D01*
X294790Y938589D01*
X294679Y938640D01*
X294570Y938695D01*
X294462Y938753D01*
X294357Y938815D01*
X294254Y938880D01*
X294152Y938948D01*
X294053Y939020D01*
X293957Y939094D01*
X293862Y939172D01*
X293771Y939253D01*
X293681Y939336D01*
X293595Y939422D01*
X293512Y939512D01*
X293431Y939603D01*
X293353Y939698D01*
X293279Y939794D01*
X293207Y939893D01*
X293139Y939995D01*
X293074Y940098D01*
X293012Y940203D01*
X292954Y940311D01*
X292899Y940420D01*
X292848Y940531D01*
X292800Y940643D01*
X292756Y940757D01*
X292716Y940872D01*
X292679Y940989D01*
X292647Y941107D01*
X292618Y941225D01*
X292592Y941345D01*
X292571Y941465D01*
X292553Y941586D01*
X292540Y941707D01*
X292530Y941829D01*
X292524Y941951D01*
X292522Y942073D01*
D10*
X71000Y724350D02*
X77350Y718000D01*
X90050Y718000D01*
X96400Y724350D01*
X102750Y718000D01*
X115450Y718000D01*
X121800Y724350D01*
X128150Y718000D01*
X140850Y718000D01*
X147200Y724350D01*
X153550Y718000D01*
X166250Y718000D01*
X172600Y724350D01*
X178950Y718000D01*
X191650Y718000D01*
X198000Y724350D01*
X204350Y718000D01*
X217050Y718000D01*
X223400Y724350D01*
X71000Y724350D02*
X71000Y762450D01*
X77350Y768800D01*
X90050Y768800D01*
X96400Y762450D01*
X102750Y768800D01*
X115450Y768800D01*
X121800Y762450D01*
X128150Y768800D01*
X140850Y768800D01*
X147200Y762450D01*
X153550Y768800D01*
X166250Y768800D01*
X172600Y762450D01*
X178950Y768800D01*
X191650Y768800D01*
X198000Y762450D01*
X204350Y768800D01*
X217050Y768800D01*
X223400Y762450D01*
X229750Y768800D01*
X242450Y768800D01*
X248800Y762450D01*
X255150Y768800D01*
X267850Y768800D01*
X274200Y762450D01*
X280550Y768800D01*
X293250Y768800D01*
X299600Y762450D01*
X305950Y768800D01*
X318650Y768800D01*
X325000Y762450D01*
X331350Y768800D01*
X344050Y768800D01*
X350400Y762450D01*
X356750Y768800D01*
X369450Y768800D01*
X375800Y762450D01*
X382150Y768800D01*
X394850Y768800D01*
X401200Y762450D01*
X407550Y768800D01*
X420250Y768800D01*
X426600Y762450D01*
X432950Y768800D01*
X445650Y768800D01*
X452000Y762450D01*
X458350Y768800D01*
X471050Y768800D01*
X477400Y762450D01*
X483750Y768800D01*
X496450Y768800D01*
X502800Y762450D01*
X509150Y768800D01*
X521850Y768800D01*
X528200Y762450D01*
X534550Y768800D01*
X547250Y768800D01*
X553600Y762450D01*
X553600Y724350D02*
X547250Y718000D01*
X534550Y718000D01*
X528200Y724350D01*
X521850Y718000D01*
X509150Y718000D01*
X502800Y724350D01*
X496450Y718000D01*
X483750Y718000D01*
X477400Y724350D01*
X471050Y718000D01*
X458350Y718000D01*
X452000Y724350D01*
X445650Y718000D01*
X432950Y718000D01*
X426600Y724350D01*
X420250Y718000D01*
X407550Y718000D01*
X401200Y724350D01*
X394850Y718000D01*
X382150Y718000D01*
X375800Y724350D01*
X369450Y718000D01*
X356750Y718000D01*
X350400Y724350D01*
X344050Y718000D01*
X331350Y718000D01*
X325000Y724350D01*
X318650Y718000D01*
X305950Y718000D01*
X299600Y724350D01*
X293250Y718000D01*
X280550Y718000D01*
X274200Y724350D01*
X267850Y718000D01*
X255150Y718000D01*
X248800Y724350D01*
X242450Y718000D01*
X229750Y718000D01*
X223400Y724350D01*
X96400Y724350D02*
X96400Y762450D01*
X121800Y762450D02*
X121800Y724350D01*
X147200Y724350D02*
X147200Y762450D01*
X172600Y762450D02*
X172600Y724350D01*
X198000Y724350D02*
X198000Y762450D01*
X223400Y762450D02*
X223400Y724350D01*
X248800Y724350D02*
X248800Y762450D01*
X274200Y762450D02*
X274200Y724350D01*
X299600Y724350D02*
X299600Y762450D01*
X325000Y762450D02*
X325000Y724350D01*
X350400Y724350D02*
X350400Y762450D01*
X375800Y762450D02*
X375800Y724350D01*
X401200Y724350D02*
X401200Y762450D01*
X426600Y762450D02*
X426600Y724350D01*
X452000Y724350D02*
X452000Y762450D01*
X477400Y762450D02*
X477400Y724350D01*
X502800Y724350D02*
X502800Y762450D01*
X528200Y762450D02*
X528200Y724350D01*
X553600Y724350D02*
X553600Y762450D01*
X559950Y768800D01*
X572650Y768800D01*
X579000Y762450D01*
X579000Y724350D02*
X572650Y718000D01*
X559950Y718000D01*
X553600Y724350D01*
X579000Y724350D02*
X579000Y762450D01*
D12*
X600400Y924060D02*
X611400Y924060D01*
X611400Y911340D02*
X600400Y911340D01*
X574400Y832660D02*
X563400Y832660D01*
X563400Y819940D02*
X574400Y819940D01*
X344500Y881060D02*
X333500Y881060D01*
X333500Y868340D02*
X344500Y868340D01*
X370100Y880260D02*
X381100Y880260D01*
X381100Y867540D02*
X370100Y867540D01*
X406300Y879260D02*
X417300Y879260D01*
X417300Y866540D02*
X406300Y866540D01*
X447500Y878260D02*
X458500Y878260D01*
X458500Y865540D02*
X447500Y865540D01*
X560300Y926060D02*
X571300Y926060D01*
X571300Y913340D02*
X560300Y913340D01*
X497700Y879260D02*
X486700Y879260D01*
X486700Y866540D02*
X497700Y866540D01*
X524900Y879260D02*
X535900Y879260D01*
X535900Y866540D02*
X524900Y866540D01*
X562100Y878260D02*
X573100Y878260D01*
X573100Y865540D02*
X562100Y865540D01*
X603300Y879260D02*
X614300Y879260D01*
X614300Y866540D02*
X603300Y866540D01*
X345500Y833260D02*
X334500Y833260D01*
X334500Y820540D02*
X345500Y820540D01*
X370700Y833260D02*
X381700Y833260D01*
X381700Y820540D02*
X370700Y820540D01*
X407900Y832260D02*
X418900Y832260D01*
X418900Y819540D02*
X407900Y819540D01*
X445100Y833260D02*
X456100Y833260D01*
X456100Y820540D02*
X445100Y820540D01*
X482100Y833060D02*
X493100Y833060D01*
X493100Y820340D02*
X482100Y820340D01*
X523200Y924060D02*
X534200Y924060D01*
X534200Y911340D02*
X523200Y911340D01*
X520300Y832060D02*
X531300Y832060D01*
X531300Y819340D02*
X520300Y819340D01*
X498100Y924060D02*
X487100Y924060D01*
X487100Y911340D02*
X498100Y911340D01*
X456000Y924060D02*
X445000Y924060D01*
X445000Y911340D02*
X456000Y911340D01*
X415900Y924060D02*
X404900Y924060D01*
X404900Y911340D02*
X415900Y911340D01*
X376800Y924060D02*
X365800Y924060D01*
X365800Y911340D02*
X376800Y911340D01*
X339700Y923060D02*
X328700Y923060D01*
X328700Y910340D02*
X339700Y910340D01*
X602600Y833060D02*
X613600Y833060D01*
X613600Y820340D02*
X602600Y820340D01*
M02*
