G04 EAGLE Gerber RS-274X export*
G75*
%MOMM*%
%FSLAX34Y34*%
%LPD*%
%INSilkscreen Bottom*%
%IPPOS*%
%AMOC8*
5,1,8,0,0,1.08239X$1,22.5*%
G01*
G04 Define Apertures*
%ADD10C,0.508000*%
D10*
X300142Y942073D02*
X300140Y942195D01*
X300134Y942317D01*
X300124Y942439D01*
X300111Y942560D01*
X300093Y942681D01*
X300072Y942801D01*
X300046Y942921D01*
X300017Y943039D01*
X299985Y943157D01*
X299948Y943274D01*
X299908Y943389D01*
X299864Y943503D01*
X299816Y943615D01*
X299765Y943726D01*
X299710Y943835D01*
X299652Y943943D01*
X299590Y944048D01*
X299525Y944151D01*
X299457Y944253D01*
X299385Y944352D01*
X299311Y944448D01*
X299233Y944543D01*
X299152Y944634D01*
X299069Y944724D01*
X298983Y944810D01*
X298893Y944893D01*
X298802Y944974D01*
X298707Y945052D01*
X298611Y945126D01*
X298512Y945198D01*
X298410Y945266D01*
X298307Y945331D01*
X298202Y945393D01*
X298094Y945451D01*
X297985Y945506D01*
X297874Y945557D01*
X297762Y945605D01*
X297648Y945649D01*
X297533Y945689D01*
X297416Y945726D01*
X297298Y945758D01*
X297180Y945787D01*
X297060Y945813D01*
X296940Y945834D01*
X296819Y945852D01*
X296698Y945865D01*
X296576Y945875D01*
X296454Y945881D01*
X296332Y945883D01*
X296210Y945881D01*
X296088Y945875D01*
X295966Y945865D01*
X295845Y945852D01*
X295724Y945834D01*
X295604Y945813D01*
X295484Y945787D01*
X295366Y945758D01*
X295248Y945726D01*
X295131Y945689D01*
X295016Y945649D01*
X294902Y945605D01*
X294790Y945557D01*
X294679Y945506D01*
X294570Y945451D01*
X294462Y945393D01*
X294357Y945331D01*
X294254Y945266D01*
X294152Y945198D01*
X294053Y945126D01*
X293957Y945052D01*
X293862Y944974D01*
X293771Y944893D01*
X293681Y944810D01*
X293595Y944724D01*
X293512Y944634D01*
X293431Y944543D01*
X293353Y944448D01*
X293279Y944352D01*
X293207Y944253D01*
X293139Y944151D01*
X293074Y944048D01*
X293012Y943943D01*
X292954Y943835D01*
X292899Y943726D01*
X292848Y943615D01*
X292800Y943503D01*
X292756Y943389D01*
X292716Y943274D01*
X292679Y943157D01*
X292647Y943039D01*
X292618Y942921D01*
X292592Y942801D01*
X292571Y942681D01*
X292553Y942560D01*
X292540Y942439D01*
X292530Y942317D01*
X292524Y942195D01*
X292522Y942073D01*
X292524Y941951D01*
X292530Y941829D01*
X292540Y941707D01*
X292553Y941586D01*
X292571Y941465D01*
X292592Y941345D01*
X292618Y941225D01*
X292647Y941107D01*
X292679Y940989D01*
X292716Y940872D01*
X292756Y940757D01*
X292800Y940643D01*
X292848Y940531D01*
X292899Y940420D01*
X292954Y940311D01*
X293012Y940203D01*
X293074Y940098D01*
X293139Y939995D01*
X293207Y939893D01*
X293279Y939794D01*
X293353Y939698D01*
X293431Y939603D01*
X293512Y939512D01*
X293595Y939422D01*
X293681Y939336D01*
X293771Y939253D01*
X293862Y939172D01*
X293957Y939094D01*
X294053Y939020D01*
X294152Y938948D01*
X294254Y938880D01*
X294357Y938815D01*
X294462Y938753D01*
X294570Y938695D01*
X294679Y938640D01*
X294790Y938589D01*
X294902Y938541D01*
X295016Y938497D01*
X295131Y938457D01*
X295248Y938420D01*
X295366Y938388D01*
X295484Y938359D01*
X295604Y938333D01*
X295724Y938312D01*
X295845Y938294D01*
X295966Y938281D01*
X296088Y938271D01*
X296210Y938265D01*
X296332Y938263D01*
X296454Y938265D01*
X296576Y938271D01*
X296698Y938281D01*
X296819Y938294D01*
X296940Y938312D01*
X297060Y938333D01*
X297180Y938359D01*
X297298Y938388D01*
X297416Y938420D01*
X297533Y938457D01*
X297648Y938497D01*
X297762Y938541D01*
X297874Y938589D01*
X297985Y938640D01*
X298094Y938695D01*
X298202Y938753D01*
X298307Y938815D01*
X298410Y938880D01*
X298512Y938948D01*
X298611Y939020D01*
X298707Y939094D01*
X298802Y939172D01*
X298893Y939253D01*
X298983Y939336D01*
X299069Y939422D01*
X299152Y939512D01*
X299233Y939603D01*
X299311Y939698D01*
X299385Y939794D01*
X299457Y939893D01*
X299525Y939995D01*
X299590Y940098D01*
X299652Y940203D01*
X299710Y940311D01*
X299765Y940420D01*
X299816Y940531D01*
X299864Y940643D01*
X299908Y940757D01*
X299948Y940872D01*
X299985Y940989D01*
X300017Y941107D01*
X300046Y941225D01*
X300072Y941345D01*
X300093Y941465D01*
X300111Y941586D01*
X300124Y941707D01*
X300134Y941829D01*
X300140Y941951D01*
X300142Y942073D01*
M02*
