G04 EAGLE Gerber RS-274X export*
G75*
%MOMM*%
%FSLAX34Y34*%
%LPD*%
%INSoldermask Bottom*%
%IPPOS*%
%AMOC8*
5,1,8,0,0,1.08239X$1,22.5*%
G01*
G04 Define Apertures*
%ADD10P,1.8695X8X22.5*%
%ADD11C,3.569200*%
D10*
X83700Y730700D03*
X83700Y756100D03*
X109100Y730700D03*
X109100Y756100D03*
X134500Y730700D03*
X134500Y756100D03*
X159900Y730700D03*
X159900Y756100D03*
X185300Y730700D03*
X185300Y756100D03*
X210700Y730700D03*
X210700Y756100D03*
X236100Y730700D03*
X236100Y756100D03*
X261500Y730700D03*
X261500Y756100D03*
X286900Y730700D03*
X286900Y756100D03*
X312300Y730700D03*
X312300Y756100D03*
X337700Y730700D03*
X337700Y756100D03*
X363100Y730700D03*
X363100Y756100D03*
X388500Y730700D03*
X388500Y756100D03*
X413900Y730700D03*
X413900Y756100D03*
X439300Y730700D03*
X439300Y756100D03*
X464700Y730700D03*
X464700Y756100D03*
X490100Y730700D03*
X490100Y756100D03*
X515500Y730700D03*
X515500Y756100D03*
X540900Y730700D03*
X540900Y756100D03*
X566300Y730700D03*
X566300Y756100D03*
D11*
X623010Y973010D03*
X623010Y726990D03*
X26990Y973010D03*
X26990Y726990D03*
M02*
