G04 EAGLE Gerber RS-274X export*
G75*
%MOMM*%
%FSLAX34Y34*%
%LPD*%
%INSolderpaste Top*%
%IPPOS*%
%AMOC8*
5,1,8,0,0,1.08239X$1,22.5*%
G01*
G04 Define Apertures*
%ADD10R,0.609600X1.549400*%
%ADD11R,1.193800X1.803400*%
%ADD12R,0.535100X0.644000*%
D10*
X262300Y942073D03*
X252300Y942073D03*
X242300Y942073D03*
X232300Y942073D03*
X222300Y942073D03*
X212300Y942073D03*
X202300Y942073D03*
X192300Y942073D03*
X182300Y942073D03*
X172300Y942073D03*
X162300Y942073D03*
X152300Y942073D03*
X142300Y942073D03*
X132300Y942073D03*
X122300Y942073D03*
X112300Y942073D03*
X102300Y942073D03*
X92300Y942073D03*
X82300Y942073D03*
X72300Y942073D03*
D11*
X275300Y980823D03*
X59300Y980823D03*
D12*
X600825Y917700D03*
X610975Y917700D03*
X563825Y826300D03*
X573975Y826300D03*
X333925Y874700D03*
X344075Y874700D03*
X370525Y873900D03*
X380675Y873900D03*
X406725Y872900D03*
X416875Y872900D03*
X447925Y871900D03*
X458075Y871900D03*
X560725Y919700D03*
X570875Y919700D03*
X487125Y872900D03*
X497275Y872900D03*
X525325Y872900D03*
X535475Y872900D03*
X562525Y871900D03*
X572675Y871900D03*
X603725Y872900D03*
X613875Y872900D03*
X334925Y826900D03*
X345075Y826900D03*
X371125Y826900D03*
X381275Y826900D03*
X408325Y825900D03*
X418475Y825900D03*
X445525Y826900D03*
X455675Y826900D03*
X482525Y826700D03*
X492675Y826700D03*
X523625Y917700D03*
X533775Y917700D03*
X520725Y825700D03*
X530875Y825700D03*
X487525Y917700D03*
X497675Y917700D03*
X445425Y917700D03*
X455575Y917700D03*
X405325Y917700D03*
X415475Y917700D03*
X366225Y917700D03*
X376375Y917700D03*
X329125Y916700D03*
X339275Y916700D03*
X603025Y826700D03*
X613175Y826700D03*
M02*
