G04 EAGLE Gerber RS-274X export*
G75*
%MOMM*%
%FSLAX34Y34*%
%LPD*%
%INBottom Copper*%
%IPPOS*%
%AMOC8*
5,1,8,0,0,1.08239X$1,22.5*%
G01*
G04 Define Apertures*
%ADD10P,1.64956X8X292.5*%
%ADD11C,1.524000*%
%ADD12C,0.152400*%
%ADD13C,0.756400*%
D10*
X709500Y574558D03*
X734900Y574558D03*
X709500Y549158D03*
X734900Y549158D03*
X709500Y523758D03*
X734900Y523758D03*
X709500Y498358D03*
X734900Y498358D03*
X709500Y472958D03*
X734900Y472958D03*
X709500Y447558D03*
X734900Y447558D03*
X709500Y422158D03*
X734900Y422158D03*
X709500Y396758D03*
X734900Y396758D03*
X709500Y371358D03*
X734900Y371358D03*
X709500Y345958D03*
X734900Y345958D03*
X709500Y320558D03*
X734900Y320558D03*
X709500Y295158D03*
X734900Y295158D03*
X709500Y269758D03*
X734900Y269758D03*
X709500Y244358D03*
X734900Y244358D03*
X709500Y218958D03*
X734900Y218958D03*
X709500Y193558D03*
X734900Y193558D03*
X709500Y168158D03*
X734900Y168158D03*
X709500Y142758D03*
X734900Y142758D03*
X709500Y117358D03*
X734900Y117358D03*
X709500Y91958D03*
X734900Y91958D03*
X620846Y574558D03*
X646246Y574558D03*
X620846Y549158D03*
X646246Y549158D03*
X620846Y523758D03*
X646246Y523758D03*
X620846Y498358D03*
X646246Y498358D03*
X620846Y472958D03*
X646246Y472958D03*
X620846Y447558D03*
X646246Y447558D03*
X620846Y422158D03*
X646246Y422158D03*
X620846Y396758D03*
X646246Y396758D03*
X620846Y371358D03*
X646246Y371358D03*
X620846Y345958D03*
X646246Y345958D03*
X620846Y320558D03*
X646246Y320558D03*
X620846Y295158D03*
X646246Y295158D03*
X620846Y269758D03*
X646246Y269758D03*
X620846Y244358D03*
X646246Y244358D03*
X620846Y218958D03*
X646246Y218958D03*
X620846Y193558D03*
X646246Y193558D03*
X620846Y168158D03*
X646246Y168158D03*
X620846Y142758D03*
X646246Y142758D03*
X620846Y117358D03*
X646246Y117358D03*
X620846Y91958D03*
X646246Y91958D03*
X119758Y574558D03*
X145158Y574558D03*
X119758Y549158D03*
X145158Y549158D03*
X119758Y523758D03*
X145158Y523758D03*
X119758Y498358D03*
X145158Y498358D03*
X119758Y472958D03*
X145158Y472958D03*
X119758Y447558D03*
X145158Y447558D03*
X119758Y422158D03*
X145158Y422158D03*
X119758Y396758D03*
X145158Y396758D03*
X119758Y371358D03*
X145158Y371358D03*
X119758Y345958D03*
X145158Y345958D03*
X119758Y320558D03*
X145158Y320558D03*
X119758Y295158D03*
X145158Y295158D03*
X119758Y269758D03*
X145158Y269758D03*
X119758Y244358D03*
X145158Y244358D03*
X119758Y218958D03*
X145158Y218958D03*
X119758Y193558D03*
X145158Y193558D03*
X119758Y168158D03*
X145158Y168158D03*
X119758Y142758D03*
X145158Y142758D03*
X119758Y117358D03*
X145158Y117358D03*
X119758Y91958D03*
X145158Y91958D03*
X30400Y574758D03*
X55800Y574758D03*
X30400Y549358D03*
X55800Y549358D03*
X30400Y523958D03*
X55800Y523958D03*
X30400Y498558D03*
X55800Y498558D03*
X30400Y473158D03*
X55800Y473158D03*
X30400Y447758D03*
X55800Y447758D03*
X30400Y422358D03*
X55800Y422358D03*
X30400Y396958D03*
X55800Y396958D03*
X30400Y371558D03*
X55800Y371558D03*
X30400Y346158D03*
X55800Y346158D03*
X30400Y320758D03*
X55800Y320758D03*
X30400Y295358D03*
X55800Y295358D03*
X30400Y269958D03*
X55800Y269958D03*
X30400Y244558D03*
X55800Y244558D03*
X30400Y219158D03*
X55800Y219158D03*
X30400Y193758D03*
X55800Y193758D03*
X30400Y168358D03*
X55800Y168358D03*
X30400Y142958D03*
X55800Y142958D03*
X30400Y117558D03*
X55800Y117558D03*
X30400Y92158D03*
X55800Y92158D03*
D11*
X354600Y624580D02*
X354600Y639820D01*
X380000Y639820D02*
X380000Y624580D01*
X405400Y624580D02*
X405400Y639820D01*
X430800Y639820D02*
X430800Y624580D01*
D12*
X641604Y652272D02*
X656844Y652272D01*
X723900Y585216D01*
X739140Y585216D01*
X745236Y579120D01*
X745236Y541020D01*
X554736Y306324D02*
X495300Y306324D01*
X554736Y306324D02*
X559308Y310896D01*
X611124Y310896D01*
X615696Y306324D01*
X669036Y306324D01*
X708660Y345948D01*
X709500Y345958D01*
D13*
X641604Y652272D03*
X745236Y541020D03*
X303276Y321564D03*
X495300Y306324D03*
D12*
X443484Y605028D02*
X443484Y618744D01*
X431292Y630936D01*
X430800Y632200D01*
X443484Y605028D02*
X481584Y566928D01*
X499872Y548640D02*
X510540Y548640D01*
X499872Y548640D02*
X481584Y566928D01*
X342900Y524256D02*
X300228Y524256D01*
X236220Y516636D02*
X236220Y502920D01*
X243840Y495300D01*
X271272Y495300D01*
X300228Y524256D01*
X545592Y333756D02*
X565404Y333756D01*
X710184Y568452D02*
X710184Y574548D01*
X710184Y568452D02*
X723900Y554736D01*
X723900Y522732D01*
X714756Y513588D01*
X701040Y513588D01*
X699516Y515112D01*
X693420Y515112D01*
X656844Y478536D01*
X656844Y469392D01*
X646176Y458724D01*
X643128Y458724D01*
X630936Y446532D01*
X630936Y443484D01*
X620268Y432816D01*
X617220Y432816D01*
X609600Y425196D01*
X609600Y393192D01*
X620268Y382524D01*
X624840Y382524D01*
X630936Y376428D01*
X630936Y367284D01*
X623316Y359664D01*
X591312Y359664D01*
X565404Y333756D01*
X709500Y574558D02*
X710184Y574548D01*
X451104Y307848D02*
X435864Y307848D01*
X475488Y332232D02*
X477012Y333756D01*
X475488Y332232D02*
X451104Y307848D01*
X477012Y333756D02*
X545592Y333756D01*
X384048Y524256D02*
X342900Y524256D01*
X384048Y524256D02*
X475488Y432816D01*
X475488Y332232D01*
D13*
X443484Y605028D03*
X481584Y566928D03*
X510540Y548640D03*
X300228Y524256D03*
X342900Y524256D03*
X236220Y516636D03*
X565404Y333756D03*
X545592Y333756D03*
X435864Y307848D03*
D12*
X483108Y609600D02*
X487680Y609600D01*
X522732Y644652D01*
X522732Y670560D01*
X525780Y673608D01*
X545592Y673608D01*
X571500Y647700D01*
X637032Y647700D01*
X699516Y585216D01*
X713232Y585216D01*
X723900Y574548D01*
X723900Y560832D01*
X734568Y550164D01*
X734900Y549158D01*
D13*
X483108Y609600D03*
X467868Y542544D03*
X679704Y568452D03*
D12*
X766572Y626364D02*
X723900Y669036D01*
X766572Y626364D02*
X766572Y504444D01*
X736092Y473964D01*
X734900Y472958D01*
D13*
X723900Y669036D03*
D12*
X723900Y659892D02*
X723900Y632460D01*
X763524Y592836D01*
X763524Y507492D01*
X739140Y483108D01*
X729996Y483108D01*
X723900Y477012D01*
X723900Y458724D01*
X734568Y448056D01*
X734900Y447558D01*
D13*
X413004Y534924D03*
X723900Y659892D03*
D12*
X509016Y673608D02*
X454152Y673608D01*
X509016Y673608D02*
X544068Y708660D01*
X711708Y708660D01*
X717804Y702564D01*
X717804Y682752D01*
X704088Y669036D01*
X754380Y592836D02*
X754380Y512064D01*
X754380Y592836D02*
X716280Y630936D01*
X687324Y630936D01*
X652272Y665988D01*
X652272Y672084D01*
X659892Y679704D01*
X693420Y679704D01*
X704088Y669036D01*
D13*
X454152Y673608D03*
X704088Y669036D03*
X754380Y512064D03*
D12*
X513588Y665988D02*
X441960Y665988D01*
X513588Y665988D02*
X541020Y693420D01*
X705612Y693420D01*
X711708Y699516D01*
D13*
X441960Y665988D03*
X711708Y699516D03*
D12*
X381000Y699516D02*
X307848Y699516D01*
X381000Y699516D02*
X405384Y723900D01*
X670560Y723900D02*
X676656Y723900D01*
X670560Y723900D02*
X405384Y723900D01*
X676656Y723900D02*
X682752Y717804D01*
X670560Y719328D02*
X670560Y723900D01*
D13*
X307848Y699516D03*
X682752Y717804D03*
X670560Y719328D03*
D12*
X326136Y612648D02*
X265176Y551688D01*
X390144Y699516D02*
X530352Y699516D01*
X551688Y720852D01*
X659892Y720852D01*
X669036Y711708D01*
X713232Y711708D01*
X720852Y704088D01*
X720852Y675132D01*
X710184Y664464D01*
X710184Y661416D01*
X550164Y350520D02*
X518160Y350520D01*
X481584Y387096D01*
X481584Y437388D01*
X495300Y451104D01*
X510540Y451104D01*
X513588Y454152D01*
X513588Y475488D01*
X387096Y601980D01*
D13*
X265176Y551688D03*
X326136Y612648D03*
X390144Y699516D03*
X710184Y661416D03*
X550164Y350520D03*
X387096Y601980D03*
D12*
X341376Y641604D02*
X252984Y553212D01*
X736092Y256032D02*
X736092Y245364D01*
X736092Y256032D02*
X745236Y265176D01*
X745236Y406908D01*
X742188Y409956D01*
X736092Y245364D02*
X734900Y244358D01*
D13*
X252984Y553212D03*
X341376Y641604D03*
X638556Y714756D03*
X742188Y409956D03*
D12*
X597408Y278892D02*
X557784Y278892D01*
X597408Y278892D02*
X621792Y254508D01*
X714756Y254508D01*
X723900Y245364D01*
X723900Y230124D01*
X734568Y219456D01*
X734900Y218958D01*
D13*
X557784Y278892D03*
X672084Y451104D03*
D12*
X736092Y175260D02*
X736092Y169164D01*
X736092Y175260D02*
X768096Y207264D01*
X768096Y464820D01*
X757428Y475488D01*
X751332Y475488D01*
X745236Y469392D01*
X745236Y464820D01*
X742188Y461772D01*
X736092Y169164D02*
X734900Y168158D01*
D13*
X531876Y566928D03*
X679704Y673608D03*
X742188Y461772D03*
D12*
X614172Y227076D02*
X592836Y227076D01*
X614172Y227076D02*
X617220Y230124D01*
X649224Y230124D01*
X659892Y219456D01*
X693420Y353568D02*
X693420Y438912D01*
X693420Y353568D02*
X664464Y324612D01*
D13*
X592836Y227076D03*
X659892Y219456D03*
X665988Y699516D03*
X693420Y438912D03*
X664464Y324612D03*
X467868Y306324D03*
X679704Y664464D03*
X725424Y725424D03*
D12*
X419100Y301752D02*
X425196Y295656D01*
X443484Y295656D01*
X475488Y327660D01*
X588264Y327660D01*
X617220Y356616D01*
X646176Y356616D01*
X659892Y370332D01*
X659892Y477012D01*
X691896Y509016D01*
X696468Y509016D01*
D13*
X419100Y301752D03*
X696468Y509016D03*
D12*
X400812Y306324D02*
X382524Y306324D01*
X400812Y306324D02*
X417576Y289560D01*
X460248Y289560D01*
X484632Y313944D01*
X612648Y313944D01*
X617220Y309372D01*
X624840Y309372D01*
X635508Y320040D01*
X635508Y324612D01*
X643128Y332232D01*
X652272Y332232D01*
X687324Y367284D01*
X687324Y451104D01*
X708660Y472440D01*
X709500Y472958D01*
X708660Y473964D02*
X687324Y495300D01*
X708660Y473964D02*
X709500Y472958D01*
D13*
X382524Y306324D03*
X687324Y495300D03*
D12*
X402336Y300228D02*
X362712Y300228D01*
X402336Y300228D02*
X417576Y284988D01*
X487680Y284988D01*
X563880Y208788D01*
X739140Y208788D01*
X748284Y217932D01*
X748284Y423672D01*
X734568Y437388D01*
X719328Y437388D01*
X710184Y446532D01*
X709500Y447558D01*
X665988Y669036D02*
X658368Y669036D01*
X665988Y669036D02*
X701040Y633984D01*
X717804Y633984D01*
X760476Y591312D01*
X760476Y509016D01*
X737616Y486156D01*
X728472Y486156D01*
X720852Y478536D01*
X720852Y458724D01*
X710184Y448056D01*
X709500Y447558D01*
D13*
X362712Y300228D03*
X658368Y669036D03*
X352044Y330708D03*
X658368Y534924D03*
X336804Y306324D03*
X646176Y609600D03*
X638556Y669036D03*
D12*
X553212Y283464D02*
X547116Y283464D01*
X553212Y283464D02*
X554736Y284988D01*
X694944Y284988D01*
X708660Y271272D01*
X709500Y269758D01*
D13*
X547116Y283464D03*
X682752Y699516D03*
X758952Y487680D03*
D12*
X486156Y306324D02*
X486156Y291084D01*
X544068Y233172D01*
X697992Y233172D01*
X708660Y243840D01*
X709500Y244358D01*
D13*
X486156Y306324D03*
X641604Y633984D03*
X451104Y333756D03*
X696468Y702564D03*
X757428Y693420D03*
D12*
X754380Y469392D02*
X754380Y422148D01*
X765048Y411480D01*
X765048Y208788D01*
X734568Y178308D01*
X719328Y178308D01*
X710184Y169164D01*
X709500Y168158D01*
D13*
X426720Y330708D03*
X746760Y591312D03*
X754380Y469392D03*
D12*
X614172Y582168D02*
X614172Y641604D01*
X614172Y582168D02*
X609600Y577596D01*
X609600Y571500D01*
X621792Y559308D01*
X624840Y559308D01*
X635508Y548640D01*
X635508Y515112D01*
D13*
X413004Y332232D03*
X614172Y641604D03*
X635508Y515112D03*
X669036Y441960D03*
D12*
X493776Y128016D02*
X342900Y278892D01*
X493776Y128016D02*
X699516Y128016D01*
X708660Y118872D01*
X709500Y117358D01*
D13*
X342900Y278892D03*
X608076Y699516D03*
X608076Y611124D03*
X653796Y434340D03*
D12*
X481584Y519684D02*
X481584Y556260D01*
X406908Y630936D01*
X405400Y632200D01*
X708660Y548640D02*
X708660Y545592D01*
X650748Y487680D01*
X620268Y487680D01*
X606552Y473964D01*
X606552Y464820D01*
X603504Y461772D01*
X573024Y461772D02*
X539496Y461772D01*
X573024Y461772D02*
X603504Y461772D01*
X539496Y461772D02*
X481584Y519684D01*
X708660Y548640D02*
X709500Y549158D01*
X573024Y461772D02*
X573024Y443484D01*
X408432Y390144D02*
X408432Y384048D01*
X408432Y390144D02*
X422148Y403860D01*
X422148Y409956D01*
X425196Y413004D01*
X458724Y413004D01*
X463296Y408432D01*
D13*
X481584Y519684D03*
X573024Y443484D03*
X408432Y384048D03*
X463296Y408432D03*
X377952Y348996D03*
D12*
X306324Y333756D02*
X303276Y333756D01*
X306324Y333756D02*
X327660Y312420D01*
X399288Y312420D01*
X419100Y292608D01*
X445008Y292608D01*
X477012Y324612D01*
X609600Y324612D01*
X620268Y335280D01*
X650748Y335280D01*
X662940Y347472D01*
X662940Y460248D01*
X672084Y469392D01*
D13*
X303276Y333756D03*
X672084Y469392D03*
X278892Y356616D03*
X629412Y589788D03*
X283464Y333756D03*
X623316Y605028D03*
D12*
X594360Y624840D02*
X594360Y560832D01*
X620268Y534924D01*
X624840Y534924D01*
X630936Y528828D01*
X630936Y519684D01*
X621792Y510540D01*
X614172Y510540D01*
X629412Y432816D02*
X629412Y428244D01*
X635508Y422148D01*
X635508Y382524D01*
X646176Y371856D01*
X646246Y371358D01*
D13*
X594360Y624840D03*
X614172Y510540D03*
X629412Y432816D03*
X588264Y582168D03*
D12*
X568452Y673608D02*
X624840Y673608D01*
X640080Y658368D01*
X655320Y658368D01*
X725424Y588264D01*
X740664Y588264D01*
X751332Y577596D01*
X751332Y521208D01*
X742188Y512064D01*
D13*
X481584Y370332D03*
X568452Y673608D03*
X742188Y512064D03*
D12*
X428244Y406908D02*
X428244Y373380D01*
X449580Y352044D01*
D13*
X449580Y352044D03*
X467868Y605028D03*
X428244Y406908D03*
D12*
X441960Y452628D02*
X451104Y452628D01*
X469392Y434340D01*
X469392Y362712D01*
X452628Y345948D01*
X429768Y345948D01*
X423672Y352044D01*
D13*
X423672Y352044D03*
X559308Y673608D03*
X441960Y452628D03*
X387096Y361188D03*
X553212Y699516D03*
X583692Y342900D03*
D12*
X498348Y269748D02*
X428244Y269748D01*
X498348Y269748D02*
X614172Y153924D01*
X635508Y153924D01*
X646176Y143256D01*
X646246Y142758D01*
D13*
X336804Y361188D03*
X428244Y269748D03*
X544068Y699516D03*
X315468Y333756D03*
X568452Y659892D03*
D12*
X592836Y434340D02*
X487680Y434340D01*
X592836Y434340D02*
X620268Y461772D01*
X624840Y461772D01*
X635508Y472440D01*
X635508Y477012D01*
X643128Y484632D01*
X655320Y484632D01*
X708660Y537972D01*
X713232Y537972D01*
X720852Y545592D01*
X720852Y553212D01*
X711708Y562356D01*
X633984Y562356D01*
X621792Y574548D01*
X620846Y574558D01*
D13*
X487680Y434340D03*
D12*
X528828Y615696D02*
X528828Y667512D01*
X528828Y615696D02*
X620268Y524256D01*
X620846Y523758D01*
D13*
X254508Y379476D03*
X528828Y667512D03*
D12*
X556260Y579120D02*
X556260Y574548D01*
X600456Y530352D01*
X600456Y513588D01*
D13*
X227076Y379476D03*
X556260Y579120D03*
X600456Y513588D03*
D12*
X621792Y446532D02*
X571500Y396240D01*
X621792Y446532D02*
X620846Y447558D01*
X550164Y518160D02*
X550164Y566928D01*
X550164Y518160D02*
X600456Y467868D01*
D13*
X571500Y396240D03*
X550164Y566928D03*
X600456Y467868D03*
D12*
X515112Y611124D02*
X515112Y620268D01*
X515112Y611124D02*
X594360Y531876D01*
X594360Y490728D01*
D13*
X515112Y620268D03*
X594360Y490728D03*
D12*
X603504Y388620D02*
X489204Y388620D01*
X603504Y388620D02*
X620268Y371856D01*
X620846Y371358D01*
D13*
X489204Y388620D03*
X544068Y516636D03*
X501396Y352044D03*
X498348Y629412D03*
X379476Y403860D03*
X489204Y627888D03*
D12*
X329184Y388620D02*
X316992Y388620D01*
X365760Y352044D02*
X409956Y307848D01*
X365760Y352044D02*
X329184Y388620D01*
X409956Y307848D02*
X422148Y307848D01*
X428244Y301752D01*
X521208Y269748D02*
X595884Y269748D01*
X620268Y245364D01*
X620846Y244358D01*
X416052Y402336D02*
X416052Y408432D01*
X416052Y402336D02*
X365760Y352044D01*
D13*
X316992Y388620D03*
X428244Y301752D03*
X521208Y269748D03*
X487680Y637032D03*
X416052Y408432D03*
D12*
X381000Y576072D02*
X381000Y630936D01*
X381000Y576072D02*
X460248Y496824D01*
X381000Y630936D02*
X380000Y632200D01*
X483108Y487680D02*
X490728Y487680D01*
X483108Y487680D02*
X473964Y496824D01*
X460248Y496824D01*
X379476Y469392D02*
X361188Y469392D01*
X379476Y469392D02*
X387096Y477012D01*
X408432Y477012D01*
D13*
X460248Y496824D03*
X490728Y487680D03*
X361188Y469392D03*
X408432Y477012D03*
D12*
X451104Y434340D02*
X460248Y434340D01*
X451104Y434340D02*
X414528Y470916D01*
X385572Y470916D01*
X371856Y457200D01*
X175260Y457200D01*
X144780Y487680D01*
X141732Y487680D01*
X131064Y498348D01*
X131064Y507492D01*
X230124Y617220D02*
X283464Y670560D01*
X230124Y617220D02*
X230124Y595884D01*
X227076Y592836D01*
X220980Y592836D01*
X169164Y644652D01*
X150876Y644652D01*
X147828Y641604D01*
X147828Y586740D01*
X155448Y579120D01*
X155448Y559308D01*
X146304Y550164D01*
X145158Y549158D01*
D13*
X460248Y434340D03*
X131064Y507492D03*
X283464Y670560D03*
D12*
X271272Y647700D02*
X271272Y630936D01*
X236220Y595884D01*
X236220Y586740D01*
D13*
X387096Y416052D03*
X271272Y647700D03*
X236220Y586740D03*
X396240Y434340D03*
X272796Y699516D03*
D12*
X355092Y463296D02*
X368808Y463296D01*
X355092Y463296D02*
X352044Y460248D01*
X275844Y460248D02*
X230124Y460248D01*
X275844Y460248D02*
X352044Y460248D01*
X230124Y460248D02*
X227076Y463296D01*
X275844Y463296D02*
X275844Y460248D01*
D13*
X368808Y463296D03*
X227076Y463296D03*
X275844Y463296D03*
D12*
X324612Y434340D02*
X329184Y434340D01*
X324612Y434340D02*
X307848Y451104D01*
X173736Y451104D01*
X146304Y423672D01*
X145158Y422158D01*
D13*
X329184Y434340D03*
X263652Y673608D03*
D12*
X245364Y403860D02*
X178308Y403860D01*
X146304Y371856D01*
X145158Y371358D01*
D13*
X245364Y403860D03*
X269748Y620268D03*
X286512Y416052D03*
D12*
X161544Y309372D02*
X161544Y286512D01*
X161544Y309372D02*
X161544Y342900D01*
X161544Y286512D02*
X146304Y271272D01*
X145158Y269758D01*
X243840Y673608D02*
X246888Y673608D01*
X243840Y673608D02*
X234696Y682752D01*
X114300Y682752D01*
X13716Y582168D01*
X13716Y399288D01*
X30480Y382524D01*
X33528Y382524D01*
X45720Y370332D01*
X45720Y367284D01*
X56388Y356616D01*
X68580Y356616D01*
X115824Y309372D01*
X161544Y309372D01*
D13*
X161544Y342900D03*
X246888Y673608D03*
X556260Y556260D03*
X263652Y699516D03*
D12*
X454152Y644652D02*
X458724Y644652D01*
X454152Y644652D02*
X405384Y693420D01*
X246888Y693420D01*
X240792Y699516D01*
X193548Y278892D02*
X193548Y243840D01*
X193548Y278892D02*
X196596Y281940D01*
D13*
X458724Y644652D03*
X240792Y699516D03*
X193548Y243840D03*
X196596Y281940D03*
D12*
X493776Y470916D02*
X507492Y457200D01*
X493776Y470916D02*
X493776Y472440D01*
X475488Y490728D01*
X452628Y490728D01*
X414528Y528828D01*
X409956Y528828D01*
X335280Y603504D01*
X146304Y179832D02*
X146304Y169164D01*
X146304Y179832D02*
X187452Y220980D01*
X187452Y281940D01*
X146304Y169164D02*
X145158Y168158D01*
D13*
X507492Y457200D03*
X335280Y603504D03*
X237744Y670560D03*
X187452Y281940D03*
D12*
X272796Y306324D02*
X272796Y341376D01*
X310896Y379476D01*
X310896Y391668D01*
X341376Y422148D01*
X446532Y422148D01*
D13*
X438912Y541020D03*
X240792Y658368D03*
X272796Y306324D03*
X446532Y422148D03*
X426720Y441960D03*
X301752Y611124D03*
D12*
X318516Y445008D02*
X382524Y445008D01*
X318516Y445008D02*
X309372Y454152D01*
X153924Y454152D01*
X146304Y461772D01*
X106680Y461772D01*
X54864Y513588D01*
X51816Y513588D01*
X45720Y519684D01*
X45720Y528828D01*
X51816Y534924D01*
X108204Y534924D01*
X118872Y524256D01*
X119758Y523758D01*
X219456Y603504D02*
X219456Y656844D01*
X219456Y603504D02*
X224028Y598932D01*
D13*
X382524Y445008D03*
X219456Y656844D03*
X224028Y598932D03*
X312420Y473964D03*
X208788Y672084D03*
D12*
X286512Y441960D02*
X307848Y441960D01*
X286512Y441960D02*
X254508Y409956D01*
X152400Y409956D01*
X150876Y408432D01*
X118872Y408432D01*
X109728Y417576D01*
X109728Y437388D01*
X118872Y446532D01*
X119758Y447558D01*
D13*
X307848Y441960D03*
X210312Y699516D03*
D12*
X131064Y422148D02*
X120396Y422148D01*
X131064Y422148D02*
X141732Y411480D01*
X149352Y411480D01*
X176784Y438912D01*
X274320Y438912D01*
X280416Y445008D01*
X120396Y422148D02*
X119758Y422158D01*
D13*
X280416Y445008D03*
D12*
X211836Y662940D02*
X158496Y662940D01*
X54864Y559308D01*
X50292Y559308D01*
X42672Y551688D01*
X42672Y496824D01*
X56388Y483108D01*
X60960Y483108D01*
X106680Y437388D01*
X106680Y384048D01*
X118872Y371856D01*
X119758Y371358D01*
D13*
X211836Y662940D03*
D12*
X188976Y699516D02*
X182880Y705612D01*
X106680Y705612D01*
X103632Y702564D01*
X103632Y696468D01*
X114300Y685800D01*
X243840Y685800D01*
X252984Y676656D01*
X252984Y670560D01*
X246888Y664464D01*
X225552Y664464D01*
X210312Y679704D01*
X115824Y679704D01*
X16764Y580644D01*
X16764Y420624D01*
X30480Y406908D01*
X35052Y406908D01*
X45720Y396240D01*
X45720Y391668D01*
X54864Y382524D01*
X59436Y382524D01*
X120396Y321564D01*
X119758Y320558D01*
D13*
X542544Y478536D03*
X214884Y385572D03*
X188976Y699516D03*
D12*
X478536Y638556D02*
X478536Y633984D01*
X480060Y632460D01*
X480060Y626364D01*
X477012Y623316D01*
X466344Y623316D01*
X435864Y653796D01*
X312420Y653796D01*
X239268Y580644D01*
X224028Y580644D01*
X216408Y588264D01*
X213360Y585216D02*
X172212Y585216D01*
X213360Y585216D02*
X216408Y588264D01*
D13*
X478536Y638556D03*
X216408Y588264D03*
X172212Y585216D03*
D12*
X443484Y469392D02*
X487680Y469392D01*
X443484Y469392D02*
X382524Y530352D01*
X294132Y530352D01*
X262128Y498348D01*
X245364Y498348D01*
X242316Y501396D01*
X242316Y519684D01*
X239268Y522732D01*
X233172Y522732D01*
X224028Y513588D01*
X224028Y483108D01*
X220980Y480060D01*
X214884Y480060D01*
X208788Y486156D02*
X161544Y533400D01*
X208788Y486156D02*
X214884Y480060D01*
X161544Y533400D02*
X161544Y582168D01*
X156972Y586740D01*
X156972Y627888D01*
X166116Y637032D01*
D13*
X487680Y469392D03*
X166116Y637032D03*
X208788Y486156D03*
D12*
X365760Y568452D02*
X388620Y545592D01*
X446532Y487680D01*
X365760Y568452D02*
X301752Y568452D01*
X263652Y504444D02*
X248412Y504444D01*
X263652Y504444D02*
X298704Y539496D01*
X382524Y539496D01*
X388620Y545592D01*
D13*
X446532Y487680D03*
X301752Y568452D03*
X179832Y699516D03*
X167640Y294132D03*
X248412Y504444D03*
X409956Y445008D03*
X295656Y699516D03*
D12*
X120396Y153924D02*
X120396Y143256D01*
X120396Y153924D02*
X134112Y167640D01*
X134112Y222504D01*
X144780Y233172D01*
X149352Y233172D01*
X179832Y263652D01*
X179832Y275844D01*
X120396Y143256D02*
X119758Y142758D01*
D13*
X382524Y487680D03*
X173736Y669036D03*
X179832Y275844D03*
X327660Y496824D03*
X214884Y579120D03*
X291084Y263652D03*
X82296Y705612D03*
D12*
X524256Y496824D02*
X551688Y496824D01*
X263652Y524256D02*
X263652Y541020D01*
X353568Y630936D01*
X354600Y632200D01*
X524256Y559308D02*
X524256Y496824D01*
X524256Y559308D02*
X441960Y641604D01*
X441960Y643128D01*
X434340Y650748D01*
X373380Y650748D01*
X355092Y632460D01*
X354600Y632200D01*
X510540Y275844D02*
X530352Y275844D01*
X559308Y304800D01*
X562356Y304800D01*
D13*
X524256Y496824D03*
X551688Y496824D03*
X263652Y524256D03*
X510540Y275844D03*
X562356Y304800D03*
D12*
X330708Y487680D02*
X233172Y487680D01*
X222504Y477012D01*
X207264Y477012D01*
X147828Y536448D02*
X146304Y537972D01*
X147828Y536448D02*
X207264Y477012D01*
X146304Y537972D02*
X67056Y537972D01*
X56388Y548640D01*
X55800Y549358D01*
X153924Y585216D02*
X153924Y638556D01*
X153924Y585216D02*
X158496Y580644D01*
X158496Y547116D01*
X147828Y536448D01*
D13*
X330708Y487680D03*
X153924Y638556D03*
D12*
X188976Y469392D02*
X298704Y469392D01*
X188976Y469392D02*
X144780Y513588D01*
X65532Y513588D01*
X56388Y522732D01*
X55800Y523958D01*
X147828Y656844D02*
X147828Y673608D01*
X147828Y656844D02*
X73152Y582168D01*
X67056Y582168D01*
D13*
X298704Y469392D03*
X147828Y673608D03*
X67056Y582168D03*
X143256Y699516D03*
D12*
X217932Y530352D02*
X217932Y486156D01*
X217932Y530352D02*
X163068Y585216D01*
X163068Y620268D01*
D13*
X217932Y486156D03*
X163068Y620268D03*
X562356Y515112D03*
X124968Y670560D03*
X505968Y513588D03*
X128016Y699516D03*
D12*
X464820Y629412D02*
X473964Y629412D01*
X464820Y629412D02*
X403860Y690372D01*
X128016Y690372D01*
X118872Y699516D01*
D13*
X473964Y629412D03*
X118872Y699516D03*
D12*
X294132Y545592D02*
X377952Y545592D01*
X294132Y545592D02*
X266700Y518160D01*
X256032Y518160D01*
X202692Y571500D01*
D13*
X377952Y545592D03*
X202692Y571500D03*
X176784Y445008D03*
D12*
X371856Y425196D02*
X411480Y464820D01*
X371856Y425196D02*
X281940Y425196D01*
X208788Y352044D01*
D13*
X411480Y464820D03*
X208788Y352044D03*
X196596Y563880D03*
D12*
X348996Y466344D02*
X364236Y481584D01*
X385572Y481584D01*
X396240Y492252D01*
D13*
X396240Y492252D03*
X112776Y659892D03*
X348996Y466344D03*
X350520Y518160D03*
X109728Y699516D03*
X86868Y493776D03*
X339852Y509016D03*
X152400Y699516D03*
X97536Y519684D03*
D12*
X54864Y129540D02*
X54864Y118872D01*
X54864Y129540D02*
X41148Y143256D01*
X41148Y248412D01*
X30480Y259080D01*
X25908Y259080D01*
X19812Y265176D01*
X19812Y278892D01*
X28956Y615696D02*
X50292Y637032D01*
X59436Y637032D01*
X94488Y672084D01*
X54864Y118872D02*
X55800Y117558D01*
D13*
X19812Y278892D03*
X28956Y615696D03*
X94488Y672084D03*
X85344Y673608D03*
D12*
X126492Y481584D02*
X129540Y481584D01*
X126492Y481584D02*
X120396Y487680D01*
X111252Y487680D01*
X91440Y507492D01*
X28956Y524256D02*
X28956Y536448D01*
X19812Y545592D01*
X19812Y579120D01*
X33528Y592836D01*
X74676Y592836D01*
X77724Y595884D01*
X30400Y523958D02*
X28956Y524256D01*
D13*
X129540Y481584D03*
X91440Y507492D03*
X77724Y595884D03*
X574548Y528828D03*
X50292Y598932D03*
D12*
X451104Y278892D02*
X480060Y278892D01*
X451104Y278892D02*
X448056Y281940D01*
X362712Y281940D01*
X344424Y300228D01*
X213360Y300228D01*
X152400Y361188D01*
X106680Y361188D01*
X56388Y411480D01*
X41148Y411480D01*
X30480Y422148D01*
X30400Y422358D01*
D13*
X480060Y278892D03*
X50292Y627888D03*
D12*
X364236Y275844D02*
X445008Y275844D01*
X364236Y275844D02*
X348996Y291084D01*
X181356Y291084D01*
X149352Y259080D01*
X141732Y259080D01*
X131064Y269748D01*
X131064Y272796D01*
X118872Y284988D01*
X106680Y284988D01*
X56388Y335280D01*
X51816Y335280D01*
X41148Y345948D01*
X41148Y359664D01*
X30480Y370332D01*
X30400Y371558D01*
D13*
X445008Y275844D03*
X56388Y643128D03*
D12*
X312420Y269748D02*
X329184Y269748D01*
X312420Y269748D02*
X149352Y106680D01*
X51816Y106680D01*
X41148Y117348D01*
X41148Y121920D01*
X30480Y132588D01*
X25908Y132588D01*
X13716Y144780D01*
X13716Y304800D01*
X28956Y320040D01*
X30400Y320758D01*
D13*
X329184Y269748D03*
X47244Y586740D03*
D12*
X342900Y288036D02*
X352044Y278892D01*
X342900Y288036D02*
X182880Y288036D01*
X150876Y256032D01*
X44196Y256032D01*
X30480Y269748D01*
X30400Y269958D01*
D13*
X352044Y278892D03*
X39624Y489204D03*
X211836Y620268D03*
X533400Y583692D03*
X527304Y416052D03*
X245364Y367284D03*
X409956Y198120D03*
X295656Y327660D03*
X553212Y406908D03*
M02*
