G04 EAGLE Gerber RS-274X export*
G75*
%MOMM*%
%FSLAX34Y34*%
%LPD*%
%INTop Copper*%
%IPPOS*%
%AMOC8*
5,1,8,0,0,1.08239X$1,22.5*%
G01*
G04 Define Apertures*
%ADD10R,0.300000X1.300000*%
%ADD11R,2.000000X1.800000*%
%ADD12P,1.64956X8X292.5*%
%ADD13R,0.535100X0.644000*%
%ADD14C,1.524000*%
%ADD15C,0.152400*%
%ADD16C,0.756400*%
D10*
X733500Y686500D03*
X728500Y686500D03*
X723500Y686500D03*
X718500Y686500D03*
X713500Y686500D03*
X708500Y686500D03*
X703500Y686500D03*
X698500Y686500D03*
X693500Y686500D03*
X688500Y686500D03*
X683500Y686500D03*
X678500Y686500D03*
X673500Y686500D03*
X668500Y686500D03*
X663500Y686500D03*
X658500Y686500D03*
X653500Y686500D03*
X648500Y686500D03*
X643500Y686500D03*
X638500Y686500D03*
X633500Y686500D03*
X628500Y686500D03*
X623500Y686500D03*
X618500Y686500D03*
X613500Y686500D03*
X608500Y686500D03*
X603500Y686500D03*
X598500Y686500D03*
X593500Y686500D03*
X588500Y686500D03*
X583500Y686500D03*
X578500Y686500D03*
X573500Y686500D03*
X568500Y686500D03*
X563500Y686500D03*
X558500Y686500D03*
X553500Y686500D03*
X548500Y686500D03*
X543500Y686500D03*
X538500Y686500D03*
X533500Y686500D03*
X528500Y686500D03*
X523500Y686500D03*
X518500Y686500D03*
X513500Y686500D03*
X508500Y686500D03*
X503500Y686500D03*
X498500Y686500D03*
X493500Y686500D03*
X488500Y686500D03*
D11*
X470500Y714000D03*
X751500Y714000D03*
D10*
X283500Y686500D03*
X278500Y686500D03*
X273500Y686500D03*
X268500Y686500D03*
X263500Y686500D03*
X258500Y686500D03*
X253500Y686500D03*
X248500Y686500D03*
X243500Y686500D03*
X238500Y686500D03*
X233500Y686500D03*
X228500Y686500D03*
X223500Y686500D03*
X218500Y686500D03*
X213500Y686500D03*
X208500Y686500D03*
X203500Y686500D03*
X198500Y686500D03*
X193500Y686500D03*
X188500Y686500D03*
X183500Y686500D03*
X178500Y686500D03*
X173500Y686500D03*
X168500Y686500D03*
X163500Y686500D03*
X158500Y686500D03*
X153500Y686500D03*
X148500Y686500D03*
X143500Y686500D03*
X138500Y686500D03*
X133500Y686500D03*
X128500Y686500D03*
X123500Y686500D03*
X118500Y686500D03*
X113500Y686500D03*
X108500Y686500D03*
X103500Y686500D03*
X98500Y686500D03*
X93500Y686500D03*
X88500Y686500D03*
X83500Y686500D03*
X78500Y686500D03*
X73500Y686500D03*
X68500Y686500D03*
X63500Y686500D03*
X58500Y686500D03*
X53500Y686500D03*
X48500Y686500D03*
X43500Y686500D03*
X38500Y686500D03*
D11*
X20500Y714000D03*
X301500Y714000D03*
D12*
X709500Y574558D03*
X734900Y574558D03*
X709500Y549158D03*
X734900Y549158D03*
X709500Y523758D03*
X734900Y523758D03*
X709500Y498358D03*
X734900Y498358D03*
X709500Y472958D03*
X734900Y472958D03*
X709500Y447558D03*
X734900Y447558D03*
X709500Y422158D03*
X734900Y422158D03*
X709500Y396758D03*
X734900Y396758D03*
X709500Y371358D03*
X734900Y371358D03*
X709500Y345958D03*
X734900Y345958D03*
X709500Y320558D03*
X734900Y320558D03*
X709500Y295158D03*
X734900Y295158D03*
X709500Y269758D03*
X734900Y269758D03*
X709500Y244358D03*
X734900Y244358D03*
X709500Y218958D03*
X734900Y218958D03*
X709500Y193558D03*
X734900Y193558D03*
X709500Y168158D03*
X734900Y168158D03*
X709500Y142758D03*
X734900Y142758D03*
X709500Y117358D03*
X734900Y117358D03*
X709500Y91958D03*
X734900Y91958D03*
X620846Y574558D03*
X646246Y574558D03*
X620846Y549158D03*
X646246Y549158D03*
X620846Y523758D03*
X646246Y523758D03*
X620846Y498358D03*
X646246Y498358D03*
X620846Y472958D03*
X646246Y472958D03*
X620846Y447558D03*
X646246Y447558D03*
X620846Y422158D03*
X646246Y422158D03*
X620846Y396758D03*
X646246Y396758D03*
X620846Y371358D03*
X646246Y371358D03*
X620846Y345958D03*
X646246Y345958D03*
X620846Y320558D03*
X646246Y320558D03*
X620846Y295158D03*
X646246Y295158D03*
X620846Y269758D03*
X646246Y269758D03*
X620846Y244358D03*
X646246Y244358D03*
X620846Y218958D03*
X646246Y218958D03*
X620846Y193558D03*
X646246Y193558D03*
X620846Y168158D03*
X646246Y168158D03*
X620846Y142758D03*
X646246Y142758D03*
X620846Y117358D03*
X646246Y117358D03*
X620846Y91958D03*
X646246Y91958D03*
X119758Y574558D03*
X145158Y574558D03*
X119758Y549158D03*
X145158Y549158D03*
X119758Y523758D03*
X145158Y523758D03*
X119758Y498358D03*
X145158Y498358D03*
X119758Y472958D03*
X145158Y472958D03*
X119758Y447558D03*
X145158Y447558D03*
X119758Y422158D03*
X145158Y422158D03*
X119758Y396758D03*
X145158Y396758D03*
X119758Y371358D03*
X145158Y371358D03*
X119758Y345958D03*
X145158Y345958D03*
X119758Y320558D03*
X145158Y320558D03*
X119758Y295158D03*
X145158Y295158D03*
X119758Y269758D03*
X145158Y269758D03*
X119758Y244358D03*
X145158Y244358D03*
X119758Y218958D03*
X145158Y218958D03*
X119758Y193558D03*
X145158Y193558D03*
X119758Y168158D03*
X145158Y168158D03*
X119758Y142758D03*
X145158Y142758D03*
X119758Y117358D03*
X145158Y117358D03*
X119758Y91958D03*
X145158Y91958D03*
X30400Y574758D03*
X55800Y574758D03*
X30400Y549358D03*
X55800Y549358D03*
X30400Y523958D03*
X55800Y523958D03*
X30400Y498558D03*
X55800Y498558D03*
X30400Y473158D03*
X55800Y473158D03*
X30400Y447758D03*
X55800Y447758D03*
X30400Y422358D03*
X55800Y422358D03*
X30400Y396958D03*
X55800Y396958D03*
X30400Y371558D03*
X55800Y371558D03*
X30400Y346158D03*
X55800Y346158D03*
X30400Y320758D03*
X55800Y320758D03*
X30400Y295358D03*
X55800Y295358D03*
X30400Y269958D03*
X55800Y269958D03*
X30400Y244558D03*
X55800Y244558D03*
X30400Y219158D03*
X55800Y219158D03*
X30400Y193758D03*
X55800Y193758D03*
X30400Y168358D03*
X55800Y168358D03*
X30400Y142958D03*
X55800Y142958D03*
X30400Y117558D03*
X55800Y117558D03*
X30400Y92158D03*
X55800Y92158D03*
D13*
X488525Y533858D03*
X498675Y533858D03*
X525025Y315458D03*
X535175Y315458D03*
X489125Y287958D03*
X499275Y287958D03*
X456425Y287958D03*
X466575Y287958D03*
X421825Y287958D03*
X431975Y287958D03*
X386625Y287958D03*
X396775Y287958D03*
X351625Y287958D03*
X361775Y287958D03*
X318625Y287958D03*
X328775Y287958D03*
X286925Y287958D03*
X297075Y287958D03*
X255525Y287958D03*
X265675Y287958D03*
X220225Y287958D03*
X230375Y287958D03*
X522025Y533858D03*
X532175Y533858D03*
X555825Y315458D03*
X565975Y315458D03*
X488725Y315458D03*
X498875Y315458D03*
X454525Y315458D03*
X464675Y315458D03*
X419525Y315458D03*
X429675Y315458D03*
X384325Y315458D03*
X394475Y315458D03*
X348625Y315458D03*
X358775Y315458D03*
X316125Y315458D03*
X326275Y315458D03*
X283825Y315458D03*
X293975Y315458D03*
X253625Y315458D03*
X263775Y315458D03*
X454825Y533858D03*
X464975Y533858D03*
X222825Y315458D03*
X232975Y315458D03*
X555625Y342358D03*
X565775Y342358D03*
X525425Y342358D03*
X535575Y342358D03*
X489925Y342358D03*
X500075Y342358D03*
X455225Y342358D03*
X465375Y342358D03*
X421725Y342358D03*
X431875Y342358D03*
X385325Y342358D03*
X395475Y342358D03*
X348025Y342358D03*
X358175Y342358D03*
X315725Y342358D03*
X325875Y342358D03*
X284125Y342358D03*
X294275Y342358D03*
X421725Y533858D03*
X431875Y533858D03*
X254825Y342358D03*
X264975Y342358D03*
X223825Y342358D03*
X233975Y342358D03*
X556425Y369958D03*
X566575Y369958D03*
X525625Y369958D03*
X535775Y369958D03*
X490025Y369958D03*
X500175Y369958D03*
X455425Y369958D03*
X465575Y369958D03*
X422625Y369958D03*
X432775Y369958D03*
X385125Y369958D03*
X395275Y369958D03*
X349125Y369958D03*
X359275Y369958D03*
X317625Y369958D03*
X327775Y369958D03*
X389325Y533858D03*
X399475Y533858D03*
X283625Y369958D03*
X293775Y369958D03*
X254825Y369958D03*
X264975Y369958D03*
X221325Y369958D03*
X231475Y369958D03*
X551925Y397458D03*
X562075Y397458D03*
X523225Y397458D03*
X533375Y397458D03*
X488225Y397458D03*
X498375Y397458D03*
X456325Y397458D03*
X466475Y397458D03*
X421725Y397458D03*
X431875Y397458D03*
X387325Y397458D03*
X397475Y397458D03*
X349825Y397458D03*
X359975Y397458D03*
X353125Y533858D03*
X363275Y533858D03*
X316625Y397458D03*
X326775Y397458D03*
X284325Y397458D03*
X294475Y397458D03*
X252425Y397458D03*
X262575Y397458D03*
X223125Y397458D03*
X233275Y397458D03*
X552425Y425258D03*
X562575Y425258D03*
X522125Y425258D03*
X532275Y425258D03*
X488325Y425258D03*
X498475Y425258D03*
X454825Y425258D03*
X464975Y425258D03*
X419325Y425258D03*
X429475Y425258D03*
X386425Y425258D03*
X396575Y425258D03*
X322125Y533858D03*
X332275Y533858D03*
X351625Y425258D03*
X361775Y425258D03*
X320525Y425258D03*
X330675Y425258D03*
X286425Y425258D03*
X296575Y425258D03*
X253725Y425258D03*
X263875Y425258D03*
X224125Y425258D03*
X234275Y425258D03*
X550725Y451958D03*
X560875Y451958D03*
X523025Y451958D03*
X533175Y451958D03*
X488225Y451958D03*
X498375Y451958D03*
X454125Y451958D03*
X464275Y451958D03*
X420825Y451958D03*
X430975Y451958D03*
X290225Y533858D03*
X300375Y533858D03*
X389625Y451958D03*
X399775Y451958D03*
X351025Y451958D03*
X361175Y451958D03*
X318425Y451958D03*
X328575Y451958D03*
X288225Y451958D03*
X298375Y451958D03*
X255325Y451958D03*
X265475Y451958D03*
X224125Y451958D03*
X234275Y451958D03*
X551025Y479058D03*
X561175Y479058D03*
X521525Y479058D03*
X531675Y479058D03*
X488725Y479058D03*
X498875Y479058D03*
X257525Y533858D03*
X267675Y533858D03*
X455425Y479058D03*
X465575Y479058D03*
X421125Y479058D03*
X431275Y479058D03*
X388925Y479058D03*
X399075Y479058D03*
X351925Y479058D03*
X362075Y479058D03*
X321725Y479058D03*
X331875Y479058D03*
X289725Y478600D03*
X299875Y478600D03*
X255625Y479058D03*
X265775Y479058D03*
X224325Y479058D03*
X234475Y479058D03*
X552125Y506258D03*
X562275Y506258D03*
X522425Y506258D03*
X532575Y506258D03*
X224525Y533858D03*
X234675Y533858D03*
X488425Y506258D03*
X498575Y506258D03*
X455825Y506258D03*
X465975Y506258D03*
X423125Y506258D03*
X433275Y506258D03*
X390325Y506258D03*
X400475Y506258D03*
X352225Y506258D03*
X362375Y506258D03*
X321525Y506258D03*
X331675Y506258D03*
X289925Y506258D03*
X300075Y506258D03*
X257325Y506258D03*
X267475Y506258D03*
X222925Y506258D03*
X233075Y506258D03*
X553125Y533858D03*
X563275Y533858D03*
D14*
X354600Y624580D02*
X354600Y639820D01*
X380000Y639820D02*
X380000Y624580D01*
X405400Y624580D02*
X405400Y639820D01*
X430800Y639820D02*
X430800Y624580D01*
D15*
X224028Y313944D02*
X228600Y309372D01*
X248412Y309372D01*
X252984Y313944D01*
X224028Y313944D02*
X222825Y315458D01*
X252984Y313944D02*
X253625Y315458D01*
X643128Y673608D02*
X643128Y685800D01*
X643128Y673608D02*
X644652Y672084D01*
X644652Y655320D01*
X641604Y652272D01*
X643128Y685800D02*
X643500Y686500D01*
X268224Y300228D02*
X254508Y313944D01*
X268224Y300228D02*
X275844Y300228D01*
X278892Y303276D01*
X278892Y310896D01*
X277368Y312420D01*
X277368Y318516D01*
X280416Y321564D01*
X303276Y321564D01*
X254508Y313944D02*
X253625Y315458D01*
D16*
X641604Y652272D03*
X745236Y541020D03*
X303276Y321564D03*
X495300Y306324D03*
D15*
X243840Y315468D02*
X233172Y315468D01*
X243840Y315468D02*
X249936Y321564D01*
X257556Y321564D01*
X263652Y315468D01*
X233172Y315468D02*
X232975Y315458D01*
X263652Y315468D02*
X263775Y315458D01*
X454152Y534924D02*
X454152Y594360D01*
X443484Y605028D01*
X454152Y534924D02*
X454825Y533858D01*
X487680Y534924D02*
X487680Y560832D01*
X481584Y566928D01*
X487680Y534924D02*
X488525Y533858D01*
X521208Y534924D02*
X521208Y537972D01*
X510540Y548640D01*
X521208Y534924D02*
X522025Y533858D01*
X231648Y527304D02*
X225552Y533400D01*
X236220Y527304D02*
X249936Y527304D01*
X236220Y527304D02*
X231648Y527304D01*
X249936Y527304D02*
X256032Y533400D01*
X225552Y533400D02*
X224525Y533858D01*
X256032Y533400D02*
X257525Y533858D01*
X390144Y533400D02*
X396240Y527304D01*
X414528Y527304D01*
X420624Y533400D01*
X390144Y533400D02*
X389325Y533858D01*
X420624Y533400D02*
X421725Y533858D01*
X300228Y524256D02*
X291084Y533400D01*
X342900Y524256D02*
X352044Y533400D01*
X291084Y533400D02*
X290225Y533858D01*
X352044Y533400D02*
X353125Y533858D01*
X332232Y524256D02*
X323088Y533400D01*
X332232Y524256D02*
X342900Y524256D01*
X323088Y533400D02*
X322125Y533858D01*
X373380Y533400D02*
X388620Y533400D01*
X373380Y533400D02*
X367284Y527304D01*
X359664Y527304D01*
X353568Y533400D01*
X388620Y533400D02*
X389325Y533858D01*
X353568Y533400D02*
X353125Y533858D01*
X236220Y527304D02*
X236220Y516636D01*
X429768Y611124D02*
X429768Y630936D01*
X429768Y611124D02*
X353568Y534924D01*
X429768Y630936D02*
X430800Y632200D01*
X353568Y534924D02*
X353125Y533858D01*
X307848Y313944D02*
X294132Y313944D01*
X307848Y313944D02*
X312420Y309372D01*
X321564Y309372D01*
X326136Y313944D01*
X294132Y313944D02*
X293975Y315458D01*
X326136Y313944D02*
X326275Y315458D01*
X359664Y315468D02*
X359664Y324612D01*
X361188Y326136D01*
X361188Y339852D01*
X359664Y341376D01*
X359664Y315468D02*
X358775Y315458D01*
X359664Y341376D02*
X358175Y342358D01*
X394716Y341376D02*
X394716Y326136D01*
X394716Y321564D01*
X394716Y315468D01*
X394475Y315458D01*
X394716Y341376D02*
X395475Y342358D01*
X425196Y318516D02*
X428244Y315468D01*
X425196Y318516D02*
X425196Y320040D01*
X423672Y321564D01*
X394716Y321564D01*
X428244Y315468D02*
X429675Y315458D01*
X394716Y326136D02*
X361188Y326136D01*
X307848Y316992D02*
X307848Y313944D01*
X307848Y316992D02*
X327660Y336804D01*
X332232Y336804D01*
X344424Y348996D01*
X352044Y348996D01*
X358140Y342900D01*
X358175Y342358D01*
X525780Y323088D02*
X525780Y315468D01*
X525780Y323088D02*
X534924Y332232D01*
X534924Y333756D02*
X534924Y341376D01*
X534924Y333756D02*
X534924Y332232D01*
X525780Y315468D02*
X525025Y315458D01*
X534924Y341376D02*
X535575Y342358D01*
X565404Y341376D02*
X565404Y333756D01*
X545592Y333756D02*
X534924Y333756D01*
X565404Y341376D02*
X565775Y342358D01*
X489204Y324612D02*
X489204Y315468D01*
X489204Y324612D02*
X499872Y335280D01*
X499872Y341376D01*
X489204Y315468D02*
X488725Y315458D01*
X499872Y341376D02*
X500075Y342358D01*
X455676Y329184D02*
X455676Y327660D01*
X455676Y315468D01*
X455676Y329184D02*
X464820Y338328D01*
X464820Y341376D01*
X455676Y315468D02*
X454525Y315458D01*
X464820Y341376D02*
X465375Y342358D01*
X446532Y327660D02*
X432816Y341376D01*
X446532Y327660D02*
X455676Y327660D01*
X432816Y341376D02*
X431875Y342358D01*
X493776Y348996D02*
X499872Y342900D01*
X493776Y348996D02*
X472440Y348996D01*
X466344Y342900D01*
X499872Y342900D02*
X500075Y342358D01*
X466344Y342900D02*
X465375Y342358D01*
X528828Y348996D02*
X534924Y342900D01*
X528828Y348996D02*
X507492Y348996D01*
X501396Y342900D01*
X534924Y342900D02*
X535575Y342358D01*
X501396Y342900D02*
X500075Y342358D01*
X435864Y307848D02*
X429768Y313944D01*
X429675Y315458D01*
D16*
X443484Y605028D03*
X481584Y566928D03*
X510540Y548640D03*
X300228Y524256D03*
X342900Y524256D03*
X236220Y516636D03*
X565404Y333756D03*
X545592Y333756D03*
X435864Y307848D03*
D15*
X498348Y534924D02*
X498348Y594360D01*
X483108Y609600D01*
X498348Y534924D02*
X498675Y533858D01*
X734568Y589788D02*
X734568Y685800D01*
X734568Y589788D02*
X745236Y579120D01*
X745236Y559308D01*
X736092Y550164D01*
X734568Y685800D02*
X733500Y686500D01*
X736092Y550164D02*
X734900Y549158D01*
D16*
X483108Y609600D03*
D15*
X466344Y541020D02*
X466344Y534924D01*
X466344Y541020D02*
X467868Y542544D01*
X466344Y534924D02*
X464975Y533858D01*
X728472Y673608D02*
X728472Y685800D01*
X728472Y673608D02*
X729996Y672084D01*
X729996Y618744D01*
X679704Y568452D01*
X728472Y685800D02*
X728500Y686500D01*
D16*
X467868Y542544D03*
X679704Y568452D03*
D15*
X432816Y534924D02*
X432816Y605028D01*
X452628Y624840D01*
X452628Y662940D01*
X473964Y684276D01*
X473964Y688848D01*
X516636Y731520D01*
X710184Y731520D01*
X755904Y685800D01*
X755904Y522732D01*
X748284Y515112D01*
X748284Y486156D01*
X736092Y473964D01*
X432816Y534924D02*
X431875Y533858D01*
X734900Y472958D02*
X736092Y473964D01*
X723900Y669036D02*
X723900Y685800D01*
X723500Y686500D01*
D16*
X723900Y669036D03*
D15*
X413004Y534924D02*
X400812Y534924D01*
X399475Y533858D01*
X717804Y665988D02*
X717804Y685800D01*
X717804Y665988D02*
X723900Y659892D01*
X717804Y685800D02*
X718500Y686500D01*
D16*
X413004Y534924D03*
X723900Y659892D03*
D15*
X364236Y541020D02*
X364236Y534924D01*
X364236Y541020D02*
X449580Y626364D01*
X449580Y669036D01*
X454152Y673608D01*
X704088Y669036D02*
X713232Y678180D01*
X713232Y685800D01*
X364236Y534924D02*
X363275Y533858D01*
X713232Y685800D02*
X713500Y686500D01*
X736092Y434340D02*
X736092Y423672D01*
X736092Y434340D02*
X748284Y446532D01*
X748284Y481584D01*
X752856Y486156D01*
X752856Y510540D01*
X754380Y512064D01*
X736092Y423672D02*
X734900Y422158D01*
D16*
X454152Y673608D03*
X704088Y669036D03*
X754380Y512064D03*
D15*
X333756Y534924D02*
X333756Y537972D01*
X420624Y624840D01*
X420624Y644652D01*
X441960Y665988D01*
X711708Y696468D02*
X711708Y699516D01*
X711708Y696468D02*
X708660Y693420D01*
X708660Y687324D01*
X333756Y534924D02*
X332275Y533858D01*
X708500Y686500D02*
X708660Y687324D01*
D16*
X441960Y665988D03*
X711708Y699516D03*
D15*
X301752Y559308D02*
X301752Y534924D01*
X301752Y559308D02*
X310896Y568452D01*
X310896Y696468D01*
X307848Y699516D01*
X682752Y717804D02*
X694944Y717804D01*
X705612Y707136D01*
X705612Y694944D01*
X704088Y693420D01*
X704088Y687324D01*
X301752Y534924D02*
X300375Y533858D01*
X703500Y686500D02*
X704088Y687324D01*
D16*
X307848Y699516D03*
X682752Y717804D03*
X670560Y719328D03*
D15*
X266700Y550164D02*
X266700Y534924D01*
X266700Y550164D02*
X265176Y551688D01*
X326136Y612648D02*
X326136Y635508D01*
X350520Y659892D02*
X390144Y699516D01*
X350520Y659892D02*
X326136Y635508D01*
X702564Y661416D02*
X710184Y661416D01*
X702564Y661416D02*
X697992Y665988D01*
X697992Y685800D01*
X267675Y533858D02*
X266700Y534924D01*
X697992Y685800D02*
X698500Y686500D01*
X387096Y601980D02*
X365760Y623316D01*
X365760Y644652D01*
X350520Y659892D01*
D16*
X265176Y551688D03*
X326136Y612648D03*
X390144Y699516D03*
X710184Y661416D03*
X550164Y350520D03*
X387096Y601980D03*
D15*
X252984Y553212D02*
X234696Y534924D01*
X638556Y714756D02*
X665988Y714756D01*
X669036Y711708D01*
X696468Y711708D01*
X702564Y705612D01*
X702564Y699516D01*
X699516Y696468D01*
X696468Y696468D01*
X693420Y693420D01*
X693420Y687324D01*
X234696Y534924D02*
X234675Y533858D01*
X693500Y686500D02*
X693420Y687324D01*
D16*
X252984Y553212D03*
X341376Y641604D03*
X638556Y714756D03*
X742188Y409956D03*
D15*
X536448Y313944D02*
X536448Y303276D01*
X557784Y281940D01*
X557784Y278892D01*
X536448Y313944D02*
X535175Y315458D01*
X687324Y585216D02*
X687324Y685800D01*
X687324Y585216D02*
X673608Y571500D01*
X673608Y565404D01*
X704088Y534924D01*
X713232Y534924D01*
X720852Y527304D01*
X720852Y519684D01*
X710184Y509016D01*
X705612Y509016D01*
X693420Y496824D01*
X693420Y475488D01*
X672084Y454152D01*
X672084Y451104D01*
X687324Y685800D02*
X688500Y686500D01*
D16*
X557784Y278892D03*
X672084Y451104D03*
D15*
X531876Y534924D02*
X531876Y566928D01*
X679704Y673608D02*
X682752Y676656D01*
X682752Y685800D01*
X531876Y534924D02*
X532175Y533858D01*
X682752Y685800D02*
X683500Y686500D01*
D16*
X531876Y566928D03*
X679704Y673608D03*
X742188Y461772D03*
D15*
X505968Y313944D02*
X499872Y313944D01*
X505968Y313944D02*
X592836Y227076D01*
X659892Y219456D02*
X659892Y202692D01*
X708660Y153924D01*
X723900Y153924D01*
X734568Y143256D01*
X499872Y313944D02*
X498875Y315458D01*
X734568Y143256D02*
X734900Y142758D01*
X678180Y687324D02*
X678180Y693420D01*
X672084Y699516D01*
X665988Y699516D01*
X664464Y324612D02*
X646176Y306324D01*
X643128Y306324D01*
X635508Y298704D01*
X635508Y240792D01*
X646176Y230124D01*
X649224Y230124D01*
X659892Y219456D01*
X678500Y686500D02*
X678180Y687324D01*
D16*
X592836Y227076D03*
X659892Y219456D03*
X665988Y699516D03*
X693420Y438912D03*
X664464Y324612D03*
D15*
X464820Y313944D02*
X464820Y309372D01*
X467868Y306324D01*
X464820Y313944D02*
X464675Y315458D01*
X673608Y670560D02*
X673608Y685800D01*
X673608Y670560D02*
X679704Y664464D01*
X725424Y725424D02*
X763524Y725424D01*
X768096Y720852D01*
X768096Y150876D01*
X736092Y118872D01*
X673608Y685800D02*
X673500Y686500D01*
X736092Y118872D02*
X734900Y117358D01*
D16*
X467868Y306324D03*
X679704Y664464D03*
X725424Y725424D03*
D15*
X419100Y313944D02*
X419100Y301752D01*
X696468Y509016D02*
X710184Y522732D01*
X419525Y315458D02*
X419100Y313944D01*
X710184Y522732D02*
X709500Y523758D01*
X669036Y563880D02*
X669036Y685800D01*
X669036Y563880D02*
X708660Y524256D01*
X669036Y685800D02*
X668500Y686500D01*
X708660Y524256D02*
X709500Y523758D01*
D16*
X419100Y301752D03*
X696468Y509016D03*
D15*
X384048Y313944D02*
X384048Y307848D01*
X382524Y306324D01*
X384048Y313944D02*
X384325Y315458D01*
X664464Y518160D02*
X664464Y685800D01*
X664464Y518160D02*
X687324Y495300D01*
X664464Y685800D02*
X663500Y686500D01*
D16*
X382524Y306324D03*
X687324Y495300D03*
D15*
X362712Y300228D02*
X348996Y313944D01*
X348625Y315458D01*
X658368Y669036D02*
X658368Y685800D01*
X658500Y686500D01*
D16*
X362712Y300228D03*
X658368Y669036D03*
D15*
X332232Y330708D02*
X316992Y315468D01*
X332232Y330708D02*
X352044Y330708D01*
X316992Y315468D02*
X316125Y315458D01*
X653796Y673608D02*
X653796Y685800D01*
X653796Y673608D02*
X652272Y672084D01*
X652272Y598932D01*
X659892Y591312D01*
X659892Y536448D01*
X658368Y534924D01*
X653796Y685800D02*
X653500Y686500D01*
D16*
X352044Y330708D03*
X658368Y534924D03*
D15*
X292608Y306324D02*
X284988Y313944D01*
X292608Y306324D02*
X336804Y306324D01*
X284988Y313944D02*
X283825Y315458D01*
X647700Y611124D02*
X647700Y685800D01*
X647700Y611124D02*
X646176Y609600D01*
X647700Y685800D02*
X648500Y686500D01*
D16*
X336804Y306324D03*
X646176Y609600D03*
D15*
X562356Y348996D02*
X556260Y342900D01*
X562356Y348996D02*
X603504Y348996D01*
X621792Y330708D01*
X699516Y330708D01*
X708660Y321564D01*
X556260Y342900D02*
X555625Y342358D01*
X708660Y321564D02*
X709500Y320558D01*
X638556Y669036D02*
X638556Y685800D01*
X638500Y686500D01*
D16*
X638556Y669036D03*
D15*
X524256Y341376D02*
X524256Y326136D01*
X519684Y321564D01*
X519684Y310896D01*
X547116Y283464D01*
X524256Y341376D02*
X525425Y342358D01*
X633984Y687324D02*
X633984Y693420D01*
X646176Y705612D01*
X676656Y705612D01*
X682752Y699516D01*
X758952Y487680D02*
X758952Y473964D01*
X760476Y472440D01*
X760476Y330708D01*
X736092Y306324D01*
X731520Y306324D01*
X720852Y295656D01*
X720852Y281940D01*
X710184Y271272D01*
X633500Y686500D02*
X633984Y687324D01*
X710184Y271272D02*
X709500Y269758D01*
D16*
X547116Y283464D03*
X682752Y699516D03*
X758952Y487680D03*
D15*
X489204Y341376D02*
X489204Y329184D01*
X483108Y323088D01*
X483108Y309372D01*
X486156Y306324D01*
X489204Y341376D02*
X489925Y342358D01*
X629412Y646176D02*
X629412Y685800D01*
X629412Y646176D02*
X641604Y633984D01*
X629412Y685800D02*
X628500Y686500D01*
D16*
X486156Y306324D03*
X641604Y633984D03*
D15*
X454152Y341376D02*
X454152Y336804D01*
X451104Y333756D01*
X454152Y341376D02*
X455225Y342358D01*
X623316Y687324D02*
X623316Y693420D01*
X638556Y708660D01*
X690372Y708660D01*
X696468Y702564D01*
X757428Y693420D02*
X757428Y688848D01*
X765048Y681228D01*
X765048Y284988D01*
X734568Y254508D01*
X729996Y254508D01*
X720852Y245364D01*
X720852Y230124D01*
X710184Y219456D01*
X623500Y686500D02*
X623316Y687324D01*
X710184Y219456D02*
X709500Y218958D01*
D16*
X451104Y333756D03*
X696468Y702564D03*
X757428Y693420D03*
D15*
X422148Y341376D02*
X422148Y335280D01*
X426720Y330708D01*
X422148Y341376D02*
X421725Y342358D01*
X618744Y687324D02*
X618744Y704088D01*
X640080Y725424D01*
X707136Y725424D01*
X746760Y685800D01*
X746760Y591312D01*
X618500Y686500D02*
X618744Y687324D01*
D16*
X426720Y330708D03*
X746760Y591312D03*
X754380Y469392D03*
D15*
X391668Y348996D02*
X385572Y342900D01*
X391668Y348996D02*
X399288Y348996D01*
X413004Y335280D01*
X413004Y332232D01*
X385572Y342900D02*
X385325Y342358D01*
X614172Y641604D02*
X614172Y685800D01*
X635508Y515112D02*
X640080Y515112D01*
X646176Y509016D01*
X650748Y509016D01*
X665988Y493776D01*
X665988Y445008D01*
X669036Y441960D01*
X614172Y685800D02*
X613500Y686500D01*
D16*
X413004Y332232D03*
X614172Y641604D03*
X635508Y515112D03*
X669036Y441960D03*
D15*
X353568Y336804D02*
X348996Y341376D01*
X353568Y336804D02*
X355092Y336804D01*
X358140Y333756D01*
X358140Y327660D01*
X352044Y321564D01*
X344424Y321564D01*
X342900Y320040D01*
X342900Y278892D01*
X348996Y341376D02*
X348025Y342358D01*
X608076Y687324D02*
X608076Y699516D01*
X608076Y611124D02*
X608076Y601980D01*
X630936Y579120D01*
X630936Y519684D01*
X629412Y518160D01*
X629412Y504444D01*
X635508Y498348D01*
X635508Y443484D01*
X644652Y434340D01*
X653796Y434340D01*
X608500Y686500D02*
X608076Y687324D01*
D16*
X342900Y278892D03*
X608076Y699516D03*
X608076Y611124D03*
X653796Y434340D03*
D15*
X448056Y396240D02*
X432816Y396240D01*
X448056Y396240D02*
X452628Y391668D01*
X461772Y391668D01*
X466344Y396240D01*
X432816Y396240D02*
X431875Y397458D01*
X466344Y396240D02*
X466475Y397458D01*
X224028Y362712D02*
X224028Y342900D01*
X224028Y362712D02*
X230124Y368808D01*
X224028Y342900D02*
X223825Y342358D01*
X230124Y368808D02*
X231475Y369958D01*
X233172Y371856D02*
X233172Y396240D01*
X233172Y371856D02*
X231648Y370332D01*
X233172Y396240D02*
X233275Y397458D01*
X231648Y370332D02*
X231475Y369958D01*
X256032Y361188D02*
X256032Y342900D01*
X256032Y361188D02*
X263652Y368808D01*
X256032Y342900D02*
X254825Y342358D01*
X263652Y368808D02*
X264975Y369958D01*
X265176Y370332D02*
X283464Y370332D01*
X283625Y369958D01*
X265176Y370332D02*
X264975Y369958D01*
X284988Y368808D02*
X284988Y342900D01*
X284125Y342358D01*
X284988Y368808D02*
X283625Y369958D01*
X315468Y358140D02*
X315468Y342900D01*
X315468Y358140D02*
X297180Y376428D01*
X291084Y376428D01*
X284988Y370332D01*
X315468Y342900D02*
X315725Y342358D01*
X284988Y370332D02*
X283625Y369958D01*
X263652Y370332D02*
X263652Y396240D01*
X262575Y397458D01*
X263652Y370332D02*
X264975Y369958D01*
X234696Y368808D02*
X231648Y368808D01*
X234696Y368808D02*
X242316Y361188D01*
X256032Y361188D01*
X231648Y368808D02*
X231475Y369958D01*
X385572Y370332D02*
X385572Y385572D01*
X396240Y396240D01*
X385572Y370332D02*
X385125Y369958D01*
X408432Y384048D02*
X396240Y396240D01*
X408432Y384048D02*
X422148Y370332D01*
X422625Y369958D01*
X396240Y396240D02*
X397475Y397458D01*
X350520Y387096D02*
X350520Y370332D01*
X350520Y387096D02*
X359664Y396240D01*
X350520Y370332D02*
X349125Y369958D01*
X359664Y396240D02*
X359975Y397458D01*
X318516Y381000D02*
X318516Y377952D01*
X318516Y370332D01*
X324612Y387096D02*
X326136Y388620D01*
X324612Y387096D02*
X318516Y381000D01*
X326136Y388620D02*
X326136Y396240D01*
X318516Y370332D02*
X317625Y369958D01*
X326136Y396240D02*
X326775Y397458D01*
X300228Y396240D02*
X295656Y396240D01*
X300228Y396240D02*
X318516Y377952D01*
X295656Y396240D02*
X294475Y397458D01*
X324612Y387096D02*
X350520Y387096D01*
X371856Y385572D02*
X385572Y385572D01*
X371856Y385572D02*
X361188Y396240D01*
X359975Y397458D01*
X274320Y397764D02*
X263652Y397764D01*
X274320Y397764D02*
X280416Y403860D01*
X288036Y403860D01*
X294132Y397764D01*
X263652Y397764D02*
X262575Y397458D01*
X294132Y397764D02*
X294475Y397458D01*
X562356Y397764D02*
X562356Y425196D01*
X562356Y397764D02*
X562075Y397458D01*
X562356Y425196D02*
X562575Y425258D01*
X533400Y403860D02*
X533400Y397764D01*
X533400Y403860D02*
X533400Y425196D01*
X532275Y425258D01*
X533400Y397764D02*
X533375Y397458D01*
X559308Y429768D02*
X557784Y431292D01*
X559308Y429768D02*
X562356Y426720D01*
X557784Y431292D02*
X537972Y431292D01*
X533400Y426720D01*
X562356Y426720D02*
X562575Y425258D01*
X533400Y426720D02*
X532275Y425258D01*
X460248Y364236D02*
X455676Y368808D01*
X460248Y364236D02*
X484632Y364236D01*
X489204Y368808D01*
X455676Y368808D02*
X455425Y369958D01*
X489204Y368808D02*
X490025Y369958D01*
X498348Y377952D02*
X498348Y381000D01*
X498348Y396240D01*
X498348Y377952D02*
X490728Y370332D01*
X498348Y396240D02*
X498375Y397458D01*
X490728Y370332D02*
X490025Y369958D01*
X509016Y370332D02*
X524256Y370332D01*
X509016Y370332D02*
X498348Y381000D01*
X524256Y370332D02*
X525625Y369958D01*
X550164Y370332D02*
X556260Y370332D01*
X550164Y370332D02*
X544068Y376428D01*
X531876Y376428D01*
X525780Y370332D01*
X556260Y370332D02*
X556425Y369958D01*
X525780Y370332D02*
X525625Y369958D01*
X533400Y403860D02*
X505968Y403860D01*
X499872Y397764D01*
X498375Y397458D01*
X498348Y426720D02*
X498348Y432816D01*
X486156Y445008D01*
X484632Y445008D01*
X481584Y448056D01*
X481584Y519684D01*
X498348Y426720D02*
X498475Y425258D01*
X559308Y429768D02*
X573024Y443484D01*
X487680Y408432D02*
X463296Y408432D01*
X487680Y408432D02*
X498348Y397764D01*
X498375Y397458D01*
D16*
X481584Y519684D03*
X573024Y443484D03*
X408432Y384048D03*
X463296Y408432D03*
D15*
X333756Y342900D02*
X326136Y342900D01*
X333756Y342900D02*
X342900Y352044D01*
X374904Y352044D01*
X377952Y348996D01*
X326136Y342900D02*
X325875Y342358D01*
X603504Y643128D02*
X603504Y685800D01*
X603504Y643128D02*
X656844Y589788D01*
X656844Y559308D01*
X647700Y550164D01*
X603504Y685800D02*
X603500Y686500D01*
X647700Y550164D02*
X646246Y549158D01*
D16*
X377952Y348996D03*
D15*
X303276Y333756D02*
X295656Y341376D01*
X672084Y469392D02*
X672084Y498348D01*
X647700Y522732D01*
X295656Y341376D02*
X294275Y342358D01*
X646246Y523758D02*
X647700Y522732D01*
X598932Y643128D02*
X598932Y685800D01*
X598932Y643128D02*
X635508Y606552D01*
X635508Y534924D01*
X646176Y524256D01*
X598932Y685800D02*
X598500Y686500D01*
X646176Y524256D02*
X646246Y523758D01*
D16*
X303276Y333756D03*
X672084Y469392D03*
D15*
X278892Y356616D02*
X265176Y342900D01*
X264975Y342358D01*
X594360Y643128D02*
X594360Y685800D01*
X594360Y643128D02*
X629412Y608076D01*
X629412Y589788D01*
X594360Y685800D02*
X593500Y686500D01*
D16*
X278892Y356616D03*
X629412Y589788D03*
D15*
X245364Y341376D02*
X234696Y341376D01*
X245364Y341376D02*
X252984Y333756D01*
X283464Y333756D01*
X234696Y341376D02*
X233975Y342358D01*
X588264Y640080D02*
X588264Y685800D01*
X588264Y640080D02*
X623316Y605028D01*
X588264Y685800D02*
X588500Y686500D01*
D16*
X283464Y333756D03*
X623316Y605028D03*
D15*
X579120Y370332D02*
X566928Y370332D01*
X579120Y370332D02*
X620268Y411480D01*
X635508Y411480D01*
X646176Y422148D01*
X566928Y370332D02*
X566575Y369958D01*
X646176Y422148D02*
X646246Y422158D01*
X583692Y687324D02*
X583692Y693420D01*
X618744Y728472D01*
X708660Y728472D01*
X752856Y684276D01*
X752856Y539496D01*
X748284Y534924D01*
X731520Y534924D01*
X723900Y527304D01*
X723900Y498348D01*
X708660Y483108D01*
X705612Y483108D01*
X678180Y455676D01*
X678180Y441960D01*
X659892Y423672D01*
X647700Y423672D01*
X583500Y686500D02*
X583692Y687324D01*
X647700Y423672D02*
X646246Y422158D01*
X547116Y368808D02*
X536448Y368808D01*
X547116Y368808D02*
X554736Y361188D01*
X637032Y361188D01*
X646176Y370332D01*
X536448Y368808D02*
X535775Y369958D01*
X646176Y370332D02*
X646246Y371358D01*
X579120Y640080D02*
X579120Y685800D01*
X579120Y640080D02*
X594360Y624840D01*
X614172Y510540D02*
X614172Y505968D01*
X609600Y501396D01*
X609600Y495300D01*
X621792Y483108D01*
X624840Y483108D01*
X630936Y477012D01*
X630936Y434340D01*
X629412Y432816D01*
X579120Y685800D02*
X578500Y686500D01*
D16*
X594360Y624840D03*
X614172Y510540D03*
X629412Y432816D03*
D15*
X505968Y368808D02*
X501396Y368808D01*
X505968Y368808D02*
X513588Y361188D01*
X550164Y361188D01*
X554736Y356616D01*
X637032Y356616D01*
X646176Y347472D01*
X501396Y368808D02*
X500175Y369958D01*
X646176Y347472D02*
X646246Y345958D01*
X574548Y640080D02*
X574548Y685800D01*
X574548Y640080D02*
X588264Y626364D01*
X588264Y582168D01*
X574548Y685800D02*
X573500Y686500D01*
D16*
X588264Y582168D03*
D15*
X481584Y370332D02*
X466344Y370332D01*
X465575Y369958D01*
X568452Y673608D02*
X568452Y685800D01*
X742188Y512064D02*
X742188Y505968D01*
X745236Y502920D01*
X745236Y493776D01*
X734568Y483108D01*
X729996Y483108D01*
X720852Y473964D01*
X720852Y316992D01*
X710184Y306324D01*
X682752Y306324D01*
X647700Y271272D01*
X568452Y685800D02*
X568500Y686500D01*
X647700Y271272D02*
X646246Y269758D01*
D16*
X481584Y370332D03*
X568452Y673608D03*
X742188Y512064D03*
D15*
X449580Y352044D02*
X432816Y368808D01*
X432775Y369958D01*
X562356Y687324D02*
X562356Y699516D01*
X556260Y705612D01*
X495300Y705612D01*
X477012Y687324D01*
X477012Y646176D01*
X467868Y637032D01*
X467868Y605028D01*
X562356Y687324D02*
X563500Y686500D01*
D16*
X449580Y352044D03*
X467868Y605028D03*
X428244Y406908D03*
D15*
X406908Y368808D02*
X396240Y368808D01*
X406908Y368808D02*
X423672Y352044D01*
X396240Y368808D02*
X395275Y369958D01*
X559308Y673608D02*
X559308Y685800D01*
X558500Y686500D01*
D16*
X423672Y352044D03*
X559308Y673608D03*
X441960Y452628D03*
D15*
X376428Y368808D02*
X359664Y368808D01*
X376428Y368808D02*
X384048Y361188D01*
X387096Y361188D01*
X359664Y368808D02*
X359275Y369958D01*
X553212Y687324D02*
X553212Y699516D01*
X583692Y342900D02*
X583692Y292608D01*
X621792Y254508D01*
X624840Y254508D01*
X632460Y246888D01*
X632460Y227076D01*
X635508Y224028D01*
X635508Y179832D01*
X646176Y169164D01*
X553500Y686500D02*
X553212Y687324D01*
X646176Y169164D02*
X646246Y168158D01*
D16*
X387096Y361188D03*
X553212Y699516D03*
X583692Y342900D03*
D15*
X336804Y361188D02*
X329184Y368808D01*
X327775Y369958D01*
X548640Y687324D02*
X548640Y694944D01*
X544068Y699516D01*
X548640Y687324D02*
X548500Y686500D01*
D16*
X336804Y361188D03*
X428244Y269748D03*
X544068Y699516D03*
D15*
X294132Y368808D02*
X294132Y353568D01*
X313944Y333756D01*
X315468Y333756D01*
X294132Y368808D02*
X293775Y369958D01*
X544068Y675132D02*
X544068Y685800D01*
X544068Y675132D02*
X559308Y659892D01*
X568452Y659892D01*
X544068Y685800D02*
X543500Y686500D01*
D16*
X315468Y333756D03*
X568452Y659892D03*
D15*
X487680Y434340D02*
X487680Y426720D01*
X488325Y425258D01*
X539496Y670560D02*
X539496Y685800D01*
X539496Y670560D02*
X582168Y627888D01*
X582168Y579120D01*
X585216Y576072D01*
X620268Y576072D01*
X539496Y685800D02*
X538500Y686500D01*
X620268Y576072D02*
X620846Y574558D01*
D16*
X487680Y434340D03*
D15*
X522732Y426720D02*
X541020Y445008D01*
X563880Y445008D01*
X588264Y469392D01*
X588264Y516636D01*
X614172Y542544D02*
X620268Y548640D01*
X614172Y542544D02*
X588264Y516636D01*
X522732Y426720D02*
X522125Y425258D01*
X620268Y548640D02*
X620846Y549158D01*
X533400Y672084D02*
X533400Y685800D01*
X533400Y672084D02*
X579120Y626364D01*
X579120Y577596D01*
X614172Y542544D01*
X533400Y685800D02*
X533500Y686500D01*
X254508Y379476D02*
X254508Y370332D01*
X254825Y369958D01*
X528828Y667512D02*
X528828Y685800D01*
X528500Y686500D01*
D16*
X254508Y379476D03*
X528828Y667512D03*
D15*
X222504Y374904D02*
X222504Y370332D01*
X222504Y374904D02*
X227076Y379476D01*
X222504Y370332D02*
X221325Y369958D01*
X524256Y672084D02*
X524256Y685800D01*
X524256Y672084D02*
X522732Y670560D01*
X522732Y626364D01*
X556260Y592836D01*
X556260Y579120D01*
X600456Y513588D02*
X600456Y493776D01*
X620268Y473964D01*
X524256Y685800D02*
X523500Y686500D01*
X620268Y473964D02*
X620846Y472958D01*
D16*
X227076Y379476D03*
X556260Y579120D03*
X600456Y513588D03*
D15*
X553212Y396240D02*
X557784Y391668D01*
X566928Y391668D01*
X571500Y396240D01*
X553212Y396240D02*
X551925Y397458D01*
X519684Y624840D02*
X519684Y685800D01*
X519684Y624840D02*
X550164Y594360D01*
X550164Y566928D01*
X600456Y467868D02*
X620268Y448056D01*
X519684Y685800D02*
X518500Y686500D01*
X620268Y448056D02*
X620846Y447558D01*
D16*
X571500Y396240D03*
X550164Y566928D03*
X600456Y467868D03*
D15*
X524256Y396240D02*
X531876Y388620D01*
X586740Y388620D01*
X620268Y422148D01*
X524256Y396240D02*
X523225Y397458D01*
X620268Y422148D02*
X620846Y422158D01*
X513588Y621792D02*
X513588Y685800D01*
X513588Y621792D02*
X515112Y620268D01*
X594360Y490728D02*
X594360Y449580D01*
X620268Y423672D01*
X513588Y685800D02*
X513500Y686500D01*
X620268Y423672D02*
X620846Y422158D01*
D16*
X515112Y620268D03*
X594360Y490728D03*
D15*
X489204Y396240D02*
X489204Y388620D01*
X489204Y396240D02*
X488225Y397458D01*
X509016Y617220D02*
X509016Y685800D01*
X509016Y617220D02*
X544068Y582168D01*
X544068Y516636D01*
X509016Y685800D02*
X508500Y686500D01*
D16*
X489204Y388620D03*
X544068Y516636D03*
D15*
X394716Y403860D02*
X388620Y397764D01*
X394716Y403860D02*
X400812Y403860D01*
X428244Y376428D01*
X435864Y376428D01*
X438912Y373380D01*
X438912Y371856D01*
X458724Y352044D01*
X501396Y352044D01*
X388620Y397764D02*
X387325Y397458D01*
X498348Y629412D02*
X498348Y685800D01*
X498500Y686500D01*
D16*
X501396Y352044D03*
X498348Y629412D03*
D15*
X356616Y403860D02*
X350520Y397764D01*
X356616Y403860D02*
X379476Y403860D01*
X350520Y397764D02*
X349825Y397458D01*
X493776Y633984D02*
X493776Y685800D01*
X493776Y633984D02*
X489204Y629412D01*
X489204Y627888D01*
X493776Y685800D02*
X493500Y686500D01*
D16*
X379476Y403860D03*
X489204Y627888D03*
D15*
X316992Y396240D02*
X316992Y388620D01*
X428244Y301752D02*
X454152Y301752D01*
X458724Y297180D01*
X499872Y297180D01*
X521208Y275844D01*
X521208Y269748D01*
X316992Y396240D02*
X316625Y397458D01*
X487680Y637032D02*
X487680Y685800D01*
X488500Y686500D01*
D16*
X316992Y388620D03*
X428244Y301752D03*
X521208Y269748D03*
X487680Y637032D03*
X416052Y408432D03*
D15*
X224028Y451104D02*
X192024Y451104D01*
X147828Y406908D01*
X140208Y406908D01*
X131064Y397764D01*
X131064Y393192D01*
X120396Y382524D01*
X115824Y382524D01*
X109728Y376428D01*
X109728Y356616D01*
X118872Y347472D01*
X224028Y451104D02*
X224125Y451958D01*
X118872Y347472D02*
X119758Y345958D01*
X193548Y629412D02*
X193548Y685800D01*
X193548Y629412D02*
X217932Y605028D01*
X227076Y605028D01*
X272796Y559308D01*
X272796Y475488D01*
X259080Y461772D01*
X234696Y461772D01*
X225552Y452628D01*
X193548Y685800D02*
X193500Y686500D01*
X225552Y452628D02*
X224125Y451958D01*
X321564Y445008D02*
X321564Y435864D01*
X321564Y426720D01*
X321564Y445008D02*
X327660Y451104D01*
X321564Y426720D02*
X320525Y425258D01*
X327660Y451104D02*
X328575Y451958D01*
X352044Y443484D02*
X352044Y426720D01*
X352044Y443484D02*
X359664Y451104D01*
X352044Y426720D02*
X351625Y425258D01*
X359664Y451104D02*
X361175Y451958D01*
X361188Y452628D02*
X361188Y469392D01*
X361188Y478536D01*
X362075Y479058D01*
X361188Y452628D02*
X361175Y451958D01*
X335280Y451104D02*
X329184Y451104D01*
X335280Y451104D02*
X342900Y443484D01*
X352044Y443484D01*
X329184Y451104D02*
X328575Y451958D01*
X286512Y440436D02*
X286512Y438912D01*
X286512Y435864D01*
X286512Y426720D01*
X286512Y440436D02*
X297180Y451104D01*
X286512Y426720D02*
X286425Y425258D01*
X297180Y451104D02*
X298375Y451958D01*
X230124Y431292D02*
X225552Y426720D01*
X230124Y431292D02*
X248412Y431292D01*
X252984Y426720D01*
X225552Y426720D02*
X224125Y425258D01*
X252984Y426720D02*
X253725Y425258D01*
X240792Y452628D02*
X234696Y452628D01*
X240792Y452628D02*
X246888Y458724D01*
X259080Y458724D01*
X265176Y452628D01*
X234696Y452628D02*
X234275Y451958D01*
X265176Y452628D02*
X265475Y451958D01*
X248412Y434340D02*
X248412Y431292D01*
X248412Y434340D02*
X265176Y451104D01*
X277368Y438912D02*
X286512Y438912D01*
X277368Y438912D02*
X265176Y451104D01*
X265475Y451958D01*
X286512Y435864D02*
X321564Y435864D01*
X489204Y452628D02*
X489204Y461772D01*
X498348Y470916D01*
X498348Y478536D01*
X489204Y452628D02*
X488225Y451958D01*
X498348Y478536D02*
X498875Y479058D01*
X524256Y472440D02*
X524256Y470916D01*
X524256Y452628D01*
X524256Y472440D02*
X530352Y478536D01*
X524256Y452628D02*
X523025Y451958D01*
X530352Y478536D02*
X531675Y479058D01*
X551688Y469392D02*
X551688Y452628D01*
X551688Y469392D02*
X560832Y478536D01*
X551688Y452628D02*
X550725Y451958D01*
X560832Y478536D02*
X561175Y479058D01*
X541020Y469392D02*
X531876Y478536D01*
X541020Y469392D02*
X551688Y469392D01*
X531876Y478536D02*
X531675Y479058D01*
X524256Y470916D02*
X498348Y470916D01*
X387096Y438912D02*
X387096Y426720D01*
X396240Y448056D02*
X399288Y451104D01*
X396240Y448056D02*
X387096Y438912D01*
X387096Y426720D02*
X386425Y425258D01*
X399288Y451104D02*
X399775Y451958D01*
X399288Y452628D02*
X399288Y477012D01*
X399288Y478536D01*
X399075Y479058D01*
X399288Y452628D02*
X399775Y451958D01*
X454152Y451104D02*
X454152Y426720D01*
X454825Y425258D01*
X454152Y451104D02*
X454125Y451958D01*
X464820Y469392D02*
X464820Y478536D01*
X464820Y469392D02*
X454152Y458724D01*
X454152Y452628D01*
X464820Y478536D02*
X465575Y479058D01*
X454152Y452628D02*
X454125Y451958D01*
X420624Y451104D02*
X420624Y438912D01*
X420624Y426720D01*
X419325Y425258D01*
X420624Y451104D02*
X420825Y451958D01*
X429768Y460248D02*
X429768Y478536D01*
X428244Y458724D02*
X422148Y452628D01*
X428244Y458724D02*
X429768Y460248D01*
X429768Y478536D02*
X431275Y479058D01*
X422148Y452628D02*
X420825Y451958D01*
X428244Y458724D02*
X454152Y458724D01*
X405384Y438912D02*
X396240Y448056D01*
X405384Y438912D02*
X420624Y438912D01*
X460248Y484632D02*
X460248Y496824D01*
X460248Y484632D02*
X464820Y480060D01*
X465575Y479058D01*
X490728Y487680D02*
X498348Y480060D01*
X498875Y479058D01*
X408432Y477012D02*
X399288Y477012D01*
X399075Y479058D01*
D16*
X460248Y496824D03*
X490728Y487680D03*
X361188Y469392D03*
X408432Y477012D03*
D15*
X464820Y429768D02*
X464820Y426720D01*
X464820Y429768D02*
X460248Y434340D01*
X131064Y507492D02*
X124968Y507492D01*
X118872Y513588D01*
X115824Y513588D01*
X109728Y519684D01*
X109728Y528828D01*
X118872Y537972D01*
X134112Y537972D01*
X144780Y548640D01*
X464820Y426720D02*
X464975Y425258D01*
X145158Y549158D02*
X144780Y548640D01*
X283464Y670560D02*
X283464Y685800D01*
X283500Y686500D01*
D16*
X460248Y434340D03*
X131064Y507492D03*
X283464Y670560D03*
D15*
X428244Y425196D02*
X425196Y422148D01*
X425196Y420624D01*
X420624Y416052D01*
X387096Y416052D01*
X428244Y425196D02*
X429475Y425258D01*
X277368Y653796D02*
X277368Y685800D01*
X277368Y653796D02*
X271272Y647700D01*
X236220Y586740D02*
X173736Y524256D01*
X146304Y524256D01*
X277368Y685800D02*
X278500Y686500D01*
X146304Y524256D02*
X145158Y523758D01*
D16*
X387096Y416052D03*
X271272Y647700D03*
X236220Y586740D03*
D15*
X396240Y434340D02*
X396240Y426720D01*
X396575Y425258D01*
X272796Y687324D02*
X272796Y699516D01*
X272796Y687324D02*
X273500Y686500D01*
D16*
X396240Y434340D03*
X272796Y699516D03*
D15*
X362712Y443484D02*
X362712Y426720D01*
X362712Y443484D02*
X368808Y449580D01*
X368808Y463296D01*
X227076Y463296D02*
X161544Y463296D01*
X146304Y448056D01*
X361775Y425258D02*
X362712Y426720D01*
X146304Y448056D02*
X145158Y447558D01*
X268224Y678180D02*
X268224Y685800D01*
X268224Y678180D02*
X269748Y676656D01*
X269748Y655320D01*
X265176Y650748D01*
X265176Y633984D01*
X275844Y623316D01*
X275844Y463296D01*
X268224Y685800D02*
X268500Y686500D01*
D16*
X368808Y463296D03*
X227076Y463296D03*
X275844Y463296D03*
D15*
X329184Y434340D02*
X329184Y426720D01*
X330675Y425258D01*
X263652Y673608D02*
X263652Y685800D01*
X263500Y686500D01*
D16*
X329184Y434340D03*
X263652Y673608D03*
D15*
X286512Y416052D02*
X274320Y403860D01*
X286512Y416052D02*
X295656Y425196D01*
X274320Y403860D02*
X245364Y403860D01*
X295656Y425196D02*
X296575Y425258D01*
X257556Y632460D02*
X257556Y685800D01*
X257556Y632460D02*
X269748Y620268D01*
X257556Y685800D02*
X258500Y686500D01*
D16*
X245364Y403860D03*
X269748Y620268D03*
X286512Y416052D03*
D15*
X233172Y422148D02*
X233172Y425196D01*
X233172Y422148D02*
X161544Y350520D01*
X161544Y342900D01*
X233172Y425196D02*
X234275Y425258D01*
X248412Y675132D02*
X248412Y685800D01*
X248412Y675132D02*
X246888Y673608D01*
X248412Y685800D02*
X248500Y686500D01*
D16*
X161544Y342900D03*
X246888Y673608D03*
D15*
X562356Y470916D02*
X562356Y452628D01*
X562356Y470916D02*
X580644Y489204D01*
X580644Y531876D01*
X556260Y556260D01*
X263652Y699516D02*
X249936Y699516D01*
X243840Y693420D01*
X243840Y687324D01*
X560875Y451958D02*
X562356Y452628D01*
X243500Y686500D02*
X243840Y687324D01*
D16*
X556260Y556260D03*
X263652Y699516D03*
D15*
X531876Y451104D02*
X531876Y448056D01*
X502920Y419100D01*
X484632Y419100D01*
X475488Y428244D01*
X475488Y588264D01*
X458724Y605028D01*
X458724Y644652D01*
X240792Y696468D02*
X240792Y699516D01*
X240792Y696468D02*
X239268Y694944D01*
X239268Y687324D01*
X531876Y451104D02*
X533175Y451958D01*
X239268Y687324D02*
X238500Y686500D01*
X169164Y219456D02*
X146304Y219456D01*
X169164Y219456D02*
X193548Y243840D01*
X146304Y219456D02*
X145158Y218958D01*
D16*
X458724Y644652D03*
X240792Y699516D03*
X193548Y243840D03*
X196596Y281940D03*
D15*
X499872Y452628D02*
X502920Y452628D01*
X507492Y457200D01*
X237744Y670560D02*
X237744Y675132D01*
X234696Y678180D01*
X234696Y685800D01*
X498375Y451958D02*
X499872Y452628D01*
X234696Y685800D02*
X233500Y686500D01*
D16*
X507492Y457200D03*
X335280Y603504D03*
X237744Y670560D03*
X187452Y281940D03*
D15*
X464820Y452628D02*
X464820Y464820D01*
X472440Y472440D01*
X472440Y509016D01*
X454152Y527304D01*
X451104Y527304D01*
X438912Y539496D01*
X438912Y541020D01*
X240792Y658368D02*
X228600Y670560D01*
X228600Y685800D01*
X464820Y452628D02*
X464275Y451958D01*
X228600Y685800D02*
X228500Y686500D01*
X446532Y422148D02*
X449580Y419100D01*
X469392Y419100D01*
X470916Y420624D01*
X470916Y445008D01*
X464820Y451104D01*
X464275Y451958D01*
D16*
X438912Y541020D03*
X240792Y658368D03*
X272796Y306324D03*
X446532Y422148D03*
D15*
X429768Y445008D02*
X429768Y451104D01*
X429768Y445008D02*
X426720Y441960D01*
X429768Y451104D02*
X430975Y451958D01*
X224028Y687324D02*
X224028Y693420D01*
X236220Y705612D01*
X275844Y705612D01*
X301752Y679704D01*
X301752Y611124D01*
X223500Y686500D02*
X224028Y687324D01*
D16*
X426720Y441960D03*
X301752Y611124D03*
D15*
X388620Y451104D02*
X382524Y445008D01*
X388620Y451104D02*
X389625Y451958D01*
X219456Y656844D02*
X219456Y685800D01*
X224028Y598932D02*
X224028Y579120D01*
X179832Y534924D01*
X131064Y534924D01*
X120396Y524256D01*
X219456Y685800D02*
X218500Y686500D01*
X120396Y524256D02*
X119758Y523758D01*
D16*
X382524Y445008D03*
X219456Y656844D03*
X224028Y598932D03*
D15*
X338328Y452628D02*
X350520Y452628D01*
X338328Y452628D02*
X316992Y473964D01*
X312420Y473964D01*
X350520Y452628D02*
X351025Y451958D01*
X213360Y676656D02*
X213360Y685800D01*
X213360Y676656D02*
X208788Y672084D01*
X213360Y685800D02*
X213500Y686500D01*
D16*
X312420Y473964D03*
X208788Y672084D03*
D15*
X316992Y451104D02*
X307848Y441960D01*
X316992Y451104D02*
X318425Y451958D01*
X208788Y687324D02*
X208788Y697992D01*
X210312Y699516D01*
X208788Y687324D02*
X208500Y686500D01*
D16*
X307848Y441960D03*
X210312Y699516D03*
D15*
X288036Y470916D02*
X288036Y452628D01*
X288036Y470916D02*
X283464Y475488D01*
X283464Y583692D01*
X307848Y608076D01*
X307848Y678180D01*
X277368Y708660D01*
X210312Y708660D01*
X204216Y702564D01*
X204216Y687324D01*
X203500Y686500D01*
X288036Y452628D02*
X280416Y445008D01*
X288225Y451958D02*
X288036Y452628D01*
D16*
X280416Y445008D03*
D15*
X254508Y451104D02*
X243840Y451104D01*
X224028Y431292D01*
X195072Y431292D01*
X146304Y382524D01*
X131064Y382524D01*
X120396Y371856D01*
X254508Y451104D02*
X255325Y451958D01*
X120396Y371856D02*
X119758Y371358D01*
X199644Y672084D02*
X199644Y685800D01*
X199644Y672084D02*
X208788Y662940D01*
X211836Y662940D01*
X199644Y685800D02*
X198500Y686500D01*
D16*
X211836Y662940D03*
D15*
X542544Y478536D02*
X550164Y478536D01*
X214884Y385572D02*
X214884Y382524D01*
X163068Y330708D01*
X129540Y330708D01*
X120396Y321564D01*
X550164Y478536D02*
X551025Y479058D01*
X120396Y321564D02*
X119758Y320558D01*
X188976Y687324D02*
X188976Y699516D01*
X188976Y687324D02*
X188500Y686500D01*
D16*
X542544Y478536D03*
X214884Y385572D03*
X188976Y699516D03*
D15*
X522732Y486156D02*
X522732Y480060D01*
X522732Y486156D02*
X537972Y501396D01*
X537972Y569976D01*
X480060Y627888D01*
X480060Y637032D01*
X478536Y638556D01*
X216408Y601980D02*
X216408Y588264D01*
X216408Y601980D02*
X184404Y633984D01*
X184404Y685800D01*
X521525Y479058D02*
X522732Y480060D01*
X184404Y685800D02*
X183500Y686500D01*
D16*
X478536Y638556D03*
X216408Y588264D03*
X172212Y585216D03*
D15*
X487680Y478536D02*
X487680Y469392D01*
X166116Y637032D02*
X166116Y652272D01*
X179832Y665988D01*
X179832Y678180D01*
X178308Y679704D01*
X178308Y685800D01*
X487680Y478536D02*
X488725Y479058D01*
X178308Y685800D02*
X178500Y686500D01*
D16*
X487680Y469392D03*
X166116Y637032D03*
X208788Y486156D03*
D15*
X446532Y487680D02*
X454152Y480060D01*
X179832Y699516D02*
X173736Y693420D01*
X173736Y687324D01*
X454152Y480060D02*
X455425Y479058D01*
X173500Y686500D02*
X173736Y687324D01*
X120396Y230124D02*
X120396Y219456D01*
X120396Y230124D02*
X134112Y243840D01*
X134112Y248412D01*
X144780Y259080D01*
X149352Y259080D01*
X167640Y277368D01*
X167640Y294132D01*
X120396Y219456D02*
X119758Y218958D01*
D16*
X446532Y487680D03*
X301752Y568452D03*
X179832Y699516D03*
X167640Y294132D03*
X248412Y504444D03*
D15*
X420624Y478536D02*
X420624Y461772D01*
X409956Y451104D01*
X409956Y445008D01*
X420624Y478536D02*
X421125Y479058D01*
X169164Y687324D02*
X169164Y697992D01*
X182880Y711708D01*
X280416Y711708D01*
X292608Y699516D01*
X295656Y699516D01*
X169164Y687324D02*
X168500Y686500D01*
D16*
X409956Y445008D03*
X295656Y699516D03*
D15*
X382524Y486156D02*
X388620Y480060D01*
X382524Y486156D02*
X382524Y487680D01*
X173736Y669036D02*
X164592Y678180D01*
X164592Y685800D01*
X388620Y480060D02*
X388925Y479058D01*
X164592Y685800D02*
X163500Y686500D01*
D16*
X382524Y487680D03*
X173736Y669036D03*
X179832Y275844D03*
D15*
X347472Y480060D02*
X350520Y480060D01*
X347472Y480060D02*
X330708Y496824D01*
X327660Y496824D01*
X214884Y579120D02*
X160020Y633984D01*
X160020Y678180D01*
X158496Y679704D01*
X158496Y685800D01*
X350520Y480060D02*
X351925Y479058D01*
X158496Y685800D02*
X158500Y686500D01*
D16*
X327660Y496824D03*
X214884Y579120D03*
D15*
X405384Y286512D02*
X420624Y286512D01*
X405384Y286512D02*
X382524Y263652D01*
X291084Y263652D01*
X420624Y286512D02*
X421825Y287958D01*
X53340Y687324D02*
X53340Y693420D01*
X65532Y705612D01*
X82296Y705612D01*
X53340Y687324D02*
X53500Y686500D01*
D16*
X291084Y263652D03*
X82296Y705612D03*
D15*
X489204Y505968D02*
X495300Y499872D01*
X515112Y499872D01*
X518160Y502920D02*
X521208Y505968D01*
X518160Y502920D02*
X515112Y499872D01*
X489204Y505968D02*
X488425Y506258D01*
X521208Y505968D02*
X522425Y506258D01*
X553212Y507492D02*
X553212Y524256D01*
X562356Y533400D01*
X553212Y507492D02*
X552125Y506258D01*
X562356Y533400D02*
X563275Y533858D01*
X524256Y496824D02*
X518160Y502920D01*
X551688Y505968D02*
X551688Y496824D01*
X551688Y505968D02*
X552125Y506258D01*
X231648Y472440D02*
X225552Y478536D01*
X231648Y472440D02*
X248412Y472440D01*
X254508Y478536D01*
X225552Y478536D02*
X224325Y479058D01*
X254508Y478536D02*
X255625Y479058D01*
X242316Y507492D02*
X233172Y507492D01*
X242316Y507492D02*
X246888Y512064D01*
X262128Y512064D01*
X266700Y507492D01*
X233172Y507492D02*
X233075Y506258D01*
X266700Y507492D02*
X267475Y506258D01*
X256032Y495300D02*
X256032Y480060D01*
X256032Y495300D02*
X266700Y505968D01*
X256032Y480060D02*
X255625Y479058D01*
X266700Y505968D02*
X267475Y506258D01*
X289560Y505968D02*
X289560Y493776D01*
X289560Y480060D01*
X289725Y478600D01*
X289560Y505968D02*
X289925Y506258D01*
X321564Y505968D02*
X321564Y493776D01*
X321564Y480060D01*
X321725Y479058D01*
X321564Y505968D02*
X321525Y506258D01*
X344424Y515112D02*
X352044Y507492D01*
X344424Y515112D02*
X329184Y515112D01*
X321564Y507492D01*
X352044Y507492D02*
X352225Y506258D01*
X321564Y507492D02*
X321525Y506258D01*
X321564Y493776D02*
X289560Y493776D01*
X353568Y574548D02*
X353568Y630936D01*
X353568Y574548D02*
X316992Y537972D01*
X316992Y527304D01*
X329184Y515112D01*
X353568Y630936D02*
X354600Y632200D01*
X262128Y522732D02*
X262128Y512064D01*
X262128Y522732D02*
X263652Y524256D01*
X245364Y288036D02*
X231648Y288036D01*
X245364Y288036D02*
X251460Y294132D01*
X259080Y294132D01*
X265176Y288036D01*
X231648Y288036D02*
X230375Y287958D01*
X265176Y288036D02*
X265675Y287958D01*
X291084Y281940D02*
X295656Y286512D01*
X291084Y281940D02*
X271272Y281940D01*
X266700Y286512D01*
X295656Y286512D02*
X297075Y287958D01*
X266700Y286512D02*
X265675Y287958D01*
X324612Y291084D02*
X327660Y288036D01*
X324612Y291084D02*
X324612Y292608D01*
X323088Y294132D01*
X303276Y294132D01*
X297180Y288036D01*
X327660Y288036D02*
X328775Y287958D01*
X297180Y288036D02*
X297075Y287958D01*
X467868Y288036D02*
X480060Y288036D01*
X486156Y294132D01*
X492252Y294132D01*
X498348Y288036D01*
X467868Y288036D02*
X466575Y287958D01*
X498348Y288036D02*
X499275Y287958D01*
X376428Y288036D02*
X362712Y288036D01*
X376428Y288036D02*
X382524Y294132D01*
X390144Y294132D01*
X396240Y288036D01*
X362712Y288036D02*
X361775Y287958D01*
X396240Y288036D02*
X396775Y287958D01*
X425196Y294132D02*
X431292Y288036D01*
X425196Y294132D02*
X403860Y294132D01*
X397764Y288036D01*
X431292Y288036D02*
X431975Y287958D01*
X397764Y288036D02*
X396775Y287958D01*
X460248Y294132D02*
X466344Y288036D01*
X460248Y294132D02*
X438912Y294132D01*
X432816Y288036D01*
X466344Y288036D02*
X466575Y287958D01*
X432816Y288036D02*
X431975Y287958D01*
X329184Y286512D02*
X329184Y283464D01*
X339852Y272796D01*
X355092Y272796D01*
X361188Y278892D01*
X361188Y286512D01*
X329184Y286512D02*
X328775Y287958D01*
X361188Y286512D02*
X361775Y287958D01*
X391668Y507492D02*
X396240Y512064D01*
X417576Y512064D01*
X422148Y507492D01*
X391668Y507492D02*
X390325Y506258D01*
X422148Y507492D02*
X423125Y506258D01*
X565404Y323088D02*
X565404Y315468D01*
X565404Y323088D02*
X530352Y358140D01*
X457200Y358140D01*
X441960Y373380D01*
X441960Y374904D01*
X425196Y391668D01*
X417576Y391668D01*
X399288Y409956D01*
X384048Y409956D01*
X376428Y417576D01*
X376428Y492252D01*
X390144Y505968D01*
X565404Y315468D02*
X565975Y315458D01*
X390144Y505968D02*
X390325Y506258D01*
X441960Y507492D02*
X455676Y507492D01*
X441960Y507492D02*
X437388Y512064D01*
X428244Y512064D01*
X423672Y507492D01*
X455676Y507492D02*
X455825Y506258D01*
X423672Y507492D02*
X423125Y506258D01*
X499872Y286512D02*
X510540Y275844D01*
X562356Y304800D02*
X562356Y310896D01*
X565404Y313944D01*
X499872Y286512D02*
X499275Y287958D01*
X565404Y313944D02*
X565975Y315458D01*
X356616Y502920D02*
X353568Y505968D01*
X356616Y502920D02*
X356616Y501396D01*
X365760Y492252D01*
X376428Y492252D01*
X353568Y505968D02*
X352225Y506258D01*
D16*
X524256Y496824D03*
X551688Y496824D03*
X263652Y524256D03*
X510540Y275844D03*
X562356Y304800D03*
D15*
X330708Y480060D02*
X330708Y487680D01*
X330708Y480060D02*
X331875Y479058D01*
X153924Y638556D02*
X153924Y685800D01*
X153500Y686500D01*
D16*
X330708Y487680D03*
X153924Y638556D03*
D15*
X298704Y478536D02*
X298704Y469392D01*
X298704Y478536D02*
X299875Y478600D01*
X147828Y673608D02*
X147828Y685800D01*
X67056Y582168D02*
X67056Y534924D01*
X56388Y524256D01*
X147828Y685800D02*
X148500Y686500D01*
X56388Y524256D02*
X55800Y523958D01*
D16*
X298704Y469392D03*
X147828Y673608D03*
X67056Y582168D03*
D15*
X256032Y469392D02*
X265176Y478536D01*
X256032Y469392D02*
X156972Y469392D01*
X149352Y461772D01*
X67056Y461772D01*
X56388Y472440D01*
X265176Y478536D02*
X265775Y479058D01*
X56388Y472440D02*
X55800Y473158D01*
X143256Y687324D02*
X143256Y699516D01*
X143256Y687324D02*
X143500Y686500D01*
D16*
X143256Y699516D03*
D15*
X227076Y486156D02*
X233172Y480060D01*
X227076Y486156D02*
X217932Y486156D01*
X163068Y620268D02*
X138684Y644652D01*
X138684Y685800D01*
X233172Y480060D02*
X234475Y479058D01*
X138684Y685800D02*
X138500Y686500D01*
D16*
X217932Y486156D03*
X163068Y620268D03*
D15*
X562356Y515112D02*
X562356Y507492D01*
X562275Y506258D01*
X132588Y678180D02*
X132588Y685800D01*
X132588Y678180D02*
X124968Y670560D01*
X132588Y685800D02*
X133500Y686500D01*
D16*
X562356Y515112D03*
X124968Y670560D03*
D15*
X525780Y513588D02*
X531876Y507492D01*
X525780Y513588D02*
X505968Y513588D01*
X128016Y687324D02*
X128016Y699516D01*
X531876Y507492D02*
X532575Y506258D01*
X128500Y686500D02*
X128016Y687324D01*
D16*
X505968Y513588D03*
X128016Y699516D03*
D15*
X499872Y525780D02*
X499872Y507492D01*
X499872Y525780D02*
X504444Y530352D01*
X504444Y598932D01*
X473964Y629412D01*
X123444Y694944D02*
X118872Y699516D01*
X123444Y694944D02*
X123444Y687324D01*
X498575Y506258D02*
X499872Y507492D01*
X123500Y686500D02*
X123444Y687324D01*
D16*
X473964Y629412D03*
X118872Y699516D03*
D15*
X445008Y527304D02*
X464820Y507492D01*
X445008Y527304D02*
X428244Y527304D01*
X426720Y528828D01*
X426720Y539496D01*
X420624Y545592D01*
X377952Y545592D01*
X202692Y571500D02*
X121920Y652272D01*
X121920Y664464D01*
X118872Y667512D01*
X118872Y685800D01*
X464820Y507492D02*
X465975Y506258D01*
X118872Y685800D02*
X118500Y686500D01*
X56388Y280416D02*
X56388Y271272D01*
X56388Y280416D02*
X106680Y330708D01*
X106680Y397764D01*
X120396Y411480D01*
X123444Y411480D01*
X134112Y422148D01*
X134112Y425196D01*
X146304Y437388D01*
X169164Y437388D01*
X176784Y445008D01*
X56388Y271272D02*
X55800Y269958D01*
D16*
X377952Y545592D03*
X202692Y571500D03*
X176784Y445008D03*
D15*
X432816Y501396D02*
X432816Y505968D01*
X432816Y501396D02*
X414528Y483108D01*
X414528Y467868D01*
X411480Y464820D01*
X208788Y352044D02*
X192024Y352044D01*
X146304Y306324D01*
X115824Y306324D01*
X54864Y245364D01*
X432816Y505968D02*
X433275Y506258D01*
X55800Y244558D02*
X54864Y245364D01*
X114300Y667512D02*
X114300Y685800D01*
X114300Y667512D02*
X118872Y662940D01*
X118872Y647700D01*
X196596Y569976D01*
X196596Y563880D01*
X114300Y685800D02*
X113500Y686500D01*
D16*
X411480Y464820D03*
X208788Y352044D03*
X196596Y563880D03*
D15*
X399288Y505968D02*
X399288Y495300D01*
X396240Y492252D01*
X112776Y659892D02*
X112776Y664464D01*
X108204Y669036D01*
X108204Y685800D01*
X399288Y505968D02*
X400475Y506258D01*
X108204Y685800D02*
X108500Y686500D01*
D16*
X396240Y492252D03*
X112776Y659892D03*
X348996Y466344D03*
D15*
X361188Y507492D02*
X350520Y518160D01*
X109728Y699516D02*
X103632Y693420D01*
X103632Y687324D01*
X361188Y507492D02*
X362375Y506258D01*
X103500Y686500D02*
X103632Y687324D01*
X103632Y510540D02*
X86868Y493776D01*
X103632Y510540D02*
X103632Y685800D01*
X103500Y686500D01*
D16*
X350520Y518160D03*
X109728Y699516D03*
X86868Y493776D03*
D15*
X332232Y507492D02*
X338328Y507492D01*
X339852Y509016D01*
X152400Y699516D02*
X146304Y705612D01*
X106680Y705612D01*
X99060Y697992D01*
X99060Y687324D01*
X332232Y507492D02*
X331675Y506258D01*
X98500Y686500D02*
X99060Y687324D01*
X97536Y665988D02*
X97536Y519684D01*
X97536Y665988D02*
X100584Y669036D01*
X100584Y678180D01*
X99060Y679704D01*
X99060Y685800D01*
X98500Y686500D01*
D16*
X339852Y509016D03*
X152400Y699516D03*
X97536Y519684D03*
D15*
X300228Y515112D02*
X300228Y507492D01*
X300228Y515112D02*
X313944Y528828D01*
X313944Y723900D01*
X312420Y725424D01*
X121920Y725424D01*
X94488Y697992D01*
X94488Y687324D01*
X300228Y507492D02*
X300075Y506258D01*
X94488Y687324D02*
X93500Y686500D01*
X19812Y388620D02*
X19812Y278892D01*
X19812Y388620D02*
X16764Y391668D01*
X16764Y603504D01*
X28956Y615696D01*
X94488Y672084D02*
X94488Y685800D01*
X93500Y686500D01*
D16*
X19812Y278892D03*
X28956Y615696D03*
X94488Y672084D03*
D15*
X275844Y288036D02*
X286512Y288036D01*
X275844Y288036D02*
X263652Y300228D01*
X164592Y300228D01*
X144780Y280416D01*
X106680Y280416D01*
X56388Y230124D01*
X41148Y230124D01*
X30480Y219456D01*
X286512Y288036D02*
X286925Y287958D01*
X30480Y219456D02*
X30400Y219158D01*
X88392Y687324D02*
X88392Y708660D01*
X85344Y711708D01*
X51816Y711708D01*
X13716Y673608D01*
X13716Y271272D01*
X30480Y254508D01*
X35052Y254508D01*
X41148Y248412D01*
X41148Y230124D01*
X88500Y686500D02*
X88392Y687324D01*
X254508Y286512D02*
X146304Y178308D01*
X106680Y178308D01*
X60960Y132588D01*
X25908Y132588D01*
X19812Y138684D01*
X19812Y158496D01*
X28956Y167640D01*
X254508Y286512D02*
X255525Y287958D01*
X30400Y168358D02*
X28956Y167640D01*
X83820Y675132D02*
X83820Y685800D01*
X83820Y675132D02*
X85344Y673608D01*
X83820Y685800D02*
X83500Y686500D01*
D16*
X85344Y673608D03*
D15*
X256032Y505968D02*
X256032Y502920D01*
X245364Y492252D01*
X158496Y492252D01*
X149352Y483108D01*
X131064Y483108D01*
X129540Y481584D01*
X91440Y595884D02*
X91440Y658368D01*
X91440Y595884D02*
X91440Y507492D01*
X91440Y658368D02*
X79248Y670560D01*
X79248Y685800D01*
X256032Y505968D02*
X257325Y506258D01*
X79248Y685800D02*
X78500Y686500D01*
X77724Y595884D02*
X91440Y595884D01*
D16*
X129540Y481584D03*
X91440Y507492D03*
X77724Y595884D03*
D15*
X167640Y505968D02*
X222504Y505968D01*
X167640Y505968D02*
X149352Y487680D01*
X73152Y487680D02*
X51816Y487680D01*
X73152Y487680D02*
X149352Y487680D01*
X51816Y487680D02*
X38100Y473964D01*
X30480Y473964D01*
X222504Y505968D02*
X222925Y506258D01*
X30480Y473964D02*
X30400Y473158D01*
X73152Y600456D02*
X73152Y685800D01*
X73152Y600456D02*
X71628Y598932D01*
X71628Y586740D01*
X73152Y585216D01*
X73152Y487680D01*
X73152Y685800D02*
X73500Y686500D01*
X553212Y534924D02*
X557784Y539496D01*
X566928Y539496D01*
X574548Y531876D01*
X574548Y528828D01*
X553125Y533858D02*
X553212Y534924D01*
X68580Y617220D02*
X68580Y685800D01*
X68580Y617220D02*
X50292Y598932D01*
X68580Y685800D02*
X68500Y686500D01*
D16*
X574548Y528828D03*
X50292Y598932D03*
D15*
X480060Y278892D02*
X487680Y286512D01*
X489125Y287958D01*
X62484Y640080D02*
X62484Y685800D01*
X62484Y640080D02*
X50292Y627888D01*
X62484Y685800D02*
X63500Y686500D01*
D16*
X480060Y278892D03*
X50292Y627888D03*
D15*
X445008Y275844D02*
X455676Y286512D01*
X456425Y287958D01*
X57912Y644652D02*
X57912Y685800D01*
X57912Y644652D02*
X56388Y643128D01*
X57912Y685800D02*
X58500Y686500D01*
D16*
X445008Y275844D03*
X56388Y643128D03*
D15*
X379476Y286512D02*
X385572Y286512D01*
X379476Y286512D02*
X362712Y269748D01*
X329184Y269748D01*
X385572Y286512D02*
X386625Y287958D01*
X48768Y635508D02*
X48768Y685800D01*
X48768Y635508D02*
X44196Y630936D01*
X44196Y589788D01*
X47244Y586740D01*
X48768Y685800D02*
X48500Y686500D01*
D16*
X329184Y269748D03*
X47244Y586740D03*
D15*
X352044Y286512D02*
X352044Y278892D01*
X352044Y286512D02*
X351625Y287958D01*
X42672Y633984D02*
X42672Y685800D01*
X42672Y633984D02*
X41148Y632460D01*
X41148Y583692D01*
X45720Y579120D01*
X45720Y486156D01*
X42672Y483108D01*
X25908Y483108D01*
X19812Y477012D01*
X19812Y393192D01*
X30480Y382524D01*
X33528Y382524D01*
X41148Y374904D01*
X41148Y281940D01*
X30480Y271272D01*
X42672Y685800D02*
X43500Y686500D01*
X30480Y271272D02*
X30400Y269958D01*
D16*
X352044Y278892D03*
D15*
X318516Y286512D02*
X304800Y286512D01*
X147828Y129540D01*
X24384Y129540D01*
X16764Y137160D01*
X16764Y231648D01*
X28956Y243840D01*
X318516Y286512D02*
X318625Y287958D01*
X30400Y244558D02*
X28956Y243840D01*
X38100Y582168D02*
X38100Y685800D01*
X38100Y582168D02*
X41148Y579120D01*
X41148Y490728D01*
X39624Y489204D01*
X38100Y685800D02*
X38500Y686500D01*
D16*
X39624Y489204D03*
D15*
X248412Y409956D02*
X263652Y425196D01*
X248412Y409956D02*
X225552Y409956D01*
X167640Y352044D01*
X167640Y339852D01*
X164592Y336804D01*
X155448Y336804D01*
X146304Y345948D01*
X263652Y425196D02*
X263875Y425258D01*
X146304Y345948D02*
X145158Y345958D01*
X252984Y661416D02*
X252984Y685800D01*
X252984Y661416D02*
X211836Y620268D01*
X252984Y685800D02*
X253500Y686500D01*
D16*
X211836Y620268D03*
D15*
X210312Y286512D02*
X219456Y286512D01*
X210312Y286512D02*
X153924Y230124D01*
X141732Y230124D01*
X131064Y219456D01*
X131064Y214884D01*
X120396Y204216D01*
X106680Y204216D01*
X56388Y153924D01*
X41148Y153924D01*
X30480Y143256D01*
X219456Y286512D02*
X220225Y287958D01*
X30480Y143256D02*
X30400Y142958D01*
X556260Y294132D02*
X556260Y313944D01*
X556260Y294132D02*
X620268Y230124D01*
X624840Y230124D01*
X630936Y224028D01*
X630936Y214884D01*
X620268Y204216D01*
X246888Y204216D01*
X149352Y106680D01*
X41148Y106680D01*
X30480Y117348D01*
X556260Y313944D02*
X555825Y315458D01*
X30480Y117348D02*
X30400Y117558D01*
X422148Y397764D02*
X422148Y409956D01*
X425196Y413004D01*
X440436Y413004D01*
X449580Y403860D02*
X455676Y397764D01*
X449580Y403860D02*
X440436Y413004D01*
X422148Y397764D02*
X421725Y397458D01*
X455676Y397764D02*
X456325Y397458D01*
X504444Y612648D02*
X504444Y685800D01*
X504444Y612648D02*
X533400Y583692D01*
X504444Y685800D02*
X503500Y686500D01*
X461772Y416052D02*
X449580Y403860D01*
X461772Y416052D02*
X527304Y416052D01*
D16*
X533400Y583692D03*
X527304Y416052D03*
D15*
X284988Y396240D02*
X284988Y393192D01*
X323088Y355092D01*
X399288Y355092D01*
X419100Y335280D01*
X419100Y329184D01*
X423672Y324612D01*
X435864Y324612D01*
X460248Y300228D01*
X510540Y300228D01*
X591312Y219456D01*
X620268Y219456D01*
X284988Y396240D02*
X284325Y397458D01*
X620268Y219456D02*
X620846Y218958D01*
X251460Y385572D02*
X251460Y396240D01*
X251460Y385572D02*
X245364Y379476D01*
X245364Y367284D01*
X409956Y198120D02*
X591312Y198120D01*
X620268Y169164D01*
X252425Y397458D02*
X251460Y396240D01*
X620268Y169164D02*
X620846Y168158D01*
D16*
X245364Y367284D03*
X409956Y198120D03*
D15*
X222504Y384048D02*
X222504Y396240D01*
X222504Y384048D02*
X214884Y376428D01*
X214884Y341376D01*
X228600Y327660D01*
X295656Y327660D01*
X222504Y396240D02*
X223125Y397458D01*
D16*
X295656Y327660D03*
D15*
X553212Y406908D02*
X553212Y425196D01*
X552425Y425258D01*
D16*
X553212Y406908D03*
M02*
