G04 EAGLE Gerber RS-274X export*
G75*
%MOMM*%
%FSLAX34Y34*%
%LPD*%
%INCopper Layer 2*%
%IPPOS*%
%AMOC8*
5,1,8,0,0,1.08239X$1,22.5*%
G01*
G04 Define Apertures*
%ADD10C,1.524000*%
%ADD11C,0.152400*%
%ADD12C,0.756400*%
D10*
X709500Y574558D03*
X734900Y574558D03*
X709500Y549158D03*
X734900Y549158D03*
X709500Y523758D03*
X734900Y523758D03*
X709500Y498358D03*
X734900Y498358D03*
X709500Y472958D03*
X734900Y472958D03*
X709500Y447558D03*
X734900Y447558D03*
X709500Y422158D03*
X734900Y422158D03*
X709500Y396758D03*
X734900Y396758D03*
X709500Y371358D03*
X734900Y371358D03*
X709500Y345958D03*
X734900Y345958D03*
X709500Y320558D03*
X734900Y320558D03*
X709500Y295158D03*
X734900Y295158D03*
X709500Y269758D03*
X734900Y269758D03*
X709500Y244358D03*
X734900Y244358D03*
X709500Y218958D03*
X734900Y218958D03*
X709500Y193558D03*
X734900Y193558D03*
X709500Y168158D03*
X734900Y168158D03*
X709500Y142758D03*
X734900Y142758D03*
X709500Y117358D03*
X734900Y117358D03*
X709500Y91958D03*
X734900Y91958D03*
X620846Y574558D03*
X646246Y574558D03*
X620846Y549158D03*
X646246Y549158D03*
X620846Y523758D03*
X646246Y523758D03*
X620846Y498358D03*
X646246Y498358D03*
X620846Y472958D03*
X646246Y472958D03*
X620846Y447558D03*
X646246Y447558D03*
X620846Y422158D03*
X646246Y422158D03*
X620846Y396758D03*
X646246Y396758D03*
X620846Y371358D03*
X646246Y371358D03*
X620846Y345958D03*
X646246Y345958D03*
X620846Y320558D03*
X646246Y320558D03*
X620846Y295158D03*
X646246Y295158D03*
X620846Y269758D03*
X646246Y269758D03*
X620846Y244358D03*
X646246Y244358D03*
X620846Y218958D03*
X646246Y218958D03*
X620846Y193558D03*
X646246Y193558D03*
X620846Y168158D03*
X646246Y168158D03*
X620846Y142758D03*
X646246Y142758D03*
X620846Y117358D03*
X646246Y117358D03*
X620846Y91958D03*
X646246Y91958D03*
X119758Y574558D03*
X145158Y574558D03*
X119758Y549158D03*
X145158Y549158D03*
X119758Y523758D03*
X145158Y523758D03*
X119758Y498358D03*
X145158Y498358D03*
X119758Y472958D03*
X145158Y472958D03*
X119758Y447558D03*
X145158Y447558D03*
X119758Y422158D03*
X145158Y422158D03*
X119758Y396758D03*
X145158Y396758D03*
X119758Y371358D03*
X145158Y371358D03*
X119758Y345958D03*
X145158Y345958D03*
X119758Y320558D03*
X145158Y320558D03*
X119758Y295158D03*
X145158Y295158D03*
X119758Y269758D03*
X145158Y269758D03*
X119758Y244358D03*
X145158Y244358D03*
X119758Y218958D03*
X145158Y218958D03*
X119758Y193558D03*
X145158Y193558D03*
X119758Y168158D03*
X145158Y168158D03*
X119758Y142758D03*
X145158Y142758D03*
X119758Y117358D03*
X145158Y117358D03*
X119758Y91958D03*
X145158Y91958D03*
X30400Y574758D03*
X55800Y574758D03*
X30400Y549358D03*
X55800Y549358D03*
X30400Y523958D03*
X55800Y523958D03*
X30400Y498558D03*
X55800Y498558D03*
X30400Y473158D03*
X55800Y473158D03*
X30400Y447758D03*
X55800Y447758D03*
X30400Y422358D03*
X55800Y422358D03*
X30400Y396958D03*
X55800Y396958D03*
X30400Y371558D03*
X55800Y371558D03*
X30400Y346158D03*
X55800Y346158D03*
X30400Y320758D03*
X55800Y320758D03*
X30400Y295358D03*
X55800Y295358D03*
X30400Y269958D03*
X55800Y269958D03*
X30400Y244558D03*
X55800Y244558D03*
X30400Y219158D03*
X55800Y219158D03*
X30400Y193758D03*
X55800Y193758D03*
X30400Y168358D03*
X55800Y168358D03*
X30400Y142958D03*
X55800Y142958D03*
X30400Y117558D03*
X55800Y117558D03*
X30400Y92158D03*
X55800Y92158D03*
X354600Y632200D03*
X380000Y632200D03*
X405400Y632200D03*
X430800Y632200D03*
D11*
X745236Y541020D02*
X745236Y533400D01*
X765048Y513588D01*
X765048Y387096D01*
X734568Y356616D01*
X719328Y356616D01*
X710184Y347472D01*
X709500Y345958D01*
D12*
X641604Y652272D03*
X745236Y541020D03*
X303276Y321564D03*
X495300Y306324D03*
X443484Y605028D03*
X481584Y566928D03*
X510540Y548640D03*
X300228Y524256D03*
X342900Y524256D03*
X236220Y516636D03*
X565404Y333756D03*
X545592Y333756D03*
X435864Y307848D03*
X483108Y609600D03*
D11*
X467868Y542544D02*
X594360Y542544D01*
X614172Y562356D01*
X679704Y562356D02*
X681228Y562356D01*
X679704Y562356D02*
X614172Y562356D01*
X681228Y562356D02*
X708660Y534924D01*
X723900Y534924D01*
X734568Y524256D01*
X734900Y523758D01*
X679704Y562356D02*
X679704Y568452D01*
D12*
X467868Y542544D03*
X679704Y568452D03*
X723900Y669036D03*
D11*
X591312Y534924D02*
X413004Y534924D01*
X591312Y534924D02*
X615696Y559308D01*
X650748Y559308D01*
X690372Y519684D01*
X690372Y502920D01*
X710184Y483108D01*
X714756Y483108D01*
X723900Y473964D01*
X723900Y458724D01*
X734568Y448056D01*
X734900Y447558D01*
D12*
X413004Y534924D03*
X723900Y659892D03*
X454152Y673608D03*
X704088Y669036D03*
X754380Y512064D03*
X441960Y665988D03*
X711708Y699516D03*
X307848Y699516D03*
X682752Y717804D03*
X670560Y719328D03*
D11*
X734568Y269748D02*
X734568Y259080D01*
X720852Y245364D01*
X720852Y240792D01*
X713232Y233172D01*
X704088Y233172D01*
X678180Y259080D01*
X656844Y259080D01*
X655320Y260604D01*
X655320Y263652D01*
X656844Y265176D01*
X656844Y274320D01*
X646176Y284988D01*
X615696Y284988D01*
X571500Y329184D01*
X571500Y336804D01*
X557784Y350520D01*
X550164Y350520D01*
X734568Y269748D02*
X734900Y269758D01*
D12*
X265176Y551688D03*
X326136Y612648D03*
X390144Y699516D03*
X710184Y661416D03*
X550164Y350520D03*
X387096Y601980D03*
D11*
X348996Y641604D02*
X341376Y641604D01*
X348996Y641604D02*
X397764Y690372D01*
X614172Y690372D01*
X638556Y714756D01*
D12*
X252984Y553212D03*
X341376Y641604D03*
X638556Y714756D03*
X742188Y409956D03*
X557784Y278892D03*
X672084Y451104D03*
D11*
X531876Y566928D02*
X531876Y571500D01*
X635508Y675132D01*
X678180Y675132D01*
X679704Y673608D01*
D12*
X531876Y566928D03*
X679704Y673608D03*
X742188Y461772D03*
X592836Y227076D03*
X659892Y219456D03*
X665988Y699516D03*
X693420Y438912D03*
X664464Y324612D03*
D11*
X620268Y153924D02*
X467868Y306324D01*
X620268Y153924D02*
X684276Y153924D01*
X710184Y128016D01*
X725424Y128016D01*
X734568Y118872D01*
X734900Y117358D01*
X679704Y664464D02*
X690372Y675132D01*
X690372Y705612D01*
X710184Y725424D01*
X725424Y725424D01*
D12*
X467868Y306324D03*
X679704Y664464D03*
X725424Y725424D03*
X419100Y301752D03*
X696468Y509016D03*
X382524Y306324D03*
X687324Y495300D03*
X362712Y300228D03*
X658368Y669036D03*
D11*
X388620Y330708D02*
X352044Y330708D01*
X388620Y330708D02*
X431292Y373380D01*
X470916Y373380D01*
X480060Y382524D01*
X591312Y382524D01*
X620268Y411480D01*
X659892Y411480D02*
X697992Y411480D01*
X659892Y411480D02*
X620268Y411480D01*
X697992Y411480D02*
X708660Y422148D01*
X709500Y422158D01*
X658368Y480060D02*
X658368Y534924D01*
X658368Y480060D02*
X659892Y478536D01*
X659892Y411480D01*
D12*
X352044Y330708D03*
X658368Y534924D03*
D11*
X368808Y306324D02*
X336804Y306324D01*
X368808Y306324D02*
X432816Y370332D01*
X472440Y370332D01*
X481584Y379476D01*
X614172Y379476D01*
X617220Y382524D01*
X697992Y382524D01*
X708660Y371856D01*
X709500Y371358D01*
D12*
X336804Y306324D03*
X646176Y609600D03*
D11*
X638556Y664464D02*
X638556Y669036D01*
X638556Y664464D02*
X723900Y579120D01*
X723900Y571500D01*
X736092Y559308D01*
X739140Y559308D01*
X768096Y530352D01*
X768096Y364236D01*
X734568Y330708D01*
X719328Y330708D01*
X710184Y321564D01*
X709500Y320558D01*
D12*
X638556Y669036D03*
X547116Y283464D03*
X682752Y699516D03*
X758952Y487680D03*
D11*
X656844Y618744D02*
X641604Y633984D01*
X656844Y618744D02*
X658368Y618744D01*
X699516Y577596D01*
X699516Y569976D01*
X710184Y559308D01*
X714756Y559308D01*
X723900Y550164D01*
X723900Y545592D01*
X734568Y534924D01*
X739140Y534924D01*
X748284Y525780D01*
X748284Y394716D01*
X736092Y382524D01*
X731520Y382524D01*
X720852Y371856D01*
X720852Y367284D01*
X710184Y356616D01*
X705612Y356616D01*
X699516Y350520D01*
X699516Y254508D01*
X708660Y245364D01*
X709500Y244358D01*
D12*
X486156Y306324D03*
X641604Y633984D03*
D11*
X505968Y333756D02*
X451104Y333756D01*
X505968Y333756D02*
X516636Y323088D01*
X527304Y323088D01*
X617220Y233172D01*
X694944Y233172D01*
X708660Y219456D01*
X709500Y218958D01*
X699516Y702564D02*
X696468Y702564D01*
X699516Y702564D02*
X708660Y693420D01*
X757428Y693420D01*
D12*
X451104Y333756D03*
X696468Y702564D03*
X757428Y693420D03*
D11*
X440436Y330708D02*
X426720Y330708D01*
X440436Y330708D02*
X454152Y316992D01*
X493776Y316992D01*
X606552Y204216D01*
X673608Y204216D01*
X708660Y169164D01*
X709500Y168158D01*
D12*
X426720Y330708D03*
X746760Y591312D03*
X754380Y469392D03*
D11*
X416052Y332232D02*
X413004Y332232D01*
X416052Y332232D02*
X434340Y313944D01*
X469392Y313944D01*
X501396Y281940D01*
X518160Y281940D01*
X621792Y178308D01*
X673608Y178308D01*
X708660Y143256D01*
X709500Y142758D01*
D12*
X413004Y332232D03*
X614172Y641604D03*
X635508Y515112D03*
X669036Y441960D03*
X342900Y278892D03*
X608076Y699516D03*
X608076Y611124D03*
X653796Y434340D03*
X481584Y519684D03*
X573024Y443484D03*
X408432Y384048D03*
X463296Y408432D03*
D11*
X384048Y348996D02*
X377952Y348996D01*
X384048Y348996D02*
X423672Y388620D01*
X461772Y388620D01*
X611124Y537972D01*
X635508Y537972D01*
X646176Y548640D01*
X646246Y549158D01*
D12*
X377952Y348996D03*
X303276Y333756D03*
X672084Y469392D03*
D11*
X332232Y356616D02*
X278892Y356616D01*
X332232Y356616D02*
X342900Y345948D01*
X367284Y345948D01*
X373380Y339852D01*
X384048Y339852D01*
X426720Y382524D01*
X464820Y382524D01*
X544068Y461772D01*
X635508Y461772D01*
X646176Y472440D01*
X646246Y472958D01*
D12*
X278892Y356616D03*
X629412Y589788D03*
D11*
X294132Y333756D02*
X283464Y333756D01*
X294132Y333756D02*
X300228Y339852D01*
X364236Y339852D01*
X370332Y333756D01*
X387096Y333756D01*
X429768Y376428D01*
X467868Y376428D01*
X528828Y437388D01*
X624840Y437388D01*
X633984Y446532D01*
X646176Y446532D01*
X646246Y447558D01*
D12*
X283464Y333756D03*
X623316Y605028D03*
X594360Y624840D03*
X614172Y510540D03*
X629412Y432816D03*
X588264Y582168D03*
D11*
X519684Y370332D02*
X481584Y370332D01*
X519684Y370332D02*
X609600Y280416D01*
X637032Y280416D01*
X646176Y271272D01*
X646246Y269758D01*
D12*
X481584Y370332D03*
X568452Y673608D03*
X742188Y512064D03*
D11*
X492252Y352044D02*
X449580Y352044D01*
X492252Y352044D02*
X518160Y326136D01*
X550164Y326136D01*
X621792Y254508D01*
X637032Y254508D01*
X646176Y245364D01*
X646246Y244358D01*
D12*
X449580Y352044D03*
X467868Y605028D03*
X428244Y406908D03*
D11*
X423672Y352044D02*
X455676Y320040D01*
X525780Y320040D01*
X615696Y230124D01*
X635508Y230124D01*
X646176Y219456D01*
X646246Y218958D01*
D12*
X423672Y352044D03*
X559308Y673608D03*
X441960Y452628D03*
X387096Y361188D03*
X553212Y699516D03*
X583692Y342900D03*
X336804Y361188D03*
X428244Y269748D03*
X544068Y699516D03*
X315468Y333756D03*
X568452Y659892D03*
X487680Y434340D03*
D11*
X338328Y379476D02*
X254508Y379476D01*
X338328Y379476D02*
X374904Y342900D01*
X382524Y342900D01*
X425196Y385572D01*
X463296Y385572D01*
X600456Y522732D01*
X620268Y522732D01*
X620846Y523758D01*
D12*
X254508Y379476D03*
X528828Y667512D03*
D11*
X245364Y379476D02*
X227076Y379476D01*
X245364Y379476D02*
X281940Y342900D01*
X365760Y342900D01*
X371856Y336804D01*
X385572Y336804D01*
X428244Y379476D01*
X466344Y379476D01*
X545592Y458724D01*
X646176Y458724D01*
X656844Y469392D01*
X656844Y477012D01*
X650748Y483108D01*
X630936Y483108D01*
X621792Y473964D01*
X620846Y472958D01*
D12*
X227076Y379476D03*
X556260Y579120D03*
X600456Y513588D03*
X571500Y396240D03*
X550164Y566928D03*
X600456Y467868D03*
X515112Y620268D03*
X594360Y490728D03*
X489204Y388620D03*
X544068Y516636D03*
X501396Y352044D03*
X498348Y629412D03*
X379476Y403860D03*
X489204Y627888D03*
X316992Y388620D03*
X428244Y301752D03*
X521208Y269748D03*
X487680Y637032D03*
X416052Y408432D03*
X460248Y496824D03*
X490728Y487680D03*
X361188Y469392D03*
X408432Y477012D03*
X460248Y434340D03*
X131064Y507492D03*
X283464Y670560D03*
D11*
X379476Y416052D02*
X387096Y416052D01*
X379476Y416052D02*
X315468Y480060D01*
X188976Y480060D01*
X146304Y522732D01*
X145158Y523758D01*
D12*
X387096Y416052D03*
X271272Y647700D03*
X236220Y586740D03*
D11*
X396240Y434340D02*
X396240Y416052D01*
X390144Y409956D01*
X220980Y409956D01*
X158496Y472440D01*
X146304Y472440D01*
X145158Y472958D01*
D12*
X396240Y434340D03*
X272796Y699516D03*
X368808Y463296D03*
X227076Y463296D03*
X275844Y463296D03*
X329184Y434340D03*
X263652Y673608D03*
X245364Y403860D03*
X269748Y620268D03*
X286512Y416052D03*
X161544Y342900D03*
X246888Y673608D03*
D11*
X525780Y556260D02*
X556260Y556260D01*
X525780Y556260D02*
X460248Y621792D01*
X341376Y621792D01*
X263652Y699516D01*
D12*
X556260Y556260D03*
X263652Y699516D03*
X458724Y644652D03*
X240792Y699516D03*
X193548Y243840D03*
X196596Y281940D03*
D11*
X324612Y603504D02*
X335280Y603504D01*
X324612Y603504D02*
X260604Y667512D01*
X240792Y667512D01*
X237744Y670560D01*
D12*
X507492Y457200D03*
X335280Y603504D03*
X237744Y670560D03*
X187452Y281940D03*
D11*
X391668Y541020D02*
X438912Y541020D01*
X391668Y541020D02*
X336804Y595884D01*
X303276Y595884D01*
X240792Y658368D01*
D12*
X438912Y541020D03*
X240792Y658368D03*
X272796Y306324D03*
X446532Y422148D03*
X426720Y441960D03*
X301752Y611124D03*
X382524Y445008D03*
X219456Y656844D03*
X224028Y598932D03*
D11*
X303276Y473964D02*
X312420Y473964D01*
X303276Y473964D02*
X300228Y477012D01*
X155448Y477012D01*
X149352Y483108D01*
X140208Y483108D01*
X131064Y473964D01*
X120396Y473964D01*
X119758Y472958D01*
D12*
X312420Y473964D03*
X208788Y672084D03*
X307848Y441960D03*
X210312Y699516D03*
X280416Y445008D03*
X211836Y662940D03*
D11*
X455676Y391668D02*
X542544Y478536D01*
X455676Y391668D02*
X329184Y391668D01*
X320040Y382524D01*
X260604Y382524D01*
X257556Y385572D01*
X214884Y385572D01*
D12*
X542544Y478536D03*
X214884Y385572D03*
X188976Y699516D03*
X478536Y638556D03*
X216408Y588264D03*
X172212Y585216D03*
X487680Y469392D03*
X166116Y637032D03*
X208788Y486156D03*
D11*
X297180Y568452D02*
X301752Y568452D01*
X297180Y568452D02*
X179832Y685800D01*
X179832Y699516D01*
D12*
X446532Y487680D03*
X301752Y568452D03*
X179832Y699516D03*
X167640Y294132D03*
X248412Y504444D03*
X409956Y445008D03*
X295656Y699516D03*
D11*
X362712Y487680D02*
X382524Y487680D01*
X362712Y487680D02*
X347472Y502920D01*
X336804Y502920D01*
X217932Y621792D01*
X217932Y624840D01*
X173736Y669036D01*
D12*
X382524Y487680D03*
X173736Y669036D03*
X179832Y275844D03*
D11*
X300228Y496824D02*
X327660Y496824D01*
X300228Y496824D02*
X217932Y579120D01*
X214884Y579120D01*
D12*
X327660Y496824D03*
X214884Y579120D03*
D11*
X219456Y335280D02*
X291084Y263652D01*
X219456Y335280D02*
X41148Y335280D01*
X30480Y345948D01*
X30400Y346158D01*
D12*
X291084Y263652D03*
X82296Y705612D03*
X524256Y496824D03*
X551688Y496824D03*
X263652Y524256D03*
X510540Y275844D03*
X562356Y304800D03*
X330708Y487680D03*
X153924Y638556D03*
X298704Y469392D03*
X147828Y673608D03*
X67056Y582168D03*
D11*
X83820Y640080D02*
X143256Y699516D01*
X83820Y640080D02*
X83820Y501396D01*
X56388Y473964D01*
X55800Y473158D01*
D12*
X143256Y699516D03*
D11*
X109728Y501396D02*
X56388Y448056D01*
X109728Y501396D02*
X109728Y502920D01*
X120396Y513588D01*
X124968Y513588D01*
X134112Y522732D01*
X134112Y527304D01*
X141732Y534924D01*
X169164Y534924D01*
X217932Y486156D01*
X56388Y448056D02*
X55800Y447758D01*
D12*
X217932Y486156D03*
X163068Y620268D03*
D11*
X556260Y515112D02*
X562356Y515112D01*
X556260Y515112D02*
X435864Y394716D01*
X161544Y394716D01*
X144780Y411480D01*
X67056Y411480D01*
X56388Y422148D01*
X55800Y422358D01*
D12*
X562356Y515112D03*
X124968Y670560D03*
D11*
X364236Y513588D02*
X505968Y513588D01*
X364236Y513588D02*
X315468Y562356D01*
X298704Y562356D01*
X161544Y699516D01*
X161544Y704088D01*
X156972Y708660D01*
X109728Y708660D01*
X103632Y702564D01*
X103632Y696468D01*
X106680Y693420D01*
X121920Y693420D01*
X128016Y699516D01*
D12*
X505968Y513588D03*
X128016Y699516D03*
X473964Y629412D03*
X118872Y699516D03*
X377952Y545592D03*
X202692Y571500D03*
X176784Y445008D03*
D11*
X196596Y563880D02*
X214884Y563880D01*
X295656Y483108D01*
X326136Y483108D01*
X333756Y475488D01*
X400812Y475488D01*
X411480Y464820D01*
D12*
X411480Y464820D03*
X208788Y352044D03*
X196596Y563880D03*
D11*
X385572Y481584D02*
X396240Y492252D01*
X385572Y481584D02*
X352044Y481584D01*
X219456Y614172D01*
X158496Y614172D01*
X112776Y659892D01*
D12*
X396240Y492252D03*
X112776Y659892D03*
X348996Y466344D03*
D11*
X350520Y518160D02*
X338328Y518160D01*
X158496Y697992D01*
X158496Y702564D01*
X155448Y705612D01*
X115824Y705612D01*
X109728Y699516D01*
D12*
X350520Y518160D03*
X109728Y699516D03*
X86868Y493776D03*
D11*
X339852Y509016D02*
X339852Y512064D01*
X152400Y699516D01*
D12*
X339852Y509016D03*
X152400Y699516D03*
X97536Y519684D03*
X19812Y278892D03*
X28956Y615696D03*
X94488Y672084D03*
X85344Y673608D03*
X129540Y481584D03*
X91440Y507492D03*
X77724Y595884D03*
D11*
X565404Y528828D02*
X574548Y528828D01*
X565404Y528828D02*
X434340Y397764D01*
X184404Y397764D01*
X144780Y437388D01*
X39624Y437388D01*
X30480Y446532D01*
X30400Y447758D01*
X41148Y589788D02*
X50292Y598932D01*
X41148Y589788D02*
X41148Y496824D01*
X45720Y492252D01*
X45720Y463296D01*
X30480Y448056D01*
X30400Y447758D01*
D12*
X574548Y528828D03*
X50292Y598932D03*
X480060Y278892D03*
X50292Y627888D03*
X445008Y275844D03*
X56388Y643128D03*
X329184Y269748D03*
X47244Y586740D03*
X352044Y278892D03*
D11*
X39624Y478536D02*
X39624Y489204D01*
X39624Y478536D02*
X41148Y477012D01*
X41148Y469392D01*
X30480Y458724D01*
X25908Y458724D01*
X13716Y446532D01*
X13716Y260604D01*
X28956Y245364D01*
X30400Y244558D01*
D12*
X39624Y489204D03*
X211836Y620268D03*
X533400Y583692D03*
X527304Y416052D03*
D11*
X245364Y367284D02*
X245364Y362712D01*
X409956Y198120D01*
D12*
X245364Y367284D03*
X409956Y198120D03*
D11*
X306324Y327660D02*
X295656Y327660D01*
X306324Y327660D02*
X348996Y284988D01*
X464820Y284988D01*
X606552Y143256D01*
X620268Y143256D01*
X620846Y142758D01*
D12*
X295656Y327660D03*
X553212Y406908D03*
M02*
