G04 EAGLE Gerber RS-274X export*
G75*
%MOMM*%
%FSLAX34Y34*%
%LPD*%
%INCopper Layer 63*%
%IPPOS*%
%AMOC8*
5,1,8,0,0,1.08239X$1,22.5*%
G01*
G04 Define Apertures*
%ADD10C,1.524000*%
%ADD11C,0.152400*%
%ADD12C,0.756400*%
D10*
X709500Y574558D03*
X734900Y574558D03*
X709500Y549158D03*
X734900Y549158D03*
X709500Y523758D03*
X734900Y523758D03*
X709500Y498358D03*
X734900Y498358D03*
X709500Y472958D03*
X734900Y472958D03*
X709500Y447558D03*
X734900Y447558D03*
X709500Y422158D03*
X734900Y422158D03*
X709500Y396758D03*
X734900Y396758D03*
X709500Y371358D03*
X734900Y371358D03*
X709500Y345958D03*
X734900Y345958D03*
X709500Y320558D03*
X734900Y320558D03*
X709500Y295158D03*
X734900Y295158D03*
X709500Y269758D03*
X734900Y269758D03*
X709500Y244358D03*
X734900Y244358D03*
X709500Y218958D03*
X734900Y218958D03*
X709500Y193558D03*
X734900Y193558D03*
X709500Y168158D03*
X734900Y168158D03*
X709500Y142758D03*
X734900Y142758D03*
X709500Y117358D03*
X734900Y117358D03*
X709500Y91958D03*
X734900Y91958D03*
X620846Y574558D03*
X646246Y574558D03*
X620846Y549158D03*
X646246Y549158D03*
X620846Y523758D03*
X646246Y523758D03*
X620846Y498358D03*
X646246Y498358D03*
X620846Y472958D03*
X646246Y472958D03*
X620846Y447558D03*
X646246Y447558D03*
X620846Y422158D03*
X646246Y422158D03*
X620846Y396758D03*
X646246Y396758D03*
X620846Y371358D03*
X646246Y371358D03*
X620846Y345958D03*
X646246Y345958D03*
X620846Y320558D03*
X646246Y320558D03*
X620846Y295158D03*
X646246Y295158D03*
X620846Y269758D03*
X646246Y269758D03*
X620846Y244358D03*
X646246Y244358D03*
X620846Y218958D03*
X646246Y218958D03*
X620846Y193558D03*
X646246Y193558D03*
X620846Y168158D03*
X646246Y168158D03*
X620846Y142758D03*
X646246Y142758D03*
X620846Y117358D03*
X646246Y117358D03*
X620846Y91958D03*
X646246Y91958D03*
X119758Y574558D03*
X145158Y574558D03*
X119758Y549158D03*
X145158Y549158D03*
X119758Y523758D03*
X145158Y523758D03*
X119758Y498358D03*
X145158Y498358D03*
X119758Y472958D03*
X145158Y472958D03*
X119758Y447558D03*
X145158Y447558D03*
X119758Y422158D03*
X145158Y422158D03*
X119758Y396758D03*
X145158Y396758D03*
X119758Y371358D03*
X145158Y371358D03*
X119758Y345958D03*
X145158Y345958D03*
X119758Y320558D03*
X145158Y320558D03*
X119758Y295158D03*
X145158Y295158D03*
X119758Y269758D03*
X145158Y269758D03*
X119758Y244358D03*
X145158Y244358D03*
X119758Y218958D03*
X145158Y218958D03*
X119758Y193558D03*
X145158Y193558D03*
X119758Y168158D03*
X145158Y168158D03*
X119758Y142758D03*
X145158Y142758D03*
X119758Y117358D03*
X145158Y117358D03*
X119758Y91958D03*
X145158Y91958D03*
X30400Y574758D03*
X55800Y574758D03*
X30400Y549358D03*
X55800Y549358D03*
X30400Y523958D03*
X55800Y523958D03*
X30400Y498558D03*
X55800Y498558D03*
X30400Y473158D03*
X55800Y473158D03*
X30400Y447758D03*
X55800Y447758D03*
X30400Y422358D03*
X55800Y422358D03*
X30400Y396958D03*
X55800Y396958D03*
X30400Y371558D03*
X55800Y371558D03*
X30400Y346158D03*
X55800Y346158D03*
X30400Y320758D03*
X55800Y320758D03*
X30400Y295358D03*
X55800Y295358D03*
X30400Y269958D03*
X55800Y269958D03*
X30400Y244558D03*
X55800Y244558D03*
X30400Y219158D03*
X55800Y219158D03*
X30400Y193758D03*
X55800Y193758D03*
X30400Y168358D03*
X55800Y168358D03*
X30400Y142958D03*
X55800Y142958D03*
X30400Y117558D03*
X55800Y117558D03*
X30400Y92158D03*
X55800Y92158D03*
X354600Y632200D03*
X380000Y632200D03*
X405400Y632200D03*
X430800Y632200D03*
D11*
X303276Y324612D02*
X303276Y321564D01*
X303276Y324612D02*
X309372Y330708D01*
X309372Y342900D01*
X333756Y367284D01*
X425196Y367284D01*
X452628Y339852D01*
X461772Y339852D01*
X495300Y306324D01*
D12*
X641604Y652272D03*
X745236Y541020D03*
X303276Y321564D03*
X495300Y306324D03*
X443484Y605028D03*
X481584Y566928D03*
X510540Y548640D03*
X300228Y524256D03*
X342900Y524256D03*
X236220Y516636D03*
X565404Y333756D03*
X545592Y333756D03*
X435864Y307848D03*
X483108Y609600D03*
X467868Y542544D03*
X679704Y568452D03*
X723900Y669036D03*
X413004Y534924D03*
X723900Y659892D03*
X454152Y673608D03*
X704088Y669036D03*
X754380Y512064D03*
D11*
X736092Y382524D02*
X736092Y371856D01*
X736092Y382524D02*
X752856Y399288D01*
X752856Y458724D01*
X765048Y470916D01*
X765048Y646176D01*
X711708Y699516D01*
X736092Y371856D02*
X734900Y371358D01*
D12*
X441960Y665988D03*
X711708Y699516D03*
D11*
X734568Y356616D02*
X734568Y347472D01*
X734568Y356616D02*
X723900Y367284D01*
X723900Y448056D01*
X710184Y461772D01*
X705612Y461772D01*
X672084Y495300D01*
X672084Y717804D01*
X670560Y719328D01*
X734568Y347472D02*
X734900Y345958D01*
D12*
X307848Y699516D03*
X682752Y717804D03*
X670560Y719328D03*
X265176Y551688D03*
X326136Y612648D03*
X390144Y699516D03*
X710184Y661416D03*
X550164Y350520D03*
X387096Y601980D03*
D11*
X742188Y414528D02*
X742188Y409956D01*
X742188Y414528D02*
X748284Y420624D01*
X748284Y470916D01*
X745236Y473964D01*
X745236Y477012D01*
X734568Y487680D01*
X731520Y487680D01*
X720852Y498348D01*
X720852Y641604D01*
X676656Y685800D01*
X676656Y722376D01*
X673608Y725424D01*
X649224Y725424D01*
X638556Y714756D01*
D12*
X252984Y553212D03*
X341376Y641604D03*
X638556Y714756D03*
X742188Y409956D03*
D11*
X672084Y448056D02*
X672084Y451104D01*
X672084Y448056D02*
X699516Y420624D01*
X699516Y265176D01*
X710184Y254508D01*
X714756Y254508D01*
X723900Y245364D01*
X723900Y230124D01*
X734568Y219456D01*
X734900Y218958D01*
D12*
X557784Y278892D03*
X672084Y451104D03*
D11*
X731520Y461772D02*
X742188Y461772D01*
X731520Y461772D02*
X720852Y472440D01*
X720852Y477012D01*
X710184Y487680D01*
X705612Y487680D01*
X685800Y507492D01*
X685800Y667512D01*
X679704Y673608D01*
D12*
X531876Y566928D03*
X679704Y673608D03*
X742188Y461772D03*
D11*
X665988Y638556D02*
X665988Y699516D01*
X665988Y638556D02*
X640080Y612648D01*
X640080Y595884D01*
X665988Y569976D01*
X665988Y466344D01*
X693420Y438912D01*
D12*
X592836Y227076D03*
X659892Y219456D03*
X665988Y699516D03*
X693420Y438912D03*
X664464Y324612D03*
X467868Y306324D03*
X679704Y664464D03*
X725424Y725424D03*
X419100Y301752D03*
X696468Y509016D03*
X382524Y306324D03*
X687324Y495300D03*
X362712Y300228D03*
X658368Y669036D03*
X352044Y330708D03*
X658368Y534924D03*
D11*
X646176Y594360D02*
X646176Y609600D01*
X646176Y594360D02*
X669036Y571500D01*
X669036Y481584D01*
X699516Y451104D01*
X699516Y443484D01*
X710184Y432816D01*
X713232Y432816D01*
X720852Y425196D01*
X720852Y382524D01*
X710184Y371856D01*
X709500Y371358D01*
D12*
X336804Y306324D03*
X646176Y609600D03*
X638556Y669036D03*
D11*
X682752Y699516D02*
X717804Y664464D01*
X717804Y649224D01*
X760476Y606552D01*
X760476Y489204D01*
X758952Y487680D01*
D12*
X547116Y283464D03*
X682752Y699516D03*
X758952Y487680D03*
X486156Y306324D03*
X641604Y633984D03*
X451104Y333756D03*
X696468Y702564D03*
X757428Y693420D03*
D11*
X746760Y591312D02*
X746760Y548640D01*
X751332Y544068D01*
X751332Y518160D01*
X748284Y515112D01*
X748284Y475488D01*
X754380Y469392D01*
D12*
X426720Y330708D03*
X746760Y591312D03*
X754380Y469392D03*
D11*
X669036Y441960D02*
X669036Y425196D01*
X667512Y423672D01*
X667512Y420624D01*
X696468Y391668D01*
X696468Y155448D01*
X708660Y143256D01*
X709500Y142758D01*
D12*
X413004Y332232D03*
X614172Y641604D03*
X635508Y515112D03*
X669036Y441960D03*
D11*
X608076Y611124D02*
X608076Y699516D01*
X653796Y434340D02*
X653796Y429768D01*
X693420Y390144D01*
X693420Y134112D01*
X708660Y118872D01*
X709500Y117358D01*
D12*
X342900Y278892D03*
X608076Y699516D03*
X608076Y611124D03*
X653796Y434340D03*
X481584Y519684D03*
X573024Y443484D03*
X408432Y384048D03*
X463296Y408432D03*
X377952Y348996D03*
X303276Y333756D03*
X672084Y469392D03*
D11*
X629412Y580644D02*
X629412Y589788D01*
X629412Y580644D02*
X630936Y579120D01*
X630936Y519684D01*
X629412Y518160D01*
X629412Y504444D01*
X635508Y498348D01*
X635508Y484632D01*
X646176Y473964D01*
X646246Y472958D01*
D12*
X278892Y356616D03*
X629412Y589788D03*
D11*
X635508Y592836D02*
X623316Y605028D01*
X635508Y592836D02*
X635508Y545592D01*
X646176Y534924D01*
X649224Y534924D01*
X656844Y527304D01*
X656844Y457200D01*
X647700Y448056D01*
X646246Y447558D01*
D12*
X283464Y333756D03*
X623316Y605028D03*
X594360Y624840D03*
X614172Y510540D03*
X629412Y432816D03*
D11*
X588264Y516636D02*
X588264Y582168D01*
X588264Y516636D02*
X621792Y483108D01*
X624840Y483108D01*
X635508Y472440D01*
X635508Y358140D01*
X646176Y347472D01*
X646246Y345958D01*
D12*
X588264Y582168D03*
X481584Y370332D03*
X568452Y673608D03*
X742188Y512064D03*
D11*
X467868Y551688D02*
X467868Y605028D01*
X467868Y551688D02*
X452628Y536448D01*
X452628Y454152D01*
X409956Y411480D01*
X409956Y405384D01*
X413004Y402336D01*
X423672Y402336D01*
X428244Y406908D01*
D12*
X449580Y352044D03*
X467868Y605028D03*
X428244Y406908D03*
D11*
X559308Y673608D02*
X559308Y702564D01*
X553212Y708660D01*
X539496Y708660D01*
X449580Y618744D01*
X449580Y499872D01*
X440436Y490728D01*
X440436Y454152D01*
X441960Y452628D01*
D12*
X423672Y352044D03*
X559308Y673608D03*
X441960Y452628D03*
D11*
X405384Y361188D02*
X387096Y361188D01*
X405384Y361188D02*
X454152Y312420D01*
X470916Y312420D01*
X501396Y281940D01*
X518160Y281940D01*
X621792Y178308D01*
X637032Y178308D01*
X646176Y169164D01*
X646246Y168158D01*
X553212Y699516D02*
X547116Y705612D01*
X541020Y705612D01*
X521208Y685800D01*
X521208Y502920D01*
X518160Y499872D01*
X518160Y408432D01*
X583692Y342900D01*
D12*
X387096Y361188D03*
X553212Y699516D03*
X583692Y342900D03*
D11*
X428244Y269748D02*
X336804Y361188D01*
X544068Y550164D02*
X544068Y699516D01*
X544068Y550164D02*
X609600Y484632D01*
X609600Y393192D01*
X620268Y382524D01*
X624840Y382524D01*
X632460Y374904D01*
X632460Y327660D01*
X635508Y324612D01*
X635508Y214884D01*
X646176Y204216D01*
X650748Y204216D01*
X659892Y195072D01*
X659892Y155448D01*
X647700Y143256D01*
X646246Y142758D01*
D12*
X336804Y361188D03*
X428244Y269748D03*
X544068Y699516D03*
D11*
X339852Y333756D02*
X315468Y333756D01*
X339852Y333756D02*
X566928Y106680D01*
X635508Y106680D01*
X646176Y117348D01*
X646246Y117358D01*
X568452Y659892D02*
X601980Y693420D01*
X601980Y702564D01*
X627888Y728472D01*
X691896Y728472D01*
X768096Y652272D01*
X768096Y161544D01*
X734568Y128016D01*
X731520Y128016D01*
X720852Y117348D01*
X720852Y114300D01*
X713232Y106680D01*
X658368Y106680D01*
X647700Y117348D01*
X646246Y117358D01*
D12*
X315468Y333756D03*
X568452Y659892D03*
X487680Y434340D03*
X254508Y379476D03*
X528828Y667512D03*
X227076Y379476D03*
X556260Y579120D03*
X600456Y513588D03*
X571500Y396240D03*
X550164Y566928D03*
X600456Y467868D03*
X515112Y620268D03*
X594360Y490728D03*
D11*
X544068Y492252D02*
X544068Y516636D01*
X544068Y492252D02*
X606552Y429768D01*
X606552Y385572D01*
X620268Y371856D01*
X620846Y371358D01*
D12*
X489204Y388620D03*
X544068Y516636D03*
D11*
X537972Y352044D02*
X501396Y352044D01*
X537972Y352044D02*
X568452Y321564D01*
X620268Y321564D01*
X620846Y320558D01*
X498348Y355092D02*
X498348Y629412D01*
X498348Y355092D02*
X501396Y352044D01*
D12*
X501396Y352044D03*
X498348Y629412D03*
D11*
X406908Y403860D02*
X379476Y403860D01*
X420624Y390144D02*
X539496Y271272D01*
X420624Y390144D02*
X406908Y403860D01*
X539496Y271272D02*
X620268Y271272D01*
X620846Y269758D01*
X489204Y495300D02*
X489204Y627888D01*
X489204Y495300D02*
X477012Y483108D01*
X477012Y461772D01*
X434340Y419100D01*
X434340Y403860D01*
X420624Y390144D01*
D12*
X379476Y403860D03*
X489204Y627888D03*
D11*
X480060Y629412D02*
X487680Y637032D01*
X480060Y629412D02*
X480060Y615696D01*
X473964Y609600D01*
X473964Y466344D01*
X416052Y408432D01*
D12*
X316992Y388620D03*
X428244Y301752D03*
X521208Y269748D03*
X487680Y637032D03*
X416052Y408432D03*
X460248Y496824D03*
X490728Y487680D03*
X361188Y469392D03*
X408432Y477012D03*
X460248Y434340D03*
X131064Y507492D03*
X283464Y670560D03*
X387096Y416052D03*
X271272Y647700D03*
X236220Y586740D03*
D11*
X272796Y664464D02*
X272796Y699516D01*
X272796Y664464D02*
X292608Y644652D01*
X292608Y547116D01*
X370332Y469392D01*
X371856Y469392D01*
X396240Y445008D01*
X396240Y434340D01*
D12*
X396240Y434340D03*
X272796Y699516D03*
X368808Y463296D03*
X227076Y463296D03*
X275844Y463296D03*
D11*
X263652Y669036D02*
X263652Y673608D01*
X263652Y669036D02*
X289560Y643128D01*
X289560Y487680D01*
X329184Y448056D01*
X329184Y434340D01*
D12*
X329184Y434340D03*
X263652Y673608D03*
D11*
X269748Y620268D02*
X269748Y615696D01*
X274320Y611124D01*
X274320Y475488D01*
X286512Y463296D01*
X286512Y416052D01*
D12*
X245364Y403860D03*
X269748Y620268D03*
X286512Y416052D03*
X161544Y342900D03*
X246888Y673608D03*
D11*
X169164Y245364D02*
X146304Y245364D01*
X169164Y245364D02*
X269748Y345948D01*
X269748Y364236D01*
X292608Y387096D01*
X292608Y480060D01*
X277368Y495300D01*
X277368Y650748D01*
X257556Y670560D01*
X257556Y693420D01*
X263652Y699516D01*
X146304Y245364D02*
X145158Y244358D01*
D12*
X556260Y556260D03*
X263652Y699516D03*
D11*
X196596Y295656D02*
X196596Y281940D01*
X196596Y295656D02*
X268224Y367284D01*
X268224Y519684D01*
X271272Y522732D01*
X271272Y609600D01*
X252984Y627888D01*
X252984Y687324D01*
X240792Y699516D01*
D12*
X458724Y644652D03*
X240792Y699516D03*
X193548Y243840D03*
X196596Y281940D03*
D11*
X187452Y281940D02*
X187452Y406908D01*
X260604Y480060D01*
X260604Y518160D01*
X246888Y531876D01*
X246888Y661416D01*
X237744Y670560D01*
D12*
X507492Y457200D03*
X335280Y603504D03*
X237744Y670560D03*
X187452Y281940D03*
D11*
X146304Y153924D02*
X146304Y143256D01*
X146304Y153924D02*
X155448Y163068D01*
X155448Y175260D01*
X153924Y176784D01*
X153924Y187452D01*
X272796Y306324D01*
X146304Y143256D02*
X145158Y142758D01*
D12*
X438912Y541020D03*
X240792Y658368D03*
X272796Y306324D03*
X446532Y422148D03*
D11*
X425196Y440436D02*
X394716Y409956D01*
X368808Y409956D01*
X278892Y320040D01*
X278892Y251460D01*
X146304Y118872D01*
X145158Y117358D01*
X301752Y577596D02*
X301752Y611124D01*
X301752Y577596D02*
X402336Y477012D01*
X402336Y463296D01*
X425196Y440436D01*
X426720Y441960D01*
D12*
X426720Y441960D03*
X301752Y611124D03*
X382524Y445008D03*
X219456Y656844D03*
X224028Y598932D03*
D11*
X208788Y669036D02*
X208788Y672084D01*
X208788Y669036D02*
X181356Y641604D01*
X181356Y566928D01*
X158496Y544068D01*
X158496Y496824D01*
X144780Y483108D01*
X140208Y483108D01*
X131064Y473964D01*
X120396Y473964D01*
X119758Y472958D01*
D12*
X312420Y473964D03*
X208788Y672084D03*
D11*
X210312Y682752D02*
X210312Y699516D01*
X210312Y682752D02*
X178308Y650748D01*
X178308Y568452D01*
X155448Y545592D01*
X155448Y519684D01*
X144780Y509016D01*
X141732Y509016D01*
X131064Y498348D01*
X131064Y495300D01*
X118872Y483108D01*
X115824Y483108D01*
X109728Y477012D01*
X109728Y457200D01*
X118872Y448056D01*
X119758Y447558D01*
D12*
X307848Y441960D03*
X210312Y699516D03*
X280416Y445008D03*
X211836Y662940D03*
X542544Y478536D03*
X214884Y385572D03*
X188976Y699516D03*
D11*
X118872Y281940D02*
X118872Y271272D01*
X118872Y281940D02*
X106680Y294132D01*
X106680Y525780D01*
X118872Y537972D01*
X123444Y537972D01*
X134112Y548640D01*
X134112Y553212D01*
X144780Y563880D01*
X150876Y563880D01*
X172212Y585216D01*
X118872Y271272D02*
X119758Y269758D01*
D12*
X478536Y638556D03*
X216408Y588264D03*
X172212Y585216D03*
D11*
X120396Y256032D02*
X120396Y245364D01*
X120396Y256032D02*
X134112Y269748D01*
X134112Y298704D01*
X144780Y309372D01*
X149352Y309372D01*
X173736Y333756D01*
X173736Y432816D01*
X208788Y467868D01*
X208788Y486156D01*
X120396Y245364D02*
X119758Y244358D01*
D12*
X487680Y469392D03*
X166116Y637032D03*
X208788Y486156D03*
D11*
X167640Y298704D02*
X167640Y294132D01*
X167640Y298704D02*
X176784Y307848D01*
X176784Y431292D01*
X248412Y502920D01*
X248412Y504444D01*
D12*
X446532Y487680D03*
X301752Y568452D03*
X179832Y699516D03*
X167640Y294132D03*
X248412Y504444D03*
D11*
X409956Y445008D02*
X409956Y438912D01*
X393192Y422148D01*
X362712Y422148D01*
X144780Y204216D01*
X141732Y204216D01*
X131064Y193548D01*
X131064Y179832D01*
X120396Y169164D01*
X119758Y168158D01*
X295656Y562356D02*
X295656Y699516D01*
X295656Y562356D02*
X384048Y473964D01*
X384048Y463296D01*
X402336Y445008D01*
X409956Y445008D01*
D12*
X409956Y445008D03*
X295656Y699516D03*
D11*
X179832Y403860D02*
X179832Y275844D01*
X179832Y403860D02*
X257556Y481584D01*
X257556Y516636D01*
X230124Y544068D01*
X230124Y650748D01*
X225552Y655320D01*
X225552Y693420D01*
X213360Y705612D01*
X207264Y705612D01*
X173736Y672084D01*
X173736Y669036D01*
D12*
X382524Y487680D03*
X173736Y669036D03*
X179832Y275844D03*
D11*
X118872Y129540D02*
X118872Y118872D01*
X118872Y129540D02*
X109728Y138684D01*
X109728Y150876D01*
X114300Y155448D01*
X114300Y158496D01*
X109728Y163068D01*
X109728Y182880D01*
X111252Y184404D01*
X111252Y187452D01*
X109728Y188976D01*
X109728Y198120D01*
X120396Y208788D01*
X124968Y208788D01*
X134112Y217932D01*
X134112Y222504D01*
X141732Y230124D01*
X163068Y230124D01*
X310896Y377952D01*
X310896Y393192D01*
X355092Y437388D01*
X355092Y472440D01*
X330708Y496824D01*
X327660Y496824D01*
X118872Y118872D02*
X119758Y117358D01*
D12*
X327660Y496824D03*
X214884Y579120D03*
D11*
X131064Y705612D02*
X82296Y705612D01*
X131064Y705612D02*
X134112Y702564D01*
X134112Y605028D01*
X76200Y547116D01*
X76200Y376428D01*
X56388Y356616D01*
X39624Y356616D01*
X30480Y347472D01*
X30400Y346158D01*
D12*
X291084Y263652D03*
X82296Y705612D03*
X524256Y496824D03*
X551688Y496824D03*
X263652Y524256D03*
X510540Y275844D03*
X562356Y304800D03*
X330708Y487680D03*
X153924Y638556D03*
X298704Y469392D03*
X147828Y673608D03*
X67056Y582168D03*
X143256Y699516D03*
X217932Y486156D03*
X163068Y620268D03*
D11*
X124968Y605028D02*
X124968Y670560D01*
X124968Y605028D02*
X67056Y547116D01*
X67056Y434340D01*
X56388Y423672D01*
X55800Y422358D01*
D12*
X562356Y515112D03*
X124968Y670560D03*
D11*
X56388Y382524D02*
X56388Y371856D01*
X56388Y382524D02*
X73152Y399288D01*
X73152Y548640D01*
X131064Y606552D01*
X131064Y696468D01*
X128016Y699516D01*
X56388Y371856D02*
X55800Y371558D01*
D12*
X505968Y513588D03*
X128016Y699516D03*
D11*
X56388Y352044D02*
X56388Y347472D01*
X56388Y352044D02*
X80772Y376428D01*
X80772Y524256D01*
X120396Y563880D01*
X123444Y563880D01*
X134112Y574548D01*
X134112Y600456D01*
X137160Y603504D01*
X137160Y704088D01*
X129540Y711708D01*
X79248Y711708D01*
X76200Y708660D01*
X76200Y702564D01*
X85344Y693420D01*
X112776Y693420D01*
X118872Y699516D01*
X56388Y347472D02*
X55800Y346158D01*
D12*
X473964Y629412D03*
X118872Y699516D03*
D11*
X176784Y534924D02*
X176784Y445008D01*
X176784Y534924D02*
X202692Y560832D01*
X202692Y571500D01*
D12*
X377952Y545592D03*
X202692Y571500D03*
X176784Y445008D03*
X411480Y464820D03*
X208788Y352044D03*
X196596Y563880D03*
D11*
X56388Y222504D02*
X56388Y219456D01*
X56388Y222504D02*
X85344Y251460D01*
X106680Y251460D01*
X109728Y248412D01*
X109728Y239268D01*
X115824Y233172D01*
X131064Y233172D01*
X134112Y236220D01*
X138684Y236220D01*
X141732Y233172D01*
X161544Y233172D01*
X272796Y344424D01*
X272796Y359664D01*
X348996Y435864D01*
X348996Y466344D01*
X56388Y219456D02*
X55800Y219158D01*
D12*
X396240Y492252D03*
X112776Y659892D03*
X348996Y466344D03*
D11*
X56388Y167640D02*
X56388Y156972D01*
X67056Y146304D01*
X67056Y138684D01*
X60960Y132588D01*
X51816Y132588D01*
X42672Y141732D01*
X42672Y323088D01*
X54864Y335280D01*
X59436Y335280D01*
X86868Y362712D01*
X86868Y493776D01*
X55800Y168358D02*
X56388Y167640D01*
D12*
X350520Y518160D03*
X109728Y699516D03*
X86868Y493776D03*
D11*
X54864Y153924D02*
X54864Y143256D01*
X54864Y153924D02*
X45720Y163068D01*
X45720Y300228D01*
X54864Y309372D01*
X59436Y309372D01*
X97536Y347472D01*
X97536Y519684D01*
X54864Y143256D02*
X55800Y142958D01*
D12*
X339852Y509016D03*
X152400Y699516D03*
X97536Y519684D03*
X19812Y278892D03*
X28956Y615696D03*
X94488Y672084D03*
D11*
X85344Y673608D02*
X77724Y673608D01*
X35052Y630936D01*
X35052Y603504D01*
X13716Y582168D01*
X13716Y184404D01*
X28956Y169164D01*
X30400Y168358D01*
D12*
X85344Y673608D03*
X129540Y481584D03*
X91440Y507492D03*
X77724Y595884D03*
X574548Y528828D03*
X50292Y598932D03*
D11*
X50292Y614172D02*
X50292Y627888D01*
X50292Y614172D02*
X16764Y580644D01*
X16764Y435864D01*
X28956Y423672D01*
X30400Y422358D01*
D12*
X480060Y278892D03*
X50292Y627888D03*
D11*
X56388Y615696D02*
X56388Y643128D01*
X56388Y615696D02*
X19812Y579120D01*
X19812Y443484D01*
X30480Y432816D01*
X35052Y432816D01*
X41148Y426720D01*
X41148Y382524D01*
X30480Y371856D01*
X30400Y371558D01*
D12*
X445008Y275844D03*
X56388Y643128D03*
D11*
X47244Y586740D02*
X47244Y580644D01*
X45720Y579120D01*
X45720Y371856D01*
X30480Y356616D01*
X25908Y356616D01*
X19812Y350520D01*
X19812Y330708D01*
X28956Y321564D01*
X30400Y320758D01*
D12*
X329184Y269748D03*
X47244Y586740D03*
X352044Y278892D03*
X39624Y489204D03*
D11*
X211836Y592836D02*
X211836Y620268D01*
X211836Y592836D02*
X161544Y542544D01*
X161544Y362712D01*
X146304Y347472D01*
X145158Y345958D01*
D12*
X211836Y620268D03*
D11*
X533400Y583692D02*
X533400Y574548D01*
X537972Y569976D01*
X537972Y493776D01*
X571500Y460248D02*
X591312Y440436D01*
X571500Y460248D02*
X537972Y493776D01*
X591312Y440436D02*
X591312Y376428D01*
X620268Y347472D01*
X620846Y345958D01*
X527304Y416052D02*
X571500Y460248D01*
D12*
X533400Y583692D03*
X527304Y416052D03*
X245364Y367284D03*
X409956Y198120D03*
X295656Y327660D03*
D11*
X553212Y399288D02*
X553212Y406908D01*
X553212Y399288D02*
X621792Y330708D01*
X624840Y330708D01*
X632460Y323088D01*
X632460Y192024D01*
X646176Y178308D01*
X650748Y178308D01*
X656844Y172212D01*
X656844Y164592D01*
X646176Y153924D01*
X643128Y153924D01*
X630936Y141732D01*
X630936Y128016D01*
X621792Y118872D01*
X620846Y117358D01*
D12*
X553212Y406908D03*
M02*
