M48
;GenerationSoftware,Autodesk,EAGLE,9.7.0*%
;CreationDate,2026-01-06T06:02:20Z*%
FMAT,2
ICI,OFF
METRIC,TZ,000.000
T2C0.350
T1C1.016
%
G90
M71
T1
X70950Y52376
X11976Y19356
X70950Y57456
X73490Y57456
X70950Y54916
X73490Y54916
X73490Y52376
X70950Y49836
X73490Y49836
X70950Y47296
X73490Y47296
X70950Y44756
X73490Y44756
X70950Y42216
X73490Y42216
X70950Y39676
X73490Y39676
X70950Y37136
X73490Y37136
X70950Y34596
X73490Y34596
X70950Y32056
X73490Y32056
X70950Y29516
X73490Y29516
X70950Y26976
X73490Y26976
X70950Y24436
X73490Y24436
X70950Y21896
X73490Y21896
X70950Y19356
X73490Y19356
X70950Y16816
X73490Y16816
X70950Y14276
X73490Y14276
X70950Y11736
X73490Y11736
X70950Y9196
X73490Y9196
X62085Y57456
X64625Y57456
X62085Y54916
X64625Y54916
X62085Y52376
X64625Y52376
X62085Y49836
X64625Y49836
X62085Y47296
X64625Y47296
X62085Y44756
X64625Y44756
X62085Y42216
X64625Y42216
X62085Y39676
X64625Y39676
X62085Y37136
X64625Y37136
X62085Y34596
X64625Y34596
X62085Y32056
X64625Y32056
X62085Y29516
X64625Y29516
X62085Y26976
X64625Y26976
X62085Y24436
X64625Y24436
X62085Y21896
X64625Y21896
X62085Y19356
X64625Y19356
X62085Y16816
X64625Y16816
X62085Y14276
X64625Y14276
X62085Y11736
X64625Y11736
X62085Y9196
X64625Y9196
X11976Y57456
X14516Y57456
X11976Y54916
X14516Y54916
X11976Y52376
X14516Y52376
X11976Y49836
X14516Y49836
X11976Y47296
X14516Y47296
X11976Y44756
X14516Y44756
X11976Y42216
X14516Y42216
X11976Y39676
X14516Y39676
X11976Y37136
X14516Y37136
X11976Y34596
X14516Y34596
X11976Y32056
X14516Y32056
X11976Y29516
X14516Y29516
X11976Y26976
X14516Y26976
X11976Y24436
X14516Y24436
X11976Y21896
X14516Y21896
X14516Y19356
X11976Y16816
X14516Y16816
X11976Y14276
X14516Y14276
X11976Y11736
X14516Y11736
X11976Y9196
X14516Y9196
X3040Y57476
X5580Y57476
X3040Y54936
X5580Y54936
X3040Y52396
X5580Y52396
X3040Y49856
X5580Y49856
X3040Y47316
X5580Y47316
X3040Y44776
X5580Y44776
X3040Y42236
X5580Y42236
X3040Y39696
X5580Y39696
X3040Y37156
X5580Y37156
X3040Y34616
X5580Y34616
X3040Y32076
X5580Y32076
X3040Y29536
X5580Y29536
X3040Y26996
X5580Y26996
X3040Y24456
X5580Y24456
X3040Y21916
X5580Y21916
X3040Y19376
X5580Y19376
X3040Y16836
X5580Y16836
X3040Y14296
X5580Y14296
X3040Y11756
X5580Y11756
X3040Y9216
X5580Y9216
X35460Y63220
X38000Y63220
X40540Y63220
X43080Y63220
T2
X23774Y67056
X18745Y28194
X43891Y54102
X24079Y65837
X27280Y30632
X44653Y42215
X42672Y44196
X30175Y61112
X38252Y44501
X21946Y65684
X22403Y59893
X31242Y47396
X20879Y67208
X30785Y44196
X21031Y69952
X28042Y44501
X21184Y66294
X54254Y47854
X21488Y38557
X18898Y69952
X47854Y63856
X21641Y58826
X17221Y58522
X48768Y46939
X16612Y63703
X20879Y48616
X44653Y48768
X30175Y56845
X17983Y69952
X16764Y29413
X24841Y50444
X40996Y44501
X29566Y69952
X38252Y48768
X17374Y66904
X17983Y27584
X32766Y49682
X21488Y57912
X29108Y26365
X8230Y70561
X52426Y49682
X55169Y49682
X26365Y52426
X51054Y27584
X56236Y30480
X33071Y48768
X15392Y63856
X29870Y46939
X14783Y67361
X68732Y49530
X14326Y69952
X21793Y48616
X16307Y62027
X56236Y51511
X12497Y67056
X50597Y51359
X12802Y69952
X47396Y62941
X11887Y69952
X37795Y54559
X20269Y57150
X17678Y44501
X41148Y46482
X20879Y35204
X19660Y56388
X39624Y49225
X11278Y65989
X34900Y46634
X35052Y51816
X10973Y69952
X8687Y49378
X33985Y50902
X15240Y69952
X9754Y51968
X1981Y27889
X2896Y61570
X9449Y67208
X8534Y67361
X12954Y48158
X9144Y50749
X7772Y59588
X57455Y52883
X5029Y59893
X48006Y27889
X5029Y62789
X44501Y27584
X5639Y64313
X32918Y26975
X4724Y58674
X35204Y27889
X3962Y48920
X21184Y62027
X53340Y58369
X52730Y41605
X24536Y36728
X40996Y19812
X29566Y32766
X55321Y40691
X64160Y65227
X74524Y54102
X30328Y32156
X49530Y30632
X6706Y58217
X44348Y60503
X48158Y56693
X51054Y54864
X30023Y52426
X34290Y52426
X23622Y51664
X56540Y33376
X54559Y33376
X43586Y30785
X48311Y60960
X46787Y54254
X67970Y56845
X72390Y66904
X41300Y53492
X72390Y65989
X45415Y67361
X70409Y66904
X75438Y51206
X44196Y66599
X71171Y69952
X30785Y69952
X68275Y71780
X67056Y71933
X26518Y55169
X32614Y61265
X39014Y69952
X71018Y66142
X55016Y35052
X38710Y60198
X25298Y55321
X34138Y64160
X63856Y71476
X74219Y40996
X55778Y27889
X67208Y45110
X53188Y56693
X67970Y67361
X74219Y46177
X59284Y22708
X65989Y21946
X66599Y69952
X69342Y43891
X66446Y32461
X46787Y30632
X67970Y66446
X72542Y72542
X41910Y30175
X69647Y50902
X38252Y30632
X36271Y30023
X65837Y66904
X35204Y33071
X65837Y53492
X33680Y30632
X64618Y60960
X63856Y66904
X54712Y28346
X68275Y69952
X75895Y48768
X48616Y30632
X64160Y63398
X45110Y33376
X69647Y70256
X75743Y69342
X42672Y33071
X74676Y59131
X75438Y46939
X41300Y33223
X61417Y64160
X63551Y51511
X66904Y44196
X34290Y27889
X60808Y69952
X60808Y61112
X65380Y43434
X48158Y51968
X57302Y44348
X40843Y38405
X46330Y40843
X37795Y34900
X30328Y33376
X67208Y46939
X27889Y35662
X62941Y58979
X28346Y33376
X62332Y60503
X59436Y62484
X61417Y51054
X62941Y43282
X58826Y58217
X48158Y37033
X56845Y67361
X74219Y51206
X44958Y35204
X46787Y60503
X42824Y40691
X42367Y35204
X55931Y67361
X44196Y45263
X38710Y36119
X55321Y69952
X58369Y34290
X33680Y36119
X42824Y26975
X54407Y69952
X19355Y24384
X31547Y33376
X56845Y65989
X48768Y43434
X25451Y37948
X52883Y66751
X22708Y37948
X55626Y57912
X60046Y51359
X57150Y39624
X55016Y56693
X60046Y46787
X51511Y62027
X59436Y49073
X48920Y38862
X54407Y51664
X50140Y35204
X49835Y62941
X37948Y40386
X48920Y62789
X31699Y38862
X42824Y30175
X52121Y26975
X48768Y63703
X41605Y40843
X46025Y49682
X49073Y48768
X36119Y46939
X40843Y47701
X46025Y43434
X13106Y50749
X28346Y67056
X38710Y41605
X27127Y64770
X23622Y58674
X39624Y43434
X27280Y69952
X36881Y46330
X22708Y46330
X27584Y46330
X32918Y43434
X26365Y67361
X24536Y40386
X26975Y62027
X28651Y41605
X16154Y34290
X24689Y67361
X55626Y55626
X26365Y69952
X45872Y64465
X24079Y69952
X19660Y28194
X50749Y45720
X33528Y60350
M30