G04 EAGLE Gerber RS-274X export*
G75*
%MOMM*%
%FSLAX34Y34*%
%LPD*%
%INSoldermask Bottom*%
%IPPOS*%
%AMOC8*
5,1,8,0,0,1.08239X$1,22.5*%
G01*
G04 Define Apertures*
%ADD10P,1.8695X8X292.5*%
%ADD11C,1.727200*%
D10*
X709500Y574558D03*
X734900Y574558D03*
X709500Y549158D03*
X734900Y549158D03*
X709500Y523758D03*
X734900Y523758D03*
X709500Y498358D03*
X734900Y498358D03*
X709500Y472958D03*
X734900Y472958D03*
X709500Y447558D03*
X734900Y447558D03*
X709500Y422158D03*
X734900Y422158D03*
X709500Y396758D03*
X734900Y396758D03*
X709500Y371358D03*
X734900Y371358D03*
X709500Y345958D03*
X734900Y345958D03*
X709500Y320558D03*
X734900Y320558D03*
X709500Y295158D03*
X734900Y295158D03*
X709500Y269758D03*
X734900Y269758D03*
X709500Y244358D03*
X734900Y244358D03*
X709500Y218958D03*
X734900Y218958D03*
X709500Y193558D03*
X734900Y193558D03*
X709500Y168158D03*
X734900Y168158D03*
X709500Y142758D03*
X734900Y142758D03*
X709500Y117358D03*
X734900Y117358D03*
X709500Y91958D03*
X734900Y91958D03*
X620846Y574558D03*
X646246Y574558D03*
X620846Y549158D03*
X646246Y549158D03*
X620846Y523758D03*
X646246Y523758D03*
X620846Y498358D03*
X646246Y498358D03*
X620846Y472958D03*
X646246Y472958D03*
X620846Y447558D03*
X646246Y447558D03*
X620846Y422158D03*
X646246Y422158D03*
X620846Y396758D03*
X646246Y396758D03*
X620846Y371358D03*
X646246Y371358D03*
X620846Y345958D03*
X646246Y345958D03*
X620846Y320558D03*
X646246Y320558D03*
X620846Y295158D03*
X646246Y295158D03*
X620846Y269758D03*
X646246Y269758D03*
X620846Y244358D03*
X646246Y244358D03*
X620846Y218958D03*
X646246Y218958D03*
X620846Y193558D03*
X646246Y193558D03*
X620846Y168158D03*
X646246Y168158D03*
X620846Y142758D03*
X646246Y142758D03*
X620846Y117358D03*
X646246Y117358D03*
X620846Y91958D03*
X646246Y91958D03*
X119758Y574558D03*
X145158Y574558D03*
X119758Y549158D03*
X145158Y549158D03*
X119758Y523758D03*
X145158Y523758D03*
X119758Y498358D03*
X145158Y498358D03*
X119758Y472958D03*
X145158Y472958D03*
X119758Y447558D03*
X145158Y447558D03*
X119758Y422158D03*
X145158Y422158D03*
X119758Y396758D03*
X145158Y396758D03*
X119758Y371358D03*
X145158Y371358D03*
X119758Y345958D03*
X145158Y345958D03*
X119758Y320558D03*
X145158Y320558D03*
X119758Y295158D03*
X145158Y295158D03*
X119758Y269758D03*
X145158Y269758D03*
X119758Y244358D03*
X145158Y244358D03*
X119758Y218958D03*
X145158Y218958D03*
X119758Y193558D03*
X145158Y193558D03*
X119758Y168158D03*
X145158Y168158D03*
X119758Y142758D03*
X145158Y142758D03*
X119758Y117358D03*
X145158Y117358D03*
X119758Y91958D03*
X145158Y91958D03*
X30400Y574758D03*
X55800Y574758D03*
X30400Y549358D03*
X55800Y549358D03*
X30400Y523958D03*
X55800Y523958D03*
X30400Y498558D03*
X55800Y498558D03*
X30400Y473158D03*
X55800Y473158D03*
X30400Y447758D03*
X55800Y447758D03*
X30400Y422358D03*
X55800Y422358D03*
X30400Y396958D03*
X55800Y396958D03*
X30400Y371558D03*
X55800Y371558D03*
X30400Y346158D03*
X55800Y346158D03*
X30400Y320758D03*
X55800Y320758D03*
X30400Y295358D03*
X55800Y295358D03*
X30400Y269958D03*
X55800Y269958D03*
X30400Y244558D03*
X55800Y244558D03*
X30400Y219158D03*
X55800Y219158D03*
X30400Y193758D03*
X55800Y193758D03*
X30400Y168358D03*
X55800Y168358D03*
X30400Y142958D03*
X55800Y142958D03*
X30400Y117558D03*
X55800Y117558D03*
X30400Y92158D03*
X55800Y92158D03*
D11*
X354600Y624580D02*
X354600Y639820D01*
X380000Y639820D02*
X380000Y624580D01*
X405400Y624580D02*
X405400Y639820D01*
X430800Y639820D02*
X430800Y624580D01*
M02*
