G04 EAGLE Gerber RS-274X export*
G75*
%MOMM*%
%FSLAX34Y34*%
%LPD*%
%INSolderpaste Top*%
%IPPOS*%
%AMOC8*
5,1,8,0,0,1.08239X$1,22.5*%
G01*
G04 Define Apertures*
%ADD10R,0.300000X1.300000*%
%ADD11R,2.000000X1.800000*%
%ADD12R,0.535100X0.644000*%
D10*
X733500Y686500D03*
X728500Y686500D03*
X723500Y686500D03*
X718500Y686500D03*
X713500Y686500D03*
X708500Y686500D03*
X703500Y686500D03*
X698500Y686500D03*
X693500Y686500D03*
X688500Y686500D03*
X683500Y686500D03*
X678500Y686500D03*
X673500Y686500D03*
X668500Y686500D03*
X663500Y686500D03*
X658500Y686500D03*
X653500Y686500D03*
X648500Y686500D03*
X643500Y686500D03*
X638500Y686500D03*
X633500Y686500D03*
X628500Y686500D03*
X623500Y686500D03*
X618500Y686500D03*
X613500Y686500D03*
X608500Y686500D03*
X603500Y686500D03*
X598500Y686500D03*
X593500Y686500D03*
X588500Y686500D03*
X583500Y686500D03*
X578500Y686500D03*
X573500Y686500D03*
X568500Y686500D03*
X563500Y686500D03*
X558500Y686500D03*
X553500Y686500D03*
X548500Y686500D03*
X543500Y686500D03*
X538500Y686500D03*
X533500Y686500D03*
X528500Y686500D03*
X523500Y686500D03*
X518500Y686500D03*
X513500Y686500D03*
X508500Y686500D03*
X503500Y686500D03*
X498500Y686500D03*
X493500Y686500D03*
X488500Y686500D03*
D11*
X470500Y714000D03*
X751500Y714000D03*
D10*
X283500Y686500D03*
X278500Y686500D03*
X273500Y686500D03*
X268500Y686500D03*
X263500Y686500D03*
X258500Y686500D03*
X253500Y686500D03*
X248500Y686500D03*
X243500Y686500D03*
X238500Y686500D03*
X233500Y686500D03*
X228500Y686500D03*
X223500Y686500D03*
X218500Y686500D03*
X213500Y686500D03*
X208500Y686500D03*
X203500Y686500D03*
X198500Y686500D03*
X193500Y686500D03*
X188500Y686500D03*
X183500Y686500D03*
X178500Y686500D03*
X173500Y686500D03*
X168500Y686500D03*
X163500Y686500D03*
X158500Y686500D03*
X153500Y686500D03*
X148500Y686500D03*
X143500Y686500D03*
X138500Y686500D03*
X133500Y686500D03*
X128500Y686500D03*
X123500Y686500D03*
X118500Y686500D03*
X113500Y686500D03*
X108500Y686500D03*
X103500Y686500D03*
X98500Y686500D03*
X93500Y686500D03*
X88500Y686500D03*
X83500Y686500D03*
X78500Y686500D03*
X73500Y686500D03*
X68500Y686500D03*
X63500Y686500D03*
X58500Y686500D03*
X53500Y686500D03*
X48500Y686500D03*
X43500Y686500D03*
X38500Y686500D03*
D11*
X20500Y714000D03*
X301500Y714000D03*
D12*
X488525Y533858D03*
X498675Y533858D03*
X525025Y315458D03*
X535175Y315458D03*
X489125Y287958D03*
X499275Y287958D03*
X456425Y287958D03*
X466575Y287958D03*
X421825Y287958D03*
X431975Y287958D03*
X386625Y287958D03*
X396775Y287958D03*
X351625Y287958D03*
X361775Y287958D03*
X318625Y287958D03*
X328775Y287958D03*
X286925Y287958D03*
X297075Y287958D03*
X255525Y287958D03*
X265675Y287958D03*
X220225Y287958D03*
X230375Y287958D03*
X522025Y533858D03*
X532175Y533858D03*
X555825Y315458D03*
X565975Y315458D03*
X488725Y315458D03*
X498875Y315458D03*
X454525Y315458D03*
X464675Y315458D03*
X419525Y315458D03*
X429675Y315458D03*
X384325Y315458D03*
X394475Y315458D03*
X348625Y315458D03*
X358775Y315458D03*
X316125Y315458D03*
X326275Y315458D03*
X283825Y315458D03*
X293975Y315458D03*
X253625Y315458D03*
X263775Y315458D03*
X454825Y533858D03*
X464975Y533858D03*
X222825Y315458D03*
X232975Y315458D03*
X555625Y342358D03*
X565775Y342358D03*
X525425Y342358D03*
X535575Y342358D03*
X489925Y342358D03*
X500075Y342358D03*
X455225Y342358D03*
X465375Y342358D03*
X421725Y342358D03*
X431875Y342358D03*
X385325Y342358D03*
X395475Y342358D03*
X348025Y342358D03*
X358175Y342358D03*
X315725Y342358D03*
X325875Y342358D03*
X284125Y342358D03*
X294275Y342358D03*
X421725Y533858D03*
X431875Y533858D03*
X254825Y342358D03*
X264975Y342358D03*
X223825Y342358D03*
X233975Y342358D03*
X556425Y369958D03*
X566575Y369958D03*
X525625Y369958D03*
X535775Y369958D03*
X490025Y369958D03*
X500175Y369958D03*
X455425Y369958D03*
X465575Y369958D03*
X422625Y369958D03*
X432775Y369958D03*
X385125Y369958D03*
X395275Y369958D03*
X349125Y369958D03*
X359275Y369958D03*
X317625Y369958D03*
X327775Y369958D03*
X389325Y533858D03*
X399475Y533858D03*
X283625Y369958D03*
X293775Y369958D03*
X254825Y369958D03*
X264975Y369958D03*
X221325Y369958D03*
X231475Y369958D03*
X551925Y397458D03*
X562075Y397458D03*
X523225Y397458D03*
X533375Y397458D03*
X488225Y397458D03*
X498375Y397458D03*
X456325Y397458D03*
X466475Y397458D03*
X421725Y397458D03*
X431875Y397458D03*
X387325Y397458D03*
X397475Y397458D03*
X349825Y397458D03*
X359975Y397458D03*
X353125Y533858D03*
X363275Y533858D03*
X316625Y397458D03*
X326775Y397458D03*
X284325Y397458D03*
X294475Y397458D03*
X252425Y397458D03*
X262575Y397458D03*
X223125Y397458D03*
X233275Y397458D03*
X552425Y425258D03*
X562575Y425258D03*
X522125Y425258D03*
X532275Y425258D03*
X488325Y425258D03*
X498475Y425258D03*
X454825Y425258D03*
X464975Y425258D03*
X419325Y425258D03*
X429475Y425258D03*
X386425Y425258D03*
X396575Y425258D03*
X322125Y533858D03*
X332275Y533858D03*
X351625Y425258D03*
X361775Y425258D03*
X320525Y425258D03*
X330675Y425258D03*
X286425Y425258D03*
X296575Y425258D03*
X253725Y425258D03*
X263875Y425258D03*
X224125Y425258D03*
X234275Y425258D03*
X550725Y451958D03*
X560875Y451958D03*
X523025Y451958D03*
X533175Y451958D03*
X488225Y451958D03*
X498375Y451958D03*
X454125Y451958D03*
X464275Y451958D03*
X420825Y451958D03*
X430975Y451958D03*
X290225Y533858D03*
X300375Y533858D03*
X389625Y451958D03*
X399775Y451958D03*
X351025Y451958D03*
X361175Y451958D03*
X318425Y451958D03*
X328575Y451958D03*
X288225Y451958D03*
X298375Y451958D03*
X255325Y451958D03*
X265475Y451958D03*
X224125Y451958D03*
X234275Y451958D03*
X551025Y479058D03*
X561175Y479058D03*
X521525Y479058D03*
X531675Y479058D03*
X488725Y479058D03*
X498875Y479058D03*
X257525Y533858D03*
X267675Y533858D03*
X455425Y479058D03*
X465575Y479058D03*
X421125Y479058D03*
X431275Y479058D03*
X388925Y479058D03*
X399075Y479058D03*
X351925Y479058D03*
X362075Y479058D03*
X321725Y479058D03*
X331875Y479058D03*
X289725Y478600D03*
X299875Y478600D03*
X255625Y479058D03*
X265775Y479058D03*
X224325Y479058D03*
X234475Y479058D03*
X552125Y506258D03*
X562275Y506258D03*
X522425Y506258D03*
X532575Y506258D03*
X224525Y533858D03*
X234675Y533858D03*
X488425Y506258D03*
X498575Y506258D03*
X455825Y506258D03*
X465975Y506258D03*
X423125Y506258D03*
X433275Y506258D03*
X390325Y506258D03*
X400475Y506258D03*
X352225Y506258D03*
X362375Y506258D03*
X321525Y506258D03*
X331675Y506258D03*
X289925Y506258D03*
X300075Y506258D03*
X257325Y506258D03*
X267475Y506258D03*
X222925Y506258D03*
X233075Y506258D03*
X553125Y533858D03*
X563275Y533858D03*
M02*
